<svg preserveAspectRatio="none" width="100%" height="100%" overflow="visible" style="display: block;" viewBox="0 0 20 20" fill="none" xmlns="http://www.w3.org/2000/svg">
<path id="Vector" fill-rule="evenodd" clip-rule="evenodd" d="M1.66667 0C0.746189 0 0 0.746189 0 1.66667V18.3333C0 19.2538 0.746189 20 1.66667 20H18.3333C19.2538 20 20 19.2538 20 18.3333V1.66667C20 0.746189 19.2538 0 18.3333 0H1.66667ZM6.13418 4.44747C6.14043 5.50997 5.34512 6.16466 4.40137 6.15997C3.5123 6.15528 2.7373 5.44747 2.74199 4.44903C2.74668 3.50997 3.48887 2.75528 4.45293 2.77716C5.43106 2.79903 6.14043 3.51622 6.13418 4.44747ZM10.3108 7.51307H7.51079H7.50922V17.024H10.4686V16.8021C10.4686 16.38 10.4682 15.9578 10.4679 15.5354C10.467 14.409 10.466 13.2813 10.4718 12.1552C10.4733 11.8818 10.4858 11.5974 10.5561 11.3364C10.8201 10.3614 11.6968 9.73178 12.6749 9.88656C13.303 9.98489 13.7186 10.349 13.8936 10.9412C14.0014 11.3114 14.0499 11.7099 14.0546 12.0959C14.0672 13.2599 14.0654 14.4239 14.0637 15.588C14.063 15.9989 14.0623 16.41 14.0623 16.8209V17.0224H17.0311V16.7943C17.0311 16.2921 17.0309 15.79 17.0306 15.2879C17.03 14.0329 17.0293 12.7779 17.0327 11.5224C17.0342 10.9552 16.9733 10.3959 16.8342 9.84745C16.6264 9.03178 16.1968 8.35678 15.4983 7.86933C15.003 7.52243 14.4592 7.299 13.8514 7.274C13.7822 7.27112 13.7124 7.26736 13.6423 7.26357C13.3316 7.24677 13.0157 7.2297 12.7186 7.28962C11.8686 7.45993 11.1218 7.849 10.5577 8.53489C10.4921 8.61356 10.428 8.69345 10.3323 8.81267L10.3108 8.83967V7.51307ZM2.9796 17.0271H5.92491V7.51926H2.9796V17.0271Z" fill="white"/>
</svg>
