<svg preserveAspectRatio="none" width="100%" height="100%" overflow="visible" style="display: block;" viewBox="0 0 20 16" fill="none" xmlns="http://www.w3.org/2000/svg">
<path id="Vector" d="M19.5931 2.51556C19.4793 2.03301 19.2569 1.59293 18.948 1.23914C18.639 0.885341 18.2544 0.630165 17.8324 0.499009C16.2675 0.00800157 10.0069 8.67426e-06 10.0069 8.67426e-06C10.0069 8.67426e-06 3.74735 -0.0079847 2.18146 0.461327C1.75968 0.598519 1.37585 0.857304 1.06681 1.21284C0.757775 1.56837 0.533909 2.00871 0.416707 2.49158C0.00399882 4.27976 1.46411e-06 7.98858 1.46411e-06 7.98858C1.46411e-06 7.98858 -0.00399569 11.7157 0.405714 13.4856C0.635552 14.4642 1.31008 15.2372 2.16747 15.501C3.74835 15.992 9.99193 16 9.99193 16C9.99193 16 16.2525 16.008 17.8174 15.5398C18.2396 15.4089 18.6246 15.1543 18.9343 14.8012C19.2439 14.4482 19.4676 14.0088 19.5831 13.5267C19.9969 11.7396 19.9999 8.03197 19.9999 8.03197C19.9999 8.03197 20.0198 4.30374 19.5931 2.51556ZM8.00434 11.4245L8.00934 4.57323L13.2127 8.00457L8.00434 11.4245Z" fill="white"/>
</svg>
