<svg width="100%" height="100%" overflow="visible" style="display: block;" viewBox="0 0 67 40" fill="none" xmlns="http://www.w3.org/2000/svg">
<g id="Amazon_Web_Services" clip-path="url(#clip0_0_273)">
<g id="Vector">
<path d="M18.9084 14.6187C18.9084 15.4284 18.9959 16.0849 19.1491 16.5664C19.3242 17.0478 19.543 17.573 19.8494 18.142C19.9588 18.3171 20.0026 18.4922 20.0026 18.6454C20.0026 18.8642 19.8713 19.0831 19.5868 19.3019L18.2081 20.2211C18.0111 20.3524 17.8142 20.418 17.6391 20.418C17.4202 20.418 17.2014 20.3086 16.9825 20.1116C16.6762 19.7834 16.4136 19.4332 16.1947 19.0831C15.9759 18.711 15.757 18.2952 15.5163 17.7919C13.8093 19.8053 11.6646 20.8119 9.08227 20.8119C7.24398 20.8119 5.77772 20.2867 4.70538 19.2363C3.63305 18.1858 3.08594 16.7852 3.08594 15.0345C3.08594 13.1743 3.74247 11.6643 5.07742 10.5263C6.41237 9.38828 8.18501 8.81928 10.4391 8.81928C11.1832 8.81928 11.9491 8.88493 12.7589 8.99436C13.5686 9.10378 14.4002 9.27885 15.2756 9.47581V7.87825C15.2756 6.21503 14.9254 5.05516 14.247 4.37674C13.5467 3.69833 12.3649 3.37006 10.6798 3.37006C9.91388 3.37006 9.12604 3.4576 8.31631 3.65456C7.50659 3.85152 6.71875 4.09225 5.9528 4.39863C5.60265 4.55182 5.34003 4.63936 5.18684 4.68312C5.03365 4.72689 4.92423 4.74878 4.83669 4.74878C4.53031 4.74878 4.37712 4.52993 4.37712 4.07036V2.99802C4.37712 2.64787 4.42089 2.38526 4.53031 2.23207C4.63973 2.07888 4.83669 1.92569 5.14307 1.7725C5.90903 1.37858 6.82817 1.05031 7.90051 0.787698C8.97285 0.5032 10.1108 0.371894 11.3145 0.371894C13.9187 0.371894 15.8227 0.962773 17.0482 2.14453C18.2518 3.32629 18.8646 5.12081 18.8646 7.5281V14.6187H18.9084ZM10.0233 17.9451C10.7455 17.9451 11.4896 17.8138 12.2774 17.5512C13.0652 17.2886 13.7655 16.8071 14.3564 16.1506C14.7066 15.7348 14.9692 15.2752 15.1005 14.75C15.2318 14.2247 15.3193 13.5901 15.3193 12.846V11.9269C14.6847 11.7737 14.0063 11.6424 13.306 11.5548C12.6057 11.4673 11.9272 11.4235 11.2488 11.4235C9.78257 11.4235 8.71023 11.708 7.98805 12.2989C7.26586 12.8898 6.91571 13.7214 6.91571 14.8156C6.91571 15.8442 7.17832 16.6101 7.72543 17.1354C8.25066 17.6825 9.01661 17.9451 10.0233 17.9451ZM27.5965 20.3086C27.2026 20.3086 26.94 20.2429 26.7649 20.0898C26.5898 19.9585 26.4366 19.6521 26.3053 19.2363L21.1625 2.31961C21.0312 1.88192 20.9655 1.59742 20.9655 1.44423C20.9655 1.09408 21.1406 0.89712 21.4907 0.89712H23.6354C24.0512 0.89712 24.3357 0.962773 24.4889 1.11596C24.664 1.24727 24.7953 1.55365 24.9266 1.96946L28.6032 16.4569L32.0171 1.96946C32.1266 1.53177 32.2579 1.24727 32.4329 1.11596C32.608 0.984658 32.9144 0.89712 33.3083 0.89712H35.0591C35.4749 0.89712 35.7594 0.962773 35.9345 1.11596C36.1095 1.24727 36.2627 1.55365 36.3503 1.96946L39.808 16.632L43.594 1.96946C43.7253 1.53177 43.8785 1.24727 44.0317 1.11596C44.2068 0.984658 44.4913 0.89712 44.8852 0.89712H46.9204C47.2706 0.89712 47.4675 1.0722 47.4675 1.44423C47.4675 1.55365 47.4457 1.66307 47.4238 1.79438C47.4019 1.92569 47.3581 2.10076 47.2706 2.34149L41.9964 19.2581C41.8651 19.6958 41.7119 19.9803 41.5369 20.1116C41.3618 20.2429 41.0773 20.3305 40.7053 20.3305H38.8232C38.4074 20.3305 38.1229 20.2648 37.9478 20.1116C37.7727 19.9584 37.6196 19.674 37.532 19.2363L34.1399 5.12081L30.7697 19.2144C30.6603 19.6521 30.529 19.9366 30.3539 20.0898C30.1789 20.2429 29.8725 20.3086 29.4785 20.3086H27.5965ZM55.718 20.8995C54.58 20.8995 53.442 20.7682 52.3478 20.5056C51.2535 20.2429 50.4001 19.9585 49.8311 19.6302C49.4809 19.4332 49.2402 19.2144 49.1526 19.0174C49.0651 18.8205 49.0213 18.6016 49.0213 18.4047V17.2886C49.0213 16.829 49.1964 16.6101 49.5247 16.6101C49.656 16.6101 49.7873 16.632 49.9186 16.6758C50.0499 16.7196 50.2469 16.8071 50.4657 16.8946C51.2098 17.2229 52.0195 17.4855 52.873 17.6606C53.7484 17.8357 54.6019 17.9232 55.4772 17.9232C56.856 17.9232 57.9283 17.6825 58.6724 17.201C59.4164 16.7196 59.8104 16.0193 59.8104 15.122C59.8104 14.5092 59.6134 14.0059 59.2195 13.5901C58.8256 13.1743 58.0815 12.8022 57.0091 12.4521L53.8359 11.4673C52.2383 10.964 51.0566 10.2199 50.3344 9.23508C49.6122 8.27217 49.2402 7.19983 49.2402 6.06184C49.2402 5.1427 49.4371 4.33297 49.8311 3.63267C50.225 2.93237 50.7502 2.31961 51.4067 1.83815C52.0633 1.33481 52.8073 0.962773 53.6827 0.70016C54.5581 0.437547 55.4772 0.328125 56.4402 0.328125C56.9216 0.328125 57.425 0.350009 57.9064 0.415663C58.4098 0.481316 58.8693 0.568854 59.3289 0.656391C59.7666 0.765813 60.1824 0.875235 60.5763 1.00654C60.9702 1.13785 61.2766 1.26916 61.4955 1.40046C61.8018 1.57554 62.0207 1.75061 62.152 1.94757C62.2833 2.12265 62.3489 2.36338 62.3489 2.66976V3.69833C62.3489 4.1579 62.1739 4.39863 61.8456 4.39863C61.6705 4.39863 61.386 4.31109 61.014 4.13601C59.7666 3.56702 58.366 3.28252 56.8122 3.28252C55.5648 3.28252 54.58 3.47948 53.9016 3.89529C53.2231 4.31109 52.873 4.94574 52.873 5.843C52.873 6.45576 53.0918 6.98099 53.5295 7.39679C53.9672 7.8126 54.7769 8.2284 55.9368 8.60044L59.0444 9.58524C60.6201 10.0886 61.7581 10.7889 62.4365 11.6861C63.1149 12.5834 63.4432 13.612 63.4432 14.75C63.4432 15.691 63.2462 16.5445 62.8742 17.2886C62.4803 18.0326 61.955 18.6892 61.2766 19.2144C60.5982 19.7615 59.7885 20.1554 58.8474 20.4399C57.8626 20.7463 56.8341 20.8995 55.718 20.8995Z" fill="#DBDBDB"/>
<path fill-rule="evenodd" clip-rule="evenodd" d="M59.8521 31.5382C52.6522 36.8561 42.1914 39.6792 33.1969 39.6792C20.5915 39.6792 9.23348 35.0179 0.654785 27.2708C-0.0236316 26.658 0.589132 25.8264 1.39886 26.3079C10.6779 31.6914 22.1234 34.9522 33.9629 34.9522C41.9507 34.9522 50.7263 33.289 58.8017 29.875C60.0053 29.3279 61.0339 30.6629 59.8521 31.5382Z" fill="#DBDBDB"/>
<path fill-rule="evenodd" clip-rule="evenodd" d="M62.8513 28.1219C61.9322 26.9401 56.7675 27.5529 54.4258 27.8374C53.7255 27.9249 53.6161 27.3121 54.2508 26.8526C58.365 23.9638 65.1273 24.7954 65.9152 25.7583C66.703 26.7431 65.6963 33.5054 61.8447 36.7443C61.2538 37.2477 60.6848 36.985 60.9474 36.3285C61.8228 34.162 63.7705 29.2817 62.8513 28.1219Z" fill="#DBDBDB"/>
</g>
</g>
<defs>
<clipPath id="clip0_0_273">
<rect width="67" height="40" fill="white"/>
</clipPath>
</defs>
</svg>
