<svg width="100%" height="100%" overflow="visible" style="display: block;" viewBox="0 0 129 38" fill="none" xmlns="http://www.w3.org/2000/svg">
<g id="Microsoft_Azure">
<path id="Vector" d="M22.0992 36.0241C28.2365 34.9399 33.3055 34.0428 33.3637 34.0304L33.4695 34.008L27.6754 27.116C24.4886 23.3254 21.8812 20.2093 21.8812 20.1914C21.8812 20.1574 27.8642 3.6816 27.8978 3.62299C27.9091 3.60339 31.9807 10.6329 37.7676 20.6629C43.1855 30.0532 47.6522 37.7955 47.6937 37.8681L47.7692 38L10.9406 37.9953L22.0992 36.0241ZM92.7159 34.3573C89.9129 34.1776 88.2827 32.5815 87.8507 29.5939C87.7357 28.7992 87.7353 28.7786 87.7235 23.6192L87.7122 18.6257H90.1932L90.203 23.4557C90.2118 27.8088 90.2173 28.3191 90.259 28.6254C90.4279 29.8682 90.7641 30.7039 91.3366 31.3038C91.7948 31.7839 92.3311 32.065 93.0736 32.2142C93.4239 32.2846 94.4203 32.2847 94.7397 32.2145C95.4924 32.0488 96.0957 31.7213 96.6279 31.1893C97.2345 30.5829 97.6832 29.7226 97.9004 28.7498L97.9735 28.4219L97.9898 18.6803H100.523V33.9944H98.0159V32.7795C98.0159 31.9541 98.0069 31.5677 97.9877 31.5741C97.9722 31.5792 97.9078 31.6777 97.8447 31.7929C97.4127 32.5807 96.693 33.3011 95.9044 33.7351C94.9592 34.2554 94.0112 34.4403 92.7159 34.3573ZM121.167 34.3449C120.177 34.2705 119.135 33.9303 118.284 33.4036C116.489 32.2934 115.427 30.4634 115.116 27.945C115.009 27.0735 114.996 25.9029 115.085 25.1624C115.286 23.5078 115.936 21.8835 116.862 20.7239C117.1 20.4266 117.638 19.8882 117.935 19.6509C118.738 19.01 119.677 18.5618 120.674 18.3437C121.255 18.2166 122.277 18.157 122.895 18.2142C124.445 18.3578 125.866 19.0877 126.831 20.2365C127.812 21.4037 128.352 23.0347 128.421 25.0429C128.431 25.3577 128.434 25.9095 128.426 26.2692L128.413 26.9231L117.554 26.9369V27.1792C117.554 27.9168 117.733 28.7568 118.043 29.4716C118.31 30.088 118.771 30.761 119.147 31.0867C119.92 31.7546 120.865 32.1543 121.9 32.2505C122.284 32.2862 123.261 32.2486 123.698 32.1815C124.946 31.9898 126.132 31.5006 127.089 30.7826C127.202 30.6982 127.31 30.6192 127.329 30.6072C127.357 30.5897 127.363 30.8104 127.363 31.7381L127.362 32.8907L127.105 33.0494C126.022 33.7194 124.781 34.1496 123.467 34.3107C123.075 34.3587 121.636 34.3801 121.167 34.3449ZM125.892 24.6235C125.892 23.388 125.371 22.0155 124.635 21.3087C124.109 20.8044 123.473 20.4962 122.717 20.3791C122.36 20.3237 121.607 20.3451 121.23 20.4212C120.433 20.5822 119.774 20.9325 119.199 21.5005C118.594 22.0983 118.14 22.8244 117.855 23.6516C117.753 23.9491 117.633 24.4375 117.595 24.7091L117.578 24.8386H125.892V24.6235ZM52.2427 33.9603C52.2491 33.9415 54.0928 29.098 56.3399 23.1969L60.4254 12.4675L63.0509 12.4674L63.1598 12.7467C63.4926 13.6002 71.3388 33.9711 71.3388 33.9817C71.3388 33.9886 70.7104 33.9942 69.9423 33.9941L68.5458 33.9939L66.2841 27.9723L57.1774 27.9722L57.1379 28.0743C57.1161 28.1305 56.6329 29.4853 56.0642 31.0849L55.0301 33.9933L53.6306 33.9938C52.5229 33.9942 52.2336 33.9872 52.2427 33.9603ZM65.453 25.6746C65.453 25.6698 64.6919 23.6067 63.7618 21.0899C62.0217 16.3814 61.9243 16.0981 61.7869 15.3422C61.7224 14.9877 61.6898 14.9778 61.6515 15.3013C61.6242 15.5325 61.5056 16.0498 61.4141 16.3368C61.3687 16.4791 60.5851 18.6299 59.6728 21.1161C58.7604 23.6024 58.0139 25.6472 58.0139 25.66C58.0139 25.6728 59.6877 25.6833 61.7334 25.6833C63.7792 25.6833 65.453 25.6794 65.453 25.6746ZM72.1835 33.2101L81.2565 20.7375L73.0419 20.7103L73.0276 18.6257H84.909V19.3298L80.372 25.6001C77.8766 29.0487 75.835 31.8762 75.835 31.8833C75.835 31.8903 77.8521 31.8961 80.3175 31.8961H84.8V33.9943H72.1835V33.2101ZM105.473 33.9762C105.463 33.9662 105.455 30.5082 105.455 26.2919V18.6257H107.935V20.2062C107.935 21.0754 107.945 21.7866 107.958 21.7866C107.971 21.7866 108.031 21.6443 108.092 21.4704C108.371 20.6735 108.854 19.9289 109.477 19.3371C110.038 18.804 110.68 18.4851 111.436 18.3631C111.649 18.3289 111.829 18.3223 112.254 18.3334C112.788 18.3473 113.067 18.3863 113.391 18.4925L113.494 18.5259V21.0997L113.201 20.9531C112.683 20.6941 112.173 20.5916 111.559 20.6235C111.159 20.6443 110.897 20.6956 110.578 20.8154C109.921 21.062 109.388 21.4973 109.015 22.0914C108.476 22.9515 108.092 24.0571 107.978 25.0732C107.958 25.2556 107.946 26.7407 107.941 29.6685L107.934 33.9943H106.713C106.041 33.9943 105.483 33.9862 105.473 33.9762ZM0 33.9223C0 33.9126 2.73018 29.1733 6.06706 23.3904L12.1341 12.8761L19.2046 6.94254C23.0933 3.67909 26.2855 1.00501 26.2983 1.00013C26.3111 0.995258 26.26 1.12401 26.1846 1.28625C26.1093 1.44849 22.6544 8.85886 18.5071 17.7537L10.9665 33.9262L5.48327 33.9331C2.46747 33.9369 0 33.932 0 33.9223Z" fill="#DBDBDB"/>
</g>
</svg>
