<svg width="100%" height="100%" overflow="visible" style="display: block;" viewBox="0 0 67.4768 22.0607" fill="none" xmlns="http://www.w3.org/2000/svg">
<g id="g885">
<path id="path8" d="M16.6825 7.7705H8.84287V10.0993H14.4168C14.1393 13.3696 11.4196 14.7568 8.85548 14.7568C8.04943 14.7623 7.25021 14.6087 6.50365 14.3047C5.7571 14.0007 5.0779 13.5523 4.505 12.9853C3.9321 12.4182 3.47677 11.7437 3.16512 11.0003C2.85347 10.2569 2.69163 9.45931 2.68888 8.65324V8.54815C2.6749 7.73199 2.82387 6.92124 3.12708 6.16336C3.4303 5.40548 3.88165 4.7157 4.45473 4.13441C5.0278 3.55312 5.71108 3.09198 6.46456 2.77801C7.21804 2.46404 8.02659 2.30353 8.84287 2.30589C10.4124 2.30787 11.9197 2.91983 13.0464 4.01253L14.6774 2.33111C13.8935 1.57379 12.9681 0.978339 11.954 0.578763C10.9399 0.179187 9.85701 -0.0166819 8.76721 0.002344C7.62051 -0.0244851 6.4801 0.179231 5.41362 0.601413C4.34713 1.02359 3.37629 1.65564 2.55866 2.46007C1.74103 3.26451 1.09326 4.22494 0.653781 5.28441C0.2143 6.34389 -0.0079475 7.48083 0.000217054 8.62781C0.0083816 9.77479 0.246793 10.9084 0.701312 11.9616C1.15583 13.0147 1.8172 13.9658 2.6462 14.7585C3.4752 15.5512 4.45495 16.1694 5.52734 16.5763C6.59972 16.9833 7.74291 17.1707 8.88911 17.1276C13.4668 17.1192 16.8296 13.9791 16.8296 9.33422C16.8397 8.81487 16.7917 8.29602 16.6867 7.78731L16.6825 7.7705Z" fill="#DBDBDB"/>
<path id="path10" d="M23.1347 6.08705C22.419 6.07257 21.7074 6.19951 21.0408 6.4606C20.3743 6.72169 19.7658 7.1118 19.2503 7.60854C18.7348 8.10529 18.3224 8.69891 18.0368 9.35536C17.7513 10.0118 17.5981 10.7182 17.586 11.434V11.5517C17.5777 13.0182 18.1523 14.428 19.1834 15.4709C20.2145 16.5138 21.6177 17.1044 23.0843 17.1128C24.5508 17.1211 25.9606 16.5466 27.0036 15.5155C28.0465 14.4844 28.6371 13.0813 28.6456 11.6147C28.6456 7.96604 25.7829 6.08705 23.1347 6.08705ZM23.1641 8.25608C24.7489 8.25608 26.2495 9.51715 26.2495 11.6189C26.2495 13.7207 24.7531 14.9565 23.1557 14.9565C21.3986 14.9565 20.0115 13.5483 20.0115 11.5937C20.0115 9.63905 21.3776 8.26449 23.1599 8.26449L23.1641 8.25608Z" fill="#DBDBDB"/>
<path id="path12" d="M35.1569 6.08674C34.4426 6.07449 33.7328 6.20309 33.0682 6.46518C32.4036 6.72728 31.7971 7.11774 31.2834 7.61427C30.7697 8.1108 30.3588 8.70366 30.0743 9.359C29.7898 10.0143 29.6371 10.7193 29.6251 11.4336V11.5513C29.6173 13.0175 30.1922 14.4268 31.2232 15.4692C32.2543 16.5117 33.6571 17.102 35.1233 17.1104C36.5895 17.1187 37.999 16.5445 39.0419 15.5138C40.0848 14.4832 40.6756 13.0806 40.6846 11.6144C40.6846 7.96993 37.8178 6.09094 35.1611 6.09094L35.1569 6.08674ZM35.1906 8.25577C36.7753 8.25577 38.276 9.51683 38.276 11.6186C38.276 13.7204 36.7795 14.9562 35.1822 14.9562C33.4251 14.9562 32.0379 13.548 32.0379 11.5934C32.0379 9.63873 33.4041 8.26417 35.1864 8.26417L35.1906 8.25577Z" fill="#DBDBDB"/>
<path id="path14" d="M46.9603 6.08718C44.0178 6.08718 41.6764 8.67656 41.6764 11.5896C41.6546 13.0102 42.1903 14.3827 43.1686 15.4129C44.147 16.4431 45.49 17.049 46.9098 17.1005C47.4834 17.1306 48.0559 17.0244 48.5805 16.7906C49.1051 16.5567 49.5669 16.202 49.928 15.7553V16.8441C49.928 18.7441 48.7762 19.8874 47.0359 19.8874C46.4245 19.8797 45.8294 19.6889 45.3275 19.3398C44.8255 18.9906 44.4396 18.4991 44.2196 17.9286L42.1178 18.8029C42.8534 20.3792 44.3625 22.0607 47.0528 22.0607C49.9952 22.0607 52.2441 20.2069 52.2441 16.3228V6.42346H49.928V7.34824C49.5521 6.93821 49.0928 6.61349 48.5809 6.39596C48.0689 6.17842 47.5163 6.07313 46.9603 6.08718ZM47.1747 8.23519C48.6249 8.23519 50.1171 9.47524 50.1171 11.598C50.1171 13.7208 48.6291 14.9146 47.141 14.9146C45.5647 14.9146 44.0977 13.6536 44.0977 11.6022C44.0977 9.50046 45.6236 8.23939 47.1789 8.23939L47.1747 8.23519Z" fill="#DBDBDB"/>
<path id="path16" d="M62.4956 6.08594C59.7044 6.08594 57.3589 8.30541 57.3589 11.5842C57.3331 12.3058 57.4544 13.025 57.7153 13.6983C57.9762 14.3715 58.3712 14.9847 58.8764 15.5005C59.3817 16.0164 59.9865 16.4241 60.6542 16.6989C61.3219 16.9737 62.0385 17.1099 62.7604 17.0992C63.6697 17.1034 64.5663 16.8854 65.3721 16.4642C66.178 16.0429 66.8687 15.4312 67.3843 14.6822L65.4801 13.4211C65.2054 13.8876 64.8123 14.2733 64.3406 14.539C63.8689 14.8047 63.3354 14.9411 62.794 14.9344C62.2275 14.9568 61.6673 14.8085 61.1861 14.5087C60.7049 14.2089 60.3249 13.7714 60.0954 13.253L67.4768 10.1928L67.0943 9.29745C66.7389 8.36388 66.1114 7.55859 65.2929 6.98596C64.4744 6.41333 63.5028 6.09977 62.504 6.08594H62.4956ZM62.5923 8.18771C63.0087 8.17046 63.4215 8.27195 63.7824 8.48034C64.1434 8.68873 64.4377 8.99544 64.631 9.3647L59.7002 11.4328C59.4858 9.8355 60.9991 8.19612 62.5923 8.19612V8.18771Z" fill="#DBDBDB"/>
<path id="path18" d="M53.8438 16.7762H56.2692V0.554688H53.8438V16.7762Z" fill="#DBDBDB"/>
</g>
</svg>
