<svg width="100%" height="100%" overflow="visible" style="display: block;" viewBox="0 0 47.5288 42" fill="none" xmlns="http://www.w3.org/2000/svg">
<g id="g877">
<path id="path20" d="M10.7524 40.4537L0.414316 22.5463C0.142892 22.0761 0 21.5428 0 21C0 20.4572 0.142892 19.9239 0.414316 19.4537L10.7524 1.54625C11.0235 1.07677 11.4132 0.686788 11.8825 0.415402C12.3518 0.144016 12.8842 0.000761686 13.4263 0H34.1137C34.6539 0.00271292 35.184 0.146891 35.6511 0.418179C36.1183 0.689468 36.5063 1.0784 36.7764 1.54625L47.1145 19.4537C47.3859 19.9239 47.5288 20.4572 47.5288 21C47.5288 21.5428 47.3859 22.0761 47.1145 22.5463L36.7764 40.4537C36.5053 40.9232 36.1156 41.3132 35.6463 41.5846C35.177 41.856 34.6446 41.9992 34.1025 42H13.4207C12.8795 41.9983 12.3483 41.8545 11.8801 41.5832C11.4118 41.3119 11.023 40.9224 10.7524 40.4537Z" fill="#DBDBDB"/>
<path id="path22" opacity="0.1" d="M30.2215 15.2344C30.2215 15.2344 33.0963 22.1283 29.1776 26.0358C25.259 29.9433 18.125 27.4425 18.125 27.4425C18.125 27.4425 28.7311 38.1881 32.6386 41.9951H34.1122C34.6544 41.9944 35.1867 41.8511 35.656 41.5797C36.1253 41.3084 36.515 40.9184 36.7861 40.4489L43.6298 28.598L30.2215 15.2344Z" fill="#0A0A0A"/>
<path id="path24" d="M33.6134 29.3381L30.4371 26.1619C30.4027 26.1264 30.3632 26.0963 30.3199 26.0725C31.6639 24.3335 32.2943 22.1474 32.0825 19.9598C31.8708 17.7721 30.8328 15.7475 29.1802 14.2986C27.5276 12.8496 25.3846 12.0853 23.1881 12.1614C20.9915 12.2375 18.9067 13.1483 17.3583 14.7082C15.8099 16.2681 14.9146 18.3597 14.8548 20.5567C14.7949 22.7538 15.5751 24.891 17.0362 26.5328C18.4974 28.1747 20.5296 29.1976 22.7188 29.3931C24.9079 29.5887 27.0893 28.9422 28.8183 27.5853C28.8408 27.6263 28.869 27.6639 28.9021 27.697L32.0783 30.8732C32.1244 30.9194 32.1793 30.9561 32.2396 30.9812C32.2999 31.0062 32.3646 31.0191 32.43 31.0191C32.4953 31.0191 32.56 31.0062 32.6203 30.9812C32.6807 30.9561 32.7355 30.9194 32.7816 30.8732L33.6134 30.0414C33.6596 29.9953 33.6963 29.9405 33.7214 29.8801C33.7464 29.8198 33.7593 29.7551 33.7593 29.6898C33.7593 29.6244 33.7464 29.5597 33.7214 29.4994C33.6963 29.4391 33.6596 29.3842 33.6134 29.3381ZM23.493 27.2839C22.2079 27.2839 20.9516 26.9028 19.8831 26.1888C18.8146 25.4749 17.9817 24.4601 17.49 23.2728C16.9982 22.0855 16.8695 20.7791 17.1202 19.5186C17.3709 18.2582 17.9898 17.1005 18.8985 16.1918C19.8072 15.2831 20.9649 14.6642 22.2253 14.4135C23.4858 14.1628 24.7922 14.2915 25.9795 14.7833C27.1668 15.275 28.1816 16.1079 28.8955 17.1764C29.6095 18.2449 29.9906 19.5012 29.9906 20.7863C29.9906 21.6395 29.8225 22.4845 29.496 23.2728C29.1694 24.0611 28.6908 24.7774 28.0875 25.3808C27.4841 25.9841 26.7678 26.4627 25.9795 26.7893C25.1912 27.1158 24.3462 27.2839 23.493 27.2839Z" fill="#DBDBDB"/>
<path id="path26" d="M19.3477 20.4425V23.1275C19.7614 23.8578 20.3601 24.4662 21.0837 24.8915V20.4258L19.3477 20.4425Z" fill="#DBDBDB"/>
<path id="path28" d="M19.3477 20.4425V23.1275C19.7614 23.8578 20.3601 24.4662 21.0837 24.8915V20.4258L19.3477 20.4425Z" fill="#DBDBDB"/>
<path id="path30" d="M22.5898 18.2148V25.4716C23.1637 25.5774 23.752 25.5774 24.3259 25.4716V18.2148H22.5898Z" fill="#DBDBDB"/>
<path id="path32" d="M22.5898 18.2148V25.4716C23.1637 25.5774 23.752 25.5774 24.3259 25.4716V18.2148H22.5898Z" fill="#DBDBDB"/>
<path id="path34" d="M27.611 23.1222V21.5312H25.875V24.8805C26.5978 24.4568 27.1965 23.8504 27.611 23.1222Z" fill="#DBDBDB"/>
<path id="path36" d="M27.611 23.1222V21.5312H25.875V24.8805C26.5978 24.4568 27.1965 23.8504 27.611 23.1222Z" fill="#DBDBDB"/>
</g>
</svg>
