<svg width="124" height="42" viewBox="0 0 124 42" fill="none" xmlns="http://www.w3.org/2000/svg">
  <!-- Icon -->
  <g transform="translate(0.16, 0)">
    <path d="M10.7524 40.4537L0.414316 22.5463C0.142892 22.0761 0 21.5428 0 21C0 20.4572 0.142892 19.9239 0.414316 19.4537L10.7524 1.54625C11.0235 1.07677 11.4132 0.686788 11.8825 0.415402C12.3518 0.144016 12.8842 0.000761686 13.4263 0H34.1137C34.6539 0.00271292 35.184 0.146891 35.6511 0.418179C36.1183 0.689468 36.5063 1.0784 36.7764 1.54625L47.1145 19.4537C47.3859 19.9239 47.5288 20.4572 47.5288 21C47.5288 21.5428 47.3859 22.0761 47.1145 22.5463L36.7764 40.4537C36.5053 40.9232 36.1156 41.3132 35.6463 41.5846C35.177 41.856 34.6446 41.9992 34.1025 42H13.4207C12.8795 41.9983 12.3483 41.8545 11.8801 41.5832C11.4118 41.3119 11.023 40.9224 10.7524 40.4537Z" fill="#ADADAD"/>
    <path opacity="0.1" d="M30.2215 15.2344C30.2215 15.2344 33.0963 22.1283 29.1776 26.0358C25.259 29.9433 18.125 27.4425 18.125 27.4425C18.125 27.4425 28.7311 38.1881 32.6386 41.9951H34.1122C34.6544 41.9944 35.1867 41.8511 35.656 41.5797C36.1253 41.3084 36.515 40.9184 36.7861 40.4489L43.6298 28.598L30.2215 15.2344Z" fill="#0A0A0A"/>
    <path d="M33.6134 29.3381L30.4371 26.1619C30.4027 26.1264 30.3632 26.0963 30.3199 26.0725C31.6639 24.3335 32.2943 22.1474 32.0825 19.9598C31.8708 17.7721 30.8328 15.7475 29.1802 14.2986C27.5276 12.8496 25.3846 12.0853 23.1881 12.1614C20.9915 12.2375 18.9067 13.1483 17.3583 14.7082C15.8099 16.2681 14.9146 18.3597 14.8548 20.5567C14.7949 22.7538 15.5751 24.891 17.0362 26.5328C18.4974 28.1747 20.5296 29.1976 22.7188 29.3931C24.9079 29.5887 27.0893 28.9422 28.8183 27.5853C28.8408 27.6263 28.869 27.6639 28.9021 27.697L32.0783 30.8732C32.1244 30.9194 32.1793 30.9561 32.2396 30.9812C32.2999 31.0062 32.3646 31.0191 32.43 31.0191C32.4953 31.0191 32.56 31.0062 32.6203 30.9812C32.6807 30.9561 32.7355 30.9194 32.7816 30.8732L33.6134 30.0414C33.6596 29.9953 33.6963 29.9405 33.7214 29.8801C33.7464 29.8198 33.7593 29.7551 33.7593 29.6898C33.7593 29.6244 33.7464 29.5597 33.7214 29.4994C33.6963 29.4391 33.6596 29.3842 33.6134 29.3381ZM23.493 27.2839C22.2079 27.2839 20.9516 26.9028 19.8831 26.1888C18.8146 25.4749 17.9817 24.4601 17.49 23.2728C16.9982 22.0855 16.8695 20.7791 17.1202 19.5186C17.3709 18.2582 17.9898 17.1005 18.8985 16.1918C19.8072 15.2831 20.9649 14.6642 22.2253 14.4135C23.4858 14.1628 24.7922 14.2915 25.9795 14.7833C27.1668 15.275 28.1816 16.1079 28.8955 17.1764C29.6095 18.2449 29.9906 19.5012 29.9906 20.7863C29.9906 21.6395 29.8225 22.4845 29.496 23.2728C29.1694 24.0611 28.6908 24.7774 28.0875 25.3808C27.4841 25.9841 26.7678 26.4627 25.9795 26.7893C25.1912 27.1158 24.3462 27.2839 23.493 27.2839Z" fill="#DBDBDB"/>
    <path d="M19.3477 20.4425V23.1275C19.7614 23.8578 20.3601 24.4662 21.0837 24.8915V20.4258L19.3477 20.4425Z" fill="#DBDBDB"/>
    <path d="M22.5898 18.2148V25.4716C23.1637 25.5774 23.752 25.5774 24.3259 25.4716V18.2148H22.5898Z" fill="#DBDBDB"/>
    <path d="M27.611 23.1222V21.5312H25.875V24.8805C26.5978 24.4568 27.1965 23.8504 27.611 23.1222Z" fill="#DBDBDB"/>
  </g>
  <!-- Top text (BigQuery) -->
  <g transform="translate(55.73, 1.55)">
    <path d="M16.6825 7.7705H8.84287V10.0993H14.4168C14.1393 13.3696 11.4196 14.7568 8.85548 14.7568C8.04943 14.7623 7.25021 14.6087 6.50365 14.3047C5.7571 14.0007 5.0779 13.5523 4.505 12.9853C3.9321 12.4182 3.47677 11.7437 3.16512 11.0003C2.85347 10.2569 2.69163 9.45931 2.68888 8.65324V8.54815C2.6749 7.73199 2.82387 6.92124 3.12708 6.16336C3.4303 5.40548 3.88165 4.7157 4.45473 4.13441C5.0278 3.55312 5.71108 3.09198 6.46456 2.77801C7.21804 2.46404 8.02659 2.30353 8.84287 2.30589C10.4124 2.30787 11.9197 2.91983 13.0464 4.01253L14.6774 2.33111C13.8935 1.57379 12.9681 0.978339 11.954 0.578763C10.9399 0.179187 9.85701 -0.0166819 8.76721 0.002344C7.62051 -0.0244851 6.4801 0.179231 5.41362 0.601413C4.34713 1.02359 3.37629 1.65564 2.55866 2.46007C1.74103 3.26451 1.09326 4.22494 0.653781 5.28441C0.2143 6.34389 -0.0079475 7.48083 0.000217054 8.62781C0.0083816 9.77479 0.246793 10.9084 0.701312 11.9616C1.15583 13.0147 1.8172 13.9658 2.6462 14.7585C3.4752 15.5512 4.45495 16.1694 5.52734 16.5763C6.59972 16.9833 7.74291 17.1707 8.88911 17.1276C13.4668 17.1192 16.8296 13.9791 16.8296 9.33422C16.8397 8.81487 16.7917 8.29602 16.6867 7.78731L16.6825 7.7705Z" fill="#DBDBDB"/>
    <path d="M23.1347 6.08705C22.419 6.07257 21.7074 6.19951 21.0408 6.4606C20.3743 6.72169 19.7658 7.1118 19.2503 7.60854C18.7348 8.10529 18.3224 8.69891 18.0368 9.35536C17.7513 10.0118 17.5981 10.7182 17.586 11.434V11.5517C17.5777 13.0182 18.1523 14.428 19.1834 15.4709C20.2145 16.5138 21.6177 17.1044 23.0843 17.1128C24.5508 17.1211 25.9606 16.5466 27.0036 15.5155C28.0465 14.4844 28.6371 13.0813 28.6456 11.6147C28.6456 7.96604 25.7829 6.08705 23.1347 6.08705ZM23.1641 8.25608C24.7489 8.25608 26.2495 9.51715 26.2495 11.6189C26.2495 13.7207 24.7531 14.9565 23.1557 14.9565C21.3986 14.9565 20.0115 13.5483 20.0115 11.5937C20.0115 9.63905 21.3776 8.26449 23.1599 8.26449L23.1641 8.25608Z" fill="#DBDBDB"/>
    <path d="M35.1569 6.08674C34.4426 6.07449 33.7328 6.20309 33.0682 6.46518C32.4036 6.72728 31.7971 7.11774 31.2834 7.61427C30.7697 8.1108 30.3588 8.70366 30.0743 9.359C29.7898 10.0143 29.6371 10.7193 29.6251 11.4336V11.5513C29.6173 13.0175 30.1922 14.4268 31.2232 15.4692C32.2543 16.5117 33.6571 17.102 35.1233 17.1104C36.5895 17.1187 37.999 16.5445 39.0419 15.5138C40.0848 14.4832 40.6756 13.0806 40.6846 11.6144C40.6846 7.96993 37.8178 6.09094 35.1611 6.09094L35.1569 6.08674ZM35.1906 8.25577C36.7753 8.25577 38.276 9.51683 38.276 11.6186C38.276 13.7204 36.7795 14.9562 35.1822 14.9562C33.4251 14.9562 32.0379 13.548 32.0379 11.5934C32.0379 9.63873 33.4041 8.26417 35.1864 8.26417L35.1906 8.25577Z" fill="#DBDBDB"/>
    <path d="M46.9603 6.08718C44.0178 6.08718 41.6764 8.67656 41.6764 11.5896C41.6546 13.0102 42.1903 14.3827 43.1686 15.4129C44.147 16.4431 45.49 17.049 46.9098 17.1005C47.4834 17.1306 48.0559 17.0244 48.5805 16.7906C49.1051 16.5567 49.5669 16.202 49.928 15.7553V16.8441C49.928 18.7441 48.7762 19.8874 47.0359 19.8874C46.4245 19.8797 45.8294 19.6889 45.3275 19.3398C44.8255 18.9906 44.4396 18.4991 44.2196 17.9286L42.1178 18.8029C42.8534 20.3792 44.3625 22.0607 47.0528 22.0607C49.9952 22.0607 52.2441 20.2069 52.2441 16.3228V6.42346H49.928V7.34824C49.5521 6.93821 49.0928 6.61349 48.5809 6.39596C48.0689 6.17842 47.5163 6.07313 46.9603 6.08718ZM47.1747 8.23519C48.6249 8.23519 50.1171 9.47524 50.1171 11.598C50.1171 13.7208 48.6291 14.9146 47.141 14.9146C45.5647 14.9146 44.0977 13.6536 44.0977 11.6022C44.0977 9.50046 45.6236 8.23939 47.1789 8.23939L47.1747 8.23519Z" fill="#DBDBDB"/>
    <path d="M62.4956 6.08594C59.7044 6.08594 57.3589 8.30541 57.3589 11.5842C57.3331 12.3058 57.4544 13.025 57.7153 13.6983C57.9762 14.3715 58.3712 14.9847 58.8764 15.5005C59.3817 16.0164 59.9865 16.4241 60.6542 16.6989C61.3219 16.9737 62.0385 17.1099 62.7604 17.0992C63.6697 17.1034 64.5663 16.8854 65.3721 16.4642C66.178 16.0429 66.8687 15.4312 67.3843 14.6822L65.4801 13.4211C65.2054 13.8876 64.8123 14.2733 64.3406 14.539C63.8689 14.8047 63.3354 14.9411 62.794 14.9344C62.2275 14.9568 61.6673 14.8085 61.1861 14.5087C60.7049 14.2089 60.3249 13.7714 60.0954 13.253L67.4768 10.1928L67.0943 9.29745C66.7389 8.36388 66.1114 7.55859 65.2929 6.98596C64.4744 6.41333 63.5028 6.09977 62.504 6.08594H62.4956ZM62.5923 8.18771C63.0087 8.17046 63.4215 8.27195 63.7824 8.48034C64.1434 8.68873 64.4377 8.99544 64.631 9.3647L59.7002 11.4328C59.4858 9.8355 60.9991 8.19612 62.5923 8.19612V8.18771Z" fill="#DBDBDB"/>
    <path d="M53.8438 16.7762H56.2692V0.554688H53.8438V16.7762Z" fill="#DBDBDB"/>
  </g>
  <!-- Bottom text (BigQuery) -->
  <g transform="translate(56.22, 26.12)">
    <path d="M0 10.8853V0.250354H3.85045C4.65522 0.238195 5.43313 0.539709 6.01948 1.09106C6.31326 1.34809 6.54688 1.6666 6.7038 2.02401C6.86071 2.38142 6.93707 2.76898 6.92745 3.15921C6.95239 3.6335 6.82625 4.10349 6.56717 4.50156C6.30808 4.89962 5.92942 5.20525 5.48563 5.37448V5.43333C6.00886 5.59657 6.46666 5.92189 6.79293 6.36231C7.1186 6.79744 7.29148 7.32792 7.28475 7.87138C7.29526 8.27969 7.21644 8.68536 7.0538 9.06002C6.89115 9.43468 6.64862 9.76928 6.34316 10.0404C5.72456 10.6078 4.90795 10.9097 4.06904 10.8811H0.00420397L0 10.8853ZM1.36615 1.55345V4.807H3.84625C4.07225 4.81256 4.297 4.77179 4.50664 4.68721C4.71629 4.60263 4.90641 4.47602 5.06528 4.31518C5.3681 4.0262 5.54392 3.6289 5.55416 3.21044C5.56441 2.79198 5.40824 2.38655 5.11992 2.0831L5.07788 2.04106C4.92743 1.88192 4.7454 1.75596 4.54344 1.67127C4.34148 1.58658 4.12405 1.54502 3.9051 1.54925H1.38297L1.36615 1.55345ZM1.36615 6.08908V9.57802H4.11527C4.57945 9.58251 5.02646 9.40269 5.35823 9.07802C5.68999 8.75334 5.87943 8.31033 5.88497 7.84616C5.88524 7.61825 5.83918 7.39266 5.74957 7.18311C5.65997 6.97355 5.52869 6.78439 5.36373 6.62713C5.19291 6.45566 4.98881 6.32096 4.76398 6.23132C4.53916 6.14168 4.29836 6.09899 4.05643 6.10589H1.36195L1.36615 6.08908Z" fill="#DBDBDB"/>
    <path d="M10.3666 1.09241C10.3655 1.31493 10.2873 1.53019 10.1454 1.70157C10.0035 1.87295 9.80659 1.98988 9.58818 2.03245C9.36977 2.07502 9.14336 2.0406 8.94746 1.93507C8.75157 1.82953 8.59828 1.65939 8.51369 1.45358C8.42909 1.24777 8.41841 1.01901 8.48346 0.806211C8.5485 0.593414 8.68527 0.409725 8.87048 0.286392C9.05569 0.163058 9.2779 0.1077 9.49933 0.129732C9.72075 0.151764 9.92771 0.249825 10.085 0.407236C10.1762 0.496169 10.2483 0.602845 10.2967 0.720684C10.3451 0.838523 10.3689 0.96503 10.3666 1.09241ZM10.085 3.61455V10.8951H8.71883V3.61455H10.085Z" fill="#DBDBDB"/>
    <path d="M15.0141 14.3376C14.6276 14.3404 14.2426 14.288 13.8708 14.1821C13.5272 14.0896 13.1987 13.948 12.8955 13.7617C12.6077 13.576 12.3522 13.3446 12.1389 13.0766C11.9334 12.8258 11.7727 12.5413 11.6639 12.2359L12.9586 11.6978C13.0997 12.1138 13.3709 12.4734 13.7321 12.7235C14.1019 12.9804 14.5428 13.1156 14.9931 13.1102C15.314 13.1289 15.6352 13.0789 15.9353 12.9637C16.2354 12.8484 16.5075 12.6705 16.7334 12.4418C17.1731 11.9326 17.3976 11.2724 17.3597 10.6007V9.88187H17.3009C17.0379 10.2724 16.677 10.587 16.2542 10.794C15.8098 11.0183 15.3185 11.1336 14.8208 11.1303C14.3554 11.1328 13.8951 11.0345 13.4713 10.8422C13.0476 10.6499 12.6705 10.3682 12.3659 10.0164C11.6934 9.25735 11.3317 8.27273 11.3528 7.25885C11.3272 6.24751 11.688 5.26441 12.3617 4.50973C12.6637 4.15374 13.04 3.86808 13.464 3.67275C13.8881 3.47743 14.3497 3.37716 14.8166 3.37898C15.3143 3.37557 15.8057 3.49085 16.25 3.71527C16.6728 3.92234 17.0337 4.2369 17.2967 4.62743H17.3555V3.61858H18.6628V10.5881C18.6911 11.0898 18.6173 11.5921 18.4461 12.0646C18.2749 12.5371 18.0097 12.97 17.6666 13.3372C17.3141 13.6733 16.8977 13.935 16.442 14.1069C15.9863 14.2787 15.5007 14.3572 15.0141 14.3376ZM15.0604 9.87766C15.3718 9.88613 15.6811 9.82528 15.9661 9.69951C16.2511 9.57374 16.5046 9.3862 16.7082 9.15045C17.1394 8.6143 17.3745 7.9469 17.3745 7.25885C17.3745 6.5708 17.1394 5.9034 16.7082 5.36726C16.5062 5.12844 16.2534 4.93772 15.9684 4.80901C15.6833 4.68029 15.3731 4.61682 15.0604 4.62323C14.748 4.61888 14.4384 4.68327 14.1537 4.81185C13.8689 4.94042 13.6159 5.13004 13.4126 5.36726C12.9555 5.89043 12.7163 6.56889 12.7442 7.26306C12.7154 7.95481 12.9549 8.63097 13.4126 9.15045C13.6163 9.3869 13.8695 9.57572 14.1542 9.70356C14.439 9.8314 14.7483 9.89514 15.0604 9.89027V9.87766Z" fill="#DBDBDB"/>
    <path d="M32.871 10.9077L31.7949 11.6055L31.0635 10.521C30.2698 10.9181 29.3952 11.1267 28.5077 11.1305C27.7828 11.1462 27.0625 11.0112 26.3925 10.7341C25.7224 10.4569 25.1173 10.0437 24.6152 9.52053C23.6032 8.45303 23.0391 7.03807 23.0391 5.5671C23.0391 4.09612 23.6032 2.68116 24.6152 1.61366C25.1266 1.10208 25.7337 0.696263 26.402 0.419386C27.0702 0.14251 27.7865 0 28.5098 0C29.2331 0 29.9494 0.14251 30.6176 0.419386C31.2859 0.696263 31.893 1.10208 32.4044 1.61366C32.9208 2.12879 33.3268 2.74367 33.5978 3.42083C33.8688 4.09799 33.9991 4.82324 33.9807 5.55238C33.9859 6.35407 33.8211 7.14775 33.4973 7.88115C33.1833 8.60395 32.719 9.25164 32.1354 9.78115L32.871 10.9077ZM28.5161 9.82318C29.1374 9.82309 29.7503 9.67922 30.3068 9.40283L29.0458 7.52805L30.1219 6.80084L31.3535 8.6588C31.7613 8.25756 32.0804 7.77532 32.2904 7.24317C32.5003 6.71102 32.5965 6.14077 32.5725 5.5692C32.593 5.00897 32.4997 4.45041 32.2981 3.9273C32.0965 3.4042 31.7909 2.92743 31.3997 2.52583C31.028 2.13389 30.5782 1.82435 30.0792 1.61726C29.5803 1.41017 29.0435 1.31013 28.5035 1.32362C27.9611 1.31063 27.4219 1.41083 26.9203 1.61782C26.4187 1.82481 25.9658 2.13406 25.5904 2.52583C24.8444 3.36405 24.4323 4.44708 24.4323 5.5692C24.4323 6.69132 24.8444 7.77435 25.5904 8.61256C25.9665 9.00745 26.4212 9.31918 26.9251 9.52769C27.429 9.7362 27.9709 9.83686 28.5161 9.82318Z" fill="#DBDBDB"/>
    <path d="M41.7484 10.8893H40.4411V9.88047H40.3822C40.1509 10.2611 39.8193 10.5709 39.4238 10.7758C39.0135 11.0083 38.5503 11.1314 38.0787 11.1331C37.7009 11.1575 37.3222 11.1019 36.9673 10.9701C36.6124 10.8383 36.2892 10.6331 36.0189 10.3681C35.5053 9.76355 35.2488 8.98195 35.3043 8.19064V3.61719H36.6705V8.10237C36.7013 9.29618 37.2982 9.89308 38.4612 9.89308C38.724 9.8944 38.9835 9.83518 39.2197 9.72C39.4559 9.60482 39.6624 9.43678 39.8231 9.22892C40.1917 8.7843 40.3872 8.22153 40.3738 7.64418V3.61719H41.74V10.8893H41.7484Z" fill="#DBDBDB"/>
    <path d="M46.6104 11.124C46.1168 11.1382 45.6258 11.0474 45.17 10.8575C44.7141 10.6677 44.3039 10.3831 43.9663 10.0227C43.2663 9.2703 42.8929 8.27118 42.9281 7.24411C42.8971 6.22408 43.2616 5.23156 43.9453 4.47397C44.2795 4.12885 44.6787 3.85336 45.12 3.66343C45.5612 3.4735 46.0358 3.3729 46.5161 3.36742C46.9965 3.36195 47.4732 3.45172 47.9186 3.63155C48.3641 3.81138 48.7695 4.0777 49.1115 4.41513C49.7996 5.235 50.1432 6.28972 50.0699 7.35761V7.50473H44.3236C44.32 7.8254 44.3814 8.14347 44.5043 8.43971C44.6271 8.73594 44.8088 9.00418 45.0382 9.22819C45.3 9.48385 45.6189 9.67349 45.9685 9.78139C46.3181 9.8893 46.6884 9.91236 47.0487 9.84868C47.409 9.785 47.749 9.63641 48.0405 9.4152C48.3319 9.19399 48.5665 8.90654 48.7247 8.57664L49.9438 9.16933C49.6335 9.76644 49.1634 10.2656 48.586 10.6112C47.9869 10.9599 47.3035 11.1373 46.6104 11.124ZM44.4245 6.36977H48.5986C48.5845 6.12908 48.5226 5.89361 48.4165 5.67709C48.3104 5.46058 48.1623 5.26736 47.9807 5.10871C47.5633 4.7618 47.0305 4.58472 46.4885 4.61269C46.0025 4.60295 45.5298 4.77198 45.1601 5.08769C44.7798 5.42013 44.521 5.86973 44.4245 6.36557V6.36977Z" fill="#DBDBDB"/>
    <path d="M52.6708 10.8899H51.3047V3.61776H52.612V4.80736H52.6708C52.8316 4.39267 53.1279 4.04454 53.5115 3.81953C53.8832 3.56202 54.3208 3.41617 54.7726 3.39917C55.1176 3.39092 55.4608 3.45239 55.7815 3.57992L55.3611 4.90404C55.1019 4.82117 54.83 4.78558 54.5582 4.79895C54.3021 4.79976 54.0491 4.85619 53.8169 4.96433C53.5846 5.07247 53.3786 5.22974 53.2131 5.42528C52.8427 5.81859 52.638 6.33944 52.6414 6.87971V10.8941L52.6708 10.8899Z" fill="#DBDBDB"/>
    <path d="M63.3584 3.61719L58.8059 14.1261H57.3935L59.075 10.4564L56.082 3.61719H57.5701L59.7391 8.8506H59.7685L61.8703 3.61719H63.3458H63.3584Z" fill="#DBDBDB"/>
  </g>
</svg>
