<svg width="100%" height="100%" overflow="visible" style="display: block;" viewBox="0 0 63.3584 14.3406" fill="none" xmlns="http://www.w3.org/2000/svg">
<g id="g895">
<path id="path38" d="M0 10.8853V0.250354H3.85045C4.65522 0.238195 5.43313 0.539709 6.01948 1.09106C6.31326 1.34809 6.54688 1.6666 6.7038 2.02401C6.86071 2.38142 6.93707 2.76898 6.92745 3.15921C6.95239 3.6335 6.82625 4.10349 6.56717 4.50156C6.30808 4.89962 5.92942 5.20525 5.48563 5.37448V5.43333C6.00886 5.59657 6.46666 5.92189 6.79293 6.36231C7.1186 6.79744 7.29148 7.32792 7.28475 7.87138C7.29526 8.27969 7.21644 8.68536 7.0538 9.06002C6.89115 9.43468 6.64862 9.76928 6.34316 10.0404C5.72456 10.6078 4.90795 10.9097 4.06904 10.8811H0.00420397L0 10.8853ZM1.36615 1.55345V4.807H3.84625C4.07225 4.81256 4.297 4.77179 4.50664 4.68721C4.71629 4.60263 4.90641 4.47602 5.06528 4.31518C5.3681 4.0262 5.54392 3.6289 5.55416 3.21044C5.56441 2.79198 5.40824 2.38655 5.11992 2.0831L5.07788 2.04106C4.92743 1.88192 4.7454 1.75596 4.54344 1.67127C4.34148 1.58658 4.12405 1.54502 3.9051 1.54925H1.38297L1.36615 1.55345ZM1.36615 6.08908V9.57802H4.11527C4.57945 9.58251 5.02646 9.40269 5.35823 9.07802C5.68999 8.75334 5.87943 8.31033 5.88497 7.84616C5.88524 7.61825 5.83918 7.39266 5.74957 7.18311C5.65997 6.97355 5.52869 6.78439 5.36373 6.62713C5.19291 6.45566 4.98881 6.32096 4.76398 6.23132C4.53916 6.14168 4.29836 6.09899 4.05643 6.10589H1.36195L1.36615 6.08908Z" fill="#DBDBDB"/>
<path id="path40" d="M10.3666 1.09241C10.3655 1.31493 10.2873 1.53019 10.1454 1.70157C10.0035 1.87295 9.80659 1.98988 9.58818 2.03245C9.36977 2.07502 9.14336 2.0406 8.94746 1.93507C8.75157 1.82953 8.59828 1.65939 8.51369 1.45358C8.42909 1.24777 8.41841 1.01901 8.48346 0.806211C8.5485 0.593414 8.68527 0.409725 8.87048 0.286392C9.05569 0.163058 9.2779 0.1077 9.49933 0.129732C9.72075 0.151764 9.92771 0.249825 10.085 0.407236C10.1762 0.496169 10.2483 0.602845 10.2967 0.720684C10.3451 0.838523 10.3689 0.96503 10.3666 1.09241ZM10.085 3.61455V10.8951H8.71883V3.61455H10.085Z" fill="#DBDBDB"/>
<path id="path42" d="M15.0141 14.3376C14.6276 14.3404 14.2426 14.288 13.8708 14.1821C13.5272 14.0896 13.1987 13.948 12.8955 13.7617C12.6077 13.576 12.3522 13.3446 12.1389 13.0766C11.9334 12.8258 11.7727 12.5413 11.6639 12.2359L12.9586 11.6978C13.0997 12.1138 13.3709 12.4734 13.7321 12.7235C14.1019 12.9804 14.5428 13.1156 14.9931 13.1102C15.314 13.1289 15.6352 13.0789 15.9353 12.9637C16.2354 12.8484 16.5075 12.6705 16.7334 12.4418C17.1731 11.9326 17.3976 11.2724 17.3597 10.6007V9.88187H17.3009C17.0379 10.2724 16.677 10.587 16.2542 10.794C15.8098 11.0183 15.3185 11.1336 14.8208 11.1303C14.3554 11.1328 13.8951 11.0345 13.4713 10.8422C13.0476 10.6499 12.6705 10.3682 12.3659 10.0164C11.6934 9.25735 11.3317 8.27273 11.3528 7.25885C11.3272 6.24751 11.688 5.26441 12.3617 4.50973C12.6637 4.15374 13.04 3.86808 13.464 3.67275C13.8881 3.47743 14.3497 3.37716 14.8166 3.37898C15.3143 3.37557 15.8057 3.49085 16.25 3.71527C16.6728 3.92234 17.0337 4.2369 17.2967 4.62743H17.3555V3.61858H18.6628V10.5881C18.6911 11.0898 18.6173 11.5921 18.4461 12.0646C18.2749 12.5371 18.0097 12.97 17.6666 13.3372C17.3141 13.6733 16.8977 13.935 16.442 14.1069C15.9863 14.2787 15.5007 14.3572 15.0141 14.3376ZM15.0604 9.87766C15.3718 9.88613 15.6811 9.82528 15.9661 9.69951C16.2511 9.57374 16.5046 9.3862 16.7082 9.15045C17.1394 8.6143 17.3745 7.9469 17.3745 7.25885C17.3745 6.5708 17.1394 5.9034 16.7082 5.36726C16.5062 5.12844 16.2534 4.93772 15.9684 4.80901C15.6833 4.68029 15.3731 4.61682 15.0604 4.62323C14.748 4.61888 14.4384 4.68327 14.1537 4.81185C13.8689 4.94042 13.6159 5.13004 13.4126 5.36726C12.9555 5.89043 12.7163 6.56889 12.7442 7.26306C12.7154 7.95481 12.9549 8.63097 13.4126 9.15045C13.6163 9.3869 13.8695 9.57572 14.1542 9.70356C14.439 9.8314 14.7483 9.89514 15.0604 9.89027V9.87766Z" fill="#DBDBDB"/>
<path id="path44" d="M32.871 10.9077L31.7949 11.6055L31.0635 10.521C30.2698 10.9181 29.3952 11.1267 28.5077 11.1305C27.7828 11.1462 27.0625 11.0112 26.3925 10.7341C25.7224 10.4569 25.1173 10.0437 24.6152 9.52053C23.6032 8.45303 23.0391 7.03807 23.0391 5.5671C23.0391 4.09612 23.6032 2.68116 24.6152 1.61366C25.1266 1.10208 25.7337 0.696263 26.402 0.419386C27.0702 0.14251 27.7865 0 28.5098 0C29.2331 0 29.9494 0.14251 30.6176 0.419386C31.2859 0.696263 31.893 1.10208 32.4044 1.61366C32.9208 2.12879 33.3268 2.74367 33.5978 3.42083C33.8688 4.09799 33.9991 4.82324 33.9807 5.55238C33.9859 6.35407 33.8211 7.14775 33.4973 7.88115C33.1833 8.60395 32.719 9.25164 32.1354 9.78115L32.871 10.9077ZM28.5161 9.82318C29.1374 9.82309 29.7503 9.67922 30.3068 9.40283L29.0458 7.52805L30.1219 6.80084L31.3535 8.6588C31.7613 8.25756 32.0804 7.77532 32.2904 7.24317C32.5003 6.71102 32.5965 6.14077 32.5725 5.5692C32.593 5.00897 32.4997 4.45041 32.2981 3.9273C32.0965 3.4042 31.7909 2.92743 31.3997 2.52583C31.028 2.13389 30.5782 1.82435 30.0792 1.61726C29.5803 1.41017 29.0435 1.31013 28.5035 1.32362C27.9611 1.31063 27.4219 1.41083 26.9203 1.61782C26.4187 1.82481 25.9658 2.13406 25.5904 2.52583C24.8444 3.36405 24.4323 4.44708 24.4323 5.5692C24.4323 6.69132 24.8444 7.77435 25.5904 8.61256C25.9665 9.00745 26.4212 9.31918 26.9251 9.52769C27.429 9.7362 27.9709 9.83686 28.5161 9.82318Z" fill="#DBDBDB"/>
<path id="path46" d="M41.7484 10.8893H40.4411V9.88047H40.3822C40.1509 10.2611 39.8193 10.5709 39.4238 10.7758C39.0135 11.0083 38.5503 11.1314 38.0787 11.1331C37.7009 11.1575 37.3222 11.1019 36.9673 10.9701C36.6124 10.8383 36.2892 10.6331 36.0189 10.3681C35.5053 9.76355 35.2488 8.98195 35.3043 8.19064V3.61719H36.6705V8.10237C36.7013 9.29618 37.2982 9.89308 38.4612 9.89308C38.724 9.8944 38.9835 9.83518 39.2197 9.72C39.4559 9.60482 39.6624 9.43678 39.8231 9.22892C40.1917 8.7843 40.3872 8.22153 40.3738 7.64418V3.61719H41.74V10.8893H41.7484Z" fill="#DBDBDB"/>
<path id="path48" d="M46.6104 11.124C46.1168 11.1382 45.6258 11.0474 45.17 10.8575C44.7141 10.6677 44.3039 10.3831 43.9663 10.0227C43.2663 9.2703 42.8929 8.27118 42.9281 7.24411C42.8971 6.22408 43.2616 5.23156 43.9453 4.47397C44.2795 4.12885 44.6787 3.85336 45.12 3.66343C45.5612 3.4735 46.0358 3.3729 46.5161 3.36742C46.9965 3.36195 47.4732 3.45172 47.9186 3.63155C48.3641 3.81138 48.7695 4.0777 49.1115 4.41513C49.7996 5.235 50.1432 6.28972 50.0699 7.35761V7.50473H44.3236C44.32 7.8254 44.3814 8.14347 44.5043 8.43971C44.6271 8.73594 44.8088 9.00418 45.0382 9.22819C45.3 9.48385 45.6189 9.67349 45.9685 9.78139C46.3181 9.8893 46.6884 9.91236 47.0487 9.84868C47.409 9.785 47.749 9.63641 48.0405 9.4152C48.3319 9.19399 48.5665 8.90654 48.7247 8.57664L49.9438 9.16933C49.6335 9.76644 49.1634 10.2656 48.586 10.6112C47.9869 10.9599 47.3035 11.1373 46.6104 11.124ZM44.4245 6.36977H48.5986C48.5845 6.12908 48.5226 5.89361 48.4165 5.67709C48.3104 5.46058 48.1623 5.26736 47.9807 5.10871C47.5633 4.7618 47.0305 4.58472 46.4885 4.61269C46.0025 4.60295 45.5298 4.77198 45.1601 5.08769C44.7798 5.42013 44.521 5.86973 44.4245 6.36557V6.36977Z" fill="#DBDBDB"/>
<path id="path50" d="M52.6708 10.8899H51.3047V3.61776H52.612V4.80736H52.6708C52.8316 4.39267 53.1279 4.04454 53.5115 3.81953C53.8832 3.56202 54.3208 3.41617 54.7726 3.39917C55.1176 3.39092 55.4608 3.45239 55.7815 3.57992L55.3611 4.90404C55.1019 4.82117 54.83 4.78558 54.5582 4.79895C54.3021 4.79976 54.0491 4.85619 53.8169 4.96433C53.5846 5.07247 53.3786 5.22974 53.2131 5.42528C52.8427 5.81859 52.638 6.33944 52.6414 6.87971V10.8941L52.6708 10.8899Z" fill="#DBDBDB"/>
<path id="path52" d="M63.3584 3.61719L58.8059 14.1261H57.3935L59.075 10.4564L56.082 3.61719H57.5701L59.7391 8.8506H59.7685L61.8703 3.61719H63.3458H63.3584Z" fill="#DBDBDB"/>
</g>
</svg>
