<svg width="100%" height="100%" overflow="visible" style="display: block;" viewBox="0 0 147 32" fill="none" xmlns="http://www.w3.org/2000/svg">
<g id="dagster-primary-horizontal 1" clip-path="url(#clip0_0_217)">
<g id="Vector">
<path d="M53.5441 0.978699H56.2795V25.446H53.5441V23.288H53.4755C52.4491 24.6227 50.8074 25.9232 48.0011 25.9232C43.6213 25.9232 40.1311 22.4671 40.1311 16.7186C40.1311 10.9699 43.6213 7.51395 48.0011 7.51395C50.8074 7.51395 52.4491 8.74591 53.4755 10.2518H53.5441V0.978699ZM53.5441 16.7186C53.5441 12.6129 51.5255 9.90931 48.275 9.90931C44.682 9.90931 42.8678 13.2968 42.8678 16.7186C42.8678 20.1403 44.682 23.5278 48.275 23.5278C51.5255 23.5278 53.5441 20.8241 53.5441 16.7186Z" fill="#DBDBDB"/>
<path d="M66.4971 9.90744C63.1782 9.90744 62.082 10.8653 61.9119 13.3978H59.1741C59.3453 10.0444 61.4324 7.51208 66.4971 7.51208C69.8162 7.51208 72.7926 8.81261 72.7926 13.0173V21.5038C72.7926 22.8727 73.0372 23.625 74.7768 23.4196V25.3366C74.2628 25.5269 73.7176 25.6195 73.1694 25.6094C71.5263 25.6094 70.5342 25.1652 70.0559 23.2482H69.9825C68.8876 24.8913 66.9375 25.9177 64.0638 25.9177C60.5393 25.9177 58.3141 23.8991 58.3141 20.9557C58.3141 16.987 61.2562 15.9607 65.7766 15.1056C68.72 14.5575 70.0583 14.1807 70.0583 12.4361C70.0559 11.0708 69.3024 9.90744 66.4971 9.90744ZM70.0559 18.701V15.7931C69.5421 16.3056 67.8649 16.7853 66.0188 17.1621C62.6301 17.8801 61.052 18.7352 61.052 20.8224C61.052 22.535 62.0784 23.526 64.3379 23.526C67.5921 23.526 70.0559 22.0543 70.0559 18.701Z" fill="#DBDBDB"/>
<path d="M88.5808 7.99174H91.3188V24.4838C91.3188 29.1327 88.3765 31.4986 83.5858 31.4986C78.7951 31.4986 75.9545 28.9663 75.6816 25.9935H78.4269C78.7694 27.7722 80.2069 29.1069 83.4573 29.1069C86.7078 29.1069 88.5894 27.7038 88.5894 24.4581V21.8157H88.5209C87.4945 23.3204 85.8527 24.5524 82.9778 24.5524C78.6667 24.5524 75.1764 21.7815 75.1764 16.0328C75.1764 10.2843 78.6667 7.51208 82.9778 7.51208C85.8527 7.51208 87.4945 8.81261 88.5209 10.1473H88.5894L88.5808 7.99174ZM88.5808 16.0328C88.5808 11.926 86.5622 9.90744 83.3119 9.90744C79.7188 9.90744 77.9057 12.611 77.9057 16.0328C77.9057 19.4546 79.7188 22.157 83.3119 22.157C86.5672 22.157 88.5808 20.1385 88.5808 16.0328Z" fill="#DBDBDB"/>
<path d="M108.134 20.6523C108.134 23.833 105.226 25.9213 101.256 25.9213C95.9189 25.9213 93.455 23.389 93.2837 19.6258H96.0216C96.1917 21.576 96.8779 23.526 101.256 23.526C104.233 23.526 105.396 21.9858 105.396 20.8224C105.396 18.2912 103.104 18.1542 100.607 17.5376C97.9374 16.888 93.9676 16.5797 93.9676 12.4741C93.9676 9.73618 96.3971 7.51208 100.504 7.51208C104.849 7.51208 107.176 9.97601 107.449 12.9867H104.712C104.438 11.6532 103.789 9.90744 100.504 9.90744C98.0401 9.90744 96.7116 10.8996 96.7116 12.2685C96.7116 14.3213 99.0727 14.4926 101.502 15.075C104.61 15.8273 108.134 16.3399 108.134 20.6523Z" fill="#DBDBDB"/>
<path d="M117.387 10.3888H113.962V20.8927C113.962 22.8782 115.063 23.2171 117.387 23.0495V25.446C116.712 25.5872 116.024 25.6562 115.335 25.6516C113.01 25.6516 111.228 24.728 111.228 21.1691V10.3913H108.659V7.99347H111.228V2.17639H113.966V7.99347H117.391L117.387 10.3888Z" fill="#DBDBDB"/>
<path d="M131.934 20.0699H134.672C133.781 23.3204 131.284 25.9213 126.939 25.9213C121.634 25.9213 118.418 22.1913 118.418 16.7167C118.418 10.8996 121.703 7.51208 126.802 7.51208C132.276 7.51208 134.946 11.2421 134.946 17.4349H121.156C121.156 20.5838 123.038 23.526 126.836 23.526C130.326 23.526 131.626 21.2676 131.934 20.0699ZM121.156 15.0456H132.208C132.208 12.2392 130.087 9.90744 126.802 9.90744C123.517 9.90744 121.156 12.2319 121.156 15.0456Z" fill="#DBDBDB"/>
<path d="M146.241 7.61551V10.3534H146.173C142.38 9.74172 139.741 12.4062 139.741 16.1362V25.4449H137.002V7.99232H139.741V11.4482H139.808C140.733 9.15571 142.133 7.51266 144.634 7.51266C145.171 7.50712 145.709 7.5414 146.241 7.61551Z" fill="#DBDBDB"/>
<path d="M24.2229 19.2347C24.5421 18.1435 24.6827 17.3862 24.6827 16.8943C24.6729 16.682 24.5819 16.4815 24.4286 16.3344C24.2751 16.1872 24.071 16.1048 23.8585 16.1041C23.6605 16.1077 23.4694 16.1776 23.3157 16.3023C23.1619 16.4272 23.0542 16.5998 23.0098 16.7928C22.923 17.1513 22.7371 18.1226 22.5536 18.7392C22.6294 18.5083 22.6987 18.2739 22.7616 18.0358C22.8655 17.6174 23.1785 17.4094 23.5943 17.4094C23.8082 17.4177 24.0101 17.5099 24.1562 17.6662C24.3025 17.8222 24.3813 18.0298 24.3758 18.2437C24.366 18.5801 24.312 18.9136 24.2156 19.2358L24.2229 19.2347Z" fill="#DBDBDB"/>
<path d="M28.6496 18.092C28.6395 17.8799 28.5486 17.6797 28.3954 17.5327C28.2424 17.3858 28.0388 17.3031 27.8265 17.3018C27.6287 17.3057 27.4379 17.3756 27.2844 17.5003C27.1309 17.6252 27.0234 17.7976 26.9791 17.9905C26.891 18.3575 26.7015 19.3435 26.5156 19.9588H26.5241C26.6147 19.6849 26.699 19.4071 26.7687 19.1245C26.8726 18.7061 27.1857 18.4981 27.6027 18.4981C27.8164 18.5064 28.0182 18.5988 28.1642 18.7549C28.3102 18.9111 28.3889 19.1187 28.3829 19.3326C28.3769 19.5922 28.3413 19.8504 28.2765 20.1019C28.5358 19.1918 28.6496 18.5336 28.6496 18.092Z" fill="#DBDBDB"/>
<path d="M18.8357 10.2597C19.3939 10.2585 19.9497 10.3329 20.4878 10.481C20.7704 10.0956 20.9116 9.62455 20.8877 9.14708C20.8638 8.66976 20.6762 8.21505 20.3565 7.85983C20.0368 7.50462 19.6045 7.27033 19.1325 7.19647C18.6604 7.12264 18.1772 7.21373 17.7644 7.45443L18.6204 8.86378L17.0173 8.17012C16.8001 8.52067 16.6913 8.92753 16.7043 9.33979C16.7174 9.7519 16.8518 10.151 17.0907 10.4871C17.6597 10.3338 18.2465 10.2572 18.8357 10.2597Z" fill="#DBDBDB"/>
<path fill-rule="evenodd" clip-rule="evenodd" d="M10.6821 30.2437C10.6826 30.4169 10.7188 30.5881 10.7885 30.7467C10.8581 30.9053 10.9596 31.0478 11.0868 31.1654C11.2139 31.283 11.364 31.373 11.5274 31.43C11.6909 31.4869 11.8644 31.5095 12.0371 31.4964C18.5991 31.0266 24.7966 26.3828 26.7752 19.1294C26.8792 18.7123 27.1923 18.5031 27.6092 18.5031C27.8229 18.5117 28.0248 18.6042 28.1709 18.7606C28.3169 18.917 28.3954 19.1247 28.3894 19.3386C28.3894 20.9559 26.3106 25.1827 23.3377 27.6355C23.1861 27.763 23.0653 27.923 22.9842 28.1038C22.9033 28.2844 22.8639 28.481 22.8693 28.679C22.8723 28.84 22.9071 28.9988 22.9715 29.1464C23.0362 29.2939 23.1291 29.4272 23.2452 29.5387C23.3613 29.6501 23.4983 29.7376 23.6483 29.796C23.7982 29.8545 23.9583 29.8828 24.1192 29.8791C24.3796 29.8791 24.7966 29.7226 25.3176 29.2527C27.3965 27.3736 31.3586 22.1034 31.3586 16.3108C31.3586 7.81824 24.793 0.5 15.6298 0.5C7.45366 0.5 0.370728 7.17959 0.370728 14.9026C0.370728 20.0163 4.43315 23.8773 9.79664 23.8773C13.9118 23.8773 17.7137 20.9559 18.7556 16.9372C18.8595 16.52 19.1714 16.3108 19.5883 16.3108C19.8023 16.3194 20.004 16.4119 20.1504 16.5683C20.2965 16.7247 20.3754 16.9323 20.3698 17.1464C20.3698 18.9728 16.9322 25.3428 9.95317 25.3428C8.28649 25.3428 6.2039 24.8731 4.74498 24.0375C4.54968 23.9428 4.33694 23.8896 4.12009 23.881C3.95405 23.8746 3.78847 23.9027 3.63379 23.9634C3.47912 24.0241 3.33868 24.1161 3.22129 24.2339C3.10391 24.3516 3.01213 24.4922 2.95173 24.647C2.89132 24.8019 2.8636 24.9676 2.8703 25.1337C2.87704 25.3465 2.93797 25.5541 3.04733 25.7366C3.15669 25.9192 3.31084 26.0709 3.49519 26.1773C5.42246 27.2782 7.7142 27.8472 10.0572 27.8472C15.8904 27.8472 21.2026 23.881 22.7654 18.037C22.8693 17.6198 23.1823 17.4106 23.5982 17.4106C23.8121 17.4192 24.014 17.5117 24.1602 17.6681C24.3065 17.8245 24.3853 18.0321 24.3796 18.2462C24.3796 20.6464 20.1094 28.3696 11.8805 28.9958C11.5621 29.0195 11.2638 29.16 11.0425 29.3903C10.8213 29.6206 10.6929 29.9245 10.6821 30.2437ZM18.838 10.2593C19.9611 10.251 21.0637 10.5614 22.0175 11.1549C22.1139 10.6271 22.167 10.0923 22.1765 9.55586C22.1765 7.07855 20.2883 4.85938 17.9893 4.85938C16.2015 4.85938 15.0838 6.34086 15.0838 8.17102C15.0752 9.15965 15.4225 10.1185 16.062 10.8723C16.9286 10.4589 17.8781 10.2492 18.838 10.2593ZM6.48276 14.4355C7.15819 14.4355 7.70567 13.8878 7.70567 13.2121C7.70567 12.5364 7.15819 11.9888 6.48276 11.9888C5.80739 11.9888 5.25989 12.5364 5.25989 13.2121C5.25989 13.8878 5.80739 14.4355 6.48276 14.4355ZM6.48276 19.3284C7.15819 19.3284 7.70567 18.7806 7.70567 18.1051C7.70567 17.4293 7.15819 16.8817 6.48276 16.8817C5.80739 16.8817 5.25989 17.4293 5.25989 18.1051C5.25989 18.7806 5.80739 19.3284 6.48276 19.3284ZM5.26108 15.6586C5.26108 16.3343 4.71358 16.8821 4.03819 16.8821C3.36281 16.8821 2.81531 16.3343 2.81531 15.6586C2.81531 14.983 3.36281 14.4352 4.03819 14.4352C4.71358 14.4352 5.26108 14.983 5.26108 15.6586Z" fill="#DBDBDB"/>
<path d="M9.54327 23.8759H9.78777C13.9028 23.8759 17.7047 20.9546 18.7467 16.9357C18.8506 16.5186 19.1625 16.3094 19.5794 16.3094C19.7933 16.318 19.9952 16.4105 20.1415 16.5669C20.2877 16.7233 20.3664 16.9309 20.3609 17.1449C20.3422 17.572 20.2456 17.992 20.076 18.3843C20.1055 18.3386 20.1313 18.2908 20.153 18.241C20.4624 17.5335 20.6223 16.7697 20.6226 15.9974C20.6226 14.7974 19.7886 14.0143 18.5914 14.0143C16.504 14.0143 16.0857 15.8372 15.2052 17.786C14.2917 19.8094 12.6139 21.998 8.38265 21.998C3.98646 21.998 -0.530889 18.9188 0.570931 12.6576C0.584381 12.5794 0.595395 12.5097 0.603958 12.4448C0.442512 13.2537 0.360586 14.0764 0.359375 14.9012C0.3716 19.9416 4.30807 23.7585 9.54327 23.8759Z" fill="#DBDBDB"/>
</g>
</g>
<defs>
<clipPath id="clip0_0_217">
<rect width="147" height="32" fill="white"/>
</clipPath>
</defs>
</svg>
