<svg width="100%" height="100%" overflow="visible" style="display: block;" viewBox="0 0 184.333 28" fill="none" xmlns="http://www.w3.org/2000/svg">
<g id="Group">
<path id="Vector" d="M26.7333 20.7333V15.8L26.2 15.4667L13.4 22.4667L1.26667 15.8V12.9333L13.4 19.5333L26.8 12.2667V7.4L26.2667 7.06667L13.4 14.1333L1.73333 7.73333L13.4 1.33333L22.8 6.46667L23.5333 6.06667V5.53333L13.4 0L0 7.26667V8L13.4 15.3333L25.5333 8.66667V11.6L13.4 18.2667L0.533333 11.2L0 11.5333V16.4667L13.4 23.7333L25.5333 17.1333V20L13.4 26.6667L0.533333 19.6667L0 20V20.7333L13.4 28L26.7333 20.7333Z" fill="#DBDBDB"/>
<path id="Vector_2" fill-rule="evenodd" clip-rule="evenodd" d="M52.2 1.46484V23.9315H48.6V22.2648C48.6 22.1315 48.5333 21.9982 48.4 21.9982C48.2667 21.9315 48.1333 21.9982 48.0667 22.0648C46.8 23.4648 44.9333 24.3315 42.8667 24.3315C40.7333 24.3315 38.7333 23.4648 37.2667 21.9982C35.8 20.4648 35 18.3982 35 16.1315C35 11.5315 38.4667 7.93151 42.8667 7.93151C44.9333 7.93151 46.8667 8.73151 48.0667 10.0648C48.1333 10.1315 48.2667 10.1982 48.4 10.1315C48.5333 10.0648 48.6 9.99818 48.6 9.86484V1.46484H52.2ZM38.6 16.1315C38.6 18.9982 40.8 21.1982 43.6667 21.1982C46.5333 21.1982 48.7333 18.9982 48.7333 16.1315C48.7333 13.2648 46.5333 11.0648 43.6667 11.0648C40.8667 11.0648 38.6 13.2648 38.6 16.1315Z" fill="#DBDBDB"/>
<path id="Vector_3" fill-rule="evenodd" clip-rule="evenodd" d="M71.2671 8.26693V23.9336H67.7338V22.2669C67.7338 22.1336 67.6671 22.0003 67.5338 22.0003C67.4005 21.9336 67.2671 22.0003 67.2005 22.0669C65.9338 23.5336 64.0671 24.3336 62.0005 24.3336C57.6005 24.3336 54.1338 20.7336 54.1338 16.1336C54.1338 11.5336 57.6005 7.93359 62.0005 7.93359C64.1338 7.93359 66.0005 8.66693 67.2005 10.0669C67.2671 10.1336 67.4005 10.2003 67.5338 10.1336C67.6671 10.0669 67.7338 10.0003 67.7338 9.86693V8.26693H71.2671ZM57.7338 16.1336C57.7338 19.0003 59.9338 21.2003 62.8005 21.2003C65.6671 21.2003 67.8671 19.0003 67.8671 16.1336C67.8671 13.2669 65.6671 11.0669 62.8005 11.0669C60.0005 11.0669 57.7338 13.2669 57.7338 16.1336Z" fill="#DBDBDB"/>
<path id="Vector_4" fill-rule="evenodd" clip-rule="evenodd" d="M101.6 8.26693V23.9336H98.0668V22.2669C98.0668 22.1336 98.0001 22.0003 97.8668 22.0003C97.7335 21.9336 97.6001 22.0003 97.5335 22.0669C96.2668 23.5336 94.4001 24.3336 92.3335 24.3336C87.9335 24.3336 84.4668 20.7336 84.4668 16.1336C84.4668 11.5336 87.9335 7.93359 92.3335 7.93359C94.4668 7.93359 96.3335 8.66693 97.5335 10.0669C97.6001 10.1336 97.7335 10.2003 97.8668 10.1336C98.0001 10.0669 98.0668 10.0003 98.0668 9.86693V8.26693H101.6ZM88.0668 16.1336C88.0668 19.0003 90.2668 21.2003 93.1335 21.2003C96.0001 21.2003 98.2001 19.0003 98.2001 16.1336C98.2001 13.2669 96.0001 11.0669 93.1335 11.0669C90.2668 11.0669 88.0668 13.2669 88.0668 16.1336Z" fill="#DBDBDB"/>
<path id="Vector_5" fill-rule="evenodd" clip-rule="evenodd" d="M108.267 22.0648C108.2 22.0648 108.2 22.0648 108.133 22.0648C108 22.1315 107.933 22.1982 107.933 22.3315V23.9315H104.333V1.46484H107.933V9.93151C107.933 10.0648 108 10.1982 108.133 10.1982C108.267 10.2648 108.4 10.1982 108.467 10.1315C109.733 8.73151 111.6 7.86484 113.667 7.86484C115.8 7.86484 117.8 8.73151 119.267 10.1982C120.733 11.7315 121.533 13.7982 121.533 16.0648C121.533 20.6648 118.067 24.2648 113.667 24.2648C111.6 24.2648 109.667 23.4648 108.467 22.1315C108.4 22.1315 108.333 22.0648 108.267 22.0648ZM112.867 11.0648C110 11.0648 107.8 13.2648 107.8 16.1315C107.8 18.9982 110 21.1982 112.867 21.1982C115.733 21.1982 117.933 18.9982 117.933 16.1315C117.933 13.2648 115.667 11.0648 112.867 11.0648Z" fill="#DBDBDB"/>
<path id="Vector_6" d="M131.867 11.4669C132.201 11.4669 132.534 11.4669 132.734 11.5336V8.00026C132.601 8.00026 132.401 7.93359 132.134 7.93359C130.267 7.93359 128.534 8.86693 127.667 10.3336C127.601 10.4669 127.467 10.5336 127.334 10.4669C127.201 10.4003 127.134 10.3336 127.134 10.2003V8.26693H123.601V23.9336H127.201V17.0669C127.067 13.6003 128.934 11.4669 131.867 11.4669Z" fill="#DBDBDB"/>
<path id="Vector_7" d="M138.534 8.26953H134.934V23.9362H138.534V8.26953Z" fill="#DBDBDB"/>
<path id="Vector_8" d="M136.733 1.46484C135.533 1.46484 134.533 2.39818 134.533 3.59818C134.533 4.79818 135.533 5.73151 136.733 5.73151C137.933 5.73151 138.933 4.79818 138.933 3.59818C138.933 2.46484 137.933 1.46484 136.733 1.46484Z" fill="#DBDBDB"/>
<path id="Vector_9" d="M149.2 7.93359C144.267 7.93359 140.667 11.4003 140.667 16.1336C140.667 18.4669 141.534 20.5336 143.067 22.0003C144.6 23.4669 146.8 24.3336 149.2 24.3336C151.2 24.3336 152.8 23.9336 155.734 21.8669L153.734 19.8003C152.267 20.7336 150.934 21.2003 149.6 21.2003C146.6 21.2003 144.334 19.0003 144.334 16.1336C144.334 13.2669 146.6 11.0669 149.6 11.0669C151 11.0669 152.334 11.5336 153.667 12.4669L155.934 10.4003C153.2 8.13359 150.8 7.93359 149.2 7.93359Z" fill="#DBDBDB"/>
<path id="Vector_10" d="M161.934 17.0648C162 16.9982 162.067 16.9982 162.134 16.9982C162.2 16.9982 162.267 17.0648 162.334 17.1315L168.067 23.9982H172.467L165.067 15.3315C164.934 15.1982 165 15.0648 165.067 14.9315L171.867 8.33151H167.534L161.667 13.9982C161.6 14.0648 161.467 14.1315 161.334 14.0648C161.2 13.9982 161.134 13.9315 161.134 13.7982V1.46484H157.534V23.9315H161.134V17.8648C161.134 17.7982 161.2 17.7315 161.2 17.6648L161.934 17.0648Z" fill="#DBDBDB"/>
<path id="Vector_11" d="M178.4 24.3336C181.333 24.3336 184.333 22.6003 184.333 19.3336C184.333 17.2003 182.933 15.7336 180.066 14.8003L178.133 14.2003C176.8 13.8003 176.2 13.2003 176.2 12.3336C176.2 11.4003 177.066 10.7336 178.333 10.7336C179.533 10.7336 180.6 11.4669 181.266 12.8003L184.133 11.3336C183.066 9.20026 180.866 7.93359 178.333 7.93359C175.133 7.93359 172.8 9.93359 172.8 12.6669C172.8 14.8669 174.133 16.3336 176.866 17.1336L178.866 17.7336C180.266 18.1336 180.866 18.6669 180.866 19.6003C180.866 20.9336 179.6 21.4003 178.533 21.4003C177.066 21.4003 175.8 20.4669 175.133 19.0003L172.2 20.4669C173.133 22.8669 175.533 24.3336 178.4 24.3336Z" fill="#DBDBDB"/>
<path id="Vector_12" d="M81.2004 24.2021C82.3338 24.2021 83.3338 24.1354 83.9338 24.0021V21.0021C83.4671 21.0687 82.6671 21.1354 82.1338 21.1354C80.6671 21.1354 79.6004 20.8687 79.6004 17.8687V11.4688C79.6004 11.3354 79.7338 11.2021 79.9338 11.2021H83.4004V8.40208H79.9338C79.7338 8.40208 79.6004 8.26875 79.6004 8.13542V3.46875H76.0671V8.00208C76.0671 8.13542 75.9338 8.26875 75.7338 8.26875H73.2671V11.0687H75.7338C75.9338 11.0687 76.0671 11.2021 76.0671 11.3354V18.6021C76.0004 24.2021 79.8004 24.2021 81.2004 24.2021Z" fill="#DBDBDB"/>
</g>
</svg>
