<svg width="100%" height="100%" overflow="visible" style="display: block;" viewBox="0 0 97 37" fill="none" xmlns="http://www.w3.org/2000/svg">
<g id="Dbt" clip-path="url(#clip0_0_234)">
<path id="Vector" d="M96.5008 29.8641L96.3008 30.3841H96.2208L96.0208 29.8641V30.3841H95.9008V29.6641H96.0608L96.2608 30.2241L96.4608 29.6641H96.6208V30.3841H96.5008V29.8641ZM95.8208 29.7841H95.6208V30.4241H95.5008V29.7841H95.3008V29.6641H95.8208V29.7841Z" fill="#DBDBDB"/>
<path id="Vector_2" d="M61.9819 5.625V30.185H56.9819V27.665C56.4619 28.545 55.7019 29.265 54.7819 29.705C53.8219 30.185 52.7019 30.465 51.5819 30.465C50.2219 30.505 48.8619 30.105 47.7019 29.345C46.5419 28.545 45.6219 27.505 45.0219 26.225C44.3819 24.745 44.0619 23.185 44.0619 21.585C44.0219 19.985 44.3419 18.425 45.0219 16.985C45.6219 15.745 46.5019 14.665 47.6619 13.945C48.8219 13.185 50.1819 12.825 51.5819 12.865C52.6619 12.865 53.7419 13.105 54.6619 13.585C55.5819 14.025 56.3419 14.705 56.8619 15.585V7.305L61.9819 5.625ZM55.9819 25.345C56.6219 24.505 56.9819 23.265 56.9819 21.665C56.9819 20.065 56.6619 18.865 55.9819 18.025C55.3019 17.185 54.2219 16.705 53.1019 16.705C51.9819 16.625 50.9019 17.145 50.2219 17.985C49.5419 18.825 49.1819 20.025 49.1819 21.585C49.1819 23.185 49.5419 24.425 50.2219 25.305C50.9019 26.185 52.0219 26.665 53.1019 26.625C54.3819 26.665 55.3419 26.185 55.9819 25.345Z" fill="#DBDBDB"/>
<path id="Vector_3" d="M79.7791 13.945C80.9391 14.705 81.8591 15.785 82.4191 16.985C83.0591 18.425 83.3791 19.985 83.3791 21.585C83.4191 23.185 83.0991 24.785 82.4191 26.225C81.8191 27.505 80.9391 28.585 79.7391 29.345C78.6191 30.105 77.2191 30.465 75.8591 30.465C74.7391 30.505 73.6591 30.225 72.6591 29.705C71.7391 29.265 70.9791 28.545 70.4991 27.665V30.185H65.5391V7.305L70.5791 5.625V15.665C71.0591 14.785 71.8191 14.065 72.7391 13.625C73.6991 13.105 74.7791 12.825 75.8991 12.865C77.2591 12.825 78.6191 13.225 79.7791 13.945ZM77.2991 25.305C77.9791 24.425 78.2991 23.185 78.2991 21.545C78.2991 19.985 77.9791 18.785 77.2991 17.945C76.6191 17.105 75.6591 16.665 74.4191 16.665C73.2991 16.585 72.2191 17.105 71.5391 17.985C70.8591 18.865 70.5391 20.065 70.5391 21.625C70.5391 23.225 70.8591 24.465 71.5391 25.305C72.2191 26.185 73.2991 26.665 74.4191 26.625C75.5791 26.705 76.6191 26.185 77.2991 25.305Z" fill="#DBDBDB"/>
<path id="Vector_4" d="M90.3408 17.0641V23.6241C90.3408 24.5841 90.6208 25.2641 91.0608 25.6641C91.5808 26.1041 92.2608 26.3441 92.9808 26.3041C93.5408 26.3041 94.1008 26.2241 94.6608 26.0641V29.9841C93.7008 30.3041 92.7408 30.4641 91.7808 30.4241C89.7008 30.4241 88.1008 29.8241 86.9808 28.6641C85.8608 27.5041 85.3008 25.8241 85.3008 23.6641V9.26406L90.3408 7.66406V13.2641H94.6208V17.0241H90.3408V17.0641Z" fill="#DBDBDB"/>
<path id="Vector_5" d="M34.82 1.5425C35.66 2.3425 36.22 3.4225 36.34 4.5825C36.34 5.0625 36.22 5.3825 35.9 6.0225C35.62 6.6225 31.98 12.9025 30.9 14.6225C30.3 15.6225 29.94 16.8225 29.94 18.0225C29.94 19.2225 30.26 20.3825 30.9 21.4225C31.98 23.1425 35.58 29.4225 35.9 30.0625C36.18 30.6625 36.34 30.9825 36.34 31.4625C36.22 32.6225 35.7 33.7025 34.86 34.5025C34.06 35.3425 32.98 35.9025 31.82 35.9825C31.34 35.9825 31.02 35.8625 30.42 35.5425C29.82 35.2625 23.46 31.7425 21.74 30.6625C21.62 30.5825 21.46 30.5025 21.3 30.4225L12.78 25.3825C12.98 27.0225 13.7 28.5825 14.86 29.7025C15.1 29.9425 15.3 30.1425 15.58 30.3025C15.38 30.3825 15.14 30.5025 14.98 30.6225C13.26 31.7025 6.97999 35.3025 6.33999 35.6225C5.73999 35.9025 5.42 36.0625 4.9 36.0625C3.74 35.9425 2.65999 35.4225 1.85999 34.5825C1.01999 33.7825 0.459995 32.7025 0.339995 31.5425C0.379995 31.0625 0.499994 30.5825 0.779994 30.1425C1.05999 29.5425 4.69999 23.2225 5.77999 21.5025C6.37999 20.5025 6.73999 19.3025 6.73999 18.1025C6.73999 16.9025 6.41999 15.7425 5.77999 14.7025C4.69999 12.9025 1.05999 6.6225 0.779994 6.0225C0.499994 5.5825 0.379995 5.1025 0.339995 4.6225C0.459995 3.4625 0.979995 2.3825 1.82 1.5825C2.62 0.7425 3.69999 0.222499 4.85999 0.102499C5.33999 0.142499 5.82 0.2625 6.3 0.5425C6.82 0.7825 11.42 3.4225 13.86 4.8625L14.42 5.1825C14.62 5.3025 14.78 5.4225 14.9 5.4625L15.18 5.6225L23.86 10.7825C23.66 8.8225 22.66 7.0225 21.1 5.8225C21.3 5.7425 21.54 5.6225 21.7 5.5025C23.42 4.4225 29.7 0.782499 30.34 0.502499C30.78 0.222499 31.26 0.1025 31.78 0.0625C32.94 0.1825 33.98 0.7025 34.82 1.5425ZM18.78 20.3825L20.62 18.5425C20.9 18.2625 20.9 17.9025 20.62 17.6225L18.78 15.7825C18.5 15.5025 18.14 15.5025 17.86 15.7825L16.02 17.6225C15.74 17.9025 15.74 18.2625 16.02 18.5425L17.86 20.3825C18.1 20.5825 18.54 20.5825 18.78 20.3825Z" fill="#DBDBDB"/>
</g>
<defs>
<clipPath id="clip0_0_234">
<rect width="97" height="37" fill="white"/>
</clipPath>
</defs>
</svg>
