<svg width="100%" height="100%" overflow="visible" style="display: block;" viewBox="0 0 95.201 46.9714" fill="none" xmlns="http://www.w3.org/2000/svg">
<g id="Group">
<path id="Vector" fill-rule="evenodd" clip-rule="evenodd" d="M64.7929 11.4076C65.1709 12.2697 65.3599 13.1908 65.3599 14.171C65.3599 13.1908 65.5429 12.2697 65.909 11.4076C66.2868 10.5456 66.7946 9.79569 67.4322 9.158C68.0701 8.5203 68.8198 8.01842 69.6819 7.65233C70.544 7.27444 71.4652 7.0855 72.4452 7.0855C71.4652 7.0855 70.544 6.90246 69.6819 6.53635C68.8198 6.15848 68.0701 5.65068 67.4322 5.013C66.7946 4.37529 66.2868 3.62542 65.909 2.76334C65.5429 1.90127 65.3599 0.980158 65.3599 0C65.3599 0.980158 65.1709 1.90127 64.7929 2.76334C64.427 3.62542 63.925 4.37529 63.2874 5.013C62.6497 5.65068 61.8998 6.15848 61.0377 6.53635C60.1756 6.90246 59.2546 7.0855 58.2744 7.0855C59.2546 7.0855 60.1756 7.27444 61.0377 7.65233C61.8998 8.01842 62.6497 8.5203 63.2874 9.158C63.925 9.79569 64.427 10.5456 64.7929 11.4076ZM7.23782 34.0786C8.68327 34.6739 10.2244 34.9714 11.8611 34.9714C13.5191 34.9714 15.0283 34.7058 16.3887 34.1744C17.7492 33.643 18.9289 32.8884 19.928 31.9106C20.927 30.9329 21.7029 29.7744 22.2555 28.4352C22.8082 27.0748 23.0845 25.5868 23.0845 23.9713V23.9394C23.0845 23.6418 23.0633 23.3655 23.0208 23.1104C22.9995 22.8553 22.9676 22.5896 22.9251 22.3133H11.9249V24.9597H20.2149C20.1299 26.2351 19.8323 27.3405 19.3221 28.2758C18.8332 29.1899 18.2062 29.9443 17.4409 30.5396C16.697 31.1346 15.8361 31.581 14.8583 31.8788C13.9017 32.155 12.9027 32.2933 11.8611 32.2933C10.7133 32.2933 9.59729 32.0805 8.51321 31.6554C7.42914 31.2304 6.46196 30.614 5.61171 29.8062C4.78272 28.9984 4.12375 28.0312 3.63485 26.9047C3.14595 25.7569 2.9015 24.4708 2.9015 23.0466C2.9015 21.6225 3.13532 20.3471 3.60297 19.2205C4.09187 18.0726 4.75084 17.1055 5.57983 16.319C6.40883 15.5112 7.36538 14.8948 8.44945 14.4697C9.55478 14.0445 10.692 13.832 11.8611 13.832C12.7326 13.832 13.5616 13.9489 14.3481 14.1827C15.1346 14.3953 15.8573 14.7035 16.5163 15.1073C17.1965 15.5112 17.781 16.0001 18.2699 16.5741L20.2468 14.5334C19.2902 13.4494 18.068 12.6097 16.5801 12.0145C15.1134 11.4194 13.5404 11.1218 11.8611 11.1218C10.2456 11.1218 8.71516 11.4194 7.26971 12.0145C5.84554 12.6097 4.58077 13.4494 3.47545 14.5334C2.39135 15.6175 1.54109 16.8823 0.924657 18.3277C0.308219 19.7731 0 21.3461 0 23.0466C0 24.7472 0.308219 26.3201 0.924657 27.7655C1.54109 29.2109 2.39135 30.4757 3.47545 31.56C4.55952 32.644 5.81366 33.4836 7.23782 34.0786ZM28.7978 33.8556C30.0304 34.5995 31.4335 34.9714 33.0065 34.9714C34.7918 34.9714 36.2904 34.5677 37.5023 33.7598C38.7139 32.9523 39.6385 31.9319 40.2761 30.699L37.8529 29.5511C37.4065 30.3589 36.7899 31.0391 36.0037 31.5918C35.2382 32.1445 34.2818 32.4207 33.1338 32.4207C32.241 32.4207 31.3804 32.1976 30.5512 31.7512C29.7224 31.3048 29.0421 30.6351 28.5108 29.7426C28.0516 28.971 27.7907 28.0251 27.7284 26.9047H40.5313C40.5526 26.7984 40.5631 26.6602 40.5631 26.4902C40.5844 26.3201 40.5949 26.1607 40.5949 26.0119C40.5949 24.3964 40.2761 22.9616 39.6385 21.7075C39.0219 20.4534 38.1291 19.4756 36.9601 18.7741C35.7909 18.0514 34.3988 17.69 32.7832 17.69C31.1889 17.69 29.7968 18.0939 28.6062 18.9016C27.416 19.6881 26.4913 20.7403 25.8324 22.0582C25.1946 23.3761 24.8758 24.8109 24.8758 26.3627C24.8758 28.0206 25.2159 29.4979 25.8961 30.7948C26.5976 32.0913 27.5648 33.1117 28.7978 33.8556ZM27.8909 24.5771C27.991 24.1039 28.1341 23.6575 28.3193 23.238C28.7233 22.3239 29.3078 21.6012 30.073 21.0698C30.8595 20.5171 31.7736 20.2408 32.815 20.2408C33.6865 20.2408 34.4199 20.3896 35.0152 20.6872C35.6104 20.9635 36.0992 21.3249 36.4819 21.7713C36.8644 22.2176 37.1409 22.6959 37.3108 23.2061C37.481 23.695 37.5765 24.152 37.5978 24.5771H27.8909ZM43.0334 18.2002V34.4614H45.9029V25.4061C45.9029 24.5133 46.0837 23.6737 46.4451 22.8872C46.8065 22.1007 47.3061 21.4737 47.9437 21.006C48.5813 20.5171 49.3042 20.2727 50.1117 20.2727C51.2384 20.2727 52.1098 20.6022 52.7264 21.2611C53.364 21.8988 53.6829 22.9935 53.6829 24.5452V34.4614H56.5206V25.3423C56.5206 24.4496 56.7013 23.6206 57.0628 22.8553C57.4239 22.0688 57.9235 21.4418 58.5614 20.9741C59.199 20.5065 59.9216 20.2727 60.7294 20.2727C61.8773 20.2727 62.7593 20.5915 63.3759 21.2292C64.0136 21.8669 64.3324 22.9616 64.3324 24.5133V34.4614H67.1701V24.0351C67.1701 22.1433 66.7024 20.6128 65.7673 19.4437C64.8532 18.2746 63.4183 17.69 61.4628 17.69C60.1662 17.69 59.0501 17.9876 58.115 18.5828C57.1796 19.178 56.4357 19.9326 55.883 20.8466C55.5003 19.9113 54.8732 19.1567 54.0017 18.5828C53.1515 17.9876 52.1206 17.69 50.909 17.69C50.2288 17.69 49.5485 17.8282 48.8683 18.1045C48.2094 18.3596 47.6249 18.7103 47.1145 19.1567C46.6045 19.5819 46.2007 20.0601 45.9029 20.5915H45.7754V18.2002H43.0334ZM69.7527 18.2002V34.4614H72.5905V18.2002H69.7527ZM69.7209 14.7566C70.1247 15.1392 70.6032 15.3305 71.1558 15.3305C71.7295 15.3305 72.208 15.1392 72.5905 14.7566C72.9732 14.3527 73.1645 13.8745 73.1645 13.3218C73.1645 12.7479 72.9732 12.2696 72.5905 11.887C72.208 11.4831 71.7295 11.2812 71.1558 11.2812C70.6032 11.2812 70.1247 11.4831 69.7209 11.887C69.3382 12.2696 69.1469 12.7479 69.1469 13.3218C69.1469 13.8745 69.3382 14.3527 69.7209 14.7566ZM75.2556 18.2002V34.4614H78.1252V25.4061C78.1252 24.5346 78.3059 23.7162 78.6673 22.951C79.0501 22.1645 79.5706 21.5268 80.2296 21.0379C80.8885 20.5277 81.6645 20.2727 82.5573 20.2727C83.7476 20.2727 84.7043 20.6022 85.4269 21.2611C86.1495 21.8988 86.5109 22.9935 86.5109 24.5452V34.4614H89.3805V24.0351C89.3805 22.122 88.8704 20.5915 87.8501 19.4437C86.8297 18.2746 85.3311 17.69 83.3543 17.69C82.1853 17.69 81.1223 17.977 80.1659 18.5509C79.2095 19.1248 78.5184 19.8051 78.0934 20.5915H77.9658V18.2002H75.2556ZM91.7893 18.2002V34.4614H94.6271V18.2002H91.7893ZM91.7575 14.7566C92.1612 15.1392 92.6397 15.3305 93.1924 15.3305C93.7661 15.3305 94.2446 15.1392 94.6271 14.7566C95.0098 14.3527 95.201 13.8745 95.201 13.3218C95.201 12.7479 95.0098 12.2696 94.6271 11.887C94.2446 11.4831 93.7661 11.2812 93.1924 11.2812C92.6397 11.2812 92.1612 11.4831 91.7575 11.887C91.375 12.2696 91.1835 12.7479 91.1835 13.3218C91.1835 13.8745 91.375 14.3527 91.7575 14.7566Z" fill="white"/>
</g>
</svg>
