<svg width="100%" height="100%" overflow="visible" style="display: block;" viewBox="0 0 129 33" fill="none" xmlns="http://www.w3.org/2000/svg">
<g id="GitHub" clip-path="url(#clip0_0_246)">
<g id="Vector">
<path d="M79.1264 24.7378H79.0834C79.1049 24.7378 79.1049 24.7593 79.1264 24.7593H79.1479L79.1264 24.7378ZM79.1264 24.7593C78.9546 24.7593 78.5036 24.8452 78.0311 24.8452C76.5492 24.8452 76.0338 24.158 76.0338 23.256V17.2855H79.0619C79.2337 17.2855 79.3626 17.1352 79.3626 16.9204V13.6774C79.3626 13.5056 79.2123 13.3553 79.0619 13.3553H76.0338V9.31772C76.0338 9.16738 75.9264 9.08148 75.7546 9.08148H71.6311C71.4593 9.08148 71.3734 9.18886 71.3734 9.31772V13.4627C71.3734 13.4627 69.2901 13.9781 69.1613 13.9996C69.0109 14.0425 68.925 14.1714 68.925 14.3217V16.9204C68.925 17.1352 69.0754 17.2855 69.2472 17.2855H71.3519V23.5566C71.3519 28.217 74.5948 28.6895 76.8069 28.6895C77.8163 28.6895 79.0405 28.3674 79.2338 28.26C79.3411 28.217 79.4056 28.0882 79.4056 27.9593V25.103C79.4056 24.9311 79.2982 24.8023 79.1264 24.7593ZM124.356 20.5714C124.356 17.1137 122.96 16.6627 121.5 16.813C120.361 16.8774 119.438 17.4573 119.438 17.4573V24.1795C119.438 24.1795 120.361 24.8238 121.757 24.8667C123.712 24.9097 124.356 24.2009 124.356 20.5714ZM128.995 20.2707C128.995 26.8211 126.869 28.6895 123.175 28.6895C120.039 28.6895 118.364 27.1003 118.364 27.1003C118.364 27.1003 118.3 27.9808 118.192 28.0882C118.128 28.1956 118.042 28.2385 117.913 28.2385H115.1C114.906 28.2385 114.734 28.0882 114.734 27.9164L114.777 6.71906C114.777 6.54725 114.928 6.39691 115.1 6.39691H119.159C119.33 6.39691 119.481 6.54725 119.481 6.71906V13.9137C119.481 13.9137 121.049 12.9043 123.346 12.9043L123.325 12.8613C125.602 12.8613 128.995 13.7204 128.995 20.2707ZM112.351 13.3768H108.334C108.12 13.3768 108.012 13.5271 108.012 13.7419V24.115C108.012 24.115 106.96 24.8452 105.521 24.8452C104.104 24.8452 103.674 24.2009 103.674 22.762V13.6989C103.674 13.5271 103.524 13.3768 103.352 13.3768H99.2713C99.0995 13.3768 98.9492 13.5271 98.9492 13.6989V23.4707C98.9492 27.6587 101.29 28.711 104.512 28.711C107.175 28.711 109.322 27.2506 109.322 27.2506C109.322 27.2506 109.43 28.0023 109.473 28.1097C109.516 28.1956 109.644 28.2815 109.773 28.2815H112.329C112.544 28.2815 112.651 28.1311 112.651 27.9593L112.694 13.6989C112.716 13.5271 112.544 13.3768 112.351 13.3768ZM67.121 13.3553H63.0619C62.8901 13.3553 62.7398 13.5271 62.7398 13.7419V27.7446C62.7398 28.1311 62.9975 28.26 63.3197 28.26H66.9921C67.3787 28.26 67.4646 28.0882 67.4646 27.7446V13.6774C67.4431 13.5056 67.2928 13.3553 67.121 13.3553ZM65.1022 6.89087C63.6418 6.89087 62.4606 8.0506 62.4606 9.53248C62.4606 10.9929 63.6203 12.1741 65.1022 12.1741C66.5411 12.1741 67.7009 11.0144 67.7009 9.53248C67.7009 8.07208 66.5411 6.89087 65.1022 6.89087ZM96.5868 6.41839H92.5492C92.3774 6.41839 92.227 6.56872 92.227 6.74054V14.5365H85.9129V6.74054C85.9129 6.56872 85.7626 6.41839 85.5908 6.41839H81.5317C81.3599 6.41839 81.2096 6.56872 81.2096 6.74054V27.9378C81.2096 28.1097 81.3814 28.26 81.5317 28.26H85.5908C85.7626 28.26 85.9129 28.1097 85.9129 27.9378V18.8748H92.227L92.1841 27.9378C92.1841 28.1097 92.3344 28.26 92.5062 28.26H96.5653C96.7371 28.26 96.8874 28.1097 96.8874 27.9378V6.74054C96.9089 6.56872 96.7586 6.41839 96.5868 6.41839ZM60.5707 15.8036V26.7566C60.5707 26.8211 60.5492 26.9714 60.4633 26.9929C60.4633 26.9929 58.0794 28.6895 54.1492 28.6895C49.4029 28.6895 43.7546 27.2077 43.7546 17.3929C43.7546 7.57812 48.6727 5.55933 53.4834 5.58081C57.6499 5.58081 59.325 6.52577 59.5827 6.69758C59.6472 6.80496 59.6901 6.8694 59.6901 6.9553L58.917 10.3701C58.917 10.5419 58.7452 10.7566 58.5304 10.6922C57.8432 10.4774 56.8123 10.0694 54.3854 10.0694C51.572 10.0694 48.5653 10.864 48.5653 17.1996C48.5653 23.5137 51.4217 24.2654 53.4834 24.2654C55.2445 24.2654 55.8673 24.0506 55.8673 24.0506V19.6694H53.0539C52.8391 19.6694 52.6888 19.5191 52.6888 19.3472V15.8251C52.6888 15.6533 52.8391 15.5029 53.0539 15.5029H60.2056C60.4203 15.4815 60.5707 15.6318 60.5707 15.8036Z" fill="#DBDBDB"/>
<path fill-rule="evenodd" clip-rule="evenodd" d="M16.4784 0.148438C7.43677 0.148438 0.113281 7.47193 0.113281 16.5135C0.113281 23.7511 4.79516 29.8719 11.3025 32.0411C12.1186 32.1699 12.4408 31.6974 12.4408 31.2679C12.4408 30.8813 12.4193 29.5927 12.4193 28.2182C8.31731 28.9699 7.24348 27.2088 6.92133 26.3068C6.72805 25.8343 5.93341 24.3739 5.24617 23.9874C4.6663 23.6867 3.85019 22.9135 5.22469 22.8921C6.51328 22.8706 7.43677 24.0733 7.73744 24.5672C9.21932 27.037 11.5603 26.3498 12.5052 25.9202C12.6556 24.8679 13.0851 24.1377 13.5576 23.7297C9.92805 23.3216 6.10523 21.9041 6.10523 15.6545C6.10523 13.8719 6.74952 12.3901 7.78039 11.2518C7.60858 10.8437 7.05019 9.16857 7.95221 6.91354C7.95221 6.91354 9.3267 6.48401 12.4623 8.58871C13.7723 8.22361 15.1683 8.03032 16.5428 8.03032C17.9388 8.03032 19.3133 8.22361 20.6233 8.58871C23.7589 6.46254 25.1119 6.91354 25.1119 6.91354C26.014 9.16857 25.4341 10.8437 25.2837 11.2518C26.3361 12.3901 26.9589 13.8505 26.9589 15.6545C26.9589 21.9256 23.1361 23.3216 19.4851 23.7297C20.0864 24.2451 20.6019 25.2115 20.6019 26.7578C20.6019 28.9484 20.5804 30.7095 20.5804 31.2464C20.5804 31.676 20.8811 32.1914 21.6972 32.0196C28.3549 29.7645 32.8435 23.5149 32.8435 16.4921C32.8435 7.47193 25.52 0.148438 16.4784 0.148438Z" fill="#DBDBDB"/>
</g>
</g>
<defs>
<clipPath id="clip0_0_246">
<rect width="129" height="33" fill="white"/>
</clipPath>
</defs>
</svg>
