<svg width="100%" height="100%" overflow="visible" style="display: block;" viewBox="0 0 243 32" fill="none" xmlns="http://www.w3.org/2000/svg">
<g id="Google_Workspace_Logo" clip-path="url(#clip0_0_242)">
<g id="Vector">
<path d="M126.671 2.83831H129.519L123.852 24.0817H121.063L116.494 10.0777H116.376L111.806 24.0817H109.017L103.113 2.83831H105.961L110.442 19.5423H110.56L115.159 5.68659H117.711L122.309 19.5423H122.428L126.671 2.83831Z" fill="#DBDBDB"/>
<path d="M129.252 16.8095C129.252 14.5748 129.954 12.7254 131.358 11.2613C132.782 9.79759 134.573 9.06574 136.729 9.06574C138.884 9.06574 140.665 9.79759 142.069 11.2613C143.493 12.7254 144.205 14.5748 144.205 16.8095C144.205 19.0644 143.493 20.9138 142.069 22.3577C140.664 23.8218 138.884 24.5537 136.729 24.5533C134.573 24.5529 132.783 23.8204 131.358 22.3559C129.954 20.8926 129.251 19.0432 129.252 16.8077M131.981 16.8077C131.981 18.3707 132.436 19.6366 133.346 20.6054C134.256 21.5742 135.383 22.0586 136.729 22.0586C138.074 22.0586 139.201 21.5742 140.111 20.6054C141.021 19.6366 141.476 18.3707 141.476 16.8077C141.476 15.2649 141.021 14.0089 140.111 13.0397C139.182 12.0511 138.055 11.5566 136.729 11.5562C135.402 11.5558 134.274 12.0509 133.345 13.0415C132.435 14.0103 131.98 15.2663 131.98 16.8095" fill="#DBDBDB"/>
<path d="M148.871 24.078H146.142V9.53989H148.753V11.9135H148.874C149.151 11.142 149.719 10.4843 150.58 9.94012C151.441 9.39598 152.286 9.12411 153.116 9.12451C153.907 9.12451 154.58 9.24319 155.134 9.48055L154.301 12.1224C153.964 11.9843 153.43 11.9151 152.699 11.9147C151.67 11.9147 150.775 12.33 150.014 13.1608C149.253 13.9915 148.872 14.9603 148.871 16.0672V24.078Z" fill="#DBDBDB"/>
<path d="M169.184 24.0796H165.89L161.351 17.226L159.126 19.4215V24.0796H156.396V2.83619H159.126V15.9205L165.416 9.54152H168.917V9.6602L163.25 15.2974L169.184 23.961V24.0796Z" fill="#DBDBDB"/>
<path d="M180.998 20.0435C180.998 21.3098 180.445 22.3779 179.337 23.2478C178.229 24.1178 176.835 24.5529 175.153 24.5533C173.69 24.5533 172.404 24.1725 171.296 23.4107C170.211 22.6781 169.382 21.6256 168.923 20.3996L171.356 19.3611C171.712 20.2318 172.231 20.9092 172.914 21.3932C173.564 21.8676 174.349 22.1221 175.154 22.1198C176.025 22.1198 176.751 21.9319 177.334 21.5561C177.916 21.1803 178.208 20.7352 178.209 20.2209C178.209 19.2925 177.497 18.6101 176.073 18.1737L173.58 17.5507C170.753 16.8386 169.339 15.4734 169.338 13.4551C169.338 12.1302 169.877 11.067 170.956 10.2653C172.034 9.46359 173.413 9.06315 175.094 9.06396C176.38 9.06396 177.542 9.37055 178.581 9.98372C179.619 10.5969 180.345 11.4178 180.76 12.4463L178.328 13.4551C178.049 12.8397 177.575 12.3337 176.978 12.0158C176.337 11.6654 175.617 11.4867 174.886 11.4969C174.211 11.4868 173.546 11.6722 172.973 12.0309C172.408 12.387 172.125 12.8221 172.125 13.3364C172.125 14.1671 172.907 14.7605 174.469 15.1166L176.665 15.6803C179.553 16.3924 180.997 17.8456 180.997 20.0399" fill="#DBDBDB"/>
<path d="M190.477 24.5533C189.409 24.5533 188.435 24.3258 187.555 23.8709C186.675 23.4159 185.997 22.8127 185.522 22.061H185.401L185.522 24.0786V30.4872H182.792V9.54046H185.403V11.558H185.524C185.999 10.8068 186.677 10.2035 187.557 9.74814C188.438 9.2928 189.412 9.06534 190.479 9.06574C192.397 9.06574 194.019 9.81737 195.345 11.3206C196.71 12.8441 197.392 14.6737 197.392 16.8095C197.392 18.9659 196.71 20.7955 195.345 22.2984C194.02 23.8016 192.398 24.5533 190.479 24.5533M190.034 22.061C191.34 22.061 192.437 21.5665 193.328 20.5775C194.216 19.6087 194.66 18.3527 194.66 16.8095C194.66 15.2869 194.216 14.0309 193.328 13.0415C192.439 12.0521 191.342 11.5576 190.034 11.558C188.709 11.558 187.601 12.0525 186.711 13.0415C185.841 14.0309 185.405 15.2869 185.406 16.8095C185.406 18.3523 185.841 19.6182 186.711 20.6072C187.599 21.576 188.707 22.061 190.034 22.061Z" fill="#DBDBDB"/>
<path d="M204.859 9.06635C206.877 9.06635 208.469 9.60524 209.635 10.683C210.802 11.7608 211.385 13.2395 211.386 15.1189V24.0804H208.775V22.0616H208.654C207.527 23.7231 206.023 24.5539 204.144 24.5539C202.542 24.5539 201.202 24.0792 200.124 23.1297C199.045 22.1803 198.507 20.9935 198.507 19.5694C198.507 18.0665 199.076 16.8699 200.213 15.9794C201.35 15.0889 202.868 14.6438 204.767 14.6442C206.389 14.6442 207.724 14.9409 208.773 15.5343V14.9088C208.773 13.9594 208.397 13.1533 207.645 12.4905C206.922 11.8386 205.979 11.4838 205.005 11.4968C203.481 11.4968 202.275 12.1397 201.385 13.4254L198.982 11.9116C200.307 10.0144 202.264 9.06574 204.855 9.06574M201.328 19.6318C201.328 20.3438 201.63 20.9372 202.233 21.4119C202.836 21.8866 203.542 22.124 204.352 22.124C205.499 22.124 206.522 21.6987 207.422 20.8482C208.323 19.9977 208.773 18.9988 208.773 17.8516C207.922 17.1795 206.735 16.8432 205.212 16.8428C204.104 16.8428 203.179 17.1098 202.438 17.6439C201.696 18.1779 201.326 18.8406 201.328 19.6318Z" fill="#DBDBDB"/>
<path d="M220.64 24.5533C218.484 24.5533 216.694 23.8214 215.27 22.3577C213.865 20.8549 213.163 19.0055 213.164 16.8095C213.164 14.5748 213.866 12.7254 215.27 11.2613C216.694 9.79759 218.484 9.06574 220.64 9.06574C222.124 9.06574 223.419 9.43651 224.527 10.178C225.635 10.9196 226.466 11.9433 227.019 13.2492L224.53 14.2876C223.758 12.4679 222.403 11.558 220.465 11.558C219.219 11.558 218.141 12.0626 217.231 13.0717C216.341 14.0809 215.896 15.327 215.896 16.8101C215.896 18.2932 216.341 19.5393 217.231 20.5485C218.14 21.5577 219.218 22.0622 220.465 22.0622C222.463 22.0622 223.867 21.1524 224.678 19.3326L227.111 20.3711C226.577 21.6765 225.741 22.7 224.603 23.4416C223.466 24.1831 222.146 24.5541 220.643 24.5545" fill="#DBDBDB"/>
<path d="M235.335 24.5533C233.199 24.5533 231.439 23.8214 230.054 22.3577C228.669 20.894 227.977 19.0446 227.977 16.8095C227.977 14.5946 228.65 12.75 229.995 11.2758C231.34 9.80163 233.061 9.06493 235.157 9.06574C237.313 9.06574 239.028 9.76288 240.304 11.1571C241.58 12.5514 242.217 14.5048 242.216 17.0172L242.186 17.3139H230.766C230.806 18.738 231.281 19.8853 232.19 20.7556C233.099 21.6259 234.187 22.061 235.454 22.061C237.194 22.061 238.559 21.1907 239.548 19.4501L241.981 20.6369C241.361 21.8294 240.42 22.8259 239.266 23.5148C238.109 24.2067 236.798 24.5529 235.335 24.5533ZM230.976 15.059H239.31C239.229 14.0498 238.818 13.214 238.078 12.5516C237.338 11.8892 236.344 11.558 235.097 11.558C234.068 11.558 233.182 11.8745 232.441 12.5074C231.699 13.1404 231.21 13.9909 230.973 15.059" fill="#DBDBDB"/>
<path d="M12.5757 14.7644V11.479H23.5716C23.6937 12.1434 23.7531 12.8179 23.749 13.4935C23.749 15.9567 23.0751 19.0072 20.9031 21.1773C18.7918 23.3771 16.0943 24.5505 12.5169 24.5505C5.89093 24.5505 0.320312 19.1537 0.320312 12.5253C0.320312 5.89684 5.89093 0.5 12.5182 0.5C16.1845 0.5 18.793 1.93746 20.7578 3.81452L18.4412 6.13117C17.0322 4.81178 15.1279 3.78485 12.5182 3.78485C7.68019 3.78485 3.89762 7.68549 3.89762 12.5253C3.89762 17.3651 7.68019 21.2687 12.5182 21.2687C15.6559 21.2687 17.4445 20.0075 18.5877 18.8637C19.5196 17.9318 20.1336 16.5949 20.3715 14.7674L12.5757 14.7644Z" fill="#DBDBDB"/>
<path d="M40.5039 16.8057C40.5039 21.267 37.0137 24.5488 32.7341 24.5488C28.4544 24.5488 24.9643 21.267 24.9643 16.8057C24.9643 12.3183 28.4538 9.06251 32.7353 9.06251C37.0168 9.06251 40.5051 12.3183 40.5051 16.8057M37.104 16.8057C37.104 14.0204 35.081 12.113 32.7353 12.113C30.3896 12.113 28.366 14.0192 28.366 16.8057C28.366 19.5625 30.3889 21.4983 32.7353 21.4983C35.0816 21.4983 37.104 19.5607 37.104 16.8057Z" fill="#DBDBDB"/>
<path d="M57.455 16.8057C57.455 21.267 53.9679 24.5488 49.6852 24.5488C45.4024 24.5488 41.9147 21.267 41.9147 16.8057C41.9147 12.3183 45.4037 9.06251 49.6852 9.06251C53.9667 9.06251 57.455 12.3183 57.455 16.8057ZM54.0539 16.8057C54.0539 14.0204 52.0309 12.113 49.6852 12.113C47.3394 12.113 45.3159 14.0192 45.3159 16.8057C45.3159 19.5625 47.3388 21.4983 49.6852 21.4983C52.0315 21.4983 54.0539 19.5607 54.0539 16.8057Z" fill="#DBDBDB"/>
<path d="M73.7042 9.53178V23.4341C73.7042 29.1537 70.3322 31.5 66.3443 31.5C62.5902 31.5 60.3329 28.9775 59.4828 26.9248L62.4461 25.6926C62.9735 26.9539 64.2626 28.4495 66.3462 28.4495C68.8971 28.4495 70.4805 26.8655 70.4805 23.9034V22.7892H70.3631C69.6007 23.7278 68.1348 24.5488 66.2874 24.5488C62.4164 24.5488 58.8688 21.1756 58.8688 16.8353C58.8688 12.4648 62.4164 9.06251 66.2874 9.06251C68.1348 9.06251 69.6007 9.88357 70.3631 10.793H70.4805V9.53178H73.7042ZM70.713 16.8353C70.713 14.1076 68.8965 12.1124 66.5787 12.1124C64.233 12.1124 62.2681 14.107 62.2681 16.8353C62.2681 19.5335 64.233 21.4977 66.5787 21.4977C68.8953 21.4977 70.713 19.5329 70.713 16.8353Z" fill="#DBDBDB"/>
<path d="M79.459 1.39757H76.0579V24.0815H79.459V1.39757Z" fill="#DBDBDB"/>
<path d="M92.6034 19.3573L95.2422 21.1168C94.3945 22.3781 92.3394 24.5488 88.7912 24.5488C84.3928 24.5488 81.1086 21.1465 81.1086 16.8057C81.1086 12.2039 84.4225 9.06251 88.4097 9.06251C92.4272 9.06251 94.3914 12.2596 95.0369 13.9901L95.3887 14.8699L85.0346 19.152C85.8266 20.7063 87.0582 21.4983 88.7887 21.4983C90.5193 21.4983 91.7212 20.6506 92.6034 19.3573ZM84.4806 16.5719L91.4009 13.6982C91.0194 12.7294 89.8762 12.0561 88.5272 12.0561C86.7972 12.0561 84.3928 13.5814 84.4806 16.5732" fill="#DBDBDB"/>
</g>
</g>
<defs>
<clipPath id="clip0_0_242">
<rect width="243" height="32" fill="white"/>
</clipPath>
</defs>
</svg>
