<svg width="100%" height="100%" overflow="visible" style="display: block;" viewBox="0 0 203 32" fill="none" xmlns="http://www.w3.org/2000/svg">
<g id="Google_Cloud" clip-path="url(#clip0_0_259)">
<g id="Vector">
<path d="M24.1484 8.46797H25.2913L28.5484 5.21083L28.7084 3.82798C26.8425 2.18107 24.5876 1.03702 22.1566 0.503898C19.7256 -0.0292221 17.1989 0.0661882 14.815 0.781116C12.4312 1.49604 10.2689 2.80689 8.53252 4.58982C6.79613 6.37275 5.54293 8.5689 4.89129 10.9708C5.25415 10.8221 5.65611 10.798 6.03415 10.9023L12.5484 9.82798C12.5484 9.82798 12.8799 9.2794 13.0513 9.31369C14.4471 7.78074 16.3761 6.83929 18.4433 6.68207C20.5106 6.52484 22.5597 7.16374 24.1713 8.46797H24.1484Z" fill="#DBDBDB"/>
<path d="M33.1881 10.9705C32.4394 8.21351 30.9022 5.73501 28.7652 3.83907L24.1938 8.4105C25.1465 9.18897 25.91 10.1736 26.4267 11.2902C26.9435 12.4068 27.1999 13.6261 27.1766 14.8562V15.6676C27.7109 15.6676 28.24 15.7729 28.7336 15.9773C29.2272 16.1818 29.6757 16.4815 30.0535 16.8593C30.4314 17.2371 30.731 17.6856 30.9355 18.1792C31.14 18.6729 31.2452 19.2019 31.2452 19.7362C31.2452 20.2705 31.14 20.7996 30.9355 21.2932C30.731 21.7868 30.4314 22.2353 30.0535 22.6131C29.6757 22.9909 29.2272 23.2906 28.7336 23.4951C28.24 23.6995 27.7109 23.8048 27.1766 23.8048H19.0395L18.2281 24.6276V29.5076L19.0395 30.3191H27.1766C29.4489 30.3368 31.6665 29.6226 33.5014 28.2822C35.3364 26.9419 36.6911 25.0465 37.3653 22.8765C38.0395 20.7065 37.9974 18.3771 37.2451 16.2329C36.4928 14.0887 35.0703 12.2436 33.1881 10.9705Z" fill="#DBDBDB"/>
<path d="M10.8917 30.2742H19.0288V23.76H10.8917C10.312 23.7598 9.73903 23.6351 9.2117 23.3942L8.06885 23.7485L4.78884 27.0057L4.50313 28.1485C6.34248 29.5375 8.58688 30.2842 10.8917 30.2742Z" fill="#DBDBDB"/>
<path d="M10.8907 9.14192C8.68596 9.15509 6.54035 9.85655 4.75359 11.1483C2.96682 12.4401 1.62813 14.2577 0.92449 16.3472C0.22085 18.4367 0.187399 20.6938 0.828811 22.8033C1.47022 24.9127 2.75446 26.7692 4.50216 28.1133L9.22216 23.3933C8.62235 23.1223 8.09724 22.7099 7.69188 22.1913C7.28652 21.6728 7.01302 21.0636 6.89484 20.4161C6.77667 19.7686 6.81735 19.1021 7.01339 18.4738C7.20943 17.8455 7.55497 17.2741 8.02039 16.8087C8.4858 16.3433 9.05717 15.9978 9.68549 15.8017C10.3138 15.6057 10.9803 15.565 11.6278 15.6832C12.2753 15.8013 12.8844 16.0748 13.403 16.4802C13.9216 16.8856 14.334 17.4107 14.605 18.0105L19.325 13.2905C18.3343 11.9954 17.0575 10.9469 15.5943 10.2273C14.1311 9.50757 12.5213 9.1361 10.8907 9.14192Z" fill="#DBDBDB"/>
<path d="M59.5082 25.7252C58.1073 25.743 56.7171 25.4779 55.421 24.9457C54.1249 24.4136 52.9496 23.6253 51.9654 22.628C50.9502 21.6731 50.1446 20.5177 49.5996 19.2349C49.0546 17.9522 48.7822 16.5702 48.7997 15.1766C48.7829 13.7831 49.0557 12.4013 49.6006 11.1187C50.1455 9.83606 50.9508 8.68051 51.9654 7.72519C52.9447 6.71764 54.1179 5.91876 55.4142 5.37667C56.7105 4.83457 58.1032 4.56048 59.5082 4.5709C60.847 4.55306 62.176 4.80151 63.4179 5.30181C64.6599 5.80211 65.7899 6.54428 66.7425 7.48519L64.7082 9.55376C63.3151 8.20742 61.4454 7.46775 59.5082 7.49661C58.5033 7.48427 57.5069 7.6811 56.5821 8.0746C55.6574 8.4681 54.8247 9.04966 54.1368 9.78233C53.4219 10.4916 52.8579 11.3381 52.4789 12.2711C52.0998 13.204 51.9135 14.204 51.9311 15.2109C51.9227 16.2063 52.1135 17.1933 52.4923 18.1138C52.8711 19.0343 53.4303 19.8697 54.1368 20.5709C55.5521 21.9813 57.4619 22.7836 59.4598 22.8071C61.4577 22.8306 63.3859 22.0734 64.8339 20.6966C65.7304 19.7149 66.2804 18.4664 66.3997 17.1423H59.5425V14.2166H69.2454C69.3407 14.8058 69.379 15.4029 69.3597 15.9995C69.42 17.2342 69.2293 18.4684 68.7991 19.6273C68.3689 20.7863 67.7082 21.846 66.8568 22.7423C65.9102 23.7279 64.7666 24.5029 63.5004 25.0168C62.2342 25.5308 60.8739 25.7721 59.5082 25.7252ZM82.0682 23.7823C80.7661 25.0305 79.032 25.7274 77.2282 25.7274C75.4244 25.7274 73.6904 25.0305 72.3882 23.7823C71.7401 23.1539 71.2297 22.3976 70.8893 21.5615C70.549 20.7254 70.3861 19.8276 70.4111 18.9252C70.3868 18.0229 70.55 17.1253 70.8903 16.2893C71.2306 15.4532 71.7407 14.6969 72.3882 14.068C73.6917 12.8224 75.4253 12.1273 77.2282 12.1273C79.0312 12.1273 80.7647 12.8224 82.0682 14.068C82.7158 14.6969 83.2259 15.4532 83.5662 16.2893C83.9065 17.1253 84.0697 18.0229 84.0454 18.9252C84.0689 19.8284 83.9042 20.7267 83.5619 21.5629C83.2195 22.3991 82.707 23.1549 82.0568 23.7823H82.0682ZM74.5254 21.8738C74.8717 22.2436 75.2903 22.5385 75.7552 22.7401C76.2202 22.9417 76.7215 23.0457 77.2282 23.0457C77.735 23.0457 78.2363 22.9417 78.7012 22.7401C79.1661 22.5385 79.5847 22.2436 79.9311 21.8738C80.3087 21.4834 80.6044 21.0215 80.8007 20.515C80.997 20.0086 81.0899 19.4681 81.074 18.9252C81.0908 18.3805 80.9983 17.8379 80.8021 17.3295C80.6058 16.8211 80.3096 16.3572 79.9311 15.9652C79.5801 15.5991 79.1588 15.3078 78.6923 15.1088C78.2258 14.9097 77.7239 14.8072 77.2168 14.8072C76.7097 14.8072 76.2078 14.9097 75.7413 15.1088C75.2748 15.3078 74.8535 15.5991 74.5025 15.9652C74.124 16.3572 73.8278 16.8211 73.6316 17.3295C73.4353 17.8379 73.3428 18.3805 73.3597 18.9252C73.3452 19.4689 73.4399 20.0099 73.6382 20.5164C73.8364 21.0228 74.1342 21.4844 74.5139 21.8738H74.5254ZM96.9482 23.7823C95.6461 25.0305 93.912 25.7274 92.1082 25.7274C90.3044 25.7274 88.5704 25.0305 87.2682 23.7823C86.6201 23.1539 86.1097 22.3976 85.7693 21.5615C85.429 20.7254 85.2661 19.8276 85.2911 18.9252C85.2668 18.0229 85.43 17.1253 85.7703 16.2893C86.1106 15.4532 86.6207 14.6969 87.2682 14.068C88.5704 12.8198 90.3044 12.123 92.1082 12.123C93.912 12.123 95.6461 12.8198 96.9482 14.068C97.5958 14.6969 98.1059 15.4532 98.4462 16.2893C98.7865 17.1253 98.9497 18.0229 98.9254 18.9252C98.9504 19.8276 98.7875 20.7254 98.4471 21.5615C98.1068 22.3976 97.5964 23.1539 96.9482 23.7823ZM89.4054 21.8738C89.7517 22.2436 90.1703 22.5385 90.6352 22.7401C91.1002 22.9417 91.6015 23.0457 92.1082 23.0457C92.615 23.0457 93.1163 22.9417 93.5812 22.7401C94.0461 22.5385 94.4647 22.2436 94.8111 21.8738C95.1887 21.4834 95.4844 21.0215 95.6807 20.515C95.877 20.0086 95.9699 19.4681 95.9539 18.9252C95.9708 18.3805 95.8783 17.8379 95.6821 17.3295C95.4858 16.8211 95.1896 16.3572 94.8111 15.9652C94.4601 15.5991 94.0388 15.3078 93.5723 15.1088C93.1058 14.9097 92.6039 14.8072 92.0968 14.8072C91.5897 14.8072 91.0878 14.9097 90.6213 15.1088C90.1548 15.3078 89.7335 15.5991 89.3825 15.9652C89.004 16.3572 88.7078 16.8211 88.5116 17.3295C88.3153 17.8379 88.2228 18.3805 88.2397 18.9252C88.2252 19.4689 88.3199 20.0099 88.5182 20.5164C88.7164 21.0228 89.0142 21.4844 89.3939 21.8738H89.4054ZM106.731 31.828C105.361 31.8716 104.018 31.444 102.925 30.6166C101.955 29.8873 101.191 28.9186 100.708 27.8052L103.314 26.7195C103.598 27.3848 104.041 27.9698 104.605 28.4223C105.209 28.9092 105.967 29.1645 106.743 29.1423C107.234 29.1722 107.727 29.0958 108.186 28.9184C108.646 28.7409 109.061 28.4664 109.405 28.1138C110.094 27.2832 110.434 26.2182 110.354 25.1423V24.1595H110.251C109.816 24.6767 109.266 25.0855 108.645 25.3533C108.024 25.6211 107.349 25.7406 106.674 25.7023C105.816 25.7049 104.967 25.5295 104.18 25.1873C103.393 24.845 102.686 24.3433 102.103 23.7138C101.47 23.0893 100.97 22.3429 100.634 21.5198C100.299 20.6967 100.133 19.814 100.148 18.9252C100.132 18.0311 100.297 17.1431 100.633 16.3143C100.969 15.4856 101.469 14.7332 102.103 14.1023C102.684 13.4702 103.391 12.966 104.178 12.6217C104.965 12.2773 105.815 12.1005 106.674 12.1023C107.401 12.1011 108.119 12.2611 108.777 12.5709C109.346 12.8194 109.853 13.19 110.263 13.6566H110.365V12.5709H113.2V24.7423C113.274 25.7052 113.152 26.6731 112.839 27.5869C112.527 28.5006 112.031 29.341 111.383 30.0566C110.765 30.6476 110.035 31.1088 109.236 31.413C108.437 31.7173 107.585 31.8584 106.731 31.828ZM106.937 23.0509C107.425 23.0616 107.909 22.9648 108.356 22.7673C108.802 22.5698 109.199 22.2764 109.52 21.908C110.225 21.1 110.597 20.0542 110.56 18.9823C110.602 17.8924 110.23 16.8268 109.52 15.9995C109.2 15.6305 108.803 15.3367 108.356 15.1391C107.91 14.9416 107.425 14.8451 106.937 14.8566C106.435 14.8463 105.938 14.9429 105.477 15.14C105.015 15.337 104.602 15.63 104.263 15.9995C103.507 16.7971 103.096 17.8608 103.12 18.9595C103.108 19.4984 103.203 20.0343 103.399 20.5364C103.595 21.0385 103.889 21.4968 104.263 21.8852C104.6 22.2582 105.013 22.5551 105.474 22.7561C105.935 22.9571 106.434 23.0576 106.937 23.0509ZM118.24 5.33661V25.3138H115.257V5.33661H118.24ZM126.423 25.7252C125.529 25.7481 124.641 25.5864 123.813 25.2501C122.985 24.9139 122.235 24.4103 121.611 23.7709C120.978 23.1362 120.48 22.3794 120.148 21.5464C119.816 20.7134 119.656 19.8216 119.68 18.9252C119.646 18.0266 119.793 17.1303 120.113 16.2899C120.433 15.4496 120.92 14.6822 121.543 14.0338C122.13 13.4149 122.839 12.9254 123.627 12.5967C124.414 12.2681 125.261 12.1075 126.114 12.1252C126.898 12.1169 127.676 12.2686 128.4 12.5709C129.052 12.834 129.646 13.2223 130.148 13.7138C130.58 14.1304 130.963 14.5943 131.291 15.0966C131.556 15.5207 131.782 15.9683 131.965 16.4338L132.274 17.2109L123.131 20.9709C123.408 21.6062 123.87 22.1428 124.458 22.5101C125.045 22.8773 125.73 23.0579 126.423 23.028C127.096 23.0299 127.759 22.8571 128.345 22.5266C128.932 22.1962 129.423 21.7192 129.771 21.1423L132.057 22.6852C131.473 23.5197 130.727 24.2273 129.863 24.7652C128.834 25.4147 127.638 25.7485 126.423 25.7252ZM122.605 18.7195L128.685 16.1938C128.498 15.7484 128.163 15.3812 127.737 15.1538C127.259 14.8842 126.719 14.7462 126.171 14.7538C125.241 14.7778 124.358 15.168 123.714 15.8395C123.329 16.2083 123.029 16.6577 122.838 17.1555C122.646 17.6534 122.567 18.1874 122.605 18.7195Z" fill="#DBDBDB"/>
<path d="M147.897 25.7256C146.629 25.7475 145.369 25.5129 144.193 25.0357C143.018 24.5586 141.951 23.8488 141.056 22.949C140.162 22.0492 139.458 20.9779 138.988 19.7995C138.518 18.621 138.291 17.3598 138.32 16.0913C138.291 14.8229 138.518 13.5617 138.988 12.3832C139.458 11.2048 140.162 10.1335 141.056 9.23371C141.951 8.3339 143.018 7.62412 144.193 7.14698C145.369 6.66983 146.629 6.43516 147.897 6.45706C149.181 6.41692 150.458 6.66743 151.631 7.18988C152.805 7.71234 153.845 8.49322 154.675 9.4742L153.029 11.0742C152.42 10.3084 151.639 9.69704 150.749 9.28994C149.86 8.88284 148.886 8.69145 147.909 8.73135C146.968 8.71014 146.032 8.87942 145.158 9.22901C144.284 9.5786 143.49 10.1013 142.823 10.7656C142.13 11.4628 141.588 12.2958 141.232 13.2123C140.876 14.1288 140.714 15.109 140.755 16.0913C140.714 17.0737 140.876 18.0539 141.232 18.9704C141.588 19.8869 142.13 20.7199 142.823 21.4171C143.49 22.0814 144.284 22.6041 145.158 22.9537C146.032 23.3033 146.968 23.4725 147.909 23.4513C149.001 23.4636 150.082 23.2295 151.071 22.7665C152.061 22.3035 152.933 21.6235 153.623 20.7771L155.269 22.4228C154.407 23.4532 153.325 24.2772 152.103 24.8342C150.786 25.4425 149.348 25.7471 147.897 25.7256Z" fill="#DBDBDB"/>
<path d="M159.692 25.3139H157.326V6.85671H159.692V25.3139Z" fill="#DBDBDB"/>
<path d="M163.553 14.2067C164.793 12.9756 166.469 12.2847 168.216 12.2847C169.963 12.2847 171.639 12.9756 172.879 14.2067C173.485 14.8467 173.959 15.6003 174.273 16.4241C174.586 17.2479 174.734 18.1256 174.708 19.0067C174.734 19.8878 174.586 20.7655 174.273 21.5893C173.959 22.4131 173.485 23.1667 172.879 23.8067C171.639 25.0378 169.963 25.7287 168.216 25.7287C166.469 25.7287 164.793 25.0378 163.553 23.8067C162.947 23.1667 162.473 22.4131 162.16 21.5893C161.846 20.7655 161.698 19.8878 161.725 19.0067C161.698 18.1256 161.846 17.2479 162.16 16.4241C162.473 15.6003 162.947 14.8467 163.553 14.2067ZM165.313 22.321C165.686 22.7149 166.135 23.0287 166.633 23.2431C167.131 23.4576 167.668 23.5682 168.21 23.5682C168.753 23.5682 169.289 23.4576 169.788 23.2431C170.286 23.0287 170.735 22.7149 171.108 22.321C171.521 21.8773 171.842 21.3557 172.052 20.7867C172.262 20.2177 172.357 19.6126 172.33 19.0067C172.357 18.4008 172.262 17.7957 172.052 17.2267C171.842 16.6577 171.521 16.1361 171.108 15.6924C170.735 15.2985 170.286 14.9847 169.788 14.7703C169.289 14.5558 168.753 14.4452 168.21 14.4452C167.668 14.4452 167.131 14.5558 166.633 14.7703C166.135 14.9847 165.686 15.2985 165.313 15.6924C164.9 16.1361 164.579 16.6577 164.369 17.2267C164.159 17.7957 164.064 18.4008 164.09 19.0067C164.067 19.6115 164.164 20.2149 164.376 20.7819C164.588 21.3489 164.911 21.8682 165.325 22.3096L165.313 22.321Z" fill="#DBDBDB"/>
<path d="M187.817 25.3135H185.532V23.5649H185.463C185.056 24.229 184.481 24.7733 183.795 25.1421C183.083 25.5546 182.274 25.7715 181.452 25.7706C180.784 25.8163 180.114 25.7105 179.493 25.4612C178.871 25.2119 178.314 24.8254 177.863 24.3306C176.997 23.2356 176.562 21.8615 176.64 20.4678V12.6963H179.006V20.0335C179.006 22.3878 180.046 23.5649 182.126 23.5649C182.588 23.5793 183.047 23.4831 183.465 23.2843C183.882 23.0856 184.246 22.7899 184.526 22.4221C185.139 21.645 185.466 20.6804 185.452 19.6906V12.6963H187.817V25.3135Z" fill="#DBDBDB"/>
<path d="M195.851 25.7253C195.048 25.7279 194.255 25.5567 193.525 25.2232C192.795 24.8898 192.146 24.4022 191.622 23.7939C190.438 22.4852 189.803 20.77 189.851 19.0053C189.803 17.2406 190.438 15.5254 191.622 14.2167C192.146 13.6084 192.795 13.1207 193.525 12.7873C194.255 12.4539 195.048 12.2826 195.851 12.2853C196.75 12.2711 197.638 12.4833 198.434 12.9024C199.133 13.2542 199.725 13.787 200.148 14.4453H200.251L200.148 12.6967V6.85671H202.514V25.3139H200.228V23.5653H200.125C199.702 24.2236 199.11 24.7563 198.411 25.1081C197.622 25.5235 196.742 25.7356 195.851 25.7253ZM196.24 23.5653C196.774 23.5731 197.305 23.467 197.795 23.2542C198.286 23.0414 198.726 22.7267 199.085 22.331C199.889 21.4159 200.3 20.221 200.228 19.0053C200.3 17.7895 199.889 16.5946 199.085 15.6796C198.723 15.2817 198.282 14.9638 197.79 14.7463C197.298 14.5288 196.766 14.4164 196.228 14.4164C195.69 14.4164 195.158 14.5288 194.666 14.7463C194.174 14.9638 193.733 15.2817 193.371 15.6796C192.972 16.1296 192.665 16.6541 192.469 17.2228C192.273 17.7915 192.191 18.3934 192.228 18.9939C192.191 19.5943 192.273 20.1962 192.469 20.7649C192.665 21.3336 192.972 21.8581 193.371 22.3081C193.731 22.7109 194.174 23.0317 194.669 23.2486C195.163 23.4655 195.699 23.5735 196.24 23.5653Z" fill="#DBDBDB"/>
</g>
</g>
<defs>
<clipPath id="clip0_0_259">
<rect width="203" height="32" fill="white"/>
</clipPath>
</defs>
</svg>
