<svg preserveAspectRatio="none" width="100%" height="100%" overflow="visible" style="display: block;" viewBox="0 0 113 42" fill="none" xmlns="http://www.w3.org/2000/svg">
<g id="Grok">
<path id="grok" d="M11.5391 10.1084C16.2377 5.40805 23.1584 4.22322 28.9385 6.60449C30.2172 7.08002 31.3317 7.75662 32.2012 8.38574L27.374 10.6172C22.8801 8.72993 17.7319 10.0134 14.5898 13.1592C10.4069 17.3432 9.50991 24.5513 14.2334 29.3184L14.459 29.5469L0.863281 41.7061C1.72555 40.5173 2.7964 39.3934 3.86328 38.2705C6.8738 35.1028 9.86218 31.9642 8.03906 27.5273C5.59857 21.5906 7.01953 14.6331 11.5391 10.1084ZM43.3604 1.04395C38.8847 7.21467 36.6995 10.2327 38.4531 17.7822L38.4424 17.7715C39.6518 22.9107 38.3587 28.61 34.1826 32.791C28.9177 38.0656 20.4921 39.2399 13.5537 34.4922L18.3916 32.25C22.8197 33.9909 27.6647 33.226 31.1465 29.7402C34.6283 26.2543 35.4102 21.1769 33.6602 16.9521C33.3275 16.1511 32.3297 15.9501 31.6318 16.4658L17.3936 26.9893L37.7881 6.47949V6.49805L43.6787 0.601562C43.5728 0.751515 43.4662 0.897651 43.3604 1.04395ZM59.2471 10.2656C64.1653 10.2657 67.7663 12.7862 68.6152 17.4756H64.8389C64.2827 14.8085 62.0575 13.3135 59.2471 13.3135C54.7094 13.3135 52.7188 17.2415 52.7188 21.2568C52.7188 25.272 54.7095 29.1699 59.2471 29.1699C63.5796 29.1699 65.4824 26.0342 65.6289 23.4258H59.1006V20.3906H68.9668L68.9502 21.9775C68.9501 27.8734 66.5474 32.0771 59.124 32.0771C52.8188 32.0771 49.0597 27.4996 49.0596 21.2568C49.0596 14.9554 52.9529 10.2656 59.2471 10.2656ZM88.5615 16.1602C93.509 16.1602 96.1444 19.6184 96.1445 24.1025C96.1445 28.5575 93.5091 32.0459 88.5615 32.0459C83.6434 32.0458 80.9795 28.5574 80.9795 24.1025C80.9796 19.6185 83.6436 16.1603 88.5615 16.1602ZM80.4668 19.3564H75.0801V31.6963H71.7725V18.9463L74.5527 16.543H80.4668V19.3564ZM101.903 24.5762L108.899 16.5391H112.91L106.616 23.4268L112.969 31.6924H109.017L103.871 24.5908L101.903 24.5762V31.6924H98.5947V10.7656H101.903V24.5762ZM88.5615 18.8857C86.3075 18.8859 84.4337 20.6444 84.4336 24.1025C84.4336 27.5609 86.3074 29.2909 88.5615 29.291C90.8451 29.291 92.6895 27.561 92.6895 24.1025C92.6893 20.6443 90.845 18.8857 88.5615 18.8857Z" fill="var(--fill-0, #DBDBDB)"/>
</g>
</svg>
