<svg width="100%" height="100%" overflow="visible" style="display: block;" viewBox="0 0 92 32" fill="none" xmlns="http://www.w3.org/2000/svg">
<g id="Jira" clip-path="url(#clip0_0_248)">
<g id="Vector">
<path d="M47.2097 4.75239H50.6118V21.5672C50.6118 26.0009 48.5877 29.0962 43.8936 29.0962C42.128 29.0962 40.7498 28.8034 39.8024 28.4687V25.2481C40.836 25.6664 42.0848 25.8755 43.3337 25.8755C46.2191 25.8755 47.2097 24.2023 47.2097 21.7763V4.75239Z" fill="#DBDBDB"/>
<path d="M56.8571 3.45536C58.1921 3.45536 59.1395 4.25009 59.1395 5.67223C59.1395 7.05256 58.1921 7.88912 56.8571 7.88912C55.5219 7.88912 54.5746 7.09439 54.5746 5.67223C54.5746 4.29192 55.5219 3.45536 56.8571 3.45536ZM55.1775 10.5242H58.4505V28.9286H55.1775V10.5242Z" fill="#DBDBDB"/>
<path d="M66.546 28.9287H63.3591V10.5243H66.546V13.7451C67.6656 11.5701 69.5605 10.0224 73.2641 10.2316V13.3268C69.0869 12.9085 66.546 14.1215 66.546 18.0533V28.9287Z" fill="#DBDBDB"/>
<path d="M88.5499 25.6233C87.3441 28.0493 85.0617 29.304 82.1331 29.304C77.0945 29.304 74.5537 25.1632 74.5537 19.7255C74.5537 14.5388 77.2237 10.147 82.5208 10.147C85.2769 10.147 87.4303 11.3599 88.5499 13.7441V10.5233H91.8229V28.9277H88.5499V25.6233ZM82.9945 26.3761C85.923 26.3761 88.5069 24.5775 88.5069 20.4784V19.0145C88.5069 14.9153 86.1383 13.1167 83.339 13.1167C79.6784 13.1167 77.7836 15.4591 77.7836 19.7255C77.8266 24.1593 79.6354 26.3761 82.9945 26.3761Z" fill="#DBDBDB"/>
<path d="M30.1158 0.984375H15.2153C15.2153 4.58158 18.2298 7.50953 21.9334 7.50953H24.6896V10.061C24.6896 13.6582 27.7042 16.5862 31.4078 16.5862V2.23921C31.4078 1.52814 30.848 0.984375 30.1158 0.984375Z" fill="#DBDBDB"/>
<path d="M22.7467 8.17902H7.84608C7.84608 11.7762 10.8606 14.7041 14.5643 14.7041H17.3204V17.2975C17.3204 20.8947 20.3351 23.8227 24.0387 23.8227V9.43381C24.0387 8.7646 23.4788 8.17902 22.7467 8.17902Z" fill="#DBDBDB"/>
<path d="M15.385 15.4131H0.484375C0.484375 19.0102 3.49895 21.9382 7.20257 21.9382H9.95875V24.4897C9.95875 28.0869 12.9733 31.0148 16.6769 31.0148V16.6678C16.6769 15.9568 16.0741 15.4131 15.385 15.4131Z" fill="#DBDBDB"/>
</g>
</g>
<defs>
<clipPath id="clip0_0_248">
<rect width="92" height="32" fill="white"/>
</clipPath>
</defs>
</svg>
