<svg width="100%" height="100%" overflow="visible" style="display: block;" viewBox="0 0 81.105 55.0745" fill="none" xmlns="http://www.w3.org/2000/svg">
<g id="Logo">
<path id="Vector" d="M19.4975 50.1729H16.3683C16.2576 44.891 15.9529 39.9253 15.4546 35.2722H15.4268L10.6625 50.1729H8.27999L3.54407 35.2722H3.51686C3.16554 39.7396 2.94422 44.7065 2.85231 50.1729H0C0.183825 43.5256 0.645806 37.2937 1.38413 31.4766H5.2626L9.77659 45.2145H9.80441L14.3462 31.4766H18.0572C18.8699 38.2902 19.35 44.5227 19.4975 50.1729ZM33.0686 36.3788C31.7945 43.2928 30.1134 48.3165 28.0273 51.4524C26.4019 53.8663 24.6211 55.0745 22.6818 55.0745C22.1648 55.0745 21.5269 54.9185 20.771 54.6089V52.9418C21.1405 52.995 21.574 53.0252 22.0723 53.0252C22.9781 53.0252 23.7062 52.7761 24.2613 52.2766C24.9252 51.6683 25.2572 50.9844 25.2572 50.2279C25.2572 49.7091 24.9984 48.6485 24.482 47.0424L21.048 36.3782H24.1222L26.5869 44.354C27.1408 46.165 27.3718 47.4294 27.2793 48.1496C28.6271 44.5499 29.5686 40.6249 30.105 36.3776H33.0686V36.3788Z" fill="#DBDBDB"/>
<path id="Vector_2" d="M74.7259 50.1737H65.837V31.4774H68.8272V47.8723H74.7259V50.1737ZM63.5102 50.6254L60.0731 48.9293C60.3779 48.6789 60.6694 48.408 60.9318 48.0942C62.3927 46.3781 63.1214 43.8402 63.1214 40.4788C63.1214 34.2934 60.6941 31.1992 55.8379 31.1992C53.4566 31.1992 51.599 31.9841 50.2705 33.5545C48.8108 35.2718 48.0822 37.8006 48.0822 41.1439C48.0822 44.4304 48.728 46.8413 50.0202 48.3705C51.2024 49.7559 52.9844 50.4494 55.3674 50.4494C56.2563 50.4494 57.0721 50.3406 57.8152 50.1211L62.2899 52.7261L63.5102 50.6254ZM52.3761 46.4325C51.619 45.2147 51.2405 43.2591 51.2405 40.5628C51.2405 35.8553 52.6705 33.4988 55.5337 33.4988C57.0303 33.4988 58.1272 34.0624 58.8287 35.1871C59.5845 36.4068 59.9649 38.3448 59.9649 41.0036C59.9649 45.7498 58.5336 48.1232 55.6722 48.1232C54.175 48.1238 53.0781 47.5621 52.3761 46.4325ZM46.7791 44.9915C46.7791 46.577 46.1974 47.8777 45.0352 48.8966C43.8717 49.9113 42.3116 50.4198 40.3567 50.4198C38.5281 50.4198 36.7552 49.8357 35.0391 48.6735L35.8427 47.068C37.3193 47.8076 38.6563 48.1752 39.8566 48.1752C40.9831 48.1752 41.8636 47.9255 42.5021 47.4302C43.1401 46.9332 43.5204 46.236 43.5204 45.3543C43.5204 44.2435 42.7458 43.2942 41.3248 42.499C40.0144 41.7794 37.3937 40.275 37.3937 40.275C35.9733 39.2397 35.2622 38.1283 35.2622 36.2973C35.2622 34.782 35.7925 33.5587 36.8537 32.6281C37.9162 31.6939 39.287 31.2282 40.9674 31.2282C42.7029 31.2282 44.2805 31.6932 45.7015 32.6136L44.9807 34.2196C43.7653 33.7032 42.5656 33.445 41.3822 33.445C40.4238 33.445 39.6837 33.6754 39.1691 34.138C38.6503 34.5988 38.3304 35.1883 38.3304 35.9115C38.3304 37.0169 39.1213 37.9784 40.581 38.7893C41.9089 39.51 44.5949 41.0405 44.5949 41.0405C46.0516 42.0739 46.7791 43.1751 46.7791 44.9915Z" fill="#DBDBDB"/>
<path id="Vector_3" d="M78.4825 25.2167C76.6744 25.1707 75.2746 25.3528 74.0997 25.8498C73.7604 25.9853 73.2211 25.9853 73.1739 26.414C73.3571 26.5954 73.3783 26.8881 73.5373 27.1384C73.8082 27.5901 74.2805 28.1978 74.7116 28.5147C75.1851 28.8775 75.6604 29.2367 76.1586 29.5529C77.0372 30.0965 78.0332 30.4128 78.8894 30.9546C79.3883 31.2696 79.8841 31.6772 80.3836 32.0164C80.6291 32.1972 80.7863 32.4905 81.105 32.6036V32.5346C80.9454 32.3315 80.9 32.0376 80.7434 31.8114L80.0649 31.1572C79.4094 30.2767 78.5949 29.5082 77.7163 28.8769C76.9931 28.3786 75.4112 27.7014 75.118 26.8681L75.072 26.8221C75.5691 26.7756 76.1586 26.5954 76.6309 26.4569C77.3995 26.2543 78.1003 26.3003 78.8888 26.0977C79.2516 26.007 79.6114 25.8933 79.9754 25.7815V25.5777C79.5667 25.1707 79.2752 24.6302 78.8453 24.2456C77.6952 23.2521 76.4277 22.2803 75.118 21.467C74.4165 21.0141 73.5143 20.7227 72.7676 20.3375C72.4985 20.2014 72.045 20.1343 71.8865 19.9081C71.4814 19.4111 71.2534 18.7568 70.9595 18.1685C70.3065 16.927 69.6722 15.5496 69.1086 14.2368C68.701 13.3564 68.4531 12.4771 67.9561 11.6626C65.628 7.82286 63.0998 5.49723 59.2141 3.21454C58.379 2.73925 57.3855 2.53668 56.3243 2.28755L54.6293 2.19806C54.2677 2.03963 53.9055 1.60969 53.5899 1.40652C52.3007 0.593819 48.9816 -1.16764 48.0334 1.15799C47.4227 2.62799 48.9368 4.07319 49.4568 4.81877C49.8408 5.33638 50.3385 5.92535 50.607 6.51311C50.766 6.89708 50.8107 7.30464 50.9698 7.71039C51.3314 8.70449 51.6694 9.81047 52.1447 10.7381C52.3926 11.2109 52.6629 11.708 52.9798 12.1361C53.1612 12.3864 53.4768 12.4971 53.5457 12.9053C53.2307 13.3551 53.2059 14.0342 53.0251 14.599C52.2124 17.1514 52.5299 20.3133 53.6818 22.189C54.0422 22.7538 54.9021 23.997 56.0522 23.5205C57.0705 23.1142 56.8449 21.8268 57.1376 20.6979C57.2047 20.4252 57.1606 20.2462 57.296 20.0672V20.1113C57.6111 20.7432 57.9291 21.3521 58.2212 21.9858C58.922 23.0918 60.1423 24.2444 61.1588 25.0105C61.7 25.4193 62.1287 26.1183 62.8065 26.368V26.3003H62.7618C62.6245 26.0977 62.4238 26.007 62.2436 25.8498C61.836 25.4429 61.3849 24.9458 61.0687 24.4947C60.1217 23.2291 59.2836 21.828 58.5399 20.3822C58.1758 19.6808 57.862 18.914 57.5687 18.2138C57.4321 17.9435 57.4321 17.536 57.2053 17.3999C56.8655 17.8963 56.3702 18.3263 56.1223 18.9346C55.6924 19.9075 55.6476 21.1042 55.488 22.3487L55.3991 22.3922C54.6795 22.2114 54.4292 21.467 54.1559 20.8351C53.4792 19.2303 53.3656 16.6543 53.9527 14.8028C54.1099 14.3293 54.7902 12.8381 54.5187 12.387C54.3826 11.9547 53.9303 11.7086 53.6824 11.3681C53.3909 10.94 53.0717 10.3982 52.8685 9.92294C52.3267 8.65854 52.054 7.25748 51.4705 5.99368C51.1977 5.40471 50.7243 4.79519 50.3409 4.25278C49.9104 3.64326 49.4369 3.21393 49.0965 2.49133C48.984 2.2428 48.8262 1.83645 49.007 1.56616C49.0511 1.38475 49.143 1.31703 49.3232 1.27167C49.6159 1.02436 50.4522 1.33879 50.7454 1.47485C51.5829 1.81347 52.2832 2.12972 52.9822 2.6038C53.2984 2.83056 53.6377 3.25989 54.0434 3.37296H54.5187C55.2401 3.53018 56.0534 3.4165 56.7325 3.62089C57.9291 4.00547 59.0133 4.56964 59.9857 5.17856C62.9444 7.0549 65.3843 9.72097 67.0315 12.9053C67.3018 13.4241 67.4167 13.8994 67.6634 14.4406C68.1393 15.5483 68.7276 16.6779 69.1999 17.7621C69.6746 18.8233 70.1269 19.9069 70.8047 20.7886C71.1428 21.2626 72.5009 21.5112 73.1098 21.7597C73.5603 21.9623 74.2617 22.1425 74.6681 22.391C75.4366 22.8645 76.2022 23.4081 76.9248 23.9287C77.2846 24.1996 78.4153 24.7644 78.4825 25.2167ZM55.4402 5.58612C55.1284 5.58288 54.8175 5.62111 54.5157 5.6998V5.74515H54.5592C54.7412 6.10615 55.0575 6.35649 55.283 6.67153C55.465 7.03374 55.6228 7.39293 55.8012 7.75453L55.8448 7.70978C56.1634 7.48423 56.3219 7.12263 56.3219 6.58023C56.1846 6.42059 56.1634 6.26458 56.0492 6.10615C55.9161 5.88 55.6228 5.76753 55.4402 5.58612Z" fill="#DBDBDB"/>
<path id="Vector_4" d="M80.6293 50.174H81.0973V47.8834H80.3952L79.8226 49.4465L79.2004 47.8834H78.5243V50.174H78.9664V48.4313H78.9912L79.643 50.174H79.9798L80.6293 48.4313V50.174ZM76.859 50.174H77.3543V48.2716H78.0025V47.8828H76.1836V48.2716H76.8578L76.859 50.174Z" fill="#DBDBDB"/>
</g>
</svg>
