<svg width="100%" height="100%" overflow="visible" style="display: block;" viewBox="0 0 135 38" fill="none" xmlns="http://www.w3.org/2000/svg">
<g id="Openai" clip-path="url(#clip0_0_303)">
<path id="Vector" d="M42.9414 18.0219C42.9414 24.0671 46.8157 28.2822 52.1845 28.2822C57.5532 28.2822 61.4275 24.0671 61.4275 18.0219C61.4275 11.9767 57.5532 7.76172 52.1845 7.76172C46.8157 7.76172 42.9414 11.9767 42.9414 18.0219ZM57.8853 18.0219C57.8853 22.3479 55.533 25.1486 52.1845 25.1486C48.8359 25.1486 46.4837 22.3479 46.4837 18.0219C46.4837 13.696 48.8359 10.8952 52.1845 10.8952C55.533 10.8952 57.8853 13.696 57.8853 18.0219Z" fill="#DBDBDB"/>
<path id="Vector_2" d="M71.3956 28.2619C75.4637 28.2619 77.7883 24.8233 77.7883 20.6915C77.7883 16.5597 75.4637 13.1211 71.3956 13.1211C69.5138 13.1211 68.1301 13.8698 67.2169 14.9513V13.3984H63.896V32.9483H67.2169V26.4316C68.1301 27.5131 69.5138 28.2619 71.3956 28.2619ZM67.1338 20.2755C67.1338 17.5302 68.6836 16.0328 70.7314 16.0328C73.1391 16.0328 74.4397 17.9184 74.4397 20.6915C74.4397 23.4645 73.1391 25.3502 70.7314 25.3502C68.6836 25.3502 67.1338 23.825 67.1338 21.1352V20.2755Z" fill="#DBDBDB"/>
<path id="Vector_3" d="M86.779 28.2618C89.6848 28.2618 91.9817 26.7367 93.0056 24.1855L90.1552 23.104C89.7124 24.6014 88.4118 25.4334 86.779 25.4334C84.6481 25.4334 83.1537 23.9082 82.9047 21.4125H93.0886V20.3032C93.0886 16.3101 90.8471 13.1211 86.6406 13.1211C82.4342 13.1211 79.7222 16.421 79.7222 20.6915C79.7222 25.1838 82.6279 28.2618 86.779 28.2618ZM86.613 15.9219C88.7162 15.9219 89.7124 17.3084 89.7401 18.9167H83.0707C83.5688 16.9479 84.8972 15.9219 86.613 15.9219Z" fill="#DBDBDB"/>
<path id="Vector_4" d="M95.5815 27.9568H98.9024V19.4159C98.9024 17.3361 100.424 16.2269 101.919 16.2269C103.745 16.2269 104.465 17.5302 104.465 19.3327V27.9568H107.786V18.3621C107.786 15.2286 105.959 13.1211 102.915 13.1211C101.033 13.1211 99.7326 13.9807 98.9024 14.9513V13.3984H95.5815V27.9568Z" fill="#DBDBDB"/>
<path id="Vector_5" d="M117.51 8.05469L109.983 27.9651H113.497L115.186 23.4173H123.764L125.48 27.9651H129.05L121.523 8.05469H117.51ZM119.447 11.9924L122.602 20.3115H116.348L119.447 11.9924Z" fill="#DBDBDB"/>
<path id="Vector_6" d="M134.752 8.14453H131.21V28.0549H134.752V8.14453Z" fill="#DBDBDB"/>
<path id="Vector_7" d="M34.8227 15.375C35.6598 12.8573 35.3716 10.0993 34.0328 7.80927C32.0196 4.29676 27.9723 2.48967 24.0195 3.34007C22.2611 1.35504 19.7347 0.226183 17.0861 0.242359C13.0457 0.233116 9.46075 2.83977 8.21773 6.69197C5.62216 7.22462 3.38173 8.85262 2.07068 11.16C0.042416 14.6633 0.5048 19.0793 3.21453 22.0835C2.3774 24.6011 2.66567 27.3591 4.00439 29.6492C6.01766 33.1617 10.065 34.9688 14.0177 34.1184C15.775 36.1034 18.3026 37.2323 20.9512 37.215C24.9939 37.2254 28.5799 34.6164 29.8229 30.7607C32.4185 30.2281 34.659 28.6001 35.97 26.2927C37.996 22.7894 37.5324 18.3768 34.8238 15.3727L34.8227 15.375ZM20.9535 34.799C19.3357 34.8013 17.7687 34.234 16.5268 33.1952C16.5833 33.1652 16.6813 33.1109 16.7447 33.0716L24.0922 28.8196C24.4681 28.6059 24.6987 28.2049 24.6964 27.7716V17.3924L27.8016 19.1891C27.835 19.2053 27.857 19.2376 27.8616 19.2746V27.8698C27.857 31.692 24.7679 34.7909 20.9535 34.799ZM6.09723 28.4406C5.28661 27.0379 4.99488 25.3938 5.27278 23.7981C5.32697 23.8305 5.42268 23.8894 5.49071 23.9287L12.8381 28.1807C13.2106 28.399 13.6718 28.399 14.0454 28.1807L23.0152 22.9905V26.5839C23.0175 26.6208 23.0002 26.6566 22.9714 26.6798L15.5444 30.9768C12.2362 32.8856 8.01133 31.7509 6.09838 28.4406H6.09723ZM4.16351 12.3698C4.97067 10.9648 6.24482 9.8902 7.76227 9.33213C7.76227 9.39568 7.75881 9.50775 7.75881 9.58632V18.0914C7.7565 18.5236 7.98712 18.9245 8.36187 19.1383L17.3317 24.3273L14.2264 26.124C14.1953 26.1448 14.1561 26.1483 14.1215 26.1332L6.69337 21.8327C3.39211 19.917 2.25978 15.6847 4.16236 12.3709L4.16351 12.3698ZM29.6765 18.3191L20.7067 13.1289L23.812 11.3333C23.8431 11.3125 23.8823 11.3091 23.9169 11.3241L31.345 15.6211C34.652 17.5357 35.7855 21.775 33.8749 25.0887C33.0666 26.4914 31.7936 27.566 30.2773 28.1252V19.3659C30.2807 18.9338 30.0513 18.534 29.6777 18.3191H29.6765ZM32.7668 13.6581C32.7126 13.6246 32.6169 13.5668 32.5488 13.5275L25.2014 9.27551C24.829 9.05714 24.3677 9.05714 23.9941 9.27551L15.0244 14.4657V10.8723C15.022 10.8353 15.0393 10.7995 15.0682 10.7764L22.4951 6.48284C25.8033 4.5706 30.0328 5.7087 31.94 9.02478C32.746 10.4252 33.0377 12.0647 32.7644 13.6581H32.7668ZM13.3362 20.0626L10.2299 18.2659C10.1964 18.2497 10.1745 18.2174 10.1699 18.1804V9.58517C10.1722 5.75838 13.2705 2.65721 17.0895 2.65952C18.705 2.65952 20.2685 3.22799 21.5104 4.26326C21.4539 4.2933 21.3571 4.3476 21.2925 4.38689L13.9451 8.63887C13.5692 8.85262 13.3386 9.2524 13.3409 9.68569L13.3362 20.0603V20.0626ZM15.0232 16.4184L19.0186 14.1064L23.014 16.4172V21.0401L19.0186 23.351L15.0232 21.0401V16.4184Z" fill="#DBDBDB"/>
</g>
<defs>
<clipPath id="clip0_0_303">
<rect width="135" height="38" fill="white"/>
</clipPath>
</defs>
</svg>
