<svg width="100%" height="100%" overflow="visible" style="display: block;" viewBox="0 0 82 80" fill="none" xmlns="http://www.w3.org/2000/svg">
<g id="postgresql-lockup 3">
<path id="Vector" d="M8.80697 69.7784C8.80697 70.705 8.53213 71.431 7.98228 71.9561C7.43228 72.4812 6.67854 72.7435 5.72106 72.7435H1.90326L1.91299 77.1271L0.875 77.1433V66.8382L6.00882 66.8209C6.89233 66.8209 7.57799 67.0833 8.0663 67.6081C8.56034 68.1334 8.80744 68.8595 8.8076 69.7859M7.76021 69.8237C7.76021 68.3782 7.06833 67.655 5.6844 67.655L1.90358 67.639V71.9295H5.4899C7.0036 71.9295 7.76021 71.2252 7.76021 69.8167M16.3217 73.7539C16.3217 74.8537 16.0345 75.7127 15.4597 76.3303C14.8171 77.0223 13.8813 77.3683 12.6519 77.3683C12.065 77.3683 11.5522 77.2886 11.1136 77.1274C10.6813 76.9605 10.3012 76.7009 9.97377 76.3489C9.38072 75.688 9.08404 74.8228 9.08404 73.7537C9.08404 72.6793 9.37131 71.8265 9.94587 71.1965C10.5823 70.4922 11.4841 70.14 12.6519 70.14C13.8874 70.14 14.8203 70.4828 15.4505 71.1684C16.0314 71.7867 16.3217 72.6483 16.3217 73.7539ZM15.4228 73.7539C15.4228 71.8329 14.4991 70.8724 12.652 70.8724C11.8179 70.8724 11.1632 71.1286 10.6875 71.6411C10.4589 71.8887 10.2829 72.1911 10.1593 72.5493C10.042 72.9015 9.98333 73.3032 9.98333 73.7539C9.98333 74.6374 10.2119 75.3417 10.6688 75.867C11.1323 76.3863 11.7934 76.6458 12.6522 76.6458C13.6035 76.6458 14.311 76.3768 14.7742 75.8394C14.9968 75.5982 15.1605 75.3047 15.2654 74.959C15.3703 74.6127 15.4228 74.2113 15.4228 73.7539ZM23.5715 75.2646C23.5715 76.6549 22.5305 77.3496 20.4485 77.3496C19.8122 77.3496 19.2747 77.3005 18.8361 77.2015C18.4036 77.1025 18.0516 76.942 17.7798 76.7199C17.5697 76.553 17.4029 76.3338 17.2794 76.0617C17.156 75.7838 17.0756 75.4406 17.0385 75.0329L18.0022 75.0167C18.0022 75.5605 18.1721 75.9624 18.5117 76.2219C18.8764 76.5307 19.5219 76.685 20.4485 76.685C21.9065 76.685 22.6356 76.2496 22.6356 75.3782C22.6356 74.8718 22.3917 74.5228 21.9035 74.3312C21.8045 74.2875 21.2147 74.1898 20.1335 74.0346C19.0583 73.8738 18.3881 73.7324 18.1225 73.6084C17.548 73.3367 17.2607 72.8455 17.2607 72.1352C17.2607 71.4429 17.5171 70.9274 18.0299 70.5877C18.2832 70.4461 18.5981 70.3375 18.975 70.2631C19.3581 70.1837 19.7996 70.1432 20.3002 70.1432C22.3019 70.1432 23.3026 70.8936 23.3026 72.3948H22.3851C22.3851 71.3385 21.6808 70.8104 20.2723 70.8104C19.5556 70.8104 19.0214 70.9197 18.6692 71.1348C18.317 71.3449 18.141 71.6724 18.141 72.117C18.141 72.5308 18.3789 72.8272 18.8546 73.0064C19.1326 73.1057 19.7721 73.2163 20.7729 73.34C21.6687 73.4392 22.2834 73.575 22.6169 73.748C23.2533 74.0444 23.5715 74.5481 23.5715 75.2584M27.7747 77.1553C27.6264 77.1862 27.4934 77.2074 27.3761 77.2205C27.265 77.2368 27.1846 77.238 27.1354 77.238C26.5052 77.238 26.0508 77.129 25.7731 76.9141C25.4951 76.6915 25.3561 76.3054 25.3561 75.7554V71.0753H24.207V70.3806H25.3468L25.3567 68.1471H26.237V70.39L27.7753 70.3734V71.0777L26.237 71.0615V75.6115C26.237 75.9512 26.3112 76.186 26.4594 76.3156C26.6141 76.4459 26.8859 76.5103 27.275 76.5103C27.3307 76.5103 27.3925 76.5103 27.4604 76.4939C27.5285 76.4776 27.6304 76.4597 27.7662 76.4291L27.7758 77.1333M34.9801 76.9237C34.9801 78.9741 33.828 80 31.5234 80C30.3188 80 29.4632 79.8025 28.9566 79.407C28.518 79.0671 28.2493 78.5203 28.1503 77.7665L29.0585 77.7501C29.1635 78.2998 29.355 78.683 29.633 78.8992C30.0037 79.1893 30.6246 79.3347 31.4957 79.3347C32.4224 79.3347 33.0865 79.1243 33.4881 78.7045C33.8959 78.2843 34.0998 77.6882 34.0998 76.916L34.0899 75.7111C33.5339 76.5825 32.5919 77.0177 31.2634 77.0177C30.1578 77.0177 29.3019 76.7151 28.6966 76.1095C28.4186 75.8133 28.2056 75.4546 28.0573 75.0345C27.9151 74.6081 27.8442 74.1231 27.8442 73.5795C27.8442 72.4923 28.1314 71.6615 28.706 71.0868C29.3116 70.4568 30.1888 70.1411 31.3377 70.1411C32.1224 70.1411 32.7618 70.305 33.256 70.6325C33.4228 70.7557 33.7008 71.0556 34.0899 71.5314L34.0998 70.3638H34.9801V76.916M34.0998 73.543C34.0998 72.7339 33.8741 72.0881 33.4234 71.6065C32.9786 71.1184 32.3237 70.8741 31.4587 70.8741C30.6002 70.8741 29.9327 71.1153 29.4572 71.5971C28.9877 72.0727 28.753 72.7339 28.753 73.58C28.753 75.4028 29.6764 76.3137 31.5237 76.3137C31.9255 76.3137 32.2807 76.2517 32.5895 76.1282C32.8984 76.0051 33.1733 75.8225 33.4143 75.581C33.8711 75.1059 34.0998 74.4265 34.0998 73.543ZM40.1063 71.0666C39.8406 71.0175 39.5936 70.9919 39.3652 70.9919C37.9133 70.9919 37.1873 71.94 37.1873 73.837L37.197 77.1268H36.3167L36.3068 70.3897L37.1872 70.3732V71.5872H37.2336C37.3818 71.1117 37.6166 70.7533 37.9379 70.5122C38.29 70.2774 38.8152 70.1602 39.5133 70.1602C39.6553 70.1602 39.7726 70.1602 39.8653 70.1602C39.9644 70.1602 40.0445 70.1602 40.1063 70.1767V71.0661M47.3614 73.9395H41.0689C41.0689 74.712 41.282 75.3417 41.7085 75.8302C42.2027 76.3984 42.91 76.6825 43.8307 76.6825C45.1346 76.6825 45.9497 76.0991 46.2772 74.9312H47.2318C47.0896 75.5987 46.753 76.1608 46.2215 76.6177C45.9189 76.8591 45.5633 77.0442 45.1555 77.1738C44.7539 77.3104 44.3152 77.3775 43.8398 77.3775C42.6473 77.3775 41.7238 77.0195 41.0687 76.303C40.4636 75.6603 40.1607 74.7919 40.1607 73.6987C40.1607 72.6113 40.4758 71.7525 41.106 71.1225C41.7359 70.4863 42.6228 70.1684 43.7653 70.1684C44.3773 70.1684 44.9114 70.2578 45.3693 70.4372C45.8258 70.6101 46.2096 70.8789 46.5179 71.2435C47.0802 71.8976 47.3614 72.7966 47.3614 73.9395ZM46.4343 73.3279C46.4343 72.6793 46.1839 72.0983 45.6838 71.5855C45.1894 71.0726 44.5503 70.8163 43.7653 70.8163C43.3639 70.8163 43.0025 70.8786 42.6814 71.0018C42.36 71.1188 42.0729 71.3015 41.8194 71.5486C41.4303 71.969 41.1802 72.5619 41.0689 73.3279H46.4343ZM58.8862 74.3981C58.8862 76.8173 57.2574 78.0272 54 78.0272C52.0483 78.0272 50.623 77.6119 49.7254 76.7805C48.991 76.098 48.6235 75.0588 48.6235 73.6638H49.9373C49.9373 75.9123 51.2916 77.0365 54.0001 77.0365C55.2986 77.0365 56.2376 76.8027 56.816 76.3354C57.3056 75.9345 57.5504 75.3001 57.5504 74.4321C57.5504 73.5715 57.2168 72.967 56.5488 72.6176C56.1703 72.4322 55.2466 72.1981 53.7771 71.9166C51.9294 71.5828 50.7309 71.2453 50.1818 70.9036C49.3876 70.4066 48.9903 69.5678 48.9903 68.388C48.9903 67.2751 49.3281 66.4513 50.0033 65.917C50.7306 65.3234 51.9774 65.0263 53.7433 65.0263C56.9346 65.0263 58.5299 66.2918 58.5299 68.8224H57.2054C57.2054 66.9301 56.0216 65.9838 53.6548 65.9838C52.4673 65.9838 51.5989 66.1731 51.0499 66.5514C50.53 66.9596 50.2703 67.5572 50.2703 68.3437C50.2703 69.1675 50.6046 69.7494 51.272 70.0912C51.6281 70.2843 52.6749 70.5516 54.411 70.8925C56.0433 71.1893 57.1455 71.5306 57.717 71.9166C58.4967 72.3985 58.8862 73.2256 58.8862 74.3981ZM71.8941 77.9937L71.0924 78.8616L69.1559 77.2476C68.7475 77.5073 68.2502 77.704 67.6642 77.8375C67.0782 77.9707 66.3917 78.0377 65.605 78.0377C63.5942 78.0377 62.0061 77.4403 60.8405 76.2458C59.683 75.0436 59.104 73.4665 59.104 71.5148C59.104 69.5187 59.679 67.9343 60.8294 66.7619C61.9794 65.5893 63.5636 65.0032 65.5825 65.0032C66.6213 65.0032 67.545 65.1592 68.354 65.4707C69.1628 65.7824 69.8529 66.2576 70.4243 66.8956C71.493 68.0535 72.0274 69.5932 72.0274 71.5155C72.0274 72.5912 71.8638 73.5411 71.5377 74.365C71.2108 75.1812 70.7064 75.8753 70.024 76.4465L71.8941 77.9937ZM70.7697 71.5153C70.7697 70.6693 70.6545 69.916 70.4246 69.2557C70.1947 68.588 69.8381 68.0052 69.3558 67.508C68.4433 66.491 67.189 65.9831 65.5935 65.9831C64.0202 65.9831 62.755 66.4689 61.7975 67.4412C60.8476 68.4135 60.3726 69.7711 60.3726 71.5153C60.3726 73.1926 60.8509 74.5357 61.8082 75.5448C62.773 76.5465 64.0345 77.0475 65.593 77.0475C66.3573 77.0475 67.0477 76.9288 67.6634 76.6915C68.2791 76.4538 68.8321 76.1015 69.3216 75.6338C70.2865 74.6247 70.7688 73.2519 70.7688 71.5153M81.8251 77.7042L72.864 77.7206V65.3424L74.0999 65.3199V76.6737H81.8362L81.8249 77.7086M33.0341 18.9316C33.1924 19.0325 33.3719 19.1094 33.5648 19.136C34.2455 19.231 34.8284 18.6778 34.8652 18.413C34.9022 18.1477 34.3798 17.8557 33.6976 17.7607C33.0164 17.6658 32.4334 17.8039 32.3974 18.0687H32.3972C32.3704 18.2588 32.6327 18.6757 33.0341 18.9316ZM32.6143 18.4986C32.4938 18.339 32.4229 18.1771 32.4309 18.082L32.4321 18.0734C32.4568 17.8923 32.8045 17.7658 33.278 17.7658C33.4121 17.7658 33.5517 17.7758 33.693 17.7956C34.0185 17.8408 34.3174 17.9325 34.5342 18.0537C34.7383 18.1677 34.8462 18.2969 34.8308 18.4082C34.8016 18.6174 34.3401 19.1121 33.7214 19.1121C33.6708 19.1121 33.6198 19.1086 33.5698 19.1017C33.3939 19.0773 33.2303 19.0088 33.0842 18.9201C33.054 18.9018 33.0241 18.8835 32.9955 18.8635C32.8385 18.7535 32.7073 18.622 32.6143 18.4986ZM65.6968 33.986C65.5857 33.6498 65.0862 32.5805 63.3369 32.9418C60.5665 33.5135 58.9363 33.4567 57.9842 33.2372C64.1259 23.0423 67.3468 9.97807 64.3983 6.21C61.2662 2.20743 56.6669 0.0605198 51.0977 0.00121534C46.9867 -0.0415093 43.7476 1.0553 43.3642 1.23051C42.0304 0.895086 40.5752 0.689115 38.9894 0.66281C36.3508 0.620723 34.0442 1.19783 32.0956 2.37786C30.9033 1.9903 29.0333 1.45927 26.8711 1.12067C21.8751 0.337911 17.922 0.954072 15.1213 2.95065C11.836 5.29334 10.3188 9.44879 10.6114 15.3022C10.7093 17.2599 11.8986 23.3826 13.793 29.3322C16.2489 37.0451 18.8659 41.4134 21.5716 42.316C21.8834 42.4197 22.2431 42.4927 22.6392 42.4927C23.5495 42.4925 24.6519 42.1064 25.8034 40.8299C25.953 41.6343 27.0724 42.0353 28.3141 42.4031C28.3393 42.4106 28.3648 42.4168 28.3908 42.4214C28.7074 42.479 29.0175 42.5407 29.3222 42.6014C30.3893 42.8131 31.3972 43.0133 32.4259 43.0133H32.4262C33.7386 43.0133 34.8896 42.6781 35.9893 41.9605C35.9963 47.1632 36.403 51.5846 37.0671 53.2453C37.3546 53.9638 38.8655 57.0937 43.3343 57.0934C44.0671 57.0934 44.8787 57.0093 45.778 56.8166C50.3156 55.8438 52.357 53.8785 53.0592 49.8061C53.4693 47.4298 54.0076 42.9803 54.2421 40.6466C54.8498 40.7975 55.5878 40.8674 56.3769 40.8674C58.2935 40.8671 60.5129 40.4577 61.9053 39.8112C64.3134 38.6922 66.2628 35.6982 65.6968 33.986ZM60.7521 38.4198C59.3208 39.0839 57.3843 39.3953 55.7302 39.3953C54.7044 39.3953 53.7876 39.2756 53.1664 39.046C52.8837 41.693 52.2296 46.9867 51.8534 49.1682C51.1754 53.1008 49.5035 54.8017 45.4643 55.668C44.7898 55.8124 44.177 55.8771 43.6198 55.8771C42.2744 55.8771 41.2554 55.4987 40.4774 54.9562C39.6309 54.5243 38.8834 53.8209 38.4345 52.6984C38.342 52.4671 38.2513 52.1417 38.1644 51.7344C38.1512 51.7014 38.1379 51.6684 38.1257 51.6375C37.505 50.086 37.3008 44.6919 37.355 39.5212C35.9392 40.9493 34.1127 41.6978 32.0022 41.6978C31.1886 41.6978 30.3322 41.5867 29.4567 41.3675C29.0393 41.2635 28.4877 41.0604 28.0235 40.7652C27.9484 40.726 27.9229 40.6973 27.8517 40.648C27.4184 40.3327 27.0978 39.9271 27.108 39.4324C27.13 38.3766 28.533 37.9659 29.5862 37.7486C32.1445 37.2219 32.3322 36.9839 33.1213 35.9819C33.2885 35.7694 33.4869 35.518 33.7324 35.2295C33.7209 35.1228 33.7124 35.0157 33.71 34.9073C32.5163 34.9047 31.3463 34.5896 30.2943 33.9989C29.711 34.6173 27.7946 36.6735 25.7352 39.1511C24.9999 40.0349 24.287 40.513 23.6367 40.7416C22.8392 41.1859 22.2739 40.9979 22.0378 40.9192C21.8975 40.8723 21.7578 40.8095 21.6183 40.736C15.9423 38.7079 11.9915 19.1935 11.8112 15.5852C11.5364 10.0916 12.9455 6.20905 15.9992 4.04555C18.5273 2.2543 22.2316 1.689 26.7116 2.4107C29.4527 2.85213 31.6731 3.63329 32.4331 3.92057C34.3515 2.58622 36.6778 1.93004 39.3803 1.97659C40.8318 2.00035 42.1655 2.18607 43.3894 2.48897V2.42664C43.5112 2.44848 43.6327 2.47016 43.7521 2.49391C44.5168 2.21875 47.183 1.43823 50.5104 1.43823C51.4363 1.43823 52.4568 1.50184 53.5246 1.67258C56.864 2.13283 60.4693 3.57893 63.2389 7.11758C63.6108 7.59298 63.8498 8.35549 63.9575 9.3458C64.3487 11.4723 64.0605 14.589 63.0932 18.3357C61.7343 23.5978 59.2173 29.2375 56.1558 33.9068C56.1558 33.9068 56.1105 33.985 56.0635 34.058C56.5955 34.5068 58.2377 35.0197 62.1244 34.2173C63.3549 33.963 64.0879 34.166 64.3043 34.8194C64.7145 36.0602 62.4046 37.6522 60.7521 38.4198ZM54.2574 33.9528C53.3765 34.2143 51.886 34.8349 52.0308 37.6932C52.022 37.8032 52.0096 37.9444 51.9943 38.1073C51.994 38.1118 51.993 38.1172 51.9924 38.1217C51.9854 38.1964 51.9776 38.2762 51.9691 38.3608C51.9686 38.3635 51.9686 38.3662 51.9683 38.3691C51.733 40.7067 51.0116 46.6221 50.6094 48.9535C50.0242 52.3495 48.7094 53.681 45.1995 54.4337C41.4776 55.2312 40.164 53.335 39.2973 51.1685C38.7488 49.7972 38.4778 43.6713 38.6667 36.9187C38.6688 36.8396 38.6548 36.7645 38.6302 36.6941C38.61 36.5444 38.5821 36.3931 38.5383 36.2402C38.2766 35.3264 37.6178 34.5326 36.8592 34.2181C36.6161 34.1174 36.2482 33.9651 35.8071 33.9651C35.5445 33.9651 35.2917 34.0195 35.0457 34.1234C35.1812 33.4047 35.4874 32.5809 35.8249 31.6761L35.9459 31.3512C36.0841 30.9798 36.2558 30.5983 36.4377 30.1942C37.4029 28.0501 38.7245 25.1138 37.2871 18.4672C36.9326 16.8284 36.0116 15.7618 34.6267 15.3322C34.5813 15.3182 34.5344 15.3059 34.488 15.2931C34.4161 15.2734 34.3434 15.2554 34.2693 15.2389C34.2218 15.2284 34.1743 15.2181 34.126 15.2088C34.03 15.191 33.9324 15.1757 33.8331 15.1631C33.8067 15.1597 33.7813 15.1548 33.7548 15.1519C33.6299 15.1379 33.5015 15.1291 33.3708 15.1235C33.3282 15.1216 33.2847 15.1213 33.2417 15.1202C33.1425 15.1181 33.0421 15.1181 32.9397 15.1207C32.8968 15.1218 32.854 15.1224 32.8106 15.1243C32.6681 15.1307 32.5238 15.1398 32.3757 15.1552C30.7565 15.323 29.2719 15.978 28.5311 16.3535C28.2478 16.4971 28.0071 16.6316 27.797 16.7585C27.8019 16.6863 27.8073 16.6119 27.8132 16.5355C27.8187 16.4639 27.825 16.3898 27.8316 16.3147C27.8317 16.3123 27.8319 16.3098 27.8322 16.3075C27.8458 16.1505 27.8619 15.9852 27.8802 15.8133C27.8804 15.8121 27.8805 15.8108 27.8807 15.8097C28.1649 13.1623 29.0566 8.87073 31.8392 6.06031C33.743 4.13754 36.274 3.19202 39.3596 3.23889C49.1963 3.40006 53.5726 11.4368 54.6836 14.4839C54.6845 14.4863 54.6853 14.4882 54.6863 14.4906C54.7166 14.5738 54.7445 14.6534 54.7701 14.7291C54.7708 14.732 54.7716 14.7345 54.7724 14.7376C54.7982 14.8138 54.8218 14.8866 54.8425 14.9542C54.6577 14.9325 54.477 14.9147 54.2994 14.8997C54.2369 14.8943 54.1764 14.8911 54.1149 14.8866C54.0024 14.8783 53.8898 14.8702 53.78 14.8648C53.7054 14.861 53.6327 14.8592 53.5595 14.8568C53.4667 14.8535 53.3744 14.8504 53.2838 14.8495C53.2045 14.8484 53.127 14.849 53.0493 14.8495C52.9693 14.85 52.8894 14.8509 52.8112 14.8531C52.7292 14.8554 52.6487 14.8589 52.569 14.863C52.4995 14.8665 52.4314 14.8707 52.3635 14.8756C52.2793 14.8818 52.196 14.8889 52.1143 14.897C52.0568 14.9027 52.0002 14.9094 51.9436 14.9163C51.8561 14.9268 51.7694 14.9378 51.6847 14.9507C51.6402 14.9576 51.5977 14.9655 51.5543 14.9729C51.4612 14.989 51.3683 15.0054 51.2787 15.0245C51.2555 15.0293 51.2337 15.035 51.2112 15.0403C50.4972 15.2007 49.8941 15.4602 49.4066 15.8208C49.3242 15.8817 49.2456 15.9455 49.1694 16.012C49.1676 16.0136 49.1662 16.015 49.1647 16.0164C49.0887 16.0829 49.0168 16.1521 48.9476 16.2243C48.8253 16.3517 48.7109 16.4853 48.6095 16.6304C46.4042 19.7829 49.8789 26.0139 51.5489 29.0084C51.8612 29.5683 52.1306 30.0517 52.2184 30.2651C52.7586 31.5735 53.4605 32.4509 53.9737 33.0918C54.2096 33.387 54.4224 33.6531 54.5453 33.8712C54.51 33.8811 54.4757 33.8908 54.4446 33.8999C54.3867 33.9162 54.3236 33.9339 54.2579 33.9533C54.2574 33.9528 54.2574 33.9528 54.2574 33.9528ZM62.3796 35.4536C62.6238 35.4032 62.8046 35.3811 62.9364 35.3736C62.5766 35.8303 61.6242 36.6233 60.2204 37.2748C58.4577 38.093 55.0099 38.4097 53.6328 37.88C53.3467 37.7698 53.2936 37.6724 53.2931 37.6724C53.1732 35.5674 54.0295 35.327 54.7851 35.1148C54.8959 35.0838 55.0493 35.0407 55.2068 34.9736C55.2921 35.0496 55.3903 35.1257 55.5025 35.1998C56.7846 36.0457 59.0982 36.1312 62.3796 35.4536ZM34.6422 31.2346L34.7624 30.9116C34.9154 30.4999 35.0954 30.0996 35.2866 29.6757C36.2294 27.5811 37.4027 24.9741 36.0532 18.7338C35.772 17.4342 35.0801 16.6894 33.9369 16.4571C33.8709 16.4437 33.8043 16.4325 33.7371 16.4228C33.6735 16.4132 33.6091 16.4061 33.5444 16.3995C33.543 16.3994 33.5417 16.399 33.5403 16.399C31.2065 16.1658 28.2845 17.8051 27.7525 18.3403C27.7578 18.4879 27.7699 18.6902 27.7839 18.9283C27.8666 20.3214 28.0203 22.9142 27.6046 25.8877C27.2982 28.0782 27.9677 30.2165 29.4416 31.7544C30.5014 32.8603 31.8671 33.5141 33.2922 33.6265C33.2933 33.6265 33.2943 33.6265 33.2955 33.6267C33.3875 33.6338 33.4797 33.6391 33.5721 33.6418C33.666 33.6448 33.7604 33.6453 33.8545 33.6434C34.0238 32.8928 34.3209 32.0962 34.6422 31.2346ZM32.9847 18.941C32.7639 18.7919 32.6153 18.6159 32.5585 18.5407C32.4197 18.3566 32.3464 18.1783 32.3626 18.0636L32.3692 18.0336C32.4265 17.8273 32.7768 17.6958 33.2782 17.6958C33.3561 17.6958 33.436 17.6999 33.5168 17.7065C33.5784 17.7114 33.6402 17.7175 33.7027 17.7261C33.7078 17.7269 33.7121 17.7278 33.7171 17.7286H33.7169C34.0455 17.7758 34.3474 17.8689 34.5684 17.9925C34.8022 18.1232 34.92 18.2743 34.9001 18.4178C34.8628 18.6861 34.3519 19.1819 33.7215 19.1819C33.6676 19.1819 33.6134 19.1782 33.5602 19.1707C33.3351 19.1395 33.1438 19.0478 32.9872 18.9426C32.9863 18.9421 32.9855 18.9415 32.9847 18.941ZM54.7078 18.7164C54.8339 17.8989 54.9523 17.1182 54.9523 16.2401C52.7963 15.9516 51.2359 16.1215 50.2879 16.742C50.2697 16.7538 50.2509 16.7652 50.233 16.7775C50.1936 16.8046 50.1563 16.8331 50.1187 16.8618C50.0895 16.8845 50.0608 16.9073 50.0333 16.931C50.0036 16.9562 49.9744 16.9816 49.9467 17.0079C49.9113 17.0402 49.8791 17.074 49.8471 17.108C49.827 17.1294 49.8059 17.1502 49.7866 17.1721C49.7363 17.2303 49.6878 17.2904 49.6438 17.3535C47.8914 19.8581 51.2267 25.8391 52.6506 28.3932C53.0096 29.0365 53.2689 29.5013 53.3848 29.7833C53.5705 30.2332 53.7776 30.6225 53.9909 30.9688C55.1524 28.7688 54.8911 26.5503 54.6327 24.3983C54.5069 23.355 54.3886 22.3693 54.4207 21.3841C54.4535 20.3686 54.583 19.5286 54.7078 18.7164ZM51.8092 18.6238C51.1993 18.6238 50.6834 18.1311 50.647 17.8748C50.6241 17.7042 50.8096 17.5282 51.1159 17.3945C51.135 17.3862 51.1548 17.378 51.1746 17.3701C51.36 17.2961 51.5835 17.2371 51.8299 17.2027C51.9734 17.1828 52.1156 17.1727 52.2524 17.1727C52.7678 17.1727 53.1204 17.3111 53.1507 17.5255C53.1743 17.698 52.9805 18.029 52.6726 18.2828C52.6505 18.3008 52.628 18.3183 52.605 18.3354C52.4211 18.4728 52.2028 18.5804 51.9682 18.6129C51.9162 18.6201 51.8628 18.6238 51.8092 18.6238ZM28.4273 34.1543C28.1088 34.5017 27.7366 34.9125 27.3256 35.3734C26.5672 36.2238 25.6804 37.2415 24.7645 38.3436C23.3879 39.9987 22.4036 39.67 22.0805 39.5624C17.331 37.9784 13.2558 19.2042 13.0716 15.5222C12.8201 10.4895 14.0497 6.97522 16.7267 5.07716C20.8372 2.16264 27.4227 3.65513 30.5192 4.60767C30.5393 4.61389 30.5583 4.61979 30.5781 4.62584C30.6842 4.65868 30.7856 4.69073 30.8829 4.72213C30.9046 4.72899 30.9261 4.73584 30.9471 4.7427C31.0632 4.78016 31.1748 4.81683 31.2766 4.85126C31.1638 4.956 31.0512 5.0617 30.9422 5.17218C30.5189 5.5999 30.1362 6.05616 29.7893 6.53171C29.7188 6.62816 29.6523 6.72669 29.5849 6.82473C29.5447 6.88324 29.5029 6.94111 29.4639 7.00009C29.4007 7.09495 29.3408 7.19092 29.2805 7.28689C29.2405 7.35082 29.1994 7.41443 29.1605 7.47883C29.1026 7.57432 29.047 7.67093 28.9917 7.76738C28.954 7.83322 28.9156 7.89906 28.8788 7.96538C28.8252 8.06231 28.7733 8.15988 28.7219 8.25776C28.6867 8.32456 28.6519 8.39151 28.618 8.45847C28.5681 8.55699 28.5196 8.65567 28.472 8.75483C28.4398 8.82163 28.4084 8.88859 28.3774 8.9557C28.3309 9.05582 28.285 9.15625 28.2408 9.25685C28.2123 9.32237 28.1844 9.38789 28.1566 9.45325C28.1129 9.55624 28.0696 9.65938 28.028 9.76237C28.0034 9.82375 27.9801 9.88512 27.9561 9.9465C27.9145 10.054 27.8725 10.1616 27.833 10.269C27.814 10.321 27.7963 10.3728 27.7777 10.4248C27.7361 10.5415 27.6941 10.6583 27.6551 10.7747C27.6503 10.7884 27.6462 10.8021 27.6417 10.8158C27.4973 11.2498 27.3713 11.6802 27.2605 12.1035C27.2502 12.1432 27.2387 12.1832 27.2288 12.2227C27.2006 12.333 27.1744 12.4421 27.1481 12.5514C27.1357 12.604 27.1226 12.657 27.1104 12.7094C27.0863 12.8127 27.064 12.9151 27.0418 13.0171C27.0294 13.0732 27.0171 13.1297 27.0055 13.1854C26.9846 13.2844 26.965 13.3822 26.9458 13.4797C26.9345 13.5367 26.9235 13.5937 26.9128 13.6502C26.8947 13.7453 26.8774 13.8397 26.8609 13.9333C26.851 13.9896 26.8414 14.0455 26.8318 14.1012C26.8162 14.1933 26.8011 14.2848 26.7866 14.3752C26.7781 14.4291 26.7701 14.4822 26.762 14.5353C26.7485 14.6252 26.7351 14.7146 26.7226 14.8023C26.7155 14.8527 26.7089 14.9019 26.7024 14.9518C26.6908 15.0392 26.6788 15.1267 26.6684 15.2115C26.6629 15.2566 26.6581 15.3 26.653 15.3443C26.6426 15.4315 26.6322 15.5194 26.623 15.6037C26.6209 15.6223 26.6195 15.64 26.6174 15.6585C26.5953 15.8687 26.5763 16.0694 26.561 16.2591C26.5599 16.2725 26.5586 16.287 26.5575 16.3002C26.5519 16.3724 26.5471 16.4405 26.5422 16.5094C26.5391 16.5494 26.536 16.591 26.5334 16.63C26.5293 16.6913 26.5261 16.7491 26.5226 16.8073C26.5199 16.8497 26.5173 16.8931 26.5152 16.9336C26.5122 16.9876 26.51 17.0388 26.5076 17.0897C26.5057 17.1301 26.5036 17.171 26.5022 17.2095C26.5002 17.2567 26.4985 17.3018 26.4971 17.346C26.4956 17.3835 26.4944 17.4206 26.4932 17.456C26.4921 17.4962 26.4912 17.5352 26.4902 17.5724C26.4892 17.6076 26.4886 17.6414 26.4881 17.6738C26.4875 17.7057 26.487 17.7375 26.4864 17.7669C26.4861 17.7989 26.4857 17.8286 26.4856 17.8571C26.4856 17.8821 26.4851 17.9076 26.4851 17.9301C26.4851 17.958 26.4851 17.9827 26.4851 18.0066C26.4851 18.0235 26.4851 18.0422 26.4853 18.057C26.4854 18.082 26.4856 18.1023 26.4859 18.1213C26.4859 18.1296 26.4861 18.1406 26.4861 18.1477C26.4865 18.1708 26.487 18.1889 26.4873 18.1994C26.4873 18.3816 26.5025 18.6427 26.5238 19.0024C26.6037 20.3517 26.7526 22.8631 26.3542 25.7124C26.3338 25.8589 26.3182 26.0051 26.3051 26.151C26.3 26.2064 26.297 26.2614 26.2932 26.3169C26.2869 26.4047 26.2817 26.4926 26.2782 26.58C26.2753 26.6512 26.2734 26.7225 26.2726 26.7936C26.2716 26.8601 26.2718 26.9261 26.2723 26.9924C26.2729 27.0772 26.2739 27.1618 26.2769 27.2462C26.2783 27.2827 26.281 27.3189 26.2828 27.3552C26.3077 27.8402 26.3722 28.318 26.4768 28.7841C26.477 28.7859 26.4776 28.7874 26.4778 28.7892C26.8014 30.2249 27.4974 31.5497 28.5303 32.6274C28.7551 32.8618 28.9923 33.0775 29.2388 33.2777C29.2067 33.312 29.1699 33.3513 29.1336 33.3904C29.1154 33.4098 29.0985 33.428 29.0792 33.4484C29.0521 33.4776 29.0218 33.5103 28.9925 33.5417C28.9588 33.5777 28.9258 33.6136 28.8896 33.6526C28.8719 33.6715 28.8527 33.6925 28.8342 33.7121C28.7828 33.7677 28.7304 33.8243 28.6743 33.8849C28.6645 33.8956 28.6543 33.9069 28.6443 33.9174C28.5786 33.9887 28.5105 34.0628 28.439 34.1406C28.4353 34.1456 28.4312 34.15 28.4273 34.1543ZM47.0814 2.98349C47.0846 2.98286 47.088 2.98238 47.0908 2.98174C48.066 2.82264 49.2296 2.70052 50.5104 2.70052C55.4596 2.70052 59.3632 4.48125 62.1116 7.99328C63.1843 9.36414 63.0901 13.2999 61.8709 18.02C60.6773 22.642 58.5666 27.5636 55.9781 31.825C55.9688 31.84 55.9599 31.855 55.9508 31.8698C55.7561 32.19 55.5593 32.507 55.3589 32.819C55.236 32.6515 55.1009 32.4812 54.9584 32.3028C54.9066 32.2381 54.8525 32.1708 54.7983 32.1026C56.5013 29.3754 56.1749 26.6555 55.8856 24.2476C55.766 23.2533 55.653 22.3142 55.6819 21.4246C55.7118 20.4852 55.8355 19.6837 55.9551 18.9085C56.108 17.9155 56.2505 16.9726 56.2057 15.8216C56.2354 15.715 56.2489 15.5865 56.2342 15.429C56.1314 14.3387 54.8787 11.0669 52.3222 8.09085C50.861 6.38999 48.6999 4.47742 45.7206 3.251C45.8474 3.22167 45.9813 3.19218 46.1205 3.16284C46.1283 3.16125 46.1358 3.15949 46.1436 3.1579C46.2835 3.12857 46.4299 3.09971 46.5815 3.07118C46.5876 3.07006 46.5938 3.06878 46.6 3.06767C46.7548 3.03881 46.9155 3.0106 47.0814 2.98349ZM37.3246 36.5871C37.4 36.8506 37.4834 37.3529 37.195 37.7571C37.1092 37.8768 37.0212 37.9917 36.9313 38.1035C36.9163 38.1222 36.9005 38.1398 36.8852 38.1583C36.8071 38.2537 36.7274 38.3466 36.6461 38.4359C36.6365 38.4463 36.6266 38.4561 36.6171 38.4668C36.5275 38.5641 36.4358 38.6575 36.3421 38.7479C36.3394 38.7506 36.3367 38.7528 36.3339 38.7554C36.2345 38.8509 36.1328 38.9425 36.0288 39.0299C36.0283 39.0304 36.0275 39.031 36.0269 39.0316V39.0315C34.921 39.9628 33.5739 40.4355 32.0015 40.4355C31.3324 40.4355 30.6243 40.3453 29.8961 40.1728C29.8513 40.1623 29.8074 40.1546 29.7625 40.1433C29.1237 39.9835 28.5867 39.6703 28.4131 39.4788C28.5412 39.3817 28.9037 39.178 29.8404 38.9848C32.7223 38.3914 33.1329 38.0066 34.1126 36.7628C34.3412 36.4726 34.6001 36.1437 34.9604 35.7415C35.4197 35.2274 35.7112 35.2274 35.8072 35.2274C35.9832 35.2274 36.1616 35.2953 36.3762 35.3844C36.7797 35.5513 37.1698 36.046 37.3246 36.5871Z" fill="#DBDBDB"/>
</g>
</svg>
