<svg width="100%" height="100%" overflow="visible" style="display: block;" viewBox="0 0 122.922 48" fill="none" xmlns="http://www.w3.org/2000/svg">
<g id="logo-redshift">
<path id="Rectangle" opacity="0.6" d="M26.6937 0H17.0938V48H26.6937V0Z" fill="#DBDBDB"/>
<path id="Path" d="M17.095 0L10.4219 3.62927V44.4878L17.095 48V0Z" fill="#DBDBDB"/>
<path id="Path_1_" opacity="0.8" d="M26.8047 0V48L33.4779 44.4878V3.62927L26.8047 0Z" fill="#DBDBDB"/>
<path id="Path_2_" opacity="0.8" d="M40.1523 6.67188L43.8987 8.66212V39.3353L40.1523 41.3255V6.67188Z" fill="#DBDBDB"/>
<path id="Path_3_" d="M40.1654 41.3255L33.4922 39.3353V8.66212L40.1654 6.67188V41.3255Z" fill="#DBDBDB"/>
<path id="Path_4_" d="M0 8.66212V39.3353L3.74634 41.3255V6.67188L0 8.66212Z" fill="#DBDBDB"/>
<path id="Path_5_" opacity="0.8" d="M3.74609 6.67188L10.4193 8.66212V39.3353L3.74609 41.3255V6.67188Z" fill="#DBDBDB"/>
<g id="Group">
<path id="Path_6_" d="M93.3902 12.6387V11.1167C93.3902 10.8826 93.6243 10.6484 93.8585 10.6484H101C101.234 10.6484 101.468 10.7655 101.468 11.1167V12.4045C101.468 12.6387 101.234 12.9899 100.883 13.4582L97.2536 18.7265C98.5414 18.7265 100.063 18.9606 101.234 19.6631C101.468 19.7801 101.585 20.1314 101.585 20.3655V22.0045C101.585 22.2387 101.351 22.4728 101 22.3558C98.7755 21.185 95.8487 21.185 93.5072 22.3558C93.2731 22.4728 92.9219 22.2387 92.9219 22.0045V20.4826C92.9219 20.2484 92.9219 19.7801 93.156 19.3119L97.3707 13.224H93.7414C93.6243 13.107 93.3902 12.8728 93.3902 12.6387Z" fill="#DBDBDB"/>
<path id="Path_7_" d="M67.4038 22.5897H65.2965C65.0624 22.5897 64.9453 22.3555 64.9453 22.2385V11.1165C64.9453 10.8824 65.1795 10.6482 65.4136 10.6482H67.4038C67.638 10.6482 67.7551 10.8824 67.8721 10.9994V12.4043C68.4575 10.9994 69.3941 10.4141 70.6819 10.4141C71.9697 10.4141 72.9063 11.1165 73.4917 12.4043C74.077 10.9994 75.1307 10.4141 76.5356 10.4141C77.4721 10.4141 78.4087 10.7653 78.9941 11.5848C79.6965 12.5214 79.5795 13.8092 79.5795 15.097V22.1214C79.5795 22.3555 79.3453 22.5897 79.1112 22.5897H77.0038C76.7697 22.5897 76.5356 22.3555 76.5356 22.1214V16.1507C76.5356 15.6824 76.5356 14.5116 76.4185 14.0433C76.3014 13.2238 75.716 12.9897 75.2478 12.9897C74.7795 12.9897 74.077 13.3409 73.9599 13.9263C73.8429 14.5116 73.7258 15.3311 73.7258 16.0336V22.0043C73.7258 22.2385 73.4917 22.4726 73.2575 22.4726H71.1502C70.916 22.4726 70.6819 22.2385 70.6819 22.0043V16.0336C70.6819 14.8628 70.916 12.9897 69.3941 12.9897C67.8721 12.9897 67.9892 14.7458 67.9892 16.0336V22.0043C67.8721 22.3555 67.638 22.5897 67.4038 22.5897Z" fill="#DBDBDB"/>
<path id="Shape" d="M107.554 12.7555C106.032 12.7555 105.915 14.8628 105.915 16.3848C105.915 17.6726 105.915 20.5994 107.554 20.5994C109.193 20.5994 109.31 18.258 109.31 16.8531C109.31 15.9165 109.31 14.8628 108.959 13.9263C108.724 12.9897 108.256 12.7555 107.554 12.7555ZM107.437 10.4141C110.715 10.4141 112.354 13.2238 112.354 16.6189C112.354 20.0141 110.481 22.7067 107.437 22.7067C104.276 22.7067 102.52 19.897 102.52 16.5019C102.637 13.2238 104.276 10.4141 107.437 10.4141Z" fill="#DBDBDB"/>
<path id="Path_8_" d="M116.568 22.5897H114.46C114.226 22.5897 113.992 22.3555 113.992 22.1214V10.9994C113.992 10.7653 114.226 10.6482 114.46 10.6482H116.451C116.685 10.6482 116.802 10.7653 116.802 10.9994V12.6385C117.387 11.1165 118.207 10.4141 119.729 10.4141C120.782 10.4141 121.602 10.7653 122.304 11.7019C122.89 12.6385 122.89 14.0433 122.89 15.2141V22.2385C122.89 22.4726 122.656 22.5897 122.421 22.5897H120.314C120.08 22.5897 119.963 22.4726 119.963 22.2385V16.1507C119.963 14.9799 120.08 13.1067 118.675 13.1067C118.09 13.1067 117.621 13.458 117.387 14.0433C117.036 14.7458 117.036 15.3311 117.036 16.1507V22.2385C117.036 22.3555 116.802 22.5897 116.568 22.5897Z" fill="#DBDBDB"/>
<path id="Shape_1_" d="M87.3066 19.5457C86.9553 20.131 86.37 20.5993 85.9017 20.5993C85.0822 20.5993 84.6139 19.8969 84.6139 19.0774C84.6139 17.2042 86.2529 16.853 87.8919 16.853V17.3213C87.7748 18.1408 87.7748 18.7261 87.3066 19.5457ZM91.6383 20.5993C91.17 20.0139 90.8188 19.5457 90.8188 18.6091V15.2139C90.8188 13.8091 90.9358 12.4042 89.7651 11.4676C88.9456 10.6481 87.5407 10.2969 86.487 10.2969C84.4968 10.2969 82.1553 11.1164 81.687 13.692C81.687 13.9261 81.8041 14.1603 82.0383 14.1603L84.1456 14.3944C84.3797 14.3944 84.4968 14.1603 84.4968 13.9261C84.7309 12.9896 85.4334 12.6383 86.2529 12.6383C86.7212 12.6383 87.3066 12.7554 87.4236 13.2237C87.7748 13.692 87.6578 14.2774 87.6578 14.7457V14.9798C86.37 15.0969 84.7309 15.2139 83.5602 15.7993C82.2724 16.3847 81.2188 17.5554 81.2188 19.4286C81.2188 21.653 82.6236 22.8237 84.4968 22.8237C86.0187 22.8237 86.8383 22.4725 88.1261 21.3017C88.5944 21.8871 88.7114 22.2383 89.2968 22.7066C89.4139 22.8237 89.648 22.8237 89.8822 22.7066C90.3505 22.3554 91.0529 21.5359 91.5212 21.3017C91.7553 21.0676 91.7553 20.7164 91.6383 20.5993Z" fill="#DBDBDB"/>
<path id="Shape_2_" d="M58.9706 19.5457C58.6194 20.131 58.034 20.5993 57.4487 20.5993C56.6292 20.5993 56.1609 19.8969 56.1609 19.0774C56.1609 17.2042 57.7999 16.853 59.4389 16.853V17.3213C59.3218 18.1408 59.4389 18.7261 58.9706 19.5457ZM62.3657 18.6091V15.2139C62.3657 13.8091 62.4828 12.4042 61.3121 11.4676C60.3755 10.6481 59.0877 10.2969 58.034 10.2969C56.0438 10.2969 53.7023 11.1164 53.234 13.692C53.234 13.9261 53.3511 14.1603 53.5853 14.1603L55.6926 14.3944C55.9267 14.3944 56.0438 14.1603 56.0438 13.9261C56.2779 12.9896 56.9804 12.6383 57.7999 12.6383C58.2682 12.6383 58.8535 12.7554 59.0877 13.2237C59.4389 13.692 59.3218 14.2774 59.3218 14.7457V14.9798C58.1511 15.0969 56.395 15.2139 55.2243 15.7993C53.9365 16.3847 52.8828 17.5554 52.8828 19.4286C52.8828 21.653 54.2877 22.8237 56.1609 22.8237C57.6828 22.8237 58.5023 22.4725 59.7901 21.3017C60.2584 21.8871 60.3755 22.2383 61.0779 22.7066C61.195 22.8237 61.4292 22.8237 61.6633 22.7066C62.1316 22.3554 62.834 21.5359 63.3023 21.3017C63.5365 21.1847 63.4194 20.9505 63.3023 20.7164C62.717 20.0139 62.3657 19.5457 62.3657 18.6091Z" fill="#DBDBDB"/>
<path id="Shape_3_" d="M54.2877 32.0771H55.5755C56.9804 32.0771 57.917 31.2576 57.917 30.0869C57.917 28.7991 56.8633 28.2137 55.4584 28.0966C54.756 28.0966 54.2877 28.2137 54.1706 28.2137L54.2877 32.0771ZM52.8828 27.2771C53.5853 27.16 54.5218 27.043 55.4584 27.043C56.8633 27.043 57.7999 27.2771 58.5023 27.9796C59.0877 28.4478 59.3218 29.1503 59.3218 29.9698C59.3218 31.2576 58.3853 32.3113 57.3316 32.6625C58.1511 33.0137 58.6194 33.7161 58.8535 34.7698C59.2048 36.1747 59.4389 37.2283 59.6731 37.6966H58.2682C58.034 37.3454 57.7999 36.5259 57.5657 35.121C57.2145 33.7161 56.6292 33.1308 55.4584 33.1308H54.1706V37.6966H52.8828V27.2771Z" fill="#DBDBDB"/>
</g>
<path id="Path_9_" d="M67.9009 32.7797H63.8033V36.526H68.3692V37.6967H62.3984V27.1602H68.135V28.3309H63.8033V31.6089H67.9009V32.7797Z" fill="#DBDBDB"/>
<g id="Group_1_">
<path id="Shape_4_" d="M72.6274 36.6547C72.9786 36.7718 73.564 36.7718 73.9152 36.7718C76.8421 36.7718 78.364 35.1327 78.364 32.323C78.364 29.8644 77.0762 28.3425 74.1494 28.3425C73.4469 28.3425 72.9786 28.4596 72.6274 28.4596V36.6547ZM71.2225 27.2888C72.0421 27.1718 72.9786 27.0547 74.1494 27.0547C76.1396 27.0547 77.5445 27.523 78.364 28.3425C79.3006 29.2791 79.7689 30.4498 79.7689 32.0888C79.7689 33.7279 79.1835 35.2498 78.2469 36.1864C77.1933 37.2401 75.6713 37.7083 73.564 37.7083C72.5103 37.7083 71.8079 37.7083 71.1055 37.5913L71.2225 27.2888Z" fill="#DBDBDB"/>
<path id="Path_10_" d="M82.4647 36.0692C83.0501 36.4204 83.8696 36.7716 84.9233 36.7716C86.2111 36.7716 87.1477 35.9521 87.1477 35.0156C87.1477 34.079 86.5623 33.4936 85.1574 32.9082C83.5184 32.3229 82.3477 31.5034 82.3477 29.8643C82.3477 28.2253 83.6355 26.9375 85.8599 26.9375C87.0306 26.9375 87.733 27.1716 88.2013 27.5229L87.8501 28.6936C87.4989 28.4595 86.7964 28.2253 85.8599 28.2253C84.455 28.2253 83.8696 29.1619 83.8696 29.7473C83.8696 30.8009 84.572 31.1521 85.9769 31.7375C87.733 32.4399 88.6696 33.2595 88.6696 34.8985C88.6696 36.5375 87.4989 37.9424 85.0403 37.9424C83.9867 37.9424 82.933 37.5912 82.3477 37.2399L82.4647 36.0692Z" fill="#DBDBDB"/>
</g>
<path id="Path_11_" d="M92.9557 27.1602V31.6089H98.1069V27.1602H99.3947V37.6967H98.1069V32.7797H92.9557V37.6967H91.5508V27.1602H92.9557Z" fill="#DBDBDB"/>
<path id="Rectangle_1_" d="M104.194 27.1602H102.906V37.6967H104.194V27.1602Z" fill="#DBDBDB"/>
<path id="Path_12_" d="M107.703 27.1602H113.323V28.3309H108.991V31.8431H112.971V33.0138H108.991V37.6967H107.703V27.1602Z" fill="#DBDBDB"/>
<path id="Path_13_" d="M115.195 27.1602V28.3309H118.356V37.6967H119.761V28.3309H122.922V27.1602H115.195Z" fill="#DBDBDB"/>
</g>
</svg>
