<svg width="100%" height="100%" overflow="visible" style="display: block;" viewBox="0 0 118 30" fill="none" xmlns="http://www.w3.org/2000/svg">
<g id="Slack" clip-path="url(#clip0_0_240)">
<g id="Vector">
<path d="M37.5978 23.5651L39.0624 20.1635C40.6451 21.3446 42.7474 21.9588 44.8262 21.9588C46.3616 21.9588 47.3301 21.3683 47.3301 20.4706C47.3065 17.9667 38.1411 19.9273 38.0703 13.6439C38.0467 10.4549 40.8813 7.99819 44.897 7.99819C47.2829 7.99819 49.6687 8.58874 51.3695 9.9352L49.9994 13.4076C48.4404 12.4155 46.5034 11.7069 44.6608 11.7069C43.4089 11.7069 42.5821 12.2974 42.5821 13.0533C42.6057 15.51 51.8419 14.1635 51.9364 20.1635C51.9364 23.4234 49.1726 25.7147 45.2041 25.7147C42.2986 25.7147 39.6293 25.0297 37.5978 23.5651ZM93.7947 18.9352C93.0624 20.2108 91.6923 21.0848 90.1096 21.0848C87.7711 21.0848 85.8813 19.195 85.8813 16.8565C85.8813 14.5179 87.7711 12.6281 90.1096 12.6281C91.6923 12.6281 93.0624 13.5021 93.7947 14.7777L97.8341 12.5336C96.3222 9.84071 93.4167 7.99819 90.1096 7.99819C85.2199 7.99819 81.2514 11.9667 81.2514 16.8565C81.2514 21.7462 85.2199 25.7147 90.1096 25.7147C93.4404 25.7147 96.3222 23.8958 97.8341 21.1793L93.7947 18.9352ZM53.9679 0.651733H59.023V25.384H53.9679V0.651733ZM99.8183 0.651733V25.384H104.873V17.9667L110.873 25.384H117.346L109.716 16.573L116.779 8.35252H110.59L104.873 15.1793V0.651733H99.8183ZM74.0467 18.9824C73.3144 20.1872 71.8026 21.0848 70.1018 21.0848C67.7632 21.0848 65.8734 19.195 65.8734 16.8565C65.8734 14.5179 67.7632 12.6281 70.1018 12.6281C71.8026 12.6281 73.3144 13.573 74.0467 14.8013V18.9824ZM74.0467 8.35252V10.3604C73.2199 8.96669 71.1648 7.99819 69.0152 7.99819C64.5742 7.99819 61.0782 11.9194 61.0782 16.8328C61.0782 21.7462 64.5742 25.7147 69.0152 25.7147C71.1648 25.7147 73.2199 24.7462 74.0467 23.3525V25.3604H79.1018V8.35252H74.0467Z" fill="#DBDBDB"/>
<path d="M6.34596 18.9584C6.34596 20.6829 4.95226 22.0766 3.22785 22.0766C1.50344 22.0766 0.109741 20.6829 0.109741 18.9584C0.109741 17.234 1.50344 15.8403 3.22785 15.8403H6.34596V18.9584ZM7.90502 18.9584C7.90502 17.234 9.29872 15.8403 11.0231 15.8403C12.7475 15.8403 14.1412 17.234 14.1412 18.9584V26.7537C14.1412 28.4781 12.7475 29.8718 11.0231 29.8718C9.29872 29.8718 7.90502 28.4781 7.90502 26.7537V18.9584Z" fill="#DBDBDB"/>
<path d="M11.0229 6.43935C9.29853 6.43935 7.90483 5.04565 7.90483 3.32124C7.90483 1.59683 9.29853 0.203125 11.0229 0.203125C12.7474 0.203125 14.1411 1.59683 14.1411 3.32124V6.43935H11.0229ZM11.0229 8.02202C12.7474 8.02202 14.1411 9.41573 14.1411 11.1401C14.1411 12.8645 12.7474 14.2582 11.0229 14.2582H3.20405C1.47964 14.2582 0.0859375 12.8645 0.0859375 11.1401C0.0859375 9.41573 1.47964 8.02202 3.20405 8.02202H11.0229Z" fill="#DBDBDB"/>
<path d="M23.5184 11.1401C23.5184 9.41573 24.9121 8.02202 26.6365 8.02202C28.3609 8.02202 29.7546 9.41573 29.7546 11.1401C29.7546 12.8645 28.3609 14.2582 26.6365 14.2582H23.5184V11.1401ZM21.9594 11.1401C21.9594 12.8645 20.5657 14.2582 18.8413 14.2582C17.1168 14.2582 15.7231 12.8645 15.7231 11.1401V3.32124C15.7231 1.59683 17.1168 0.203125 18.8413 0.203125C20.5657 0.203125 21.9594 1.59683 21.9594 3.32124V11.1401Z" fill="#DBDBDB"/>
<path d="M18.8413 23.6356C20.5657 23.6356 21.9594 25.0293 21.9594 26.7537C21.9594 28.4781 20.5657 29.8718 18.8413 29.8718C17.1168 29.8718 15.7231 28.4781 15.7231 26.7537V23.6356H18.8413ZM18.8413 22.0766C17.1168 22.0766 15.7231 20.6829 15.7231 18.9584C15.7231 17.234 17.1168 15.8403 18.8413 15.8403H26.6602C28.3846 15.8403 29.7783 17.234 29.7783 18.9584C29.7783 20.6829 28.3846 22.0766 26.6602 22.0766H18.8413Z" fill="#DBDBDB"/>
</g>
</g>
<defs>
<clipPath id="clip0_0_240">
<rect width="118" height="30" fill="white"/>
</clipPath>
</defs>
</svg>
