<svg width="100%" height="100%" overflow="visible" style="display: block;" viewBox="0 0 166 40" fill="none" xmlns="http://www.w3.org/2000/svg">
<g id="Snowflake" clip-path="url(#clip0_0_271)">
<g id="Vector">
<path d="M33.6575 30.463L25.443 25.7175C24.2889 25.0531 22.8132 25.4482 22.1452 26.6023C21.8865 27.0569 21.785 27.557 21.834 28.043V37.3172C21.834 38.6426 22.9111 39.7197 24.24 39.7197C25.5654 39.7197 26.6425 38.6426 26.6425 37.3172V31.9842L31.2446 34.642C32.3986 35.3099 33.8779 34.9113 34.5423 33.7572C35.2102 32.6032 34.8151 31.1274 33.6575 30.463Z" fill="#DBDBDB"/>
<path d="M13.2273 20.2888C13.2413 19.432 12.7902 18.6347 12.0488 18.2046L3.83421 13.4626C3.47751 13.2562 3.06835 13.1478 2.6592 13.1478C1.81641 13.1478 1.03307 13.5989 0.613424 14.3263C-0.0370269 15.4524 0.351146 16.8967 1.4772 17.5471L6.2122 20.2783L1.4772 23.013C0.931656 23.3277 0.539986 23.8348 0.379123 24.4433C0.214761 25.0518 0.29869 25.6883 0.613424 26.2338C1.03307 26.9612 1.81641 27.4123 2.6557 27.4123C3.06836 27.4123 3.47751 27.3039 3.83421 27.0976L12.0488 22.3556C12.7832 21.9289 13.2343 21.1386 13.2273 20.2888Z" fill="#DBDBDB"/>
<path d="M5.69754 10.1029L13.9121 14.8449C14.8703 15.401 16.0523 15.2191 16.8077 14.4812C17.2868 14.0406 17.584 13.4111 17.584 12.7117V3.20675C17.584 1.87787 16.5069 0.800781 15.1815 0.800781C13.8527 0.800781 12.7756 1.87787 12.7756 3.20675V8.61669L8.11051 5.92396C6.95648 5.25602 5.48072 5.65119 4.81279 6.80522C4.14485 7.95925 4.54352 9.435 5.69754 10.1029Z" fill="#DBDBDB"/>
<path d="M24.1719 20.6733C24.1719 20.8551 24.067 21.1069 23.9376 21.2398L20.6819 24.4956C20.5525 24.625 20.2972 24.7299 20.1153 24.7299H19.2865C19.1047 24.7299 18.8494 24.625 18.72 24.4956L15.4608 21.2398C15.3314 21.1069 15.2265 20.8551 15.2265 20.6733V19.8445C15.2265 19.6592 15.3314 19.4074 15.4608 19.278L18.72 16.0187C18.8494 15.8893 19.1047 15.7844 19.2865 15.7844H20.1153C20.2972 15.7844 20.5525 15.8893 20.6819 16.0187L23.9376 19.278C24.067 19.4074 24.1719 19.6592 24.1719 19.8445V20.6733ZM21.2659 20.2746V20.2397C21.2659 20.1068 21.1889 19.9214 21.0945 19.8235L20.1328 18.8653C20.0384 18.7674 19.8531 18.6905 19.7167 18.6905H19.6817C19.5488 18.6905 19.3635 18.7674 19.2655 18.8653L18.3074 19.8235C18.2129 19.9179 18.136 20.1033 18.136 20.2397V20.2746C18.136 20.411 18.2129 20.5964 18.3074 20.6908L19.2655 21.6525C19.3635 21.7469 19.5488 21.8238 19.6817 21.8238H19.7167C19.8531 21.8238 20.0384 21.7469 20.1328 21.6525L21.0945 20.6908C21.1889 20.5964 21.2659 20.411 21.2659 20.2746Z" fill="#DBDBDB"/>
<path d="M25.442 14.8449L33.6566 10.1029C34.8106 9.4385 35.2093 7.95925 34.5413 6.80522C33.8734 5.65119 32.3976 5.25602 31.2436 5.92396L26.6415 8.58172V3.20675C26.6415 1.87787 25.5644 0.800781 24.239 0.800781C22.9101 0.800781 21.833 1.87787 21.833 3.20675V12.5229C21.7876 13.0055 21.882 13.5091 22.1443 13.9637C22.8122 15.1177 24.288 15.5129 25.442 14.8449Z" fill="#DBDBDB"/>
<path d="M15.5592 25.4376C15.0137 25.3327 14.4297 25.4202 13.9121 25.7174L5.69754 30.4629C4.54352 31.1273 4.14485 32.6031 4.81279 33.7571C5.48072 34.9147 6.95648 35.3098 8.11051 34.6419L12.7756 31.9492V37.3171C12.7756 38.6425 13.8527 39.7196 15.1815 39.7196C16.5069 39.7196 17.584 38.6425 17.584 37.3171V27.8121C17.584 26.6127 16.7063 25.6195 15.5592 25.4376Z" fill="#DBDBDB"/>
<path d="M38.7913 14.2991C38.1269 13.1416 36.6476 12.7464 35.4936 13.4144L27.279 18.1564C26.4922 18.611 26.0586 19.4433 26.0726 20.2896C26.0656 21.1324 26.4992 21.9542 27.279 22.4018L35.4936 27.1473C36.6476 27.8117 38.1234 27.4166 38.7913 26.2625C39.4593 25.1085 39.0606 23.6327 37.9066 22.9648L33.2555 20.2791L37.9066 17.5933C39.0641 16.9289 39.4593 15.4531 38.7913 14.2991Z" fill="#DBDBDB"/>
<path d="M165.018 19.8138C165.018 20.2614 164.644 20.5936 164.183 20.5936H152.642C152.663 20.8664 152.698 21.1322 152.754 21.3944C153.289 23.8948 155.429 25.7553 157.972 25.7763C157.979 25.7763 158.108 25.7763 158.307 25.7763C158.339 25.7763 158.37 25.7763 158.402 25.7763H158.643C158.696 25.7763 158.748 25.7763 158.804 25.7728C158.853 25.7728 158.902 25.7693 158.951 25.7658C158.954 25.7658 158.958 25.7658 158.961 25.7623C159.804 25.6958 160.654 25.3566 161.413 24.8111C161.413 24.8111 161.413 24.8111 161.416 24.8111C161.455 24.7831 161.497 24.7516 161.535 24.7201C161.542 24.7166 161.549 24.7096 161.56 24.7027C161.591 24.6782 161.626 24.6502 161.661 24.6222C161.675 24.6117 161.686 24.6012 161.7 24.5907C161.728 24.5698 161.756 24.5453 161.784 24.5208C161.801 24.5068 161.822 24.4893 161.84 24.4753C161.86 24.4544 161.881 24.4334 161.906 24.4159C161.927 24.3949 161.951 24.3739 161.972 24.3529C161.99 24.339 162.007 24.3215 162.025 24.304C162.053 24.2795 162.077 24.255 162.105 24.2306C162.119 24.2166 162.133 24.1991 162.147 24.1851C162.175 24.1571 162.203 24.1291 162.231 24.1012C162.245 24.0872 162.256 24.0767 162.27 24.0627C162.298 24.0312 162.326 23.9997 162.354 23.9683C162.368 23.9578 162.378 23.9438 162.389 23.9298C162.42 23.8983 162.448 23.8669 162.476 23.8354C162.486 23.8214 162.5 23.8074 162.511 23.7934C162.539 23.7585 162.563 23.727 162.591 23.6955C162.605 23.678 162.619 23.6605 162.633 23.643C162.658 23.6116 162.682 23.5836 162.703 23.5556C162.724 23.5276 162.742 23.5032 162.759 23.4787C162.777 23.4542 162.794 23.4332 162.812 23.4087C162.84 23.3703 162.868 23.3318 162.892 23.2933C162.903 23.2794 162.91 23.2689 162.917 23.2584C162.987 23.157 163.053 23.052 163.119 22.9436C163.119 22.9436 163.119 22.9401 163.123 22.9366C163.137 22.9122 163.154 22.8912 163.172 22.8667C163.179 22.8562 163.186 22.8457 163.196 22.8387C163.207 22.8212 163.221 22.8108 163.231 22.7968C163.242 22.7863 163.252 22.7758 163.263 22.7653C163.277 22.7548 163.287 22.7443 163.301 22.7338C163.312 22.7233 163.322 22.7128 163.336 22.7058C163.354 22.6918 163.375 22.6779 163.396 22.6674C163.41 22.6569 163.427 22.6464 163.441 22.6394C163.459 22.6324 163.473 22.6254 163.487 22.6184C163.501 22.6114 163.515 22.6079 163.525 22.6009C163.546 22.5939 163.564 22.5904 163.585 22.5834C163.595 22.5799 163.602 22.5764 163.613 22.573C163.679 22.559 163.749 22.5485 163.815 22.5485C163.889 22.5485 163.966 22.559 164.036 22.5799C164.039 22.5799 164.039 22.5799 164.043 22.5799C164.071 22.5904 164.102 22.5974 164.13 22.6114C164.137 22.6149 164.144 22.6149 164.151 22.6184C164.183 22.6324 164.21 22.6464 164.238 22.6639L164.252 22.6709C164.637 22.9506 164.756 23.4402 164.522 23.8424L164.518 23.8459C164.49 23.8913 164.462 23.9368 164.434 23.9788C164.427 23.9893 164.42 23.9997 164.413 24.0102C163.595 25.2552 162.483 26.2484 161.242 26.8429C161.214 26.8533 161.189 26.8673 161.161 26.8813C161.158 26.8813 161.151 26.8848 161.147 26.8848C160.574 27.1506 159.958 27.3359 159.301 27.4129C159.287 27.4129 159.273 27.4164 159.259 27.4164C159.203 27.4234 159.147 27.4304 159.091 27.4339C159.059 27.4339 159.028 27.4373 158.993 27.4408C158.954 27.4408 158.912 27.4443 158.874 27.4478C158.797 27.4478 158.72 27.4513 158.643 27.4513C158.633 27.4513 158.342 27.4513 158.147 27.4513C158.035 27.4513 157.972 27.4513 157.965 27.4513C154.083 27.4234 150.957 24.1851 150.957 20.2194C150.957 16.1873 154.104 12.9316 158.017 12.9316C158.133 12.9316 158.248 12.9351 158.363 12.9386C159.727 13.0085 160.986 13.4736 162.032 14.236C162.035 14.2395 162.039 14.243 162.042 14.243C162.102 14.2849 162.158 14.3304 162.214 14.3724C162.242 14.3968 162.273 14.4213 162.305 14.4458C162.333 14.4668 162.361 14.4913 162.389 14.5122C163.861 15.7397 164.854 17.5827 165.018 19.7159V19.8138ZM152.754 18.9465H163.2C162.682 16.4286 160.518 14.6067 158.017 14.6067C155.471 14.6067 153.324 16.3937 152.754 18.9465Z" fill="#DBDBDB"/>
<path d="M135.518 13.1764C135.647 13.3058 135.734 13.4806 135.755 13.6834C135.755 13.7114 135.759 13.7394 135.759 13.7674V26.612C135.759 27.0702 135.374 27.4513 134.92 27.4513C134.465 27.4513 134.084 27.0702 134.084 26.612V24.9055C133.766 25.2902 133.416 25.6399 133.035 25.9441C133.024 25.9546 133.014 25.9616 133.003 25.9721C132.968 26.0001 132.93 26.028 132.895 26.0525C131.741 26.9408 130.338 27.4513 128.873 27.4513C126.513 27.4513 124.435 26.1959 123.197 24.2935C123.187 24.2795 123.173 24.262 123.162 24.248C123.128 24.1886 123.093 24.1291 123.054 24.0662C123.03 24.0277 123.009 23.9893 122.984 23.9508C122.96 23.9123 122.939 23.8704 122.918 23.8284C122.883 23.7689 122.848 23.706 122.816 23.6465C122.806 23.6256 122.799 23.6046 122.788 23.5836C122.33 22.6744 122.047 21.6497 121.998 20.5621C121.991 20.4397 121.987 20.3174 121.987 20.1915C121.987 20.0656 121.991 19.9432 121.998 19.8208C122.047 18.7332 122.33 17.7086 122.788 16.7958C122.799 16.7783 122.806 16.7574 122.816 16.7364C122.848 16.6769 122.883 16.614 122.918 16.5545C122.939 16.5126 122.96 16.4706 122.984 16.4321C123.005 16.3937 123.03 16.3552 123.054 16.3167C123.089 16.2573 123.128 16.1943 123.162 16.1349C123.173 16.1209 123.187 16.1034 123.197 16.0894C124.435 14.187 126.513 12.9316 128.873 12.9316C130.468 12.9316 131.975 13.5156 133.175 14.5332C133.503 14.8095 133.808 15.1137 134.084 15.4495V13.7674C134.084 13.7394 134.084 13.7114 134.087 13.6834C134.108 13.4806 134.196 13.3058 134.325 13.1764C134.325 13.1764 134.325 13.1764 134.325 13.1729C134.339 13.1589 134.357 13.1484 134.371 13.1344C134.374 13.1309 134.381 13.1239 134.385 13.1204C134.395 13.1099 134.409 13.1029 134.419 13.0959C134.43 13.0889 134.44 13.0785 134.451 13.0715C134.458 13.068 134.465 13.0645 134.472 13.0575C134.489 13.0505 134.503 13.04 134.521 13.0295C134.524 13.0295 134.528 13.026 134.531 13.026C134.552 13.0155 134.573 13.005 134.594 12.9945C134.594 12.9945 134.594 12.9945 134.598 12.9945C134.647 12.9735 134.699 12.9596 134.752 12.9491C134.755 12.9491 134.762 12.9456 134.766 12.9456C134.787 12.9421 134.811 12.9386 134.836 12.9351C134.864 12.9351 134.892 12.9316 134.92 12.9316C134.951 12.9316 134.979 12.9351 135.007 12.9351C135.031 12.9386 135.052 12.9421 135.077 12.9456C135.08 12.9456 135.084 12.9491 135.091 12.9491C135.143 12.9596 135.196 12.9735 135.245 12.9945H135.248C135.269 13.005 135.29 13.0155 135.308 13.026C135.315 13.026 135.318 13.0295 135.322 13.0295C135.336 13.04 135.353 13.0505 135.367 13.0575C135.374 13.0645 135.385 13.068 135.392 13.0715C135.402 13.0785 135.413 13.0889 135.423 13.0959C135.434 13.1029 135.444 13.1099 135.455 13.1204C135.462 13.1239 135.465 13.1309 135.472 13.1344C135.486 13.1484 135.504 13.1589 135.514 13.1729C135.518 13.1764 135.518 13.1764 135.518 13.1764ZM128.873 25.7763C131.744 25.7763 134.084 23.2724 134.084 20.1915C134.084 17.0966 131.744 14.5787 128.873 14.5787C126.023 14.5787 123.663 17.0931 123.663 20.1915C123.663 20.2894 123.666 20.3838 123.67 20.4782C123.67 20.5202 123.677 20.5586 123.677 20.5971C123.68 20.6531 123.684 20.709 123.691 20.7615C123.694 20.8069 123.701 20.8489 123.705 20.8909C123.712 20.9398 123.715 20.9923 123.722 21.0412C123.729 21.0797 123.736 21.1147 123.739 21.1496C123.75 21.2056 123.757 21.2616 123.767 21.3175C123.774 21.3455 123.781 21.37 123.785 21.3944C123.799 21.4609 123.813 21.5238 123.827 21.5903C123.83 21.6043 123.834 21.6183 123.841 21.6322C124.435 24.0242 126.478 25.7763 128.873 25.7763Z" fill="#DBDBDB"/>
<path d="M114.495 6.87242H114.267C114.239 6.87242 114.208 6.87242 114.18 6.87592C114.148 6.87242 114.121 6.87242 114.089 6.87242C114.009 6.87242 113.928 6.87242 113.848 6.87592C113.834 6.87592 113.816 6.87941 113.802 6.87941C113.739 6.87941 113.676 6.88291 113.613 6.8899C113.603 6.8899 113.589 6.8899 113.578 6.8899C113.512 6.8969 113.449 6.9004 113.386 6.90739C113.379 6.91089 113.372 6.91089 113.365 6.91089C113.295 6.92138 113.229 6.92837 113.166 6.93886C113.162 6.93886 113.159 6.93886 113.159 6.93886C112.736 7.00531 112.355 7.12421 112.015 7.29206C112.015 7.29556 112.012 7.29556 112.008 7.29556C111.959 7.32354 111.907 7.35151 111.858 7.37949C111.847 7.38299 111.84 7.38998 111.83 7.39698C111.788 7.42146 111.746 7.44593 111.704 7.47391C111.687 7.4844 111.673 7.49839 111.659 7.50888C111.624 7.52986 111.592 7.55434 111.557 7.57882C111.533 7.59981 111.508 7.62079 111.484 7.63827C111.463 7.65576 111.442 7.67324 111.421 7.69073C111.382 7.7257 111.347 7.75717 111.312 7.79214C111.305 7.79914 111.298 7.80613 111.291 7.81313C111.249 7.85859 111.207 7.90055 111.166 7.94601C111.159 7.95651 111.152 7.967 111.145 7.97399C111.11 8.01246 111.075 8.05093 111.043 8.08939C111.033 8.10688 111.019 8.12436 111.008 8.14185C110.98 8.17682 110.956 8.20829 110.931 8.24326C110.924 8.25725 110.917 8.26774 110.907 8.27823C110.879 8.3202 110.851 8.36216 110.826 8.40413C110.823 8.41112 110.819 8.41462 110.816 8.42161C110.588 8.7958 110.428 9.23643 110.326 9.76798C110.326 9.77497 110.326 9.78546 110.323 9.79246C110.309 9.8589 110.298 9.92884 110.288 9.99878C110.284 10.0198 110.281 10.0407 110.281 10.0617C110.27 10.1212 110.263 10.1806 110.256 10.2436C110.253 10.2785 110.249 10.3135 110.246 10.352C110.239 10.4009 110.232 10.4464 110.228 10.4989C110.225 10.5513 110.221 10.6038 110.218 10.6597C110.214 10.6947 110.214 10.7297 110.211 10.7681C110.207 10.8416 110.204 10.9185 110.2 10.9954C110.2 11.0164 110.197 11.0304 110.197 11.0479C110.193 11.1458 110.193 11.2472 110.193 11.3451V12.7265H108.452C108.343 12.723 108.235 12.744 108.137 12.7789C107.822 12.8943 107.599 13.1916 107.599 13.5378C107.599 13.863 107.759 14.1393 108.011 14.3002C108.137 14.3806 108.284 14.4295 108.445 14.4365H108.452V14.44H110.193V26.6378C110.19 26.6552 110.193 26.6692 110.193 26.6867C110.193 26.6972 110.193 26.7077 110.193 26.7182C110.204 26.914 110.284 27.0924 110.414 27.2288L110.417 27.2323C110.435 27.2497 110.456 27.2672 110.473 27.2847C110.477 27.2882 110.48 27.2882 110.484 27.2917C110.498 27.3057 110.515 27.3162 110.529 27.3267C110.536 27.3337 110.547 27.3407 110.554 27.3442C110.561 27.3512 110.568 27.3546 110.578 27.3581C110.714 27.4456 110.875 27.4945 111.047 27.4945C111.075 27.4945 111.103 27.491 111.127 27.4875C111.291 27.4735 111.442 27.4036 111.564 27.3022L111.568 27.2987C111.585 27.2847 111.599 27.2707 111.613 27.2532C111.617 27.2497 111.624 27.2462 111.627 27.2427C111.641 27.2288 111.652 27.2148 111.662 27.2043C111.795 27.0434 111.868 26.8441 111.858 26.6378V14.44H113.732V14.4365H113.739C114.236 14.4121 114.6 14.0239 114.586 13.5413C114.586 13.5378 114.586 13.5378 114.586 13.5343C114.589 13.5168 114.586 13.4993 114.586 13.4818C114.586 13.4749 114.586 13.4679 114.586 13.4644C114.572 13.279 114.491 13.1112 114.365 12.9818C114.365 12.9818 114.365 12.9818 114.365 12.9783C114.362 12.9783 114.362 12.9783 114.362 12.9783C114.344 12.9608 114.33 12.9468 114.313 12.9328C114.306 12.9258 114.299 12.9223 114.295 12.9153C114.281 12.9048 114.271 12.8978 114.257 12.8873C114.246 12.8804 114.232 12.8699 114.222 12.8629C114.215 12.8594 114.204 12.8524 114.197 12.8489C114.18 12.8384 114.162 12.8279 114.145 12.8209C114.142 12.8174 114.135 12.8139 114.131 12.8139C114.11 12.8034 114.089 12.7929 114.068 12.7859C114.065 12.7824 114.061 12.7824 114.054 12.7789C114.033 12.7719 114.012 12.765 113.991 12.758C113.984 12.758 113.977 12.7545 113.97 12.7545C113.949 12.751 113.932 12.744 113.911 12.7405C113.9 12.7405 113.89 12.7405 113.879 12.737C113.865 12.7335 113.848 12.7335 113.83 12.73C113.816 12.73 113.802 12.73 113.792 12.73C113.781 12.73 113.771 12.7265 113.76 12.7265C113.75 12.7265 113.736 12.7265 113.732 12.7265H111.858V11.3486C111.858 11.3382 111.858 11.3277 111.858 11.3207C111.861 11.2507 111.861 11.1808 111.865 11.1143C111.865 11.0969 111.865 11.0759 111.868 11.0584C111.868 10.9989 111.872 10.9395 111.875 10.8835C111.875 10.873 111.879 10.8591 111.879 10.8486C111.882 10.7821 111.889 10.7157 111.896 10.6527C111.963 9.97081 112.11 9.54067 112.264 9.27839C112.267 9.2714 112.267 9.2679 112.271 9.26091C112.281 9.24342 112.295 9.22593 112.306 9.20845C112.313 9.19446 112.323 9.18047 112.334 9.16648C112.337 9.15949 112.344 9.1455 112.351 9.13851C112.368 9.11403 112.386 9.09305 112.407 9.07207C112.627 8.82377 112.97 8.6734 113.467 8.61395C113.474 8.61395 113.477 8.61045 113.488 8.61045C113.516 8.60696 113.547 8.60346 113.575 8.60346C113.589 8.59996 113.606 8.59996 113.62 8.59647C113.648 8.59647 113.673 8.59297 113.701 8.59297C113.722 8.59297 113.739 8.58947 113.764 8.58947C113.788 8.58597 113.813 8.58597 113.837 8.58597C113.862 8.58597 113.886 8.58248 113.911 8.58248C113.935 8.58248 113.96 8.58248 113.984 8.58248C114.019 8.58248 114.054 8.58248 114.089 8.58248H114.093C114.121 8.58248 114.145 8.57898 114.173 8.57548C114.204 8.57898 114.236 8.58248 114.267 8.58248H114.495C114.963 8.58248 115.348 8.1978 115.348 7.7257C115.348 7.2536 114.963 6.87242 114.495 6.87242Z" fill="#DBDBDB"/>
<path d="M119.007 6.90077C119.007 6.90077 119.003 6.89728 119 6.89728C118.982 6.89028 118.968 6.88329 118.947 6.87979C118.94 6.87629 118.93 6.8728 118.919 6.8693C118.905 6.8658 118.891 6.8623 118.877 6.85881C118.863 6.85531 118.849 6.84832 118.839 6.84832C118.821 6.84482 118.807 6.84132 118.79 6.84132C118.776 6.83783 118.765 6.83783 118.751 6.83433C118.723 6.83083 118.692 6.83083 118.664 6.83083C118.209 6.83083 117.825 7.21201 117.825 7.66663V26.6137C117.825 27.0718 118.209 27.4529 118.664 27.4529C118.692 27.4529 118.723 27.4529 118.751 27.4494C118.755 27.4494 118.762 27.4459 118.765 27.4459C118.79 27.4425 118.814 27.439 118.839 27.4355C118.842 27.4355 118.849 27.432 118.856 27.432C118.877 27.425 118.898 27.4215 118.919 27.4145C118.923 27.4145 118.926 27.4145 118.93 27.411C119.251 27.3096 119.489 27.0368 119.524 26.7011C119.528 26.6731 119.531 26.6451 119.531 26.6137V7.66663C119.531 7.63865 119.528 7.61067 119.524 7.5827C119.493 7.27496 119.29 7.01967 119.007 6.90077Z" fill="#DBDBDB"/>
<path d="M54.7963 22.9926C54.7893 22.9436 54.7893 22.8982 54.7823 22.8527C54.7788 22.8177 54.7753 22.7863 54.7718 22.7548C54.7648 22.7163 54.7613 22.6814 54.7543 22.6429C54.7473 22.6079 54.7403 22.573 54.7333 22.5345C54.7298 22.5065 54.7228 22.475 54.7158 22.4471C54.7053 22.4051 54.6983 22.3666 54.6878 22.3247C54.6808 22.3037 54.6739 22.2792 54.6669 22.2582C54.6564 22.2128 54.6424 22.1708 54.6249 22.1288C54.6214 22.1113 54.6144 22.0939 54.6109 22.0799C54.5934 22.0309 54.5759 21.9854 54.555 21.9365C54.5515 21.9295 54.548 21.919 54.5445 21.9085C54.52 21.8596 54.499 21.8071 54.4745 21.7581C54.471 21.7546 54.471 21.7511 54.4675 21.7476C54.2682 21.3455 53.9849 21.0098 53.6387 20.7265C53.6387 20.723 53.6387 20.723 53.6352 20.723C53.5863 20.6845 53.5373 20.6426 53.4849 20.6041C53.4849 20.6041 53.4814 20.6006 53.4779 20.5971C53.4744 20.5971 53.4709 20.5936 53.4674 20.5901C53.4359 20.5691 53.4044 20.5447 53.3764 20.5237C52.9463 20.2194 52.4707 19.9781 51.7783 19.7124C51.7678 19.7089 51.7573 19.7054 51.7468 19.7019C51.7363 19.6949 51.7223 19.6914 51.7119 19.6844C51.3202 19.5375 50.9145 19.3976 50.4984 19.2612C50.4984 19.2612 50.4984 19.2612 50.4949 19.2612C50.4949 19.2612 50.4914 19.2612 50.4914 19.2577C50.4844 19.2577 50.4774 19.2542 50.4669 19.2508C50.4284 19.2368 50.3865 19.2228 50.3305 19.2053C50.3025 19.1983 50.2816 19.1913 50.2606 19.1843C50.1207 19.1353 49.9773 19.0899 49.8339 19.0409C49.7325 19.006 49.6241 18.971 49.4947 18.929C49.4597 18.9185 49.3758 18.8906 49.3059 18.8696C49.3024 18.8696 49.3024 18.8661 49.2989 18.8661C49.2569 18.8521 49.215 18.8381 49.1695 18.8241C48.8198 18.7122 48.533 18.6143 48.2882 18.5234C47.8896 18.3765 47.5259 18.2191 47.2286 18.0303C47.2216 18.0268 47.2146 18.0233 47.2111 18.0198C46.8055 17.761 46.5257 17.4428 46.4593 17.0266L46.4558 17.0231C46.4523 16.9952 46.4488 16.9637 46.4488 16.9357C46.4453 16.9287 46.4453 16.9252 46.4453 16.9217C46.4418 16.8867 46.4418 16.8553 46.4418 16.8203C46.4418 16.7713 46.4453 16.7224 46.4488 16.6769C46.4488 16.6629 46.4488 16.6524 46.4523 16.642C46.4558 16.6035 46.4593 16.5685 46.4628 16.5335C46.4663 16.5231 46.4663 16.5126 46.4698 16.5021C46.4768 16.4636 46.4838 16.4286 46.4908 16.3902C46.4942 16.3867 46.4943 16.3797 46.4977 16.3727C46.5082 16.3307 46.5187 16.2922 46.5327 16.2538C46.5327 16.2503 46.5327 16.2503 46.5327 16.2503C46.7146 15.7082 47.1447 15.3061 47.6518 15.0228C47.6867 15.0053 47.7217 14.9878 47.7532 14.9704C47.7882 14.9529 47.8196 14.9354 47.8511 14.9214C47.9036 14.8969 47.956 14.8724 48.0085 14.8515C48.0399 14.8375 48.0679 14.8235 48.0994 14.813C48.1553 14.792 48.2113 14.771 48.2673 14.75C48.2952 14.7396 48.3267 14.7291 48.3582 14.7186C48.4141 14.7011 48.4666 14.6836 48.5225 14.6696C48.5575 14.6591 48.589 14.6486 48.624 14.6416C48.6764 14.6276 48.7289 14.6172 48.7778 14.6032C48.8128 14.5962 48.8478 14.5892 48.8827 14.5822C48.9387 14.5717 48.9911 14.5612 49.0401 14.5542C49.0716 14.5507 49.0996 14.5472 49.131 14.5402C49.1905 14.5332 49.2534 14.5262 49.3164 14.5227C49.3304 14.5192 49.3444 14.5192 49.3618 14.5157C49.4388 14.5122 49.5157 14.5087 49.5891 14.5087C49.6766 14.5087 49.764 14.5122 49.8479 14.5157C49.8619 14.5157 49.8759 14.5157 49.8864 14.5157C50.5054 14.5542 51.0054 14.7046 51.4181 14.9039C51.4496 14.9179 51.481 14.9354 51.5125 14.9494C51.53 14.9599 51.5475 14.9704 51.565 14.9774C51.6034 14.9983 51.6419 15.0193 51.6839 15.0438C51.6909 15.0473 51.6979 15.0508 51.7049 15.0543C51.7468 15.0788 51.7888 15.1067 51.8307 15.1312C51.8342 15.1347 51.8377 15.1347 51.8377 15.1347C51.8832 15.1627 51.9287 15.1942 51.9741 15.2221C51.9741 15.2256 51.9776 15.2256 51.9776 15.2291C52.0231 15.2571 52.0651 15.2851 52.107 15.3166C52.1245 15.3306 52.1385 15.341 52.156 15.3515C52.2539 15.425 52.4078 15.5439 52.5476 15.6593C52.5651 15.6698 52.5791 15.6803 52.5896 15.6908C52.6945 15.7782 52.7924 15.8551 52.8869 15.9251C52.9043 15.939 52.9183 15.9495 52.9288 15.9565C52.9323 15.96 52.9358 15.9635 52.9393 15.9635C52.9498 15.9705 52.9603 15.9775 52.9708 15.9845C52.9953 16.002 53.0232 16.0195 53.0477 16.037C53.0582 16.044 53.0687 16.0475 53.0792 16.0544C53.1037 16.0684 53.1282 16.0824 53.1526 16.0964C53.1631 16.0999 53.1701 16.1034 53.1806 16.1069C53.2086 16.1209 53.2331 16.1314 53.261 16.1419C53.268 16.1454 53.2715 16.1454 53.2785 16.1489C53.31 16.1594 53.3415 16.1698 53.3729 16.1733C53.3729 16.1733 53.3729 16.1733 53.3764 16.1768C53.4464 16.1873 53.5128 16.1908 53.5828 16.1733C53.5898 16.1733 53.5968 16.1698 53.6038 16.1698C53.6212 16.1664 53.6422 16.1594 53.6597 16.1559C53.6667 16.1524 53.6702 16.1489 53.6772 16.1454C53.6842 16.1454 53.6912 16.1419 53.6982 16.1384C53.7262 16.1244 53.7541 16.1104 53.7821 16.0929C53.7891 16.0929 53.7926 16.0894 53.7961 16.0859C53.8276 16.0649 53.8555 16.044 53.8835 16.0195C53.887 16.016 53.887 16.016 53.887 16.016C53.9115 15.995 53.9325 15.9705 53.9535 15.946C53.9674 15.9286 53.9814 15.9076 53.9919 15.8866C53.9954 15.8831 53.9989 15.8796 53.9989 15.8761C54.1458 15.6313 54.0619 15.3096 53.8031 14.9599C53.7996 14.9529 53.7961 14.9459 53.7891 14.9389C53.7786 14.9249 53.7716 14.9144 53.7611 14.9004C53.1666 14.1311 51.8133 13.2883 50.5578 13.019C50.5508 13.019 50.5438 13.019 50.5368 13.0155C50.4844 13.005 50.4284 12.9945 50.376 12.984C50.362 12.984 50.3445 12.9805 50.3305 12.977C50.2851 12.97 50.2396 12.9631 50.1941 12.9596C50.1766 12.9561 50.1592 12.9526 50.1417 12.9526C50.0997 12.9491 50.0542 12.9456 50.0123 12.9421C49.9948 12.9386 49.9773 12.9386 49.9633 12.9351C49.9039 12.9351 49.8479 12.9316 49.792 12.9316C49.701 12.9316 49.6101 12.9316 49.5227 12.9351C49.4737 12.9351 49.4248 12.9386 49.3723 12.9421C49.3374 12.9456 49.2954 12.9456 49.2604 12.9456C49.1905 12.9526 49.124 12.9561 49.0576 12.9631C49.0401 12.9631 49.0191 12.9631 49.0016 12.9666C48.9247 12.9735 48.8478 12.9805 48.7743 12.991C48.7638 12.991 48.7568 12.991 48.7499 12.991C48.6694 13.0015 48.5925 13.012 48.5155 13.026C48.512 13.026 48.5051 13.026 48.5016 13.026C48.4246 13.0365 48.3477 13.0505 48.2743 13.0645C48.2708 13.0645 48.2673 13.068 48.2603 13.068C48.1029 13.0959 47.949 13.1309 47.8021 13.1694C47.7986 13.1694 47.7987 13.1729 47.7987 13.1729C47.7252 13.1904 47.6518 13.2113 47.5783 13.2323C47.5084 13.2533 47.442 13.2778 47.379 13.2988C47.372 13.2988 47.3685 13.3023 47.3615 13.3023C47.2986 13.3267 47.2356 13.3477 47.1727 13.3722C47.1657 13.3757 47.1587 13.3792 47.1552 13.3792C47.0922 13.4037 47.0363 13.4282 46.9768 13.4561C46.9698 13.4596 46.9594 13.4596 46.9524 13.4666C46.8999 13.4876 46.844 13.5156 46.795 13.5401C46.781 13.5471 46.7705 13.5506 46.76 13.5576C46.7076 13.582 46.6586 13.6065 46.6097 13.6345C46.5957 13.6415 46.5852 13.6485 46.5712 13.6555C46.5257 13.6799 46.4803 13.7079 46.4348 13.7359C46.4208 13.7429 46.4068 13.7499 46.3928 13.7604C46.3334 13.7954 46.2774 13.8338 46.2215 13.8688C46.155 13.9177 46.0886 13.9632 46.0291 14.0122C46.0221 14.0122 46.0186 14.0157 46.0186 14.0192C45.7214 14.2395 45.4661 14.4738 45.2563 14.7465C45.2493 14.757 45.2388 14.7675 45.2318 14.778C45.2073 14.8165 45.1794 14.8515 45.1549 14.8864C45.1374 14.9144 45.1199 14.9424 45.1024 14.9704C45.0884 14.9913 45.0744 15.0123 45.064 15.0333C45.036 15.0788 45.0115 15.1242 44.987 15.1732C44.9835 15.1802 44.98 15.1837 44.9765 15.1907C44.7877 15.5649 44.6793 15.995 44.6373 16.5161C44.6373 16.5231 44.6373 16.53 44.6338 16.537C44.6303 16.628 44.6233 16.7189 44.6198 16.8168C44.6198 16.8902 44.6198 16.9637 44.6233 17.0371C44.6233 17.0476 44.6233 17.0581 44.6233 17.0686C44.6618 18.0687 45.1164 18.8206 45.9382 19.4046C45.9452 19.4081 45.9522 19.4151 45.9592 19.4186C45.9942 19.4431 46.0291 19.4676 46.0641 19.492C46.0886 19.5095 46.1166 19.5235 46.141 19.541C46.148 19.548 46.1585 19.5515 46.1655 19.555C46.9768 20.0691 47.97 20.3628 48.7988 20.5971C49.2045 20.716 49.5682 20.8174 49.6766 20.8489C49.701 20.8559 49.7255 20.8629 49.7465 20.8734C50.2431 21.0377 50.6243 21.1706 50.939 21.2965C50.9635 21.3035 50.9845 21.314 51.0089 21.321C51.0159 21.3245 51.0264 21.328 51.0369 21.335C51.2153 21.4084 51.3901 21.4854 51.558 21.5693C51.6979 21.6392 51.8273 21.7127 51.9566 21.7896C52.2889 21.9959 52.5441 22.2197 52.7155 22.4645C52.7225 22.4715 52.726 22.4785 52.7295 22.4855C52.747 22.5065 52.761 22.5275 52.7715 22.552C52.7819 22.566 52.7889 22.5764 52.7959 22.5904C52.8064 22.6079 52.8169 22.6254 52.8239 22.6429C52.8344 22.6604 52.8414 22.6814 52.8519 22.6988C52.8589 22.7128 52.8659 22.7268 52.8729 22.7408C52.8799 22.7618 52.8904 22.7828 52.8974 22.8073C52.9008 22.8177 52.9078 22.8317 52.9113 22.8457C52.9183 22.8702 52.9253 22.8947 52.9323 22.9192C52.9358 22.9296 52.9393 22.9401 52.9428 22.9541C52.9498 22.9786 52.9568 23.0066 52.9603 23.0311C52.9638 23.0416 52.9673 23.0555 52.9673 23.066C52.9708 23.094 52.9743 23.122 52.9778 23.15C52.9813 23.1605 52.9813 23.1709 52.9813 23.1814C52.9848 23.2234 52.9883 23.2619 52.9883 23.3038C52.9883 23.3668 52.9848 23.4262 52.9813 23.4857C52.9813 23.5032 52.9778 23.5207 52.9778 23.5381C52.9743 23.5836 52.9673 23.6291 52.9568 23.6745C52.9568 23.6885 52.9533 23.7025 52.9498 23.7165C52.9288 23.8389 52.8939 23.9543 52.8484 24.0697C52.8449 24.0732 52.8449 24.0767 52.8449 24.0802C52.8204 24.1326 52.7959 24.1886 52.768 24.2375C52.7645 24.2445 52.7645 24.248 52.761 24.2515C52.7015 24.3634 52.6316 24.4718 52.5441 24.5733C52.5022 24.6257 52.4567 24.6747 52.4113 24.7236C52.4078 24.7236 52.4078 24.7236 52.4078 24.7271C52.3133 24.8216 52.2084 24.909 52.1 24.9894C52.0965 24.9929 52.093 24.9929 52.093 24.9964C52.0406 25.0314 51.9881 25.0698 51.9357 25.1013C51.9287 25.1083 51.9217 25.1118 51.9147 25.1153C51.8238 25.1713 51.7258 25.2272 51.6279 25.2762C51.593 25.2937 51.558 25.3111 51.5195 25.3286C51.481 25.3461 51.4391 25.3671 51.3971 25.3846C51.3621 25.3986 51.3307 25.4126 51.2957 25.4265C51.2013 25.4615 51.1104 25.4965 51.0159 25.528C51.002 25.5315 50.988 25.535 50.974 25.5419C50.918 25.5594 50.8621 25.5734 50.8061 25.5909C50.7921 25.5944 50.7746 25.6014 50.7607 25.6049C50.5753 25.6539 50.3935 25.6923 50.2221 25.7203C50.2186 25.7203 50.2151 25.7203 50.2116 25.7203C50.1242 25.7343 50.0403 25.7448 49.9598 25.7553C49.9284 25.7588 49.9004 25.7623 49.8689 25.7623C49.8409 25.7658 49.813 25.7658 49.7815 25.7693C49.715 25.7728 49.6451 25.7763 49.5821 25.7763C49.4528 25.7763 49.3269 25.7728 49.2045 25.7658C49.1555 25.7658 49.1066 25.7623 49.0576 25.7588C48.9911 25.7518 48.9212 25.7483 48.8583 25.7413C48.7988 25.7378 48.7359 25.7308 48.6799 25.7238C48.6275 25.7168 48.5785 25.7098 48.5295 25.7028C48.4211 25.6853 48.3197 25.6713 48.2183 25.6504C48.1728 25.6399 48.1239 25.6329 48.0784 25.6224C48.026 25.6084 47.9735 25.5979 47.921 25.5839C47.8616 25.5699 47.8056 25.5559 47.7497 25.5385C47.7112 25.528 47.6693 25.5175 47.6343 25.507C47.5399 25.479 47.4454 25.4475 47.3545 25.4126C47.3335 25.4056 47.3126 25.3986 47.2916 25.3916C47.0888 25.3146 46.8894 25.2307 46.6936 25.1328C46.6866 25.1293 46.6761 25.1223 46.6656 25.1188C46.5397 25.0559 46.3264 24.937 46.1236 24.8216C46.1061 24.8111 46.0851 24.8006 46.0676 24.7901C45.9242 24.7062 45.8018 24.6362 45.6864 24.5803C45.6759 24.5733 45.6689 24.5698 45.662 24.5663C45.655 24.5628 45.648 24.5593 45.6445 24.5593C45.613 24.5453 45.5885 24.5313 45.5605 24.5208C45.55 24.5173 45.5431 24.5138 45.5361 24.5103C45.4626 24.4823 45.3962 24.4614 45.3297 24.4544C45.3087 24.4509 45.2878 24.4509 45.2668 24.4509C45.2598 24.4474 45.2528 24.4474 45.2458 24.4474C45.1129 24.4474 44.9975 24.4928 44.8891 24.5942C44.8646 24.6152 44.8436 24.6362 44.8227 24.6607C44.8192 24.6677 44.8122 24.6747 44.8052 24.6817C44.7912 24.6992 44.7807 24.7131 44.7702 24.7271C44.7632 24.7376 44.7562 24.7481 44.7527 24.7551C44.7422 24.7691 44.7317 24.7831 44.7247 24.7971C44.7177 24.8076 44.7142 24.8181 44.7108 24.8285C44.7038 24.8425 44.6968 24.8565 44.6898 24.8705C44.6863 24.881 44.6828 24.888 44.6793 24.8985C44.6723 24.916 44.6688 24.93 44.6653 24.944C44.6618 24.9544 44.6583 24.9614 44.6583 24.9719C44.6548 24.9894 44.6513 25.0069 44.6478 25.0244C44.6478 25.0314 44.6443 25.0384 44.6443 25.0454C44.6408 25.0698 44.6408 25.0908 44.6408 25.1118C44.6408 25.1153 44.6408 25.1188 44.6408 25.1223C44.6408 25.1503 44.6443 25.1748 44.6513 25.2027C44.6513 25.2062 44.6513 25.2132 44.6513 25.2167C44.6583 25.2377 44.6618 25.2622 44.6688 25.2832C44.6723 25.2937 44.6758 25.3041 44.6793 25.3146C44.6863 25.3321 44.6898 25.3531 44.7003 25.3706C44.7038 25.3811 44.7073 25.3881 44.7108 25.3951C44.7562 25.5 44.8297 25.6084 44.9241 25.7133C45.0255 25.8252 45.1549 25.9371 45.3053 26.0525C45.3088 26.0525 45.3088 26.0525 45.3088 26.056C45.3507 26.084 45.3927 26.1155 45.4381 26.1469C45.4486 26.1539 45.4556 26.1609 45.4661 26.1644C45.5885 26.2484 45.7179 26.3288 45.8648 26.4127C45.8998 26.4337 45.9347 26.4547 45.9697 26.4722C46.0047 26.4931 46.0396 26.5106 46.0746 26.5281C46.1166 26.5526 46.1655 26.5771 46.211 26.6016C46.2425 26.6155 46.2704 26.633 46.3019 26.647C46.3719 26.682 46.4453 26.717 46.5187 26.7519C46.5292 26.7589 46.5362 26.7624 46.5467 26.7659C46.6271 26.8044 46.7076 26.8394 46.788 26.8708C46.823 26.8848 46.8544 26.8988 46.8894 26.9128C46.8964 26.9163 46.9034 26.9198 46.9104 26.9198C47.6588 27.2135 48.582 27.4094 49.3968 27.4443C49.4562 27.4478 49.5192 27.4513 49.5786 27.4513H49.5821C49.6101 27.4513 49.6346 27.4513 49.6626 27.4478C49.7255 27.4478 49.7885 27.4478 49.8514 27.4478C49.8584 27.4478 49.8654 27.4478 49.8724 27.4443C51.1978 27.4024 52.2854 27.0597 53.2121 26.3812C53.2121 26.3777 53.2121 26.3777 53.2121 26.3777C54.2402 25.6014 54.8067 24.5068 54.8067 23.3003C54.8067 23.2234 54.8032 23.1465 54.7997 23.073C54.7997 23.0451 54.7963 23.0171 54.7963 22.9926Z" fill="#DBDBDB"/>
<path d="M63.3479 12.9607C63.3444 12.9607 63.3409 12.9607 63.3374 12.9607C61.7078 12.9607 60.1691 13.6251 59.057 14.8001V13.8C59.057 13.3384 58.7003 12.9607 58.2492 12.9607C58.2177 12.9607 58.1897 12.9642 58.1617 12.9642C57.9624 12.9852 57.7876 13.0726 57.6582 13.202C57.6547 13.202 57.6547 13.202 57.6512 13.2055C57.6407 13.2195 57.6267 13.2335 57.6162 13.2474C57.6092 13.2509 57.6022 13.2579 57.5987 13.2649C57.5882 13.2754 57.5812 13.2859 57.5742 13.2964C57.5672 13.3069 57.5603 13.3174 57.5498 13.3279C57.5463 13.3349 57.5428 13.3419 57.5393 13.3489C57.5288 13.3663 57.5183 13.3838 57.5078 13.3978C57.5078 13.4013 57.5078 13.4048 57.5043 13.4083C57.4938 13.4293 57.4833 13.4503 57.4728 13.4713C57.4553 13.5237 57.4379 13.5762 57.4274 13.6286C57.4274 13.6321 57.4274 13.6356 57.4239 13.6356C57.4204 13.6636 57.4169 13.6881 57.4134 13.7126C57.4134 13.7405 57.4099 13.7685 57.4099 13.8V26.788L57.3994 26.844L57.4413 26.879C57.4413 26.8964 57.4448 26.9209 57.4553 26.9454C57.4553 26.9489 57.4588 26.9559 57.4588 26.9594C57.4658 26.9769 57.4763 26.9979 57.4938 27.0153C57.6022 27.2217 57.8015 27.379 58.0359 27.449L58.0533 27.4525H58.2492C58.2806 27.4525 58.3121 27.4525 58.3436 27.449C58.3646 27.4455 58.3856 27.4385 58.4065 27.435C58.417 27.435 58.424 27.435 58.4345 27.4315C58.4625 27.4245 58.4905 27.4175 58.5184 27.407C58.5184 27.407 58.5184 27.407 58.5219 27.407C58.6688 27.3546 58.7947 27.2636 58.8786 27.1412C58.8821 27.1377 58.8856 27.1342 58.8891 27.1307C58.9451 27.0713 58.9766 27.0083 59.008 26.9209C59.0115 26.9104 59.015 26.9034 59.015 26.8964C59.0185 26.8929 59.0185 26.8929 59.0185 26.8894C59.0325 26.8475 59.043 26.8055 59.0535 26.7636L59.057 26.7496V18.8882C59.1129 16.5452 61.0293 14.6393 63.3304 14.6358C63.3339 14.6358 63.3339 14.6358 63.3374 14.6358C65.6804 14.6358 67.5863 16.5417 67.5863 18.8847V26.6132C67.5863 26.6447 67.5898 26.6726 67.5933 26.7006C67.6108 26.9034 67.6982 27.0783 67.8276 27.2077C67.8276 27.2077 67.8311 27.2077 67.8311 27.2112C67.8451 27.2252 67.8591 27.2357 67.8731 27.2496C67.8801 27.2566 67.8835 27.2601 67.8905 27.2636C67.901 27.2741 67.9115 27.2811 67.922 27.2881C67.9325 27.2986 67.943 27.3056 67.9535 27.3126C67.964 27.3161 67.971 27.3196 67.978 27.3266C67.992 27.3371 68.0094 27.3441 68.0234 27.3546C68.0269 27.3546 68.0304 27.3581 68.0374 27.3581C68.0549 27.3685 68.0759 27.379 68.0969 27.3895H68.1004C68.1493 27.4105 68.2018 27.4245 68.2542 27.435C68.2612 27.435 68.2647 27.4385 68.2682 27.4385C68.2927 27.442 68.3137 27.4455 68.3382 27.449C68.3661 27.4525 68.3941 27.4525 68.4256 27.4525C68.4536 27.4525 68.4815 27.4525 68.5095 27.449C68.534 27.4455 68.5585 27.442 68.5795 27.4385C68.583 27.4385 68.59 27.435 68.5935 27.435C68.6494 27.4245 68.6984 27.4105 68.7508 27.3895C68.7718 27.379 68.7928 27.3685 68.8138 27.3581C68.8173 27.3581 68.8208 27.3546 68.8243 27.3546C68.8417 27.3441 68.8557 27.3371 68.8732 27.3266C68.8802 27.3196 68.8872 27.3161 68.8942 27.3126C68.9047 27.3056 68.9152 27.2986 68.9257 27.2881C68.9362 27.2811 68.9501 27.2741 68.9606 27.2636C68.9641 27.2601 68.9711 27.2566 68.9746 27.2496C68.9886 27.2357 69.0061 27.2252 69.0201 27.2112C69.0201 27.2077 69.0201 27.2077 69.0201 27.2077C69.153 27.0783 69.2404 26.9034 69.2579 26.7006C69.2614 26.6726 69.2614 26.6447 69.2614 26.6132V18.8847C69.2614 15.6219 66.6106 12.9677 63.3479 12.9607Z" fill="#DBDBDB"/>
<path d="M78.4328 12.9316C82.2306 12.9316 85.3185 16.1873 85.3185 20.1915C85.3185 24.1956 82.2306 27.4513 78.4328 27.4513C78.3139 27.4513 78.1985 27.4478 78.0831 27.4408C78.0656 27.4408 78.0516 27.4408 78.0342 27.4373C77.9327 27.4339 77.8313 27.4234 77.7334 27.4129C77.7299 27.4129 77.7264 27.4129 77.7229 27.4129C76.2227 27.2485 74.8204 26.5631 73.7048 25.4405C73.6593 25.3951 73.6104 25.3496 73.5684 25.3007C73.5649 25.3007 73.5649 25.2972 73.5614 25.2972C73.5369 25.2727 73.516 25.2447 73.4915 25.2167C73.439 25.1608 73.3866 25.1013 73.3341 25.0419C73.2922 24.9964 73.2537 24.944 73.2117 24.895C73.1837 24.8565 73.1523 24.8181 73.1208 24.7796C73.0579 24.7027 72.9984 24.6222 72.9424 24.5418C72.9355 24.5313 72.9285 24.5208 72.9215 24.5103C72.2395 23.5556 71.7954 22.4541 71.6276 21.286C71.6101 21.1776 71.5996 21.0692 71.5891 20.9608C71.5856 20.9503 71.5856 20.9363 71.5821 20.9223C71.5716 20.8209 71.5646 20.723 71.5611 20.6216C71.5576 20.6006 71.5576 20.5796 71.5576 20.5552C71.5506 20.4363 71.5471 20.3139 71.5471 20.1915C71.5471 20.0691 71.5506 19.9467 71.5576 19.8278C71.5576 19.8033 71.5576 19.7823 71.5611 19.7613C71.5646 19.6599 71.5716 19.5585 71.5821 19.4606C71.5856 19.4466 71.5856 19.4326 71.5891 19.4221C71.5996 19.3137 71.6101 19.2053 71.6276 19.0969C71.7954 17.9289 72.2395 16.8273 72.9215 15.8726C72.925 15.8621 72.932 15.8516 72.939 15.8446C72.9984 15.7607 73.0579 15.6803 73.1208 15.5998C73.1488 15.5649 73.1802 15.5299 73.2082 15.4914C73.2502 15.439 73.2922 15.39 73.3341 15.3376C73.3831 15.2816 73.432 15.2291 73.4845 15.1732C73.509 15.1452 73.5369 15.1137 73.5614 15.0858C73.5649 15.0858 73.5649 15.0823 73.5684 15.0823C73.6069 15.0368 73.6524 14.9948 73.6943 14.9529C74.8099 13.8268 76.2157 13.1344 77.7229 12.97C77.7264 12.97 77.7299 12.97 77.7334 12.97C77.8313 12.9596 77.9327 12.9526 78.0342 12.9456C78.0516 12.9456 78.0656 12.9421 78.0831 12.9421C78.1985 12.9351 78.3139 12.9316 78.4328 12.9316ZM83.6155 19.6214C83.6155 19.6179 83.6155 19.6179 83.6155 19.6144C83.4931 18.3555 82.9755 17.219 82.2026 16.3412C82.1677 16.3027 82.1362 16.2643 82.1012 16.2258C82.0802 16.2048 82.0593 16.1838 82.0383 16.1629C81.9963 16.1209 81.9579 16.0789 81.9159 16.037C81.8774 15.9985 81.8355 15.9635 81.797 15.9286C81.7725 15.9076 81.7515 15.8831 81.727 15.8621C81.6641 15.8062 81.6011 15.7537 81.5382 15.7012C81.5382 15.7012 81.5347 15.7012 81.5347 15.6977C80.8038 15.1067 79.9261 14.7186 78.9819 14.6102C78.9714 14.6102 78.9644 14.6067 78.9574 14.6067C78.8839 14.5962 78.814 14.5927 78.7406 14.5892C78.7231 14.5857 78.7091 14.5857 78.6951 14.5857C78.6077 14.5787 78.5203 14.5787 78.4328 14.5787C78.3454 14.5787 78.258 14.5787 78.1705 14.5857C78.1566 14.5857 78.1426 14.5857 78.1251 14.5892C78.0516 14.5927 77.9817 14.5962 77.9083 14.6067C77.9013 14.6067 77.8943 14.6102 77.8838 14.6102C76.9396 14.7186 76.0618 15.1067 75.3309 15.6977C75.3309 15.7012 75.3274 15.7012 75.3274 15.7012C75.2645 15.7537 75.2015 15.8062 75.1386 15.8621C75.1141 15.8831 75.0931 15.9041 75.0687 15.9251C75.0302 15.9635 74.9882 15.9985 74.9498 16.037C74.9113 16.0754 74.8728 16.1174 74.8309 16.1594C74.8099 16.1803 74.7889 16.2013 74.7644 16.2258C74.7329 16.2608 74.7015 16.2992 74.6665 16.3377C73.8936 17.2155 73.3726 18.3555 73.2502 19.6144C73.2502 19.6179 73.2502 19.6179 73.2502 19.6214C73.2432 19.7019 73.2362 19.7823 73.2327 19.8662C73.2327 19.8802 73.2292 19.8942 73.2292 19.9082C73.2257 20.0026 73.2222 20.097 73.2222 20.1915C73.2222 23.2654 75.5862 25.7763 78.4328 25.7763C81.2794 25.7763 83.6434 23.2654 83.6434 20.1915C83.6434 20.097 83.6399 20.0026 83.6364 19.9082C83.6364 19.8942 83.6329 19.8802 83.6329 19.8662C83.6294 19.7823 83.6224 19.7019 83.6155 19.6214Z" fill="#DBDBDB"/>
<path d="M105.555 13.2922C105.548 13.2852 105.544 13.2782 105.537 13.2712C105.453 13.1663 105.341 13.0823 105.215 13.0299C105.215 13.0299 105.215 13.0299 105.212 13.0299C105.198 13.0194 105.18 13.0159 105.166 13.0089C105.159 13.0089 105.152 13.0054 105.142 13.0019C105.03 12.9634 104.908 12.9564 104.789 12.9739H104.785C104.544 13.0124 104.313 13.1593 104.184 13.3761C104.184 13.3761 104.184 13.3761 104.18 13.3761C104.163 13.4111 104.142 13.446 104.128 13.481L104.124 13.4845V13.488L100.117 24.4582L96.9694 16.9676C96.9379 16.8976 96.8959 16.8347 96.847 16.7752C96.6756 16.5759 96.4133 16.45 96.1441 16.45C96.1021 16.45 96.0636 16.45 96.0217 16.4605C96.0182 16.4605 96.0147 16.4605 96.0077 16.4605C95.7279 16.5094 95.4656 16.7053 95.3467 16.9676C95.3467 16.971 95.3467 16.971 95.3467 16.971L92.1994 24.4617L88.1638 13.488C88.1498 13.4495 88.1358 13.418 88.1183 13.3831C88.1148 13.3796 88.1148 13.3796 88.1113 13.3761C88.0344 13.2327 87.912 13.1208 87.7651 13.0509C87.7651 13.0509 87.7616 13.0509 87.7616 13.0474C87.6882 13.0159 87.6113 12.9914 87.5308 12.9774C87.5238 12.9774 87.5203 12.9774 87.5133 12.9739C87.4749 12.9704 87.4329 12.9669 87.3944 12.9669H87.3909C87.3804 12.9669 87.3735 12.9669 87.3665 12.9669C87.349 12.9669 87.3315 12.9669 87.314 12.9704C87.3035 12.9704 87.2895 12.9739 87.279 12.9739C87.2615 12.9774 87.2476 12.9774 87.2336 12.9809C87.2231 12.9844 87.2126 12.9844 87.2021 12.9879C87.1846 12.9914 87.1671 12.9949 87.1496 13.0019C87.1426 13.0054 87.1357 13.0054 87.1287 13.0089C87.1112 13.0159 87.0937 13.0194 87.0762 13.0299C87.0762 13.0299 87.0762 13.0299 87.0727 13.0299C86.9293 13.0928 86.8139 13.2012 86.73 13.3271C86.7265 13.3341 86.723 13.3376 86.7195 13.3446C86.716 13.3516 86.7125 13.3586 86.709 13.3656C86.6461 13.4705 86.6076 13.5929 86.5936 13.7153C86.5796 13.8447 86.5971 13.9811 86.6496 14.107L91.4195 26.9237C91.4195 26.9237 91.4195 26.9237 91.4195 26.9272C91.4965 27.116 91.6084 27.2454 91.7623 27.3153C91.7657 27.3188 91.7727 27.3223 91.7762 27.3258C91.7797 27.3293 91.7832 27.3328 91.7902 27.3363C91.7902 27.3398 91.7937 27.3398 91.7972 27.3433C91.8042 27.3468 91.8077 27.3503 91.8147 27.3573C91.8182 27.3573 91.8182 27.3573 91.8217 27.3573C91.8497 27.3748 91.8847 27.3888 91.9301 27.3923C91.9336 27.3923 91.9371 27.3958 91.9406 27.3958C91.9546 27.3993 91.9686 27.4063 91.9826 27.4097C91.9896 27.4097 91.9966 27.4132 92.0035 27.4132C92.091 27.4412 92.1469 27.4517 92.2169 27.4517C92.2553 27.4517 92.2903 27.4482 92.3288 27.4412C92.3568 27.4377 92.3882 27.4307 92.4162 27.4202C92.4232 27.4167 92.4302 27.4167 92.4372 27.4132C92.4652 27.4063 92.4931 27.3958 92.5211 27.3818C92.5316 27.3783 92.5421 27.3748 92.5526 27.3678C92.5701 27.3573 92.5911 27.3468 92.612 27.3363C92.626 27.3258 92.6435 27.3153 92.661 27.3048C92.6715 27.2978 92.682 27.2874 92.6925 27.2804C92.7169 27.2629 92.7379 27.2454 92.7624 27.2244C92.7659 27.2209 92.7694 27.2174 92.7729 27.2104C92.7974 27.1859 92.8219 27.1615 92.8463 27.1335C92.8463 27.13 92.8498 27.1265 92.8533 27.123C92.8743 27.095 92.8953 27.0635 92.9128 27.0321C92.9303 26.9971 92.9478 26.9586 92.9617 26.9202L92.9652 26.9097L92.9757 26.8957L92.9862 26.8712L96.1441 19.3316L99.3299 26.8992C99.3543 26.9761 99.3928 27.0461 99.4453 27.1125C99.4523 27.123 99.4593 27.13 99.4663 27.1405C99.4837 27.1615 99.5012 27.1824 99.5222 27.2034C99.5327 27.2104 99.5432 27.2209 99.5537 27.2279C99.5712 27.2454 99.5922 27.2629 99.6131 27.2804C99.6236 27.2874 99.6306 27.2943 99.6411 27.2978C99.6656 27.3153 99.6901 27.3328 99.7145 27.3468C99.7215 27.3503 99.7285 27.3538 99.7355 27.3573C99.7635 27.3713 99.788 27.3853 99.8195 27.3958C99.8265 27.3993 99.8335 27.4028 99.8439 27.4028C99.8684 27.4132 99.8929 27.4237 99.9209 27.4307C99.9558 27.4377 99.9908 27.4447 100.022 27.4517H100.127C100.169 27.4517 100.208 27.4482 100.246 27.4412C100.257 27.4412 100.264 27.4412 100.274 27.4377C100.309 27.4307 100.341 27.4237 100.372 27.4132C100.382 27.4097 100.389 27.4062 100.396 27.4028C100.431 27.3923 100.466 27.3748 100.498 27.3573C100.501 27.3573 100.505 27.3538 100.508 27.3538C100.547 27.3293 100.585 27.3048 100.617 27.2804C100.757 27.1754 100.858 27.0391 100.928 26.8712V26.8677L105.667 14.107C105.775 13.8447 105.733 13.5579 105.583 13.3341C105.576 13.3201 105.565 13.3061 105.555 13.2922Z" fill="#DBDBDB"/>
<path d="M150.03 13.5277C150.03 13.5137 150.027 13.4962 150.023 13.4822C150.023 13.4717 150.02 13.4612 150.016 13.4507C150.013 13.4333 150.009 13.4158 150.006 13.4018C150.002 13.3913 149.999 13.3808 149.995 13.3738C149.992 13.3528 149.985 13.3353 149.974 13.3179C149.974 13.3109 149.971 13.3074 149.967 13.3004C149.957 13.2759 149.946 13.2549 149.932 13.2339C149.932 13.2304 149.932 13.2304 149.932 13.2304C149.89 13.157 149.838 13.0941 149.778 13.0381C149.775 13.0346 149.775 13.0346 149.775 13.0346C149.771 13.0311 149.771 13.0311 149.771 13.0311C149.474 12.7339 149.055 12.6954 148.726 12.9262C148.715 12.9332 148.708 12.9402 148.698 12.9437C148.684 12.9542 148.67 12.9647 148.656 12.9752C148.635 12.9961 148.614 13.0136 148.593 13.0346C148.593 13.0346 148.589 13.0346 148.589 13.0381L140.396 21.0254V7.66663C140.396 7.63865 140.396 7.61067 140.392 7.5827C140.361 7.27496 140.155 7.01967 139.875 6.90077C139.871 6.90077 139.871 6.89728 139.868 6.89728C139.85 6.89028 139.833 6.88329 139.815 6.87979C139.808 6.87629 139.798 6.8728 139.787 6.8693C139.773 6.8658 139.759 6.8623 139.742 6.85881C139.731 6.85531 139.717 6.85181 139.703 6.84832C139.689 6.84482 139.672 6.84132 139.658 6.84132C139.644 6.83783 139.633 6.83783 139.62 6.83433C139.588 6.83083 139.56 6.83083 139.532 6.83083C139.074 6.83083 138.693 7.21201 138.693 7.66663V26.6137C138.693 27.0718 139.074 27.4529 139.532 27.4529C139.56 27.4529 139.592 27.4529 139.62 27.4494C139.623 27.4494 139.627 27.4459 139.633 27.4459C139.658 27.4425 139.682 27.4425 139.703 27.4355C139.71 27.4355 139.717 27.432 139.724 27.432C139.745 27.425 139.766 27.4215 139.787 27.4145C139.791 27.4145 139.794 27.411 139.798 27.411C140.12 27.3096 140.357 27.0333 140.392 26.7011C140.396 26.6731 140.396 26.6451 140.396 26.6137V23.4173L143.155 20.6617L148.516 27.1312C148.551 27.1872 148.589 27.2361 148.638 27.2746C148.649 27.2851 148.656 27.2921 148.666 27.2991C148.68 27.3096 148.694 27.3201 148.708 27.3271C148.726 27.341 148.743 27.348 148.761 27.3585C148.768 27.362 148.778 27.369 148.785 27.3725C148.81 27.383 148.831 27.39 148.855 27.4005C148.862 27.404 148.869 27.404 148.873 27.4075C148.901 27.4145 148.925 27.4215 148.953 27.4285C148.957 27.4285 148.964 27.432 148.971 27.432C148.999 27.439 149.023 27.4425 149.055 27.4459C149.062 27.4459 149.069 27.446 149.076 27.4494C149.111 27.4494 149.145 27.4529 149.184 27.4529C149.24 27.4529 149.292 27.4494 149.341 27.4425C149.345 27.4425 149.345 27.4425 149.345 27.4425C149.443 27.4285 149.534 27.397 149.618 27.355C149.621 27.355 149.621 27.3515 149.621 27.3515C149.66 27.3305 149.698 27.3061 149.736 27.2781L149.747 27.2676C150.065 26.9494 150.114 26.5157 149.883 26.1555C149.862 26.1241 149.841 26.0926 149.817 26.0611L144.372 19.4482L149.778 14.2236C149.922 14.0767 150.009 13.8984 150.03 13.706C150.03 13.7025 150.03 13.699 150.034 13.6955C150.034 13.6781 150.034 13.6571 150.034 13.6396C150.034 13.6291 150.037 13.6186 150.037 13.6116C150.037 13.6046 150.037 13.6011 150.037 13.5976C150.037 13.5836 150.034 13.5731 150.034 13.5592C150.034 13.5487 150.03 13.5382 150.03 13.5277Z" fill="#DBDBDB"/>
</g>
</g>
<defs>
<clipPath id="clip0_0_271">
<rect width="166" height="40" fill="white"/>
</clipPath>
</defs>
</svg>
