<svg width="96" height="42" viewBox="0 0 96 42" fill="none" xmlns="http://www.w3.org/2000/svg">
<g clip-path="url(#clip0_21_2605)">
<path d="M33.2583 0.0413981C32.2071 0.263482 31.5186 0.60401 30.4896 1.41832L29.9418 1.84768H16.7204C2.36641 1.84768 3.15111 1.82547 2.35901 2.25483C1.91484 2.49912 1.32262 3.09875 1.10054 3.53552C0.700785 4.31281 0.722993 3.51331 0.722993 19.3923C0.722993 35.6192 0.693382 34.5384 1.18937 35.3749C1.63354 36.1226 2.41823 36.6704 3.29916 36.8555C3.57307 36.9147 6.27509 36.9369 12.375 36.9369H21.0585L21.1103 37.4699C21.2361 38.8172 21.6729 41.0529 21.8728 41.4156C21.9246 41.5044 21.9616 41.5118 22.0652 41.4378C22.1763 41.349 22.1837 41.312 22.08 40.9714C21.9246 40.468 21.6951 39.2688 21.5841 38.3805C21.4656 37.4107 21.4656 33.9832 21.5915 32.7543C21.9764 28.8235 22.7685 25.0776 24.0788 21.0209C25.019 18.0968 26.9363 13.9809 28.8388 10.8051C30.4008 8.21408 31.9406 6.17091 33.658 4.41645C34.6426 3.40967 35.2644 2.89147 34.5612 3.66136C31.7259 6.77054 27.2176 15.417 24.9523 22.0943C23.9233 25.1295 23.146 27.9499 22.6353 30.4965C22.5538 30.9258 22.465 31.3404 22.4354 31.4218C22.3614 31.7031 22.5316 31.4292 22.6723 31.0591C22.8795 30.4965 23.6494 29.4083 24.3009 28.7568C24.9671 28.0906 25.8185 27.4613 26.6994 26.995C27.2398 26.7063 27.3508 26.6026 27.8394 25.9734C29.0757 24.3818 31.2817 21.243 31.1707 21.243C31.0226 21.243 28.3798 21.9166 27.8172 22.0943C27.4693 22.2054 26.9733 22.3904 26.7142 22.5089C25.9221 22.8716 26.122 22.6939 27.1288 22.1609C28.9498 21.1838 30.3342 20.5471 31.7555 20.0289C32.0886 19.9031 32.133 19.8513 32.7253 18.8889C35.5013 14.3362 37.1891 10.3905 37.6999 7.25172C37.8406 6.37078 37.848 4.69775 37.7073 3.97968C37.4186 2.47692 36.5007 1.08519 35.3681 0.41894C34.7906 0.0858149 33.8653 -0.0844493 33.2583 0.0413981Z" fill="#DBDBDB"/>
<path d="M35.7562 20.8295C33.4317 21.2736 32.1214 23.3242 32.5878 25.7745C32.8839 27.3069 33.565 28.0768 36.0523 29.6758C38.5693 31.2896 39.2207 31.8818 39.6057 32.8886C39.8055 33.4068 39.7981 34.2655 39.5909 34.8133C39.1319 36.0422 37.6883 36.7381 36.0893 36.5086C34.3497 36.2569 33.1134 34.954 32.8913 33.1403C32.8395 32.7332 32.8247 32.7184 32.6248 32.7184H32.4102V34.8282V36.9379H32.6248C32.7951 36.9379 32.8765 36.8787 32.9876 36.6789C33.2245 36.2865 33.4021 36.2791 34.5125 36.6344C35.8525 37.0564 36.5927 37.1896 37.37 37.1378C38.4656 37.0712 39.3762 36.6492 40.1905 35.8349C41.5526 34.4654 41.8783 32.5333 41.0344 30.8084C40.5606 29.8461 39.6797 29.0836 37.3922 27.64C35.7932 26.6333 35.2676 26.2335 34.7198 25.6487C34.135 25.0269 33.9425 24.5383 33.9351 23.687C33.9351 23.1465 33.9647 23.0059 34.1276 22.6802C34.5051 21.9621 35.2232 21.5179 36.2152 21.3921C38.251 21.133 39.7611 22.2582 40.1461 24.3088C40.1905 24.5383 40.2275 24.5753 40.4126 24.5753H40.6273V22.7246V20.8739H40.4422C40.3163 20.8739 40.2275 20.9405 40.1461 21.096C39.998 21.3773 39.7537 21.3847 38.9468 21.1404C37.6809 20.7554 36.6816 20.6592 35.7562 20.8295Z" fill="#DBDBDB"/>
<path d="M51.2138 20.7684C51.1102 20.7832 50.777 20.8351 50.4735 20.8795C48.8227 21.1238 47.1867 21.9899 45.9726 23.2706C43.3298 26.054 42.9301 30.207 45.0103 33.3162C46.1651 35.041 47.8159 36.2847 49.6518 36.8103C50.4587 37.0398 50.7696 37.2841 51.9985 38.6462C53.5457 40.3488 54.2193 40.9114 55.3298 41.4222C56.2329 41.8442 57.0102 41.9996 58.2465 41.9996C59.3347 42.007 59.9935 41.9034 60.6376 41.6369C60.9485 41.511 60.9411 41.5185 60.83 41.2816C60.7486 41.1113 60.7486 41.1113 60.3711 41.2075C60.112 41.2816 59.7344 41.3038 59.2384 41.2816C58.5574 41.2594 58.4315 41.2297 57.9133 40.9854C56.9732 40.5339 56.2033 39.8454 54.9226 38.3056C54.6191 37.9355 54.2193 37.4839 54.0417 37.2989L53.716 36.9583L54.0047 36.8991C54.9078 36.7288 56.2995 36.0922 57.1434 35.463C58.1946 34.6635 59.3125 33.2495 59.7936 32.0947C60.8078 29.6592 60.5709 26.7129 59.194 24.5735C58.1132 22.9078 56.2625 21.5457 54.397 21.0645C53.405 20.8054 51.9245 20.6648 51.2138 20.7684ZM53.4717 21.5013C55.8628 22.0343 57.5876 24.3736 57.9429 27.5568C58.3575 31.2878 57.2249 34.3896 54.9226 35.7813C53.3902 36.714 51.236 36.8103 49.6222 36.0108C47.9122 35.1669 46.7055 33.3384 46.2391 30.8806C46.0911 30.1033 46.1133 27.5716 46.2761 26.7943C46.7795 24.3736 47.964 22.6709 49.6962 21.864C49.9849 21.7382 50.3625 21.5827 50.5476 21.5383C51.3693 21.3162 52.5685 21.3014 53.4717 21.5013Z" fill="#DBDBDB"/>
<path d="M61.5 20.973V21.2173L61.9516 21.2691C62.5512 21.3283 62.9732 21.5652 63.1656 21.9428C63.3063 22.2315 63.3137 22.4091 63.3359 28.1019C63.3581 34.2166 63.3211 35.3418 63.0768 35.7712C62.9213 36.0377 62.5216 36.2597 62.0922 36.319C61.8109 36.356 61.7961 36.3782 61.7961 36.6077V36.8594H66.8892H71.9898L72.1082 35.6971C72.2637 34.2314 72.2711 34.3424 72.012 34.3424C71.8343 34.3424 71.7825 34.3794 71.7455 34.5497C71.664 34.868 71.3753 35.401 71.1829 35.5787C70.6943 36.0377 69.8503 36.2079 68.0145 36.2153C66.7338 36.2301 66.6227 36.2153 66.2748 36.0599C65.801 35.8452 65.6011 35.6527 65.4605 35.2752C65.3569 35.0087 65.3495 34.2314 65.3643 28.6423C65.3865 22.3351 65.3865 22.3129 65.5493 21.965C65.7344 21.5652 65.9269 21.4172 66.4451 21.2987C66.8078 21.2099 66.83 21.1951 66.83 20.9656V20.7213H64.165H61.5V20.973Z" fill="#DBDBDB"/>
<path d="M75.3648 23.7657C75.1131 23.8397 74.8984 24.1432 74.8984 24.4245C74.8984 24.9427 75.4462 25.4609 75.9941 25.4609C76.4308 25.4609 76.6751 25.2166 76.6751 24.7873C76.6751 24.0914 76.0163 23.5806 75.3648 23.7657Z" fill="#DBDBDB"/>
<path d="M82.3017 25.5798C82.2573 25.6835 82.2277 25.8019 82.2277 25.8389C82.2277 26.024 81.7317 26.8531 81.4282 27.1862C81.0581 27.5786 80.4214 27.9339 79.9254 28.0153C79.6663 28.0598 79.6367 28.0894 79.6367 28.2818V28.4965H80.4436H81.2579L81.2801 32.2127C81.3023 35.6106 81.3172 35.9659 81.4356 36.2324C81.6281 36.6544 81.8279 36.8395 82.2499 36.9801C82.9088 37.2022 83.8119 37.0245 84.7076 36.5064C85.4257 36.0918 86.5953 35.048 86.5953 34.8333C86.5953 34.8111 86.5139 34.7371 86.4103 34.6705C86.2252 34.552 86.2178 34.552 85.8699 34.8777C84.9001 35.7809 83.8711 36.1732 83.2641 35.8623C82.8273 35.6402 82.8125 35.4848 82.8347 31.8278L82.8569 28.5335L84.1006 28.5113L85.3369 28.4965V28.1264V27.7563H84.0784H82.8199V26.5718V25.3874H82.5978C82.4202 25.3874 82.3535 25.4318 82.3017 25.5798Z" fill="#DBDBDB"/>
<path d="M91.4781 27.5408C90.1012 27.7407 88.7539 28.94 88.1024 30.5612C87.5324 31.9677 87.5916 33.8924 88.2357 35.1879C88.939 36.5945 90.3307 37.2459 92.137 37.0238C93.1067 36.898 93.6841 36.6981 94.0987 36.3354C94.454 36.0244 94.9574 35.3064 95.2906 34.6475L95.4904 34.2478L95.3054 34.0701L95.1203 33.885L94.8908 34.2182C94.38 34.9658 93.3954 35.5877 92.4553 35.7505C91.5373 35.9208 90.5083 35.6173 89.9902 35.0325C89.5978 34.5809 89.2499 33.7148 89.1684 32.9819L89.1462 32.7672L89.9235 32.5969C91.4411 32.2712 92.3813 31.8493 93.3954 31.035C94.4022 30.2355 94.8168 29.584 94.7057 28.9918C94.6391 28.6439 94.2394 28.0516 93.958 27.8888C93.4399 27.5927 92.285 27.4298 91.4781 27.5408ZM91.9149 28.6439C92.6404 29.014 92.9217 29.8579 92.5515 30.576C92.359 30.9313 91.7224 31.4347 91.1302 31.679C90.6046 31.9011 89.2499 32.286 89.1981 32.2342C89.1832 32.2194 89.1758 31.9677 89.1684 31.6642C89.1684 30.4205 89.8051 29.051 90.5824 28.6439C90.9377 28.4514 91.5447 28.4514 91.9149 28.6439Z" fill="#DBDBDB"/>
<path d="M75.1806 27.8909L73.7148 28.2314V28.5127V28.794L74.0332 28.7422C74.2034 28.7126 74.5366 28.683 74.766 28.683C75.299 28.6904 75.5211 28.8681 75.6322 29.4011C75.721 29.8008 75.7284 31.7107 75.6544 34.2499C75.6026 35.8267 75.5952 35.9081 75.4323 36.0636C75.3064 36.1968 75.1658 36.2339 74.7586 36.2561C74.2627 36.2857 74.2478 36.2931 74.2182 36.5004C74.196 36.6188 74.2034 36.7298 74.2182 36.752C74.2404 36.7743 75.3212 36.7891 76.6167 36.7891H78.9708V36.53V36.2709H78.497C77.8826 36.2709 77.5865 36.1598 77.431 35.8711C77.32 35.6638 77.3052 35.2567 77.283 31.5849L77.2608 27.5356L76.9499 27.543C76.7796 27.543 75.9801 27.6984 75.1806 27.8909Z" fill="#DBDBDB"/>
</g>
<defs>
<clipPath id="clip0_21_2605">
<rect width="96" height="42.0011" fill="white"/>
</clipPath>
</defs>
</svg>
