<svg width="100%" height="100%" overflow="visible" style="display: block;" viewBox="0 0 94.7678 42.0001" fill="none" xmlns="http://www.w3.org/2000/svg">
<g id="Group">
<path id="Vector" d="M32.5356 41.9586C31.4844 41.7365 30.7959 41.396 29.767 40.5817L29.2192 40.1523H15.9978C1.64376 40.1523 2.42845 40.1745 1.63635 39.7452C1.19219 39.5009 0.599963 38.9012 0.377879 38.4645C-0.0218715 37.6872 0.00033691 38.4867 0.00033691 22.6077C0.00033691 6.38079 -0.0292743 7.46159 0.466713 6.62508C0.91088 5.8774 1.69558 5.32959 2.57651 5.14452C2.85041 5.0853 5.55243 5.06309 11.6523 5.06309H20.3358L20.3876 4.53009C20.5135 3.18278 20.9502 0.947137 21.1501 0.584401C21.2019 0.495567 21.2389 0.488164 21.3426 0.562192C21.4536 0.651026 21.461 0.68804 21.3574 1.02857C21.2019 1.53196 20.9724 2.73121 20.8614 3.61955C20.743 4.58931 20.743 8.0168 20.8688 9.24567C21.2538 13.1765 22.0458 16.9224 23.3561 20.9791C24.2963 23.9032 26.2136 28.0191 28.1161 31.1949C29.6781 33.7859 31.2179 35.8291 32.9354 37.5836C33.9199 38.5903 34.5418 39.1085 33.8385 38.3386C31.0032 35.2295 26.4949 26.583 24.2297 19.9057C23.2007 16.8705 22.4234 14.0501 21.9126 11.5035C21.8312 11.0742 21.7423 10.6596 21.7127 10.5782C21.6387 10.2969 21.809 10.5708 21.9496 10.9409C22.1569 11.5035 22.9268 12.5917 23.5782 13.2432C24.2445 13.9094 25.0958 14.5387 25.9767 15.005C26.5171 15.2937 26.6282 15.3974 27.1168 16.0266C28.353 17.6182 30.5591 20.757 30.448 20.757C30.3 20.757 27.6572 20.0834 27.0946 19.9057C26.7466 19.7946 26.2506 19.6096 25.9915 19.4911C25.1994 19.1284 25.3993 19.3061 26.4061 19.8391C28.2272 20.8162 29.6115 21.4529 31.0328 21.9711C31.366 22.0969 31.4104 22.1487 32.0026 23.1111C34.7787 27.6638 36.4665 31.6095 36.9773 34.7483C37.1179 35.6292 37.1253 37.3022 36.9847 38.0203C36.696 39.5231 35.778 40.9148 34.6454 41.5811C34.068 41.9142 33.1426 42.0844 32.5356 41.9586Z" fill="#DBDBDB"/>
<path id="Vector_2" d="M35.0336 21.1705C32.7091 20.7264 31.3988 18.6758 31.8652 16.2255C32.1613 14.6931 32.8423 13.9232 35.3297 12.3242C37.8466 10.7104 38.4981 10.1182 38.883 9.11138C39.0829 8.59318 39.0755 7.73446 38.8682 7.18665C38.4092 5.95779 36.9657 5.26193 35.3667 5.49141C33.627 5.74311 32.3908 7.046 32.1687 8.85968C32.1169 9.26684 32.1021 9.28164 31.9022 9.28164H31.6875V7.17185V5.06205H31.9022C32.0724 5.06205 32.1539 5.12127 32.2649 5.32115C32.5018 5.7135 32.6795 5.7209 33.7899 5.36557C35.1298 4.94361 35.8701 4.81036 36.6474 4.86218C37.743 4.9288 38.6535 5.35076 39.4678 6.16507C40.8299 7.53458 41.1557 9.46671 40.3118 11.1916C39.838 12.1539 38.957 12.9164 36.6696 14.36C35.0706 15.3667 34.545 15.7665 33.9972 16.3513C33.4124 16.9731 33.2199 17.4617 33.2125 18.313C33.2125 18.8535 33.2421 18.9941 33.4049 19.3198C33.7825 20.0379 34.5006 20.4821 35.4925 20.6079C37.5283 20.867 39.0385 19.7418 39.4234 17.6912C39.4678 17.4617 39.5048 17.4247 39.6899 17.4247H39.9046V19.2754V21.1261H39.7195C39.5937 21.1261 39.5048 21.0595 39.4234 20.904C39.2754 20.6227 39.0311 20.6153 38.2242 20.8596C36.9583 21.2446 35.9589 21.3408 35.0336 21.1705Z" fill="#DBDBDB"/>
<path id="Vector_3" d="M50.4912 21.2316C50.3875 21.2168 50.0544 21.1649 49.7509 21.1205C48.1001 20.8762 46.464 20.0101 45.25 18.7294C42.6072 15.946 42.2074 11.793 44.2876 8.68384C45.4424 6.95899 47.0933 5.71532 48.9292 5.18972C49.7361 4.96024 50.047 4.71595 51.2758 3.35383C52.823 1.65119 53.4967 1.08858 54.6071 0.577786C55.5102 0.155827 56.2875 0.000368242 57.5238 0.000368242C58.612 -0.00703455 59.2709 0.0966045 59.9149 0.363105C60.2258 0.488952 60.2184 0.48155 60.1074 0.718439C60.0259 0.888703 60.0259 0.888703 59.6484 0.792467C59.3893 0.718439 59.0118 0.696231 58.5158 0.718439C57.8347 0.740647 57.7089 0.770258 57.1907 1.01455C56.2505 1.46612 55.4806 2.15458 54.2 3.69436C53.8964 4.0645 53.4967 4.51607 53.319 4.70114L52.9933 5.04167L53.282 5.10089C54.1851 5.27115 55.5769 5.90779 56.4208 6.53703C57.472 7.33653 58.5898 8.75047 59.071 9.9053C60.0852 12.3408 59.8483 15.2871 58.4714 17.4265C57.3906 19.0922 55.5399 20.4543 53.6744 20.9355C52.6824 21.1946 51.2018 21.3352 50.4912 21.2316ZM52.749 20.4987C55.1401 19.9657 56.865 17.6264 57.2203 14.4432C57.6348 10.7122 56.5022 7.61044 54.2 6.21871C52.6676 5.28596 50.5134 5.18972 48.8996 5.98923C47.1895 6.83314 45.9829 8.66163 45.5165 11.1194C45.3684 11.8967 45.3906 14.4284 45.5535 15.2057C46.0569 17.6264 47.2413 19.3291 48.9736 20.136C49.2623 20.2618 49.6398 20.4173 49.8249 20.4617C50.6466 20.6838 51.8459 20.6986 52.749 20.4987Z" fill="#DBDBDB"/>
<path id="Vector_4" d="M60.7773 21.027V20.7827L61.2289 20.7309C61.8285 20.6717 62.2505 20.4348 62.443 20.0572C62.5836 19.7685 62.591 19.5909 62.6132 13.8981C62.6354 7.78342 62.5984 6.6582 62.3541 6.22884C62.1987 5.96233 61.7989 5.74025 61.3696 5.68103C61.0883 5.64401 61.0735 5.62181 61.0735 5.39232V5.14063H66.1666H71.2671L71.3855 6.30286C71.541 7.76862 71.5484 7.65757 71.2893 7.65757C71.1116 7.65757 71.0598 7.62056 71.0228 7.4503C70.9414 7.13198 70.6527 6.59897 70.4602 6.42131C69.9716 5.96233 69.1277 5.79207 67.2918 5.78467C66.0111 5.76986 65.9001 5.78467 65.5521 5.94013C65.0784 6.15481 64.8785 6.34728 64.7378 6.72482C64.6342 6.99132 64.6268 7.76862 64.6416 13.3577C64.6638 19.6649 64.6638 19.6871 64.8267 20.035C65.0117 20.4348 65.2042 20.5828 65.7224 20.7013C66.0851 20.7901 66.1074 20.8049 66.1074 21.0344V21.2787H63.4423H60.7773V21.027Z" fill="#DBDBDB"/>
<path id="Vector_5" d="M74.6422 18.2343C74.3905 18.1603 74.1758 17.8568 74.1758 17.5755C74.1758 17.0573 74.7236 16.5391 75.2714 16.5391C75.7082 16.5391 75.9525 16.7834 75.9525 17.2127C75.9525 17.9086 75.2936 18.4194 74.6422 18.2343Z" fill="#DBDBDB"/>
<path id="Vector_6" d="M81.5791 16.4201C81.5347 16.3165 81.505 16.198 81.505 16.161C81.505 15.976 81.0091 15.1468 80.7055 14.8137C80.3354 14.4214 79.6988 14.066 79.2028 13.9846C78.9437 13.9402 78.9141 13.9106 78.9141 13.7181V13.5034H79.721H80.5353L80.5575 9.78722C80.5797 6.38934 80.5945 6.034 80.7129 5.7675C80.9054 5.34554 81.1053 5.16047 81.5272 5.01982C82.1861 4.79774 83.0892 4.97541 83.985 5.4936C84.703 5.90816 85.8727 6.95195 85.8727 7.16663C85.8727 7.18884 85.7913 7.26287 85.6876 7.32949C85.5025 7.44794 85.4951 7.44794 85.1472 7.12221C84.1774 6.21907 83.1485 5.82673 82.5414 6.13764C82.1047 6.35973 82.0899 6.51519 82.1121 10.1722L82.1343 13.4664L83.3779 13.4886L84.6142 13.5034V13.8736V14.2437H83.3557H82.0973V15.4281V16.6126H81.8752C81.6975 16.6126 81.6309 16.5682 81.5791 16.4201Z" fill="#DBDBDB"/>
<path id="Vector_7" d="M90.7555 14.4592C89.3785 14.2593 88.0312 13.06 87.3798 11.4388C86.8098 10.0323 86.869 8.10757 87.513 6.81208C88.2163 5.40555 89.608 4.7541 91.4143 4.97619C92.3841 5.10203 92.9615 5.30191 93.376 5.66465C93.7314 5.97556 94.2348 6.69363 94.5679 7.35248L94.7678 7.75223L94.5827 7.9299L94.3976 8.11497L94.1681 7.78184C93.6574 7.03416 92.6728 6.41233 91.7326 6.24947C90.8147 6.0792 89.7857 6.38272 89.2675 6.96754C88.8751 7.41911 88.5272 8.28523 88.4458 9.01811L88.4236 9.23279L89.2009 9.40306C90.7184 9.72878 91.6586 10.1507 92.6728 10.965C93.6796 11.7645 94.0941 12.416 93.9831 13.0082C93.9164 13.3561 93.5167 13.9484 93.2354 14.1112C92.7172 14.4073 91.5624 14.5702 90.7555 14.4592ZM91.1922 13.3561C91.9177 12.986 92.199 12.1421 91.8289 11.424C91.6364 11.0687 90.9998 10.5653 90.4075 10.321C89.8819 10.0989 88.5272 9.71397 88.4754 9.76579C88.4606 9.7806 88.4532 10.0323 88.4458 10.3358C88.4458 11.5795 89.0824 12.949 89.8597 13.3561C90.2151 13.5486 90.8221 13.5486 91.1922 13.3561Z" fill="#DBDBDB"/>
<path id="Vector_8" d="M74.4579 14.1091L72.9922 13.7686V13.4873V13.206L73.3105 13.2578C73.4808 13.2874 73.8139 13.317 74.0434 13.317C74.5764 13.3096 74.7985 13.1319 74.9095 12.5989C74.9983 12.1992 75.0057 10.2893 74.9317 7.7501C74.8799 6.1733 74.8725 6.09187 74.7096 5.93641C74.5838 5.80316 74.4431 5.76615 74.036 5.74394C73.54 5.71433 73.5252 5.70692 73.4956 5.49965C73.4734 5.3812 73.4808 5.27016 73.4956 5.24795C73.5178 5.22574 74.5986 5.21094 75.8941 5.21094H78.2482V5.47004V5.72913H77.7744C77.16 5.72913 76.8638 5.84017 76.7084 6.12888C76.5973 6.33616 76.5825 6.74332 76.5603 10.4151L76.5381 14.4644L76.2272 14.457C76.0569 14.457 75.2574 14.3016 74.4579 14.1091Z" fill="#DBDBDB"/>
</g>
</svg>
