<svg width="100%" height="100%" overflow="visible" style="display: block;" viewBox="0 0 165 40" fill="none" xmlns="http://www.w3.org/2000/svg">
<g id="Teams" clip-path="url(#clip0_0_215)">
<g id="Vector">
<path d="M37.782 13.0042C40.2881 13.0042 42.3198 10.9881 42.3198 8.50108C42.3198 6.01407 40.2881 3.99798 37.782 3.99798C35.2758 3.99798 33.2442 6.01407 33.2442 8.50108C33.2442 10.9881 35.2758 13.0042 37.782 13.0042Z" fill="#DBDBDB"/>
<path d="M23.6727 12.9937C27.2885 12.9937 30.2196 10.0849 30.2196 6.49682C30.2196 2.90876 27.2885 0 23.6727 0C20.0569 0 17.1258 2.90876 17.1258 6.49682C17.1258 10.0849 20.0569 12.9937 23.6727 12.9937Z" fill="#DBDBDB"/>
<path fill-rule="evenodd" clip-rule="evenodd" d="M34.2839 33.7163C34.9103 33.8977 35.5731 33.995 36.2593 33.995H36.294C40.1736 33.995 43.3258 30.8783 43.3258 27.0169V16.8993C43.3258 15.845 42.4714 14.9972 41.4091 14.9972H34.6596C35.0932 15.5216 35.3495 16.1972 35.3364 16.9328V28.4478C35.3797 30.3224 34.9998 32.1084 34.2839 33.7163ZM32.4099 14.9972H30.2205C29.6662 14.9972 29.2159 15.444 29.2274 15.994V27.0169C29.2274 29.8089 30.8792 32.2213 33.2711 33.3363C33.9429 31.8505 34.2992 30.1966 34.2574 28.4606V16.9221C34.2804 15.8795 33.4491 15.0201 32.4099 14.9972Z" fill="#DBDBDB"/>
<path fill-rule="evenodd" clip-rule="evenodd" d="M20.322 8.99371H1.84746C0.819806 8.99371 0 9.8187 0 10.827V29.1603C0 30.1686 0.831353 30.9936 1.84746 30.9936H20.322C21.3381 30.9936 22.1695 30.1686 22.1695 29.1603V10.827C22.1695 9.8187 21.3381 8.99371 20.322 8.99371ZM12.2414 15.9692H15.9479V14.0328H6.22564V15.9692H9.89745V25.9494H12.2414V15.9692Z" fill="#DBDBDB"/>
<path d="M12.5924 32.0727C13.9984 36.5675 18.1702 39.8811 23.1726 40C29.4424 39.851 34.4074 34.6824 34.2574 28.4606V16.9221C34.2804 15.8795 33.4491 15.0201 32.4099 14.9972L23.2485 14.9981V29.1603C23.2485 30.7723 21.9263 32.0727 20.322 32.0727H12.5924Z" fill="#DBDBDB"/>
<path d="M60.1116 25.7438V18.3876C60.1116 17.7803 60.1462 17.047 60.227 16.1762H60.1924C60.0769 16.6689 59.973 17.0241 59.8806 17.2418L56.4628 25.7324H55.158L51.7287 17.2991C51.6363 17.047 51.5324 16.6689 51.4285 16.1647H51.3938C51.44 16.623 51.4631 17.3564 51.4631 18.3876V25.7209H49.7081V14.3543H52.3868L55.4005 21.9282C55.6315 22.5126 55.7815 22.948 55.8508 23.223H55.8855C56.0817 22.6272 56.2434 22.1803 56.3589 21.8938L59.4303 14.3543H62.0052V25.7438H60.1116ZM65.2033 15.9241C64.9036 15.9241 64.638 15.821 64.4302 15.6262C64.2103 15.4314 64.1063 15.1793 64.1063 14.8814C64.1063 14.5835 64.2103 14.3314 64.4302 14.1251C64.6495 13.9189 64.9036 13.8272 65.2033 13.8272C65.5151 13.8272 65.7807 13.9304 66.0006 14.1251C66.2198 14.3314 66.3238 14.572 66.3238 14.8814C66.3238 15.1679 66.2198 15.4085 66.0006 15.6147C65.7807 15.821 65.5151 15.9241 65.2033 15.9241ZM66.1159 25.7438H64.2686V17.6314H66.1159V25.7438ZM74.0483 25.3772C73.3899 25.7553 72.6167 25.9386 71.7276 25.9386C70.5153 25.9386 69.5336 25.5605 68.7833 24.8042C68.0323 24.048 67.6628 23.074 67.6628 21.8709C67.6628 20.5303 68.0672 19.4647 68.8638 18.6512C69.6604 17.8376 70.7345 17.4366 72.0736 17.4366C72.8246 17.4366 73.471 17.5626 74.0483 17.8262V19.5334C73.4824 19.1095 72.8708 18.9033 72.2238 18.9033C71.4386 18.9033 70.8036 19.1668 70.2954 19.6938C69.7991 20.221 69.545 20.9084 69.545 21.7564C69.545 22.5928 69.7763 23.2574 70.2497 23.7501C70.7231 24.2313 71.3581 24.4834 72.1433 24.4834C72.8125 24.4834 73.4361 24.2428 74.0255 23.773V25.3772H74.0483ZM80.2836 19.3845C80.0643 19.2126 79.7405 19.1209 79.3133 19.1209C78.7709 19.1209 78.3089 19.3616 77.9394 19.8543C77.57 20.347 77.3855 21.0115 77.3855 21.8595V25.7438H75.5376V17.6314H77.3855V19.3043H77.4198C77.6048 18.7314 77.8817 18.2845 78.2512 17.9637C78.6321 17.6428 79.0478 17.4824 79.5098 17.4824C79.8444 17.4824 80.0985 17.5282 80.2722 17.6314V19.3845H80.2836ZM84.7292 25.9386C83.4706 25.9386 82.4541 25.5605 81.7038 24.8042C80.9534 24.048 80.5719 23.0397 80.5719 21.7907C80.5719 20.4272 80.9648 19.3616 81.75 18.5939C82.5352 17.8262 83.5974 17.448 84.925 17.448C86.2071 17.448 87.2001 17.8262 87.9156 18.5709C88.6317 19.3157 88.9898 20.347 88.9898 21.6647C88.9898 22.9594 88.6083 23.9907 87.8351 24.7699C87.0727 25.5491 86.0334 25.9386 84.7292 25.9386ZM84.8211 18.9033C84.0936 18.9033 83.5283 19.1553 83.1005 19.6595C82.6854 20.1637 82.4655 20.8511 82.4655 21.7334C82.4655 22.5814 82.6734 23.2574 83.1005 23.7386C83.5283 24.2313 84.0936 24.472 84.8097 24.472C85.5372 24.472 86.1031 24.2313 86.4954 23.7501C86.8883 23.2688 87.0841 22.5814 87.0841 21.6991C87.0841 20.8053 86.8883 20.1178 86.4954 19.6251C86.1145 19.1439 85.5486 18.9033 84.8211 18.9033ZM90.0171 25.4918V23.7844C90.7104 24.3116 91.4721 24.5636 92.3035 24.5636C93.4233 24.5636 93.9779 24.2313 93.9779 23.5782C93.9779 23.3949 93.9316 23.2345 93.8391 23.1084C93.7466 22.9824 93.6198 22.8678 93.4468 22.7647C93.2852 22.6615 93.0887 22.5699 92.8695 22.4897C92.6496 22.4095 92.4075 22.3178 92.1305 22.2147C91.7953 22.0772 91.4949 21.9397 91.2294 21.7907C90.9638 21.6418 90.7332 21.4699 90.5602 21.2866C90.3865 21.1032 90.2484 20.8855 90.1558 20.6449C90.0633 20.4042 90.0171 20.1293 90.0171 19.8085C90.0171 19.4189 90.1096 19.0751 90.2946 18.7772C90.479 18.4793 90.7332 18.2272 91.045 18.021C91.3568 17.8147 91.7148 17.6658 92.1185 17.5626C92.5228 17.4595 92.9271 17.4137 93.3543 17.4137C94.1046 17.4137 94.7859 17.5282 95.3867 17.7574V19.3616C94.8093 18.972 94.1509 18.7772 93.4005 18.7772C93.1692 18.7772 92.95 18.8001 92.7655 18.846C92.5805 18.8918 92.4189 18.9605 92.2801 19.0407C92.1419 19.1209 92.038 19.224 91.9689 19.3501C91.8992 19.4647 91.853 19.6022 91.853 19.7397C91.853 19.9116 91.8878 20.0605 91.9689 20.1866C92.038 20.3126 92.1534 20.4157 92.3035 20.5074C92.4537 20.5991 92.6268 20.6793 92.8346 20.7594C93.0425 20.8397 93.2732 20.9199 93.5387 21.0115C93.8853 21.1491 94.2085 21.298 94.4855 21.447C94.7631 21.5959 95.0051 21.7678 95.2016 21.9511C95.3981 22.1345 95.5482 22.3522 95.6522 22.6042C95.7561 22.8449 95.8138 23.1428 95.8138 23.4751C95.8138 23.8876 95.7213 24.2428 95.5248 24.5522C95.3321 24.8583 95.0717 25.1169 94.7631 25.3084C94.4399 25.5146 94.0704 25.6636 93.6547 25.7553C93.2389 25.8584 92.7998 25.9043 92.3384 25.9043C91.4493 25.9386 90.6755 25.7897 90.0171 25.4918ZM100.871 25.9386C99.6124 25.9386 98.5965 25.5605 97.8462 24.8042C97.0952 24.048 96.7143 23.0397 96.7143 21.7907C96.7143 20.4272 97.1066 19.3616 97.8918 18.5939C98.677 17.8262 99.7397 17.448 101.067 17.448C102.349 17.448 103.342 17.8262 104.058 18.5709C104.774 19.3157 105.132 20.347 105.132 21.6647C105.132 22.9594 104.751 23.9907 103.977 24.7699C103.204 25.5491 102.164 25.9386 100.871 25.9386ZM100.952 18.9033C100.225 18.9033 99.6586 19.1553 99.2315 19.6595C98.8158 20.1637 98.5965 20.8511 98.5965 21.7334C98.5965 22.5814 98.8044 23.2574 99.2315 23.7386C99.6586 24.2313 100.225 24.472 100.94 24.472C101.668 24.472 102.233 24.2313 102.626 23.7501C103.019 23.2688 103.215 22.5814 103.215 21.6991C103.215 20.8053 103.019 20.1178 102.626 19.6251C102.245 19.1439 101.68 18.9033 100.952 18.9033ZM111.021 15.2251C110.767 15.0876 110.489 15.0075 110.166 15.0075C109.265 15.0075 108.815 15.5116 108.815 16.5199V17.6199H110.72V19.0636H108.827V25.7324H106.979V19.0636H105.582V17.6199H106.979V16.3022C106.979 15.4428 107.256 14.7668 107.822 14.2741C108.388 13.7814 109.092 13.5293 109.935 13.5293C110.397 13.5293 110.755 13.5752 111.021 13.6783V15.2251ZM116.297 25.6522C115.939 25.8355 115.454 25.9271 114.866 25.9271C113.284 25.9271 112.487 25.1709 112.487 23.6584V19.0751H111.125V17.6314H112.487V15.7522L114.335 15.2251V17.6314H116.286V19.0751H114.335V23.1313C114.335 23.6126 114.427 23.9564 114.6 24.1626C114.773 24.3689 115.073 24.472 115.478 24.472C115.789 24.472 116.067 24.3803 116.297 24.197V25.6522ZM129.264 15.9814H125.974V25.7438H124.068V15.9814H120.789V14.3772H129.264V15.9814ZM130.153 22.1803C130.177 22.9251 130.407 23.5095 130.858 23.9105C131.296 24.323 131.909 24.5178 132.694 24.5178C133.571 24.5178 134.368 24.2543 135.095 23.7386V25.2167C134.345 25.6865 133.363 25.9157 132.139 25.9157C130.938 25.9157 129.992 25.5491 129.31 24.8157C128.629 24.0823 128.283 23.0397 128.283 21.7105C128.283 20.4501 128.664 19.4189 129.414 18.6282C130.165 17.8376 131.1 17.4366 132.22 17.4366C133.34 17.4366 134.206 17.7918 134.818 18.5022C135.43 19.2126 135.742 20.2095 135.742 21.4699V22.1803H130.153ZM133.94 20.8855C133.94 20.221 133.779 19.7168 133.467 19.3386C133.155 18.972 132.728 18.7887 132.185 18.7887C131.654 18.7887 131.204 18.9834 130.834 19.3616C130.465 19.7512 130.234 20.2553 130.153 20.8741H133.94V20.8855ZM143.42 25.7438H141.619V24.472H141.584C141.018 25.4459 140.187 25.9271 139.102 25.9271C138.293 25.9271 137.67 25.7095 137.208 25.274C136.758 24.8386 136.527 24.2657 136.527 23.5553C136.527 22.0199 137.416 21.1261 139.195 20.8741L141.619 20.5303C141.619 19.373 141.065 18.8001 139.956 18.8001C138.987 18.8001 138.109 19.1324 137.324 19.797V18.1928C138.189 17.6886 139.182 17.4366 140.314 17.4366C142.381 17.4366 143.409 18.4449 143.409 20.4616V25.7438H143.42ZM141.631 21.7564L139.91 21.997C139.379 22.0657 138.975 22.1917 138.709 22.3866C138.444 22.5699 138.305 22.9022 138.305 23.3719C138.305 23.7157 138.432 24.0022 138.675 24.2199C138.917 24.4376 139.252 24.5522 139.668 24.5522C140.233 24.5522 140.695 24.3574 141.065 23.9564C141.434 23.5667 141.619 23.0626 141.619 22.4668V21.7564H141.631ZM157.565 25.7438H155.717V21.3209C155.717 20.473 155.602 19.8543 155.36 19.4761C155.117 19.0981 154.713 18.9033 154.135 18.9033C153.651 18.9033 153.235 19.1439 152.9 19.6251C152.565 20.1064 152.392 20.6793 152.392 21.3553V25.7438H150.533V21.172C150.533 19.6595 149.99 18.9033 148.917 18.9033C148.42 18.9033 148.004 19.1324 147.681 19.5793C147.358 20.0376 147.196 20.622 147.196 21.3439V25.7324H145.349V17.6199H147.196V18.9033H147.231C147.82 17.9178 148.685 17.4251 149.806 17.4251C150.372 17.4251 150.868 17.5741 151.284 17.8835C151.711 18.1928 152 18.5939 152.149 19.0981C152.761 17.9751 153.662 17.4137 154.863 17.4137C156.665 17.4137 157.565 18.5136 157.565 20.7136V25.7438ZM158.974 25.4918V23.7844C159.667 24.3116 160.428 24.5636 161.26 24.5636C162.38 24.5636 162.934 24.2313 162.934 23.5782C162.934 23.3949 162.888 23.2345 162.795 23.1084C162.703 22.9824 162.576 22.8678 162.403 22.7647C162.241 22.6615 162.045 22.5699 161.826 22.4897C161.606 22.4095 161.364 22.3178 161.087 22.2147C160.752 22.0772 160.452 21.9397 160.186 21.7907C159.921 21.6418 159.689 21.4699 159.516 21.2866C159.343 21.1032 159.205 20.8855 159.112 20.6449C159.02 20.4042 158.974 20.1293 158.974 19.8085C158.974 19.4189 159.066 19.0751 159.251 18.7772C159.435 18.4793 159.689 18.2272 160.001 18.021C160.313 17.8147 160.671 17.6658 161.075 17.5626C161.479 17.4595 161.883 17.4137 162.31 17.4137C163.061 17.4137 163.742 17.5282 164.343 17.7574V19.3616C163.766 18.972 163.107 18.7772 162.357 18.7772C162.126 18.7772 161.906 18.8001 161.722 18.846C161.537 18.8918 161.375 18.9605 161.237 19.0407C161.098 19.1209 160.994 19.224 160.925 19.3501C160.855 19.4647 160.81 19.6022 160.81 19.7397C160.81 19.9116 160.844 20.0605 160.925 20.1866C160.994 20.3126 161.11 20.4157 161.26 20.5074C161.41 20.5991 161.583 20.6793 161.791 20.7594C161.999 20.8397 162.23 20.9199 162.496 21.0115C162.842 21.1491 163.165 21.298 163.442 21.447C163.719 21.5959 163.962 21.7678 164.158 21.9511C164.354 22.1345 164.504 22.3522 164.608 22.6042C164.712 22.8449 164.77 23.1428 164.77 23.4751C164.77 23.8876 164.677 24.2428 164.482 24.5522C164.288 24.8583 164.028 25.1169 163.719 25.3084C163.396 25.5146 163.027 25.6636 162.611 25.7553C162.195 25.8584 161.757 25.9043 161.295 25.9043C160.405 25.9386 159.62 25.7897 158.974 25.4918Z" fill="#DBDBDB"/>
</g>
</g>
<defs>
<clipPath id="clip0_0_215">
<rect width="165" height="40" fill="white"/>
</clipPath>
</defs>
</svg>
