<svg preserveAspectRatio="none" width="100%" height="100%" overflow="visible" style="display: block;" viewBox="0 0 148.513 54" fill="none" xmlns="http://www.w3.org/2000/svg">
<g id="Logo">
<g id="genesis">
<path id="Vector" d="M136.35 23.3512C134.32 23.3512 132.513 23.0135 130.929 22.3381C129.344 21.6628 128.093 20.7443 127.176 19.5826C126.258 18.394 125.744 17.0703 125.633 15.6115H132.68C132.763 16.3949 133.139 17.0297 133.806 17.516C134.473 18.0023 135.293 18.2454 136.266 18.2454C137.156 18.2454 137.837 18.0833 138.309 17.7591C138.81 17.4079 139.06 16.9622 139.06 16.4219C139.06 15.7736 138.713 15.3008 138.018 15.0036C137.323 14.6795 136.197 14.3283 134.64 13.9501C132.972 13.5719 131.582 13.1801 130.47 12.7749C129.358 12.3427 128.399 11.6808 127.593 10.7893C126.786 9.87083 126.383 8.64166 126.383 7.10182C126.383 5.80511 126.745 4.62997 127.468 3.5764C128.218 2.49581 129.302 1.64484 130.72 1.02351C132.166 0.402166 133.875 0.0914967 135.849 0.0914967C138.768 0.0914967 141.062 0.79388 142.73 2.19865C144.425 3.60341 145.398 5.46743 145.649 7.7907H139.06C138.949 7.00727 138.587 6.38593 137.976 5.92668C137.392 5.46743 136.614 5.23781 135.641 5.23781C134.807 5.23781 134.167 5.39989 133.722 5.72407C133.278 6.02123 133.055 6.43996 133.055 6.98025C133.055 7.62861 133.403 8.11487 134.098 8.43905C134.821 8.76323 135.933 9.0874 137.434 9.41158C139.157 9.84382 140.561 10.2761 141.645 10.7083C142.73 11.1135 143.675 11.7889 144.481 12.7344C145.315 13.6529 145.746 14.8956 145.774 16.4624C145.774 17.7862 145.385 18.9748 144.606 20.0284C143.856 21.0549 142.757 21.8654 141.312 22.4597C139.894 23.054 138.24 23.3512 136.35 23.3512Z" fill="white"/>
<path id="Union" d="M124.839 23.0276V0.309531L106.829 0.309848C104.855 0.309848 103.146 0.620517 101.7 1.24186C100.282 1.8632 99.1979 2.71416 98.4473 3.79475C97.7245 4.84832 97.3631 6.02347 97.3631 7.32017C97.3631 8.86001 97.7662 10.0892 98.5724 11.0077C99.3786 11.8992 100.338 12.3422 101.45 12.7744C102.562 13.1796 103.952 13.5713 105.62 13.9495C107.176 14.3277 108.302 14.6789 108.997 15.0031C109.692 15.3003 110.04 15.773 110.04 16.4214C110.04 16.9617 109.79 17.4074 109.289 17.7586C108.817 18.0828 108.092 18.2449 107.202 18.2449C106.229 18.2449 105.278 18.0018 104.611 17.5155C103.943 17.0292 103.524 16.3241 103.441 15.5407H96.3499C96.5929 18.729 98.7896 21.1203 101.646 22.3376C103.23 23.013 105.125 23.3507 107.154 23.3507C109.045 23.3507 110.874 23.0535 112.292 22.4592C113.737 21.8649 114.835 21.0544 115.586 20.0279C116.364 18.9743 116.754 17.7856 116.754 16.4619C116.726 14.8951 116.295 13.6524 115.461 12.7339C114.655 11.7884 113.709 11.2005 112.625 10.7953C111.541 10.3631 110.137 9.93085 108.414 9.49861C106.912 9.17444 105.8 8.85026 105.078 8.52608C104.383 8.20191 104.035 7.71564 104.035 7.06729C104.035 5.8008 105.382 5.45616 106.62 5.45616H117.704V23.0276H124.839Z" fill="white"/>
<path id="Vector_2" d="M96.6894 11.3566C96.6894 12.005 96.6477 12.6804 96.5643 13.3827H80.4265C80.5377 14.7875 80.9964 15.8681 81.8026 16.6245C82.6366 17.3539 83.6513 17.7186 84.8467 17.7186C86.6258 17.7186 88.038 16.9892 88.733 15.5304H96.3224C95.9332 17.0162 95.2243 18.3535 94.1957 19.5421C93.1949 20.7308 91.8425 21.6628 90.3135 22.3381C88.7845 23.0135 86.9872 23.3512 85.0968 23.3512C82.8173 23.3512 80.7879 22.8784 79.0087 21.9329C77.2295 20.9874 75.8395 19.6367 74.8387 17.8807C73.8379 16.1247 73.3375 14.0716 73.3375 11.7213C73.3375 9.37106 73.824 7.31794 74.797 5.56198C75.7978 3.80602 77.1878 2.45529 78.967 1.50977C80.7462 0.564255 82.7895 0.0914967 85.0968 0.0914967C87.3486 0.0914967 89.3502 0.550747 91.1016 1.46925C92.853 2.38775 94.2152 3.69796 95.1882 5.39989C96.189 7.10182 96.6894 9.08741 96.6894 11.3566ZM89.3919 9.53315C89.3919 8.3445 88.9749 7.39898 88.1409 6.6966C87.3069 5.99422 86.2644 5.64303 85.0134 5.64303C83.8181 5.64303 82.8034 5.98071 81.9694 6.65608C81.1632 7.33145 80.6628 8.29047 80.4682 9.53315H89.3919Z" fill="white"/>
<path id="Vector_3" d="M63.4226 0.171313C66.147 0.171313 68.3154 1.03578 69.9278 2.76473C71.568 4.46666 72.3881 6.81694 72.3881 9.81557V23.0258H65.2991V10.7476C65.2991 9.23476 64.896 8.05962 64.0898 7.22216C63.2836 6.3847 62.1994 5.96597 60.8372 5.96597C59.475 5.96597 58.3908 6.3847 57.5846 7.22216C56.7784 8.05962 56.3753 9.23476 56.3753 10.7476V23.0258H49.2447V0.414445H56.3753V3.41308C57.0981 2.41354 58.0711 1.63011 59.2943 1.0628C60.5175 0.468474 61.8936 0.171313 63.4226 0.171313Z" fill="white"/>
<path id="Vector_4" d="M48.2351 11.3566C48.2351 12.005 48.1934 12.6804 48.11 13.3827H31.9722C32.0834 14.7875 32.5421 15.8681 33.3483 16.6245C34.1823 17.3539 35.197 17.7186 36.3923 17.7186C38.1715 17.7186 39.4086 16.9892 40.1036 15.5304H47.693C47.3038 17.0162 46.5949 18.3535 45.5663 19.5421C44.5655 20.7308 43.3006 21.6628 41.7716 22.3381C40.2426 23.0135 38.5329 23.3512 36.6425 23.3512C34.363 23.3512 32.3336 22.8784 30.5544 21.9329C28.7752 20.9874 27.3852 19.6367 26.3844 17.8807C25.3836 16.1247 24.8832 14.0716 24.8832 11.7213C24.8832 9.37106 25.3697 7.31794 26.3427 5.56198C27.3435 3.80602 28.7335 2.45529 30.5127 1.50977C32.2919 0.564255 34.3352 0.0914967 36.6425 0.0914967C38.8943 0.0914967 40.8959 0.550747 42.6473 1.46925C44.3987 2.38775 45.7609 3.69796 46.7339 5.39989C47.7347 7.10182 48.2351 9.08741 48.2351 11.3566ZM40.9376 9.53315C40.9376 8.3445 40.5206 7.39898 39.6866 6.6966C38.8526 5.99422 37.8101 5.64303 36.5591 5.64303C35.3638 5.64303 34.3491 5.98071 33.5151 6.65608C32.7089 7.33145 32.2085 8.29047 32.0139 9.53315H40.9376Z" fill="white"/>
<g id="g">
<path id="Subtract" d="M12.0928 35.1017C14.3724 35.1017 16.4299 34.6292 18.2646 33.6837C20.0994 32.7382 21.5452 31.3738 22.6016 29.5909C23.658 27.835 24.1855 25.795 24.1855 23.4718C24.1855 23.4516 24.1847 23.4314 24.1846 23.4112H17.2021C17.2022 23.4284 17.2031 23.4457 17.2031 23.463C17.2031 25.2704 16.6859 26.6598 15.6514 27.631C14.6464 28.602 13.4199 29.0879 11.9717 29.088C10.5234 29.088 9.31136 28.602 8.33594 27.631C7.39006 26.6598 6.91701 25.2704 6.91699 23.463C6.91699 23.4457 6.91788 23.4284 6.91797 23.4112H0.000976562C0.000900492 23.4314 4.86551e-08 23.4516 0 23.4718C0 25.795 0.528566 27.835 1.58496 29.5909C2.64129 31.3736 4.08635 32.7382 5.9209 33.6837C7.75565 34.6292 9.81325 35.1016 12.0928 35.1017Z" fill="white"/>
<path id="Subtract_2" d="M12.3906 0.113818V6.10601H12.1025C10.6248 6.10608 9.3982 6.59203 8.42285 7.56304C7.44745 8.5072 6.96001 9.89667 6.95996 11.731C6.95996 13.5385 7.43301 14.9278 8.37891 15.899C9.35435 16.8701 10.5663 17.356 12.0146 17.356C13.4629 17.3559 14.6894 16.8701 15.6943 15.899C16.7288 14.9278 17.2461 13.5384 17.2461 11.731V9.65288H24.0322C24.1346 10.3212 24.1855 11.0174 24.1855 11.7408C24.1855 14.0639 23.6437 16.1171 22.5596 17.9C21.5032 19.6558 20.0432 21.0062 18.1807 21.9517C16.346 22.8971 14.2892 23.3706 12.0098 23.3707C9.73018 23.3707 7.67268 22.8972 5.83789 21.9517C4.03104 21.0062 2.59932 19.6558 1.54297 17.9C0.514433 16.1441 5.87672e-05 14.0909 0 11.7408C0 9.4175 0.528566 7.37759 1.58496 5.62163C2.64128 3.83883 4.08633 2.47435 5.9209 1.52886C7.75565 0.583363 9.81325 0.110911 12.0928 0.110888C12.1924 0.110888 12.2918 0.112011 12.3906 0.113818Z" fill="white"/>
<path id="Vector_5" d="M18.8958 7.48518C18.1614 7.48518 17.4987 7.33304 16.9076 7.02877C16.3255 6.72449 15.8642 6.28981 15.5239 5.72473C15.1926 5.15965 15.0269 4.49894 15.0269 3.7426C15.0269 2.99495 15.197 2.33859 15.5374 1.77351C15.8777 1.19973 16.3434 0.760709 16.9345 0.456434C17.5255 0.152159 18.1883 2.17355e-05 18.9227 2.17355e-05C19.657 2.17355e-05 20.3198 0.152159 20.9108 0.456434C21.5019 0.760709 21.9676 1.19973 22.308 1.77351C22.6483 2.33859 22.8184 2.99495 22.8184 3.7426C22.8184 4.49025 22.6438 5.15096 22.2945 5.72473C21.9542 6.28981 21.484 6.72449 20.884 7.02877C20.2929 7.33304 19.6302 7.48518 18.8958 7.48518Z" fill="#FF6E06"/>
</g>
</g>
<g id="Subtract_3">
<path d="M52.1203 36.6688C53.1779 36.6688 53.9934 36.9809 54.5668 37.6053C55.1401 38.2169 55.4268 39.0579 55.4268 40.1282V43.4155C55.4268 44.4858 55.1401 45.3331 54.5668 45.9575C53.9934 46.5691 53.1779 46.8749 52.1203 46.8749C51.0882 46.8749 50.2792 46.5691 49.693 45.9575C49.1069 45.3331 48.8139 44.4858 48.8139 43.4155V40.1282C48.8139 39.0579 49.1069 38.2169 49.693 37.6053C50.2792 36.981 51.0883 36.6688 52.1203 36.6688Z" fill="#FF6E06"/>
<path d="M81.3792 36.9555C82.1055 36.9555 82.6852 37.1466 83.1184 37.5289C83.5517 37.9111 83.7683 38.4399 83.7683 39.1152V39.3063C83.7683 39.9689 83.5517 40.4913 83.1184 40.8736C82.6852 41.2558 82.1055 41.4469 81.3792 41.4469H78.3404V36.9555H81.3792Z" fill="#FF6E06"/>
<path fill-rule="evenodd" clip-rule="evenodd" d="M136.356 29.6858C143.07 29.6858 148.513 35.1288 148.513 41.8429C148.513 48.5571 143.07 54 136.356 54H37.5912C30.877 54 25.4342 48.5571 25.4341 41.8429C25.4341 35.1288 30.877 29.6858 37.5912 29.6858H136.356ZM39.9728 34.8148C38.3419 34.8148 37.0486 35.28 36.093 36.2101C35.1374 37.1275 34.6596 38.459 34.6596 40.2046V43.3391C34.6596 45.0847 35.1374 46.4225 36.093 47.3527C37.0486 48.27 38.3419 48.7288 39.9728 48.7288C41.5783 48.7288 42.8142 48.2828 43.6806 47.3909C44.5598 46.499 44.9994 45.2821 44.9994 43.7404V43.4728H42.9544V43.7978C42.9543 44.6897 42.7059 45.4287 42.209 46.0148C41.7248 46.5882 40.9794 46.8749 39.9728 46.8749C38.9535 46.8749 38.1571 46.5627 37.5837 45.9384C37.0104 45.3141 36.7237 44.4603 36.7237 43.3773V40.1664C36.7237 39.0706 37.0104 38.2169 37.5837 37.6053C38.1571 36.981 38.9535 36.6688 39.9728 36.6688C40.9794 36.6688 41.7248 36.9555 42.209 37.5289C42.7059 38.1022 42.9544 38.8413 42.9544 39.7459V39.9179H44.9994V39.8032C44.9994 38.2615 44.5598 37.0446 43.6806 36.1527C42.8142 35.2608 41.5782 34.8148 39.9728 34.8148ZM52.1203 34.8148C50.4766 34.8148 49.1706 35.28 48.2023 36.2101C47.2339 37.1275 46.7497 38.459 46.7497 40.2046V43.3391C46.7497 45.0847 47.2339 46.4225 48.2023 47.3527C49.1706 48.2701 50.4766 48.7288 52.1203 48.7288C53.764 48.7288 55.07 48.2701 56.0384 47.3527C57.0195 46.4225 57.5101 45.0847 57.5101 43.3391V40.2046C57.5101 38.459 57.0195 37.1275 56.0384 36.2101C55.07 35.28 53.764 34.8148 52.1203 34.8148ZM87.5055 43.8742C87.5055 44.9063 87.7094 45.7855 88.1171 46.5117C88.5376 47.2253 89.1237 47.7732 89.8754 48.1555C90.6399 48.5377 91.551 48.7288 92.6085 48.7288C93.6533 48.7288 94.558 48.5377 95.3225 48.1555C96.087 47.7732 96.6731 47.2253 97.0808 46.5117C97.4886 45.7855 97.6925 44.9063 97.6925 43.8742V35.0825H95.6283V43.9316C95.6283 44.8745 95.3671 45.6007 94.8447 46.1104C94.3223 46.6201 93.5769 46.8749 92.6085 46.8749C91.6402 46.8749 90.8948 46.6201 90.3724 46.1104C89.85 45.6007 89.5887 44.8745 89.5887 43.9316V35.0825H87.5055V43.8742ZM133.428 34.8148C131.797 34.8148 130.504 35.28 129.548 36.2101C128.592 37.1275 128.115 38.459 128.115 40.2046V43.3391C128.115 44.4986 128.331 45.4796 128.764 46.2823C129.198 47.0851 129.79 47.6967 130.542 48.1171C131.294 48.5249 132.147 48.7288 133.103 48.7288C133.791 48.7288 134.339 48.646 134.747 48.4803C135.167 48.3147 135.486 48.1045 135.702 47.8496C135.932 47.5948 136.104 47.3463 136.218 47.1042H136.524V48.4612H138.435V41.8482H132.797V43.6258H136.39V43.8742C136.39 44.7661 136.155 45.4924 135.683 46.053C135.212 46.6137 134.466 46.894 133.447 46.894C132.415 46.894 131.612 46.5818 131.039 45.9575C130.465 45.3204 130.179 44.4603 130.179 43.3773V40.1664C130.179 39.0706 130.465 38.2169 131.039 37.6053C131.612 36.981 132.408 36.6688 133.428 36.6688C134.103 36.6688 134.657 36.7962 135.091 37.051C135.524 37.3059 135.849 37.6562 136.065 38.1022C136.282 38.5354 136.39 39.026 136.39 39.5739V39.7268H138.435V39.6313C138.435 38.166 138.002 37.0001 137.136 36.1337C136.269 35.2545 135.033 34.8148 133.428 34.8148ZM59.7625 48.4613H61.7693V36.5351H62.0751L64.9803 48.4613H68.4587L71.3638 36.5351H71.6696V48.4613H73.6765V35.0825H69.7966L66.8723 47.0851H66.5665L63.6424 35.0825H59.7625V48.4613ZM76.2762 48.4613H78.3404V43.3199H81.5894C82.3922 43.3199 83.1121 43.1607 83.7492 42.8421C84.3863 42.5236 84.8896 42.0649 85.2591 41.4661C85.6413 40.8672 85.8325 40.1537 85.8325 39.3255V39.077C85.8325 38.2488 85.6477 37.5416 85.2782 36.9555C84.9214 36.3567 84.4181 35.8979 83.7683 35.5794C83.1312 35.2481 82.4049 35.0825 81.5894 35.0825H76.2762V48.4613ZM99.2778 36.9555H103.387V48.4613H105.451V36.9555H109.56V35.0825H99.2778V36.9555ZM111.24 48.4613H113.304V35.0825H111.24V48.4613ZM115.902 48.4613H117.947V36.4395H118.253L121.884 48.4613H125.859V35.0825H123.814V47.0851H123.509L119.877 35.0825H115.902V48.4613Z" fill="#FF6E06"/>
<path d="M39.9728 34.8148C38.3419 34.8148 37.0486 35.28 36.093 36.2101C35.1374 37.1275 34.6596 38.459 34.6596 40.2046V43.3391C34.6596 45.0847 35.1374 46.4225 36.093 47.3527C37.0486 48.27 38.3419 48.7288 39.9728 48.7288C41.5783 48.7288 42.8142 48.2828 43.6806 47.3909C44.5598 46.499 44.9994 45.2821 44.9994 43.7404V43.4728H42.9544V43.7978C42.9543 44.6897 42.7059 45.4287 42.209 46.0148C41.7248 46.5882 40.9794 46.8749 39.9728 46.8749C38.9535 46.8749 38.1571 46.5627 37.5837 45.9384C37.0104 45.3141 36.7237 44.4603 36.7237 43.3773V40.1664C36.7237 39.0706 37.0104 38.2169 37.5837 37.6053C38.1571 36.981 38.9535 36.6688 39.9728 36.6688C40.9794 36.6688 41.7248 36.9555 42.209 37.5289C42.7059 38.1022 42.9544 38.8413 42.9544 39.7459V39.9179H44.9994V39.8032C44.9994 38.2615 44.5598 37.0446 43.6806 36.1527C42.8142 35.2608 41.5782 34.8148 39.9728 34.8148Z" fill="white"/>
<path fill-rule="evenodd" clip-rule="evenodd" d="M52.1203 34.8148C50.4766 34.8148 49.1706 35.28 48.2023 36.2101C47.2339 37.1275 46.7497 38.459 46.7497 40.2046V43.3391C46.7497 45.0847 47.2339 46.4225 48.2023 47.3527C49.1706 48.2701 50.4766 48.7288 52.1203 48.7288C53.764 48.7288 55.07 48.2701 56.0384 47.3527C57.0195 46.4225 57.5101 45.0847 57.5101 43.3391V40.2046C57.5101 38.459 57.0195 37.1275 56.0384 36.2101C55.07 35.28 53.764 34.8148 52.1203 34.8148ZM54.5668 37.6053C53.9934 36.9809 53.1779 36.6688 52.1203 36.6688C51.0883 36.6688 50.2792 36.981 49.693 37.6053C49.1069 38.2169 48.8139 39.0579 48.8139 40.1282V43.4155C48.8139 44.4858 49.1069 45.3331 49.693 45.9575C50.2792 46.5691 51.0882 46.8749 52.1203 46.8749C53.1779 46.8749 53.9934 46.5691 54.5668 45.9575C55.1401 45.3331 55.4268 44.4858 55.4268 43.4155V40.1282C55.4268 39.0579 55.1401 38.2169 54.5668 37.6053Z" fill="white"/>
<path d="M59.7625 48.4613H61.7693V36.5351H62.0751L64.9803 48.4613H68.4587L71.3638 36.5351H71.6696V48.4613H73.6765V35.0825H69.7966L66.8723 47.0851H66.5665L63.6424 35.0825H59.7625V48.4613Z" fill="white"/>
<path fill-rule="evenodd" clip-rule="evenodd" d="M76.2762 48.4613H78.3404V43.3199H81.5894C82.3922 43.3199 83.1121 43.1607 83.7492 42.8421C84.3863 42.5236 84.8896 42.0649 85.2591 41.4661C85.6413 40.8672 85.8325 40.1537 85.8325 39.3255V39.077C85.8325 38.2488 85.6477 37.5416 85.2782 36.9555C84.9214 36.3567 84.4181 35.8979 83.7683 35.5794C83.1312 35.2481 82.4049 35.0825 81.5894 35.0825H76.2762V48.4613ZM83.1184 37.5289C82.6852 37.1466 82.1055 36.9555 81.3792 36.9555H78.3404V41.4469H81.3792C82.1055 41.4469 82.6852 41.2558 83.1184 40.8736C83.5517 40.4913 83.7683 39.9689 83.7683 39.3063V39.1152C83.7683 38.4399 83.5517 37.9111 83.1184 37.5289Z" fill="white"/>
<path d="M87.5055 43.8742C87.5055 44.9063 87.7094 45.7855 88.1171 46.5117C88.5376 47.2253 89.1237 47.7732 89.8754 48.1555C90.6399 48.5377 91.551 48.7288 92.6085 48.7288C93.6533 48.7288 94.558 48.5377 95.3225 48.1555C96.087 47.7732 96.6731 47.2253 97.0808 46.5117C97.4886 45.7855 97.6925 44.9063 97.6925 43.8742V35.0825H95.6283V43.9316C95.6283 44.8745 95.3671 45.6007 94.8447 46.1104C94.3223 46.6201 93.5769 46.8749 92.6085 46.8749C91.6402 46.8749 90.8948 46.6201 90.3724 46.1104C89.85 45.6007 89.5887 44.8745 89.5887 43.9316V35.0825H87.5055V43.8742Z" fill="white"/>
<path d="M99.2778 36.9555H103.387V48.4613H105.451V36.9555H109.56V35.0825H99.2778V36.9555Z" fill="white"/>
<path d="M111.24 48.4613H113.304V35.0825H111.24V48.4613Z" fill="white"/>
<path d="M115.902 48.4613H117.947V36.4395H118.253L121.884 48.4613H125.859V35.0825H123.814V47.0851H123.509L119.877 35.0825H115.902V48.4613Z" fill="white"/>
<path d="M133.428 34.8148C131.797 34.8148 130.504 35.28 129.548 36.2101C128.592 37.1275 128.115 38.459 128.115 40.2046V43.3391C128.115 44.4986 128.331 45.4796 128.764 46.2823C129.198 47.0851 129.79 47.6967 130.542 48.1171C131.294 48.5249 132.147 48.7288 133.103 48.7288C133.791 48.7288 134.339 48.646 134.747 48.4803C135.167 48.3147 135.486 48.1045 135.702 47.8496C135.932 47.5948 136.104 47.3463 136.218 47.1042H136.524V48.4612H138.435V41.8482H132.797V43.6258H136.39V43.8742C136.39 44.7661 136.155 45.4924 135.683 46.053C135.212 46.6137 134.466 46.894 133.447 46.894C132.415 46.894 131.612 46.5818 131.039 45.9575C130.465 45.3204 130.179 44.4603 130.179 43.3773V40.1664C130.179 39.0706 130.465 38.2169 131.039 37.6053C131.612 36.981 132.408 36.6688 133.428 36.6688C134.103 36.6688 134.657 36.7962 135.091 37.051C135.524 37.3059 135.849 37.6562 136.065 38.1022C136.282 38.5354 136.39 39.026 136.39 39.5739V39.7268H138.435V39.6313C138.435 38.166 138.002 37.0001 137.136 36.1337C136.269 35.2545 135.033 34.8148 133.428 34.8148Z" fill="white"/>
</g>
</g>
</svg>
