<svg width="100%" height="100%" overflow="visible" style="display: block;" viewBox="0 0 51.9503 31.0661" fill="none" xmlns="http://www.w3.org/2000/svg">
<g id="Group">
<path id="Vector" d="M14.6402 11.2827C14.6402 11.9219 14.7093 12.4401 14.8301 12.8204C14.9837 13.2481 15.1686 13.6639 15.3832 14.0644C15.4696 14.2026 15.504 14.3407 15.504 14.4618C15.504 14.6346 15.4003 14.8074 15.1757 14.9799L14.0871 15.7058C13.9317 15.8093 13.7762 15.8613 13.638 15.8613C13.4652 15.8613 13.2924 15.7749 13.1196 15.6194C12.8869 15.3692 12.6786 15.0973 12.4977 14.8074C12.3046 14.4754 12.1259 14.1352 11.962 13.7879C10.6144 15.3776 8.92101 16.1723 6.88225 16.1723C5.43097 16.1723 4.27332 15.7576 3.42661 14.9282C2.58016 14.0988 2.14814 12.9932 2.14814 11.611C2.14814 10.1421 2.66657 8.95004 3.72049 8.0516C4.77441 7.15315 6.17394 6.7038 7.9535 6.7038C8.54099 6.7038 9.14582 6.7558 9.78505 6.8422C10.4243 6.92861 11.0809 7.06675 11.7721 7.22222V5.96083C11.7721 4.6477 11.4955 3.73192 10.96 3.19642C10.407 2.66067 9.4741 2.40172 8.14364 2.40172C7.53881 2.40172 6.91691 2.47079 6.27768 2.62626C5.63818 2.78174 5.01629 2.97188 4.41146 3.21376C4.21503 3.30165 4.01308 3.37666 3.80689 3.4383C3.68608 3.47297 3.59942 3.4903 3.53035 3.4903C3.28873 3.4903 3.1674 3.3175 3.1674 2.95455V2.10784C3.1674 1.83156 3.20206 1.62408 3.28847 1.50327C3.37487 1.38246 3.53035 1.26139 3.77222 1.14032C4.37705 0.829375 5.10269 0.570425 5.9494 0.362951C6.79584 0.138142 7.69429 0.0346677 8.64473 0.0346677C10.7008 0.0346677 12.2038 0.501091 13.1716 1.43394C14.1218 2.36705 14.6056 3.78392 14.6056 5.68455V11.2827H14.6402ZM7.62548 13.909C8.19538 13.909 8.78287 13.8052 9.40503 13.5977C10.0269 13.3905 10.5798 13.0102 11.0464 12.4921C11.3227 12.1638 11.5302 11.8009 11.6337 11.3862C11.7374 10.9715 11.8065 10.4704 11.8065 9.88315V9.15725C11.2826 9.02981 10.7519 8.93178 10.2171 8.86364C9.67832 8.79523 9.13581 8.76059 8.59273 8.7599C7.43507 8.7599 6.58863 8.98471 6.01847 9.45113C5.44831 9.91756 5.17176 10.5741 5.17176 11.4382C5.17176 12.2502 5.37924 12.8548 5.81099 13.2695C6.22594 13.7015 6.83077 13.909 7.62548 13.909ZM21.4995 15.7749C21.1885 15.7749 20.9811 15.7229 20.8429 15.6021C20.7048 15.4984 20.5837 15.2565 20.4802 14.9282L16.42 1.57234C16.316 1.22673 16.2643 1.00218 16.2643 0.881112C16.2643 0.604829 16.4024 0.449091 16.679 0.449091H18.3721C18.7004 0.449091 18.9252 0.50109 19.046 0.621898C19.1842 0.725635 19.2879 0.967515 19.3917 1.2958L22.2942 12.734L24.9898 1.2958C25.0762 0.950181 25.1797 0.725898 25.3181 0.621898C25.4562 0.518423 25.6981 0.449353 26.0091 0.449353H27.3913C27.7195 0.449353 27.9443 0.50109 28.0825 0.621898C28.2206 0.725635 28.3417 0.967515 28.4108 1.2958L31.1408 12.8721L34.1297 1.2958C34.2335 0.950181 34.3545 0.725898 34.4753 0.621898C34.6135 0.518423 34.8383 0.449353 35.1492 0.449353H36.756C37.0325 0.449353 37.188 0.587496 37.188 0.881112C37.188 0.967779 37.1707 1.05392 37.1533 1.15766C37.1363 1.26139 37.1016 1.39927 37.0325 1.58968L32.8686 14.9455C32.7649 15.2912 32.6438 15.5157 32.5056 15.6194C32.3675 15.7229 32.1427 15.7922 31.8491 15.7922H30.3631C30.0349 15.7922 29.8103 15.7402 29.6722 15.6194C29.5338 15.4984 29.413 15.2738 29.3439 14.9282L26.6656 3.78392L24.005 14.9109C23.9185 15.2565 23.8148 15.481 23.6767 15.6021C23.5383 15.7229 23.2964 15.7749 22.9854 15.7749H21.4995ZM43.7019 16.2413C42.8035 16.2413 41.905 16.1376 41.041 15.9304C40.1772 15.7229 39.5033 15.4984 39.054 15.2392C38.7777 15.0837 38.5875 14.9109 38.5185 14.7554C38.4512 14.6029 38.4159 14.4383 38.4147 14.2716V13.3905C38.4147 13.0276 38.5529 12.8548 38.8121 12.8548C38.9158 12.8548 39.0196 12.8721 39.123 12.9068C39.2268 12.9412 39.3822 13.0102 39.5551 13.0796C40.1654 13.3479 40.8025 13.5505 41.4557 13.6841C42.1324 13.8216 42.8212 13.8911 43.5118 13.8916C44.6004 13.8916 45.4468 13.7015 46.0343 13.3215C46.6218 12.9412 46.9328 12.3883 46.9328 11.68C46.9328 11.1963 46.7773 10.7987 46.4663 10.4704C46.1554 10.1421 45.5679 9.84849 44.7212 9.57194L42.216 8.79457C40.9546 8.39721 40.0215 7.80972 39.4513 7.03234C38.8812 6.27204 38.5875 5.42507 38.5875 4.52689C38.5875 3.80125 38.743 3.16202 39.054 2.60893C39.3649 2.0561 39.7796 1.57234 40.298 1.19232C40.8164 0.794707 41.4039 0.50109 42.0949 0.293615C42.7861 0.0861404 43.5118 0 44.2721 0C44.6521 0 45.0495 0.0173335 45.4297 0.0690708C45.8271 0.120808 46.1898 0.189879 46.5527 0.259212C46.8983 0.345616 47.2266 0.43202 47.5376 0.535758C47.8485 0.639233 48.0904 0.74297 48.2632 0.846707C48.5051 0.984848 48.6779 1.12299 48.7816 1.27846C48.8851 1.41687 48.9371 1.60675 48.9371 1.84889V2.66093C48.9371 3.02362 48.799 3.21376 48.5398 3.21376C48.4014 3.21376 48.1768 3.14469 47.8832 3.00628C46.8983 2.55719 45.7924 2.33265 44.5657 2.33265C43.5809 2.33265 42.8035 2.48812 42.2677 2.8164C41.7322 3.14469 41.4557 3.64578 41.4557 4.35408C41.4557 4.83784 41.6285 5.25253 41.9741 5.58081C42.3195 5.90909 42.959 6.23737 43.8747 6.53099L46.3282 7.30837C47.572 7.70598 48.4707 8.25881 49.0062 8.96737C49.5417 9.67568 49.8009 10.4877 49.8009 11.3862C49.8009 12.1291 49.6454 12.803 49.3518 13.3905C49.0409 13.978 48.6262 14.4962 48.0904 14.9109C47.5549 15.3429 46.9154 15.6538 46.1727 15.8786C45.3951 16.1205 44.583 16.2413 43.7019 16.2413Z" fill="white"/>
<path id="Vector_2" fill-rule="evenodd" clip-rule="evenodd" d="M46.9674 24.6385C41.2829 28.8372 33.0241 31.0661 25.9227 31.0661C15.9707 31.0661 7.00306 27.3856 0.230188 21.2693C-0.30557 20.7856 0.17845 20.129 0.817683 20.509C8.14364 24.7594 17.1801 27.3339 26.5275 27.3339C32.8339 27.3339 39.7625 26.0207 46.138 23.3254C47.0882 22.8934 47.9003 23.9473 46.9674 24.6385Z" fill="var(--fill-0, #FF9900)"/>
<path id="Vector_3" fill-rule="evenodd" clip-rule="evenodd" d="M49.3345 21.9432C48.6088 21.0101 44.5313 21.4939 42.6824 21.7184C42.1296 21.7877 42.0432 21.3037 42.5443 20.941C45.7924 18.6604 51.1314 19.3169 51.7535 20.077C52.3754 20.8546 51.5807 26.1935 48.5398 28.7507C48.0731 29.1481 47.624 28.9406 47.8312 28.4225C48.5224 26.712 50.0601 22.8587 49.3345 21.9432Z" fill="var(--fill-0, #FF9900)"/>
</g>
</svg>
