<svg width="100%" height="100%" overflow="visible" style="display: block;" viewBox="0 0 96 27.6569" fill="none" xmlns="http://www.w3.org/2000/svg">
<g id="layer1-1">
<path id="path21" d="M16.5188 26.1799C21.1063 25.3696 24.8953 24.699 24.9388 24.6897L25.018 24.673L20.6869 19.5213C18.3049 16.6879 16.3559 14.3587 16.3559 14.3453C16.3559 14.3198 20.8281 2.00446 20.8532 1.96064C20.8616 1.94599 23.905 7.20042 28.2307 14.6977C32.2805 21.7168 35.6193 27.5041 35.6503 27.5583L35.7068 27.6569L21.9424 27.6552L8.17795 27.6534L16.5188 26.1799ZM69.3037 24.9341C67.2085 24.7997 65.9899 23.6067 65.667 21.3735C65.5811 20.7795 65.5808 20.764 65.572 16.9075L65.5635 13.1749H66.4908H67.4181L67.4254 16.7853C67.432 20.0391 67.4361 20.4206 67.4672 20.6495C67.5934 21.5785 67.8448 22.2032 68.2727 22.6516C68.6152 23.0105 69.0161 23.2206 69.5711 23.3321C69.8329 23.3847 70.5778 23.3848 70.8165 23.3324C71.3791 23.2085 71.8301 22.9637 72.2279 22.566C72.6813 22.1128 73.0167 21.4697 73.179 20.7425L73.2337 20.4975L73.2398 16.8566L73.2459 13.2157H74.1926H75.1393V18.9393V24.6628H74.2024H73.2654V23.7547C73.2654 23.1377 73.2587 22.8489 73.2443 22.8537C73.2327 22.8575 73.1846 22.9311 73.1374 23.0172C72.8145 23.6061 72.2766 24.1446 71.6871 24.469C70.9805 24.8579 70.2719 24.9961 69.3037 24.9341ZM90.5703 24.9248C89.8307 24.8692 89.052 24.6149 88.4154 24.2212C87.0739 23.3913 86.28 22.0234 86.0476 20.141C85.9672 19.4896 85.9575 18.6146 86.0246 18.061C86.1746 16.8242 86.6606 15.6101 87.3527 14.7433C87.5301 14.5211 87.9326 14.1186 88.1548 13.9412C88.7548 13.4622 89.4566 13.1272 90.2018 12.9641C90.636 12.8692 91.4005 12.8246 91.8618 12.8673C93.0206 12.9747 94.0826 13.5203 94.8045 14.379C95.5378 15.2515 95.9409 16.4706 95.9924 17.9717C96.0005 18.207 96.0024 18.6194 95.9968 18.8883L95.9864 19.3772L91.928 19.3823L87.8696 19.3874V19.5685C87.8696 20.1199 88.0037 20.7478 88.2354 21.2821C88.4352 21.7428 88.7792 22.2459 89.0608 22.4894C89.6383 22.9886 90.345 23.2874 91.1184 23.3593C91.4051 23.3859 92.1359 23.3579 92.4627 23.3077C93.395 23.1644 94.2814 22.7987 94.9972 22.2621C95.0814 22.1989 95.162 22.1399 95.1763 22.131C95.1972 22.1179 95.2021 22.2828 95.2016 22.9763L95.201 23.8378L95.0092 23.9565C94.1994 24.4573 93.2718 24.7788 92.2896 24.8992C91.9965 24.9351 90.9209 24.9512 90.5703 24.9248ZM94.1024 17.6582C94.1024 16.7347 93.7132 15.7087 93.1624 15.1805C92.7694 14.8035 92.2943 14.5731 91.7294 14.4856C91.4622 14.4442 90.899 14.4601 90.6173 14.5171C90.0217 14.6374 89.5291 14.8992 89.0994 15.3238C88.6472 15.7707 88.3081 16.3134 88.0949 16.9317C88.0183 17.1541 87.9286 17.5191 87.9007 17.7222L87.8875 17.819H90.9949H94.1024V17.6582ZM39.0507 24.6373C39.0554 24.6233 40.4335 21.0028 42.1132 16.5918L45.1671 8.57181L46.1483 8.57175L47.1296 8.57169L47.211 8.78047C47.4598 9.41847 53.3247 24.6454 53.3247 24.6533C53.3247 24.6585 52.8549 24.6627 52.2808 24.6626L51.2369 24.6624L50.3916 22.4119L49.5463 20.1614L46.1428 20.1613L42.7392 20.1613L42.7097 20.2377C42.6934 20.2797 42.3323 21.2923 41.9071 22.488L41.1341 24.662L40.0881 24.6624C39.2601 24.6626 39.0438 24.6575 39.0507 24.6373ZM48.9251 18.4439C48.9251 18.4403 48.3562 16.8982 47.661 15.0169C46.3603 11.4974 46.2875 11.2856 46.1847 10.7205C46.1365 10.4556 46.1122 10.4482 46.0836 10.69C46.0631 10.8628 45.9745 11.2495 45.9061 11.464C45.8722 11.5704 45.2865 13.1781 44.6045 15.0365C43.9225 16.895 43.3645 18.4234 43.3645 18.433C43.3645 18.4425 44.6156 18.4504 46.1448 18.4504C47.6739 18.4504 48.9251 18.4475 48.9251 18.4439ZM53.9561 24.3697V24.0766L57.3471 19.415L60.738 14.7535L57.6679 14.7433L54.5977 14.7331L54.5924 13.954L54.587 13.1749H59.0276H63.4682V13.4381V13.7012L60.0768 18.3882C58.2116 20.966 56.6855 23.0795 56.6855 23.0848C56.6855 23.0901 58.1932 23.0944 60.0361 23.0944H63.3867V23.8786V24.6628H58.6714H53.9561V24.3697ZM78.8396 24.6492C78.8321 24.6417 78.826 22.057 78.826 18.9053V13.1749H79.7528H80.6795V14.3563C80.6795 15.0061 80.6874 15.5377 80.6971 15.5377C80.7067 15.5377 80.7519 15.4313 80.7973 15.3013C81.0057 14.7057 81.367 14.1491 81.8326 13.7067C82.252 13.3082 82.7313 13.0699 83.2969 12.9787C83.4558 12.9531 83.5902 12.9482 83.9079 12.9564C84.307 12.9668 84.5156 12.996 84.7583 13.0753L84.8347 13.1003V14.0623V15.0243L84.6157 14.9146C84.229 14.721 83.8473 14.6444 83.3885 14.6683C83.09 14.6838 82.894 14.7221 82.6553 14.8117C82.1641 14.9961 81.7658 15.3214 81.4874 15.7655C81.0844 16.4084 80.797 17.2348 80.7122 17.9944C80.697 18.1307 80.688 19.2408 80.6844 21.4293L80.6792 24.6628H79.7662C79.264 24.6628 78.847 24.6567 78.8396 24.6492ZM0 24.6089C0 24.6017 2.04077 21.0591 4.53504 16.7365L9.07007 8.87719L14.3551 4.44196C17.2619 2.00258 19.648 0.0037456 19.6576 0.000100201C19.6672 -0.00354447 19.6289 0.0926961 19.5726 0.213969C19.5163 0.335242 16.9338 5.87438 13.8338 12.5232L8.19732 24.6118L4.09866 24.617C1.8444 24.6198 0 24.6162 0 24.6089Z" fill="white"/>
</g>
</svg>
