<svg width="100%" height="100%" overflow="visible" style="display: block;" viewBox="0 0 121.56 18.4649" fill="none" xmlns="http://www.w3.org/2000/svg">
<g id="Group">
<path id="Vector" d="M17.6295 13.6728V10.4195L17.2778 10.1996L8.83676 14.8159L0.835315 10.4195V8.52901L8.83676 12.8814L17.6735 8.08937V4.88L17.3218 4.66018L8.83676 9.32036L1.14306 5.09982L8.83676 0.879279L15.0357 4.2645L15.5193 4.00072V3.64901L8.83676 0L0 4.79207V5.27568L8.83676 10.1117L16.8382 5.71532V7.64973L8.83676 12.0461L0.351712 7.38595L0 7.60577V10.8591L8.83676 15.6512L16.8382 11.2987V13.1892L8.83676 17.5856L0.351712 12.9694L0 13.1892V13.6728L8.83676 18.4649L17.6295 13.6728Z" fill="var(--fill-0, #FF3621)"/>
<path id="Vector_2" fill-rule="evenodd" clip-rule="evenodd" d="M34.4238 0.965987V15.7818H32.0497V14.6827C32.0497 14.5948 32.0058 14.5069 31.9178 14.5069C31.8299 14.4629 31.742 14.5069 31.698 14.5509C30.8627 15.4741 29.6317 16.0456 28.2688 16.0456C26.862 16.0456 25.5431 15.4741 24.5759 14.5069C23.6086 13.4957 23.0811 12.1328 23.0811 10.6381C23.0811 7.60455 25.3672 5.23049 28.2688 5.23049C29.6317 5.23049 30.9067 5.75806 31.698 6.63734C31.742 6.6813 31.8299 6.72527 31.9178 6.6813C32.0058 6.63734 32.0497 6.59337 32.0497 6.50545V0.965987H34.4238ZM25.4551 10.6381C25.4551 12.5285 26.9059 13.9793 28.7964 13.9793C30.6868 13.9793 32.1377 12.5285 32.1377 10.6381C32.1377 8.74761 30.6868 7.2968 28.7964 7.2968C26.9499 7.2968 25.4551 8.74761 25.4551 10.6381Z" fill="white"/>
<path id="Vector_3" fill-rule="evenodd" clip-rule="evenodd" d="M46.9971 5.45168V15.7832H44.667V14.6841C44.667 14.5962 44.6231 14.5083 44.5352 14.5083C44.4472 14.4643 44.3593 14.5083 44.3153 14.5522C43.48 15.5194 42.249 16.047 40.8861 16.047C37.9845 16.047 35.6984 13.6729 35.6984 10.6394C35.6984 7.60592 37.9845 5.23186 40.8861 5.23186C42.293 5.23186 43.524 5.71547 44.3153 6.63871C44.3593 6.68268 44.4472 6.72664 44.5352 6.68268C44.6231 6.63871 44.667 6.59475 44.667 6.50682V5.45168H46.9971ZM38.0724 10.6394C38.0724 12.5299 39.5233 13.9807 41.4137 13.9807C43.3042 13.9807 44.755 12.5299 44.755 10.6394C44.755 8.74898 43.3042 7.29817 41.4137 7.29817C39.5672 7.29817 38.0724 8.74898 38.0724 10.6394Z" fill="white"/>
<path id="Vector_4" fill-rule="evenodd" clip-rule="evenodd" d="M66.9999 5.45168V15.7832H64.6698V14.6841C64.6698 14.5962 64.6258 14.5083 64.5379 14.5083C64.45 14.4643 64.362 14.5083 64.3181 14.5522C63.4828 15.5194 62.2518 16.047 60.8889 16.047C57.9873 16.047 55.7011 13.6729 55.7011 10.6394C55.7011 7.60592 57.9873 5.23186 60.8889 5.23186C62.2957 5.23186 63.5267 5.71547 64.3181 6.63871C64.362 6.68268 64.45 6.72664 64.5379 6.68268C64.6258 6.63871 64.6698 6.59475 64.6698 6.50682V5.45168H66.9999ZM58.0752 10.6394C58.0752 12.5299 59.526 13.9807 61.4165 13.9807C63.3069 13.9807 64.7577 12.5299 64.7577 10.6394C64.7577 8.74898 63.3069 7.29817 61.4165 7.29817C59.526 7.29817 58.0752 8.74898 58.0752 10.6394Z" fill="white"/>
<path id="Vector_5" fill-rule="evenodd" clip-rule="evenodd" d="M71.3966 14.5509C71.3526 14.5509 71.3527 14.5509 71.3087 14.5509C71.2208 14.5948 71.1768 14.6388 71.1768 14.7267V15.7818H68.8027V0.965987H71.1768V6.54941C71.1768 6.63734 71.2208 6.72527 71.3087 6.72527C71.3966 6.76923 71.4845 6.72527 71.5285 6.6813C72.3638 5.75806 73.5948 5.18653 74.9577 5.18653C76.3645 5.18653 77.6835 5.75806 78.6507 6.72527C79.6179 7.73644 80.1454 9.09932 80.1454 10.5941C80.1454 13.6276 77.8593 16.0017 74.9577 16.0017C73.5948 16.0017 72.3199 15.4741 71.5285 14.5948C71.4845 14.5948 71.4406 14.5509 71.3966 14.5509ZM74.4301 7.2968C72.5397 7.2968 71.0889 8.74761 71.0889 10.6381C71.0889 12.5285 72.5397 13.9793 74.4301 13.9793C76.3206 13.9793 77.7714 12.5285 77.7714 10.6381C77.7714 8.74761 76.2766 7.2968 74.4301 7.2968Z" fill="white"/>
<path id="Vector_6" d="M86.9618 7.56196C87.1816 7.56196 87.4014 7.56195 87.5333 7.60592V5.27583C87.4454 5.27583 87.3135 5.23186 87.1376 5.23186C85.9066 5.23186 84.7636 5.84736 84.192 6.81457C84.1481 6.9025 84.0601 6.94646 83.9722 6.9025C83.8843 6.85853 83.8403 6.81457 83.8403 6.72664V5.45168H81.5102V15.7832H83.8843V11.2549C83.7964 8.9688 85.0273 7.56196 86.9618 7.56196Z" fill="white"/>
<path id="Vector_7" d="M91.3573 5.4534H88.9832V15.7849H91.3573V5.4534Z" fill="white"/>
<path id="Vector_8" d="M90.1713 0.965987C89.3799 0.965987 88.7205 1.58148 88.7205 2.37283C88.7205 3.16419 89.3799 3.77968 90.1713 3.77968C90.9626 3.77968 91.6221 3.16419 91.6221 2.37283C91.6221 1.62545 90.9626 0.965987 90.1713 0.965987Z" fill="white"/>
<path id="Vector_9" d="M98.3922 5.23186C95.1389 5.23186 92.7648 7.51799 92.7648 10.6394C92.7648 12.1782 93.3364 13.5411 94.3475 14.5083C95.3587 15.4755 96.8095 16.047 98.3922 16.047C99.7111 16.047 100.766 15.7832 102.701 14.4203L101.382 13.0575C100.415 13.6729 99.5353 13.9807 98.656 13.9807C96.6776 13.9807 95.1828 12.5299 95.1828 10.6394C95.1828 8.74898 96.6776 7.29817 98.656 7.29817C99.5792 7.29817 100.459 7.60592 101.338 8.22141L102.833 6.85853C101.03 5.36376 99.4473 5.23186 98.3922 5.23186Z" fill="white"/>
<path id="Vector_10" d="M106.79 11.2536C106.834 11.2096 106.878 11.2096 106.922 11.2096C106.966 11.2096 107.009 11.2536 107.053 11.2975L110.834 15.8258H113.736L108.856 10.1105C108.768 10.0226 108.812 9.93463 108.856 9.84671L113.34 5.49427H110.483L106.614 9.23121C106.57 9.27518 106.482 9.31914 106.394 9.27518C106.306 9.23121 106.262 9.18725 106.262 9.09932V0.965987H103.888V15.7818H106.262V11.7811C106.262 11.7372 106.306 11.6932 106.306 11.6492L106.79 11.2536Z" fill="white"/>
<path id="Vector_11" d="M117.647 16.047C119.581 16.047 121.56 14.9039 121.56 12.7497C121.56 11.3429 120.637 10.3756 118.746 9.76015L117.471 9.36448C116.592 9.10069 116.196 8.70502 116.196 8.13349C116.196 7.51799 116.768 7.07835 117.603 7.07835C118.394 7.07835 119.098 7.56196 119.538 8.44123L121.428 7.47403C120.725 6.06718 119.274 5.23186 117.603 5.23186C115.493 5.23186 113.954 6.55078 113.954 8.35331C113.954 9.80412 114.833 10.7713 116.636 11.2989L117.955 11.6946C118.878 11.9584 119.274 12.3101 119.274 12.9256C119.274 13.8048 118.438 14.1126 117.735 14.1126C116.768 14.1126 115.932 13.4971 115.493 12.5299L113.558 13.4971C114.174 15.0798 115.757 16.047 117.647 16.047Z" fill="white"/>
<path id="Vector_12" d="M53.5474 15.9603C54.2948 15.9603 54.9543 15.9163 55.3499 15.8284V13.85C55.0422 13.894 54.5146 13.9379 54.1629 13.9379C53.1957 13.9379 52.4923 13.7621 52.4923 11.7837V7.56316C52.4923 7.47523 52.5802 7.3873 52.7121 7.3873H54.9982V5.54082H52.7121C52.5802 5.54082 52.4923 5.45289 52.4923 5.36496V2.28748H50.1622V5.27703C50.1622 5.36496 50.0743 5.45289 49.9424 5.45289H48.3157V7.29937H49.9424C50.0743 7.29937 50.1622 7.3873 50.1622 7.47523V12.2673C50.1182 15.9603 52.6242 15.9603 53.5474 15.9603Z" fill="white"/>
</g>
</svg>
