<svg width="100%" height="100%" overflow="visible" style="display: block;" viewBox="0 0 99.9945 21.448" fill="none" xmlns="http://www.w3.org/2000/svg">
<g id="Group">
<path id="Vector" d="M26.7225 8.808C26.0585 8.36 24.3065 8.168 23.0345 8.512C22.9625 7.248 22.3145 6.176 21.1145 5.248L20.6745 4.952L20.3785 5.4C19.8025 6.28 19.5545 7.456 19.6425 8.52C19.7065 9.176 19.9385 9.912 20.3785 10.448C18.7225 11.408 17.1945 11.192 10.4345 11.192H0.00253394C-0.0294661 12.72 0.218534 15.656 2.08253 18.04C2.29053 18.304 2.51453 18.56 2.76253 18.808C4.28253 20.328 6.57053 21.44 10.0025 21.448C15.2345 21.448 19.7145 18.624 22.4425 11.784C23.3385 11.8 25.7065 11.944 26.8665 9.704C26.8985 9.664 27.1625 9.112 27.1625 9.112L26.7225 8.816V8.808ZM6.81853 7.416H3.88253V10.352H6.81853V7.416ZM10.6105 7.416H7.67453V10.352H10.6105V7.416ZM14.3945 7.416H11.4585V10.352H14.3945V7.416ZM18.1865 7.416H15.2505V10.352H18.1865V7.416ZM3.02653 7.416H0.0905339V10.352H3.02653V7.416ZM6.81853 3.704H3.88253V6.64H6.81853V3.704ZM10.6105 3.704H7.67453V6.64H10.6105V3.704ZM14.3945 3.704H11.4585V6.64H14.3945V3.704ZM14.3945 0H11.4585V2.936H14.3945V0Z" fill="white"/>
<path id="Vector_2" d="M35.9305 18.4079C33.2745 18.4079 31.1145 16.3359 31.1145 12.9279C31.1145 9.51995 33.2905 7.46395 35.9465 7.46395C38.6025 7.46395 39.1945 8.80795 39.3785 9.12795V3.23995H42.6665V18.1839H39.4185V16.6399C39.2185 16.9839 38.1625 18.4079 35.9225 18.4079H35.9305ZM36.9465 10.2639C35.4265 10.2639 34.4505 11.3999 34.4505 12.9199C34.4505 14.4399 35.4265 15.5759 36.9465 15.5759C38.4665 15.5759 39.4265 14.4559 39.4265 12.9199C39.4265 11.3839 38.4505 10.2639 36.9465 10.2639Z" fill="white"/>
<path id="Vector_3" d="M55.4025 12.9281C55.4025 16.1761 52.9225 18.4481 49.6345 18.4481C46.3465 18.4481 43.8665 16.1761 43.8665 12.9281C43.8665 9.6801 46.3225 7.4001 49.6345 7.4001C52.9465 7.4001 55.4025 9.6561 55.4025 12.9281ZM52.0905 12.9281C52.0905 11.4241 51.1145 10.2721 49.6345 10.2721C48.1545 10.2721 47.1545 11.4321 47.1545 12.9281C47.1545 14.4241 48.1465 15.5841 49.6345 15.5841C51.1225 15.5841 52.0905 14.4241 52.0905 12.9281Z" fill="white"/>
<path id="Vector_4" d="M61.5386 10.2641C60.1786 10.2641 59.2826 11.4241 59.2826 12.9201C59.2826 14.4161 60.1786 15.6001 61.5546 15.6001C62.9306 15.6001 63.4266 14.7681 63.5466 14.5281H66.7146C66.5946 15.9921 65.1946 18.4481 61.4746 18.4481C57.7546 18.4481 55.9706 16.2721 55.9706 12.9281C55.9706 9.5841 58.3706 7.4001 61.4346 7.4001C64.4986 7.4001 66.5546 9.8161 66.7146 11.3441H63.5066C63.3466 11.0561 62.8186 10.2721 61.5386 10.2721V10.2641Z" fill="white"/>
<path id="Vector_5" d="M67.7866 3.23995H71.0746V11.7919L75.2746 7.67195H79.4186L74.3866 12.5279L79.6826 18.1919H75.3946L71.0666 13.5039V18.1919H67.7786V3.23995H67.7866Z" fill="white"/>
<path id="Vector_6" d="M90.1305 12.9841V13.5521H82.1305C82.2905 14.8721 83.2905 15.8641 84.7305 15.8641C86.1705 15.8641 86.6185 15.2721 86.7625 15.0561H90.0345C89.8745 16.3121 88.3705 18.4481 84.7385 18.4481C81.1065 18.4481 78.8905 16.1361 78.8905 12.9201C78.8905 9.70411 81.2025 7.39211 84.5145 7.39211C87.8265 7.39211 90.1385 9.54411 90.1385 12.9761L90.1305 12.9841ZM82.1865 11.5441H86.8185C86.5385 10.4481 85.6825 9.80011 84.5065 9.80011C83.3305 9.80011 82.4745 10.4721 82.1945 11.5441H82.1865Z" fill="white"/>
<path id="Vector_7" d="M94.5545 18.184H91.2665V7.66402H94.5545V9.31202C94.7785 8.82402 95.5465 7.64802 97.7385 7.64802H99.9945V10.896H97.1145C95.2665 10.896 94.5545 11.584 94.5545 13.048V18.184Z" fill="white"/>
</g>
</svg>
