<svg width="100%" height="100%" overflow="visible" style="display: block;" viewBox="0 0 142 33.8019" fill="none" xmlns="http://www.w3.org/2000/svg">
<g id="Group">
<g id="symbol">
<path id="Path" d="M28.758 25.7611L21.6767 21.6389C20.6818 21.0617 19.4097 21.405 18.8339 22.4074C18.6108 22.8023 18.5234 23.2367 18.5656 23.659V31.715C18.5656 32.8663 19.4941 33.8019 20.6396 33.8019C21.7822 33.8019 22.7107 32.8663 22.7107 31.715V27.0825L26.6779 29.3912C27.6727 29.9714 28.9479 29.6251 29.5207 28.6226C30.0964 27.6202 29.7558 26.3382 28.758 25.7611Z" fill="var(--fill-0, #29B5E8)"/>
<path id="Path2" d="M11.1466 16.9292C11.1586 16.185 10.7697 15.4924 10.1306 15.1187L3.04933 10.9996C2.74184 10.8204 2.38913 10.7262 2.03642 10.7262C1.3099 10.7262 0.634632 11.1181 0.272879 11.7499C-0.287837 12.728 0.046784 13.9826 1.01749 14.5476L5.09926 16.9201L1.01749 19.2956C0.547208 19.569 0.209572 20.0095 0.0709008 20.538C-0.0707859 21.0666 0.00156471 21.6194 0.272879 22.0933C0.634632 22.7252 1.3099 23.117 2.03341 23.117C2.38913 23.117 2.74184 23.0229 3.04933 22.8436L10.1306 18.7245C10.7637 18.3539 11.1526 17.6674 11.1466 16.9292Z" fill="var(--fill-0, #29B5E8)"/>
<path id="Path3" d="M4.65748 8.08033L11.7388 12.1995C12.5648 12.6825 13.5837 12.5245 14.2349 11.8836C14.6479 11.5008 14.9041 10.954 14.9041 10.3465V2.08995C14.9041 0.935617 13.9756 0 12.8331 0C11.6875 0 10.759 0.935617 10.759 2.08995V6.7893L6.73756 4.45026C5.74274 3.87005 4.47057 4.21332 3.89478 5.21576C3.31899 6.21821 3.66266 7.50013 4.65748 8.08033Z" fill="var(--fill-0, #29B5E8)"/>
<path id="Combined-Shape" d="M20.5794 17.2618C20.5794 17.4198 20.489 17.6385 20.3775 17.7539L17.5709 20.5821C17.4593 20.6945 17.2393 20.7856 17.0825 20.7856H16.368C16.2113 20.7856 15.9912 20.6945 15.8797 20.5821L13.0701 17.7539C12.9585 17.6385 12.8681 17.4198 12.8681 17.2618V16.5419C12.8681 16.3809 12.9585 16.1622 13.0701 16.0498L15.8797 13.2186C15.9912 13.1062 16.2113 13.0151 16.368 13.0151H17.0825C17.2393 13.0151 17.4593 13.1062 17.5709 13.2186L20.3775 16.0498C20.489 16.1622 20.5794 16.3809 20.5794 16.5419V17.2618ZM18.0743 16.9155V16.8852C18.0743 16.7697 18.008 16.6087 17.9266 16.5237L17.0976 15.6913C17.0162 15.6063 16.8564 15.5395 16.7388 15.5395H16.7087C16.5941 15.5395 16.4344 15.6063 16.35 15.6913L15.5239 16.5237C15.4426 16.6057 15.3762 16.7667 15.3762 16.8852V16.9155C15.3762 17.034 15.4426 17.195 15.5239 17.277L16.35 18.1124C16.4344 18.1944 16.5941 18.2612 16.7087 18.2612H16.7388C16.8564 18.2612 17.0162 18.1944 17.0976 18.1124L17.9266 17.277C18.008 17.195 18.0743 17.034 18.0743 16.9155Z" fill="var(--fill-0, #29B5E8)"/>
<path id="Path4" d="M21.6758 12.1995L28.7571 8.08033C29.752 7.50317 30.0956 6.21821 29.5198 5.21576C28.944 4.21332 27.6719 3.87005 26.6771 4.45026L22.7098 6.75892V2.08995C22.7098 0.935617 21.7813 0 20.6388 0C19.4932 0 18.5648 0.935617 18.5648 2.08995V10.1824C18.5256 10.6016 18.607 11.0391 18.8331 11.434C19.4088 12.4364 20.681 12.7797 21.6758 12.1995Z" fill="var(--fill-0, #29B5E8)"/>
<path id="Path5" d="M13.1587 21.3958C12.6884 21.3047 12.185 21.3806 11.7388 21.6388L4.65748 25.761C3.66266 26.3382 3.31899 27.6201 3.89478 28.6225C4.47057 29.628 5.74274 29.9713 6.73756 29.3911L10.759 27.052V31.7149C10.759 32.8662 11.6875 33.8018 12.8331 33.8018C13.9756 33.8018 14.9041 32.8662 14.9041 31.7149V23.4584C14.9041 22.4165 14.1475 21.5537 13.1587 21.3958Z" fill="var(--fill-0, #29B5E8)"/>
<path id="Path6" d="M33.182 11.7234C32.6092 10.7179 31.334 10.3746 30.3392 10.9548L23.2579 15.074C22.5796 15.4689 22.2058 16.1918 22.2179 16.927C22.2118 17.6591 22.5856 18.3729 23.2579 18.7618L30.3392 22.8839C31.334 23.4611 32.6062 23.1178 33.182 22.1154C33.7578 21.113 33.4141 19.831 32.4193 19.2508L28.4099 16.9179L32.4193 14.5849C33.4171 14.0077 33.7578 12.7258 33.182 11.7234Z" fill="var(--fill-0, #29B5E8)"/>
</g>
<path id="Combined-Shape2" d="M142 16.436V16.4391V16.515C142 16.9038 141.678 17.1924 141.28 17.1924H131.332C131.35 17.4293 131.38 17.6602 131.428 17.888C131.889 20.06 133.734 21.6761 135.926 21.6943C135.932 21.6943 136.043 21.6943 136.215 21.6943C136.242 21.6943 136.27 21.6943 136.297 21.6943H136.505C136.55 21.6943 136.595 21.6943 136.643 21.6913C136.686 21.6913 136.728 21.6882 136.77 21.6852C136.773 21.6852 136.776 21.6852 136.779 21.6822C137.506 21.6244 138.238 21.3298 138.892 20.8559C138.892 20.8559 138.892 20.8559 138.895 20.8559C138.928 20.8316 138.965 20.8043 138.998 20.7769C139.004 20.7739 139.01 20.7678 139.019 20.7617C139.046 20.7405 139.076 20.7162 139.106 20.6919C139.118 20.6827 139.127 20.6736 139.139 20.6645C139.164 20.6463 139.188 20.625 139.212 20.6038C139.227 20.5916 139.245 20.5764 139.26 20.5643C139.278 20.546 139.296 20.5278 139.317 20.5126C139.335 20.4944 139.357 20.4762 139.375 20.458C139.39 20.4458 139.405 20.4306 139.42 20.4154C139.444 20.3942 139.465 20.3729 139.489 20.3516C139.501 20.3395 139.513 20.3243 139.525 20.3121C139.549 20.2878 139.574 20.2635 139.598 20.2392C139.61 20.2271 139.619 20.218 139.631 20.2058C139.655 20.1785 139.679 20.1511 139.703 20.1238C139.715 20.1147 139.724 20.1025 139.733 20.0904C139.76 20.0631 139.785 20.0357 139.809 20.0084C139.818 19.9962 139.83 19.9841 139.839 19.9719C139.863 19.9415 139.884 19.9142 139.908 19.8869C139.92 19.8717 139.932 19.8565 139.944 19.8413C139.965 19.814 139.987 19.7897 140.005 19.7654C140.023 19.7411 140.038 19.7198 140.053 19.6985C140.068 19.6773 140.083 19.659 140.098 19.6378C140.122 19.6044 140.146 19.5709 140.167 19.5375C140.176 19.5254 140.183 19.5163 140.189 19.5071C140.249 19.4191 140.306 19.3279 140.363 19.2338C140.363 19.2338 140.363 19.2307 140.366 19.2277C140.378 19.2064 140.394 19.1882 140.409 19.1669C140.415 19.1578 140.421 19.1487 140.43 19.1426C140.439 19.1274 140.451 19.1183 140.46 19.1062C140.469 19.0971 140.478 19.0879 140.487 19.0788C140.499 19.0697 140.508 19.0606 140.52 19.0515C140.529 19.0424 140.538 19.0333 140.55 19.0272C140.565 19.015 140.583 19.0029 140.602 18.9938C140.614 18.9847 140.629 18.9755 140.641 18.9695C140.656 18.9634 140.668 18.9573 140.68 18.9512C140.692 18.9452 140.704 18.9421 140.713 18.9361C140.731 18.93 140.746 18.9269 140.764 18.9209C140.773 18.9178 140.779 18.9148 140.788 18.9118C140.846 18.8996 140.906 18.8905 140.963 18.8905C141.027 18.8905 141.093 18.8996 141.153 18.9178C141.156 18.9178 141.156 18.9178 141.159 18.9178C141.183 18.9269 141.21 18.933 141.235 18.9452C141.241 18.9482 141.247 18.9482 141.253 18.9512C141.28 18.9634 141.304 18.9755 141.328 18.9907L141.34 18.9968C141.672 19.2398 141.774 19.6651 141.572 20.0144L141.569 20.0175C141.545 20.057 141.521 20.0965 141.497 20.1329C141.491 20.142 141.485 20.1511 141.479 20.1603C140.773 21.2417 139.815 22.1044 138.745 22.6208C138.72 22.6299 138.699 22.6421 138.675 22.6542C138.672 22.6542 138.666 22.6573 138.663 22.6573C138.169 22.8881 137.638 23.0491 137.071 23.116C137.059 23.116 137.047 23.119 137.035 23.119C136.987 23.1251 136.939 23.1311 136.891 23.1342C136.863 23.1342 136.836 23.1372 136.806 23.1403C136.773 23.1403 136.737 23.1433 136.704 23.1463C136.637 23.1463 136.571 23.1494 136.505 23.1494C136.496 23.1494 136.245 23.1494 136.077 23.1494C135.98 23.1494 135.926 23.1494 135.92 23.1494C132.574 23.1251 129.879 20.3121 129.879 16.8674C129.879 13.3649 132.592 10.5368 135.965 10.5368C136.065 10.5368 136.164 10.5398 136.264 10.5428C137.439 10.6036 138.524 11.0076 139.426 11.6698C139.429 11.6729 139.432 11.6759 139.435 11.6759C139.486 11.7124 139.534 11.7519 139.583 11.7883C139.607 11.8096 139.634 11.8308 139.661 11.8521C139.685 11.8703 139.709 11.8916 139.733 11.9098C141.002 12.9761 141.859 14.5769 142 16.4299V16.436ZM131.428 15.7616H140.433C139.987 13.5745 138.121 11.9918 135.965 11.9918C133.77 11.9918 131.919 13.5441 131.428 15.7616Z" fill="var(--fill-0, #29B5E8)"/>
<path id="Combined-Shape3" d="M116.566 10.7494C116.678 10.8618 116.753 11.0137 116.771 11.1899C116.771 11.2142 116.774 11.2385 116.774 11.2628V22.4203C116.774 22.8183 116.443 23.1494 116.051 23.1494C115.659 23.1494 115.33 22.8183 115.33 22.4203V20.9379C115.056 21.2721 114.754 21.5758 114.426 21.8401C114.417 21.8492 114.408 21.8553 114.399 21.8644C114.368 21.8887 114.335 21.913 114.305 21.9343C113.31 22.7059 112.101 23.1494 110.838 23.1494C108.804 23.1494 107.013 22.0588 105.946 20.4063C105.937 20.3942 105.925 20.379 105.916 20.3668C105.885 20.3152 105.855 20.2635 105.822 20.2089C105.801 20.1754 105.783 20.142 105.762 20.1086C105.741 20.0752 105.723 20.0388 105.704 20.0023C105.674 19.9507 105.644 19.896 105.617 19.8443C105.608 19.8261 105.602 19.8079 105.593 19.7897C105.198 18.9999 104.954 18.1098 104.912 17.1651C104.906 17.0587 104.903 16.9524 104.903 16.8431C104.903 16.7337 104.906 16.6274 104.912 16.5211C104.954 15.5763 105.198 14.6863 105.593 13.8934C105.602 13.8783 105.608 13.86 105.617 13.8418C105.644 13.7902 105.674 13.7355 105.704 13.6838C105.723 13.6474 105.741 13.6109 105.762 13.5775C105.78 13.5441 105.801 13.5107 105.822 13.4773C105.852 13.4256 105.885 13.371 105.916 13.3193C105.925 13.3072 105.937 13.292 105.946 13.2798C107.013 11.6273 108.804 10.5368 110.838 10.5368C112.213 10.5368 113.512 11.0441 114.546 11.928C114.83 12.168 115.092 12.4323 115.33 12.7239V11.2628C115.33 11.2385 115.33 11.2142 115.333 11.1899C115.351 11.0137 115.427 10.8618 115.538 10.7494C115.538 10.7494 115.538 10.7494 115.538 10.7464C115.55 10.7342 115.565 10.7251 115.577 10.713C115.58 10.7099 115.586 10.7038 115.589 10.7008C115.598 10.6917 115.61 10.6856 115.62 10.6795C115.629 10.6735 115.638 10.6643 115.647 10.6583C115.653 10.6552 115.659 10.6522 115.665 10.6461C115.68 10.64 115.692 10.6309 115.707 10.6218C115.71 10.6218 115.713 10.6188 115.716 10.6188C115.734 10.6097 115.752 10.6006 115.77 10.5914C115.77 10.5914 115.77 10.5914 115.773 10.5914C115.815 10.5732 115.861 10.5611 115.906 10.552C115.909 10.552 115.915 10.5489 115.918 10.5489C115.936 10.5459 115.957 10.5428 115.978 10.5398C116.002 10.5398 116.027 10.5368 116.051 10.5368C116.078 10.5368 116.102 10.5398 116.126 10.5398C116.147 10.5428 116.165 10.5459 116.186 10.5489C116.189 10.5489 116.192 10.552 116.198 10.552C116.244 10.5611 116.289 10.5732 116.331 10.5914H116.334C116.352 10.6006 116.37 10.6097 116.385 10.6188C116.391 10.6188 116.394 10.6218 116.397 10.6218C116.409 10.6309 116.424 10.64 116.436 10.6461C116.443 10.6522 116.452 10.6552 116.458 10.6583C116.467 10.6643 116.476 10.6735 116.485 10.6795C116.494 10.6856 116.503 10.6917 116.512 10.7008C116.518 10.7038 116.521 10.7099 116.527 10.713C116.539 10.7251 116.554 10.7342 116.563 10.7464C116.566 10.7494 116.566 10.7494 116.566 10.7494ZM110.838 21.6943C113.313 21.6943 115.33 19.5193 115.33 16.8431C115.33 14.1547 113.313 11.9675 110.838 11.9675C108.381 11.9675 106.347 14.1517 106.347 16.8431C106.347 16.9281 106.35 17.0101 106.353 17.0922C106.353 17.1286 106.359 17.162 106.359 17.1954C106.362 17.244 106.365 17.2927 106.371 17.3382C106.374 17.3777 106.38 17.4142 106.383 17.4506C106.389 17.4931 106.392 17.5387 106.398 17.5812C106.404 17.6147 106.41 17.645 106.413 17.6754C106.422 17.724 106.428 17.7726 106.437 17.8212C106.443 17.8455 106.449 17.8668 106.452 17.888C106.464 17.9458 106.476 18.0004 106.488 18.0582C106.491 18.0703 106.494 18.0825 106.5 18.0946C107.013 20.1724 108.773 21.6943 110.838 21.6943Z" fill="var(--fill-0, #29B5E8)"/>
<path id="Path7" d="M98.4453 5.27538H98.2494C98.2252 5.27538 98.1981 5.27538 98.174 5.27842C98.1469 5.27538 98.1227 5.27538 98.0956 5.27538C98.0263 5.27538 97.9569 5.27538 97.8876 5.27842C97.8756 5.27842 97.8605 5.28146 97.8484 5.28146C97.7942 5.28146 97.7399 5.28449 97.6856 5.29057C97.6766 5.29057 97.6645 5.29057 97.6555 5.29057C97.5982 5.29664 97.5439 5.29968 97.4897 5.30576C97.4837 5.30879 97.4776 5.30879 97.4716 5.30879C97.4113 5.31791 97.354 5.32398 97.2998 5.3331C97.2967 5.3331 97.2937 5.3331 97.2937 5.3331C96.929 5.39081 96.6004 5.49409 96.308 5.63991C96.308 5.64294 96.3049 5.64294 96.3019 5.64294C96.2597 5.66724 96.2145 5.69155 96.1723 5.71585C96.1633 5.71889 96.1572 5.72496 96.1482 5.73104C96.112 5.7523 96.0758 5.77356 96.0397 5.79787C96.0246 5.80698 96.0125 5.81913 96.0005 5.82824C95.9703 5.84647 95.9432 5.86773 95.913 5.889C95.8919 5.90722 95.8708 5.92545 95.8497 5.94064C95.8317 5.95583 95.8136 5.97102 95.7955 5.98621C95.7623 6.01658 95.7322 6.04392 95.702 6.0743C95.696 6.08037 95.69 6.08645 95.6839 6.09253C95.6478 6.13202 95.6116 6.16847 95.5754 6.20796C95.5694 6.21707 95.5634 6.22618 95.5573 6.23226C95.5272 6.26568 95.497 6.29909 95.4699 6.33251C95.4609 6.34769 95.4488 6.36288 95.4398 6.37807C95.4156 6.40845 95.3945 6.43579 95.3734 6.46617C95.3674 6.47832 95.3614 6.48743 95.3523 6.49654C95.3282 6.533 95.3041 6.56945 95.283 6.6059C95.28 6.61198 95.277 6.61501 95.2739 6.62109C95.078 6.94612 94.9393 7.32888 94.8519 7.79061C94.8519 7.79669 94.8519 7.8058 94.8489 7.81187C94.8368 7.86959 94.8278 7.93035 94.8187 7.9911C94.8157 8.00933 94.8127 8.02755 94.8127 8.04578C94.8037 8.09742 94.7976 8.14906 94.7916 8.20374C94.7886 8.23412 94.7856 8.26449 94.7826 8.29791C94.7765 8.34044 94.7705 8.37993 94.7675 8.42549C94.7645 8.47106 94.7615 8.51663 94.7584 8.56523C94.7554 8.59561 94.7554 8.62598 94.7524 8.6594C94.7494 8.72319 94.7464 8.79002 94.7434 8.85685C94.7434 8.87508 94.7404 8.88723 94.7404 8.90242C94.7373 8.98747 94.7373 9.07557 94.7373 9.16062V10.3605H93.2361C93.1426 10.3575 93.0492 10.3757 92.9648 10.4061C92.6934 10.5063 92.5005 10.7645 92.5005 11.0653C92.5005 11.3478 92.6392 11.5878 92.8562 11.7275C92.9648 11.7974 93.0914 11.8399 93.23 11.846H93.2361V11.849H94.7373V22.4446C94.7343 22.4598 94.7373 22.4719 94.7373 22.4871C94.7373 22.4962 94.7373 22.5053 94.7373 22.5144C94.7464 22.6845 94.8157 22.8395 94.9273 22.9579L94.9303 22.961C94.9454 22.9762 94.9634 22.9914 94.9785 23.0065C94.9815 23.0096 94.9845 23.0096 94.9876 23.0126C94.9996 23.0248 95.0147 23.0339 95.0267 23.043C95.0328 23.0491 95.0418 23.0551 95.0479 23.0582C95.0539 23.0643 95.0599 23.0673 95.069 23.0703C95.1865 23.1463 95.3252 23.1888 95.4729 23.1888C95.497 23.1888 95.5211 23.1858 95.5422 23.1827C95.6839 23.1706 95.8136 23.1098 95.9191 23.0217L95.9221 23.0187C95.9372 23.0065 95.9492 22.9944 95.9613 22.9792C95.9643 22.9762 95.9703 22.9731 95.9733 22.9701C95.9854 22.9579 95.9944 22.9458 96.0035 22.9367C96.118 22.7969 96.1813 22.6238 96.1723 22.4446V11.849H97.7881V11.846H97.7942C98.2222 11.8247 98.5358 11.4875 98.5237 11.0683C98.5237 11.0653 98.5237 11.0653 98.5237 11.0622C98.5267 11.047 98.5237 11.0319 98.5237 11.0167C98.5237 11.0106 98.5237 11.0045 98.5237 11.0015C98.5116 10.8405 98.4423 10.6947 98.3338 10.5823C98.3338 10.5823 98.3338 10.5823 98.3338 10.5792C98.3308 10.5792 98.3308 10.5792 98.3308 10.5792C98.3157 10.564 98.3036 10.5519 98.2886 10.5397C98.2825 10.5337 98.2765 10.5306 98.2735 10.5246C98.2614 10.5154 98.2524 10.5094 98.2403 10.5003C98.2313 10.4942 98.2192 10.4851 98.2102 10.479C98.2041 10.476 98.1951 10.4699 98.1891 10.4668C98.174 10.4577 98.1589 10.4486 98.1439 10.4425C98.1408 10.4395 98.1348 10.4365 98.1318 10.4365C98.1137 10.4274 98.0956 10.4182 98.0775 10.4122C98.0745 10.4091 98.0715 10.4091 98.0655 10.4061C98.0474 10.4 98.0293 10.3939 98.0112 10.3879C98.0052 10.3879 97.9992 10.3848 97.9931 10.3848C97.975 10.3818 97.96 10.3757 97.9419 10.3727C97.9328 10.3727 97.9238 10.3727 97.9147 10.3696C97.9027 10.3666 97.8876 10.3666 97.8725 10.3636C97.8605 10.3636 97.8484 10.3636 97.8394 10.3636C97.8303 10.3636 97.8213 10.3605 97.8122 10.3605C97.8032 10.3605 97.7911 10.3605 97.7881 10.3605H96.1723V9.16366C96.1723 9.15455 96.1723 9.14543 96.1723 9.13936C96.1753 9.0786 96.1753 9.01785 96.1783 8.96013C96.1783 8.94494 96.1783 8.92672 96.1813 8.91153C96.1813 8.85989 96.1844 8.80825 96.1874 8.75964C96.1874 8.75053 96.1904 8.73838 96.1904 8.72927C96.1934 8.67155 96.1994 8.61383 96.2055 8.55915C96.2627 7.9668 96.3894 7.59316 96.522 7.36533C96.525 7.35925 96.525 7.35622 96.528 7.35014C96.5371 7.33495 96.5491 7.31976 96.5582 7.30458C96.5642 7.29242 96.5732 7.28027 96.5823 7.26812C96.5853 7.26205 96.5913 7.2499 96.5974 7.24382C96.6124 7.22256 96.6275 7.20433 96.6456 7.18611C96.8355 6.97043 97.1309 6.8398 97.559 6.78816C97.565 6.78816 97.5681 6.78512 97.5771 6.78512C97.6012 6.78209 97.6284 6.77905 97.6525 6.77905C97.6645 6.77601 97.6796 6.77601 97.6917 6.77298C97.7158 6.77298 97.7369 6.76994 97.761 6.76994C97.7791 6.76994 97.7942 6.7669 97.8153 6.7669C97.8364 6.76386 97.8575 6.76386 97.8786 6.76386C97.8997 6.76386 97.9208 6.76082 97.9419 6.76082C97.963 6.76082 97.9841 6.76082 98.0052 6.76082C98.0353 6.76082 98.0655 6.76082 98.0956 6.76082H98.0986C98.1228 6.76082 98.1439 6.75779 98.168 6.75475C98.1951 6.75779 98.2222 6.76082 98.2494 6.76082H98.4453C98.8493 6.76082 99.1809 6.42667 99.1809 6.01658C99.1809 5.60649 98.8493 5.27538 98.4453 5.27538Z" fill="var(--fill-0, #29B5E8)"/>
<path id="Path8" d="M102.334 5.29666C102.334 5.29666 102.331 5.29362 102.328 5.29362C102.313 5.28755 102.301 5.28147 102.283 5.27844C102.277 5.2754 102.268 5.27236 102.259 5.26932C102.247 5.26629 102.235 5.26325 102.223 5.26021C102.211 5.25717 102.198 5.2511 102.189 5.2511C102.174 5.24806 102.162 5.24502 102.147 5.24502C102.135 5.24198 102.126 5.24198 102.114 5.23894C102.09 5.23591 102.063 5.23591 102.039 5.23591C101.647 5.23591 101.315 5.56702 101.315 5.96192V22.4203C101.315 22.8182 101.647 23.1493 102.039 23.1493C102.063 23.1493 102.09 23.1493 102.114 23.1463C102.117 23.1463 102.123 23.1433 102.126 23.1433C102.147 23.1402 102.168 23.1372 102.189 23.1341C102.192 23.1341 102.198 23.1311 102.205 23.1311C102.223 23.125 102.241 23.122 102.259 23.1159C102.262 23.1159 102.265 23.1159 102.268 23.1129C102.545 23.0248 102.75 22.7878 102.78 22.4962C102.783 22.4719 102.786 22.4476 102.786 22.4203V5.96192C102.786 5.93762 102.783 5.91332 102.78 5.88902C102.753 5.6217 102.578 5.39994 102.334 5.29666Z" fill="var(--fill-0, #29B5E8)"/>
<path id="Path9" d="M46.983 19.2763C46.9769 19.2338 46.9769 19.1943 46.9709 19.1548C46.9679 19.1244 46.9649 19.0971 46.9619 19.0697C46.9558 19.0363 46.9528 19.0059 46.9468 18.9725C46.9408 18.9421 46.9347 18.9118 46.9287 18.8783C46.9257 18.854 46.9197 18.8267 46.9136 18.8024C46.9046 18.7659 46.8986 18.7325 46.8895 18.6961C46.8835 18.6779 46.8775 18.6566 46.8714 18.6384C46.8624 18.5989 46.8503 18.5624 46.8353 18.526C46.8322 18.5108 46.8262 18.4956 46.8232 18.4834C46.8081 18.4409 46.7931 18.4014 46.775 18.3589C46.772 18.3528 46.7689 18.3437 46.7659 18.3346C46.7448 18.2921 46.7267 18.2465 46.7056 18.204C46.7026 18.2009 46.7026 18.1979 46.6996 18.1949C46.5278 17.8455 46.2836 17.5539 45.9851 17.3078C45.9851 17.3048 45.9851 17.3048 45.9821 17.3048C45.9399 17.2714 45.8977 17.2349 45.8525 17.2015C45.8525 17.2015 45.8495 17.1985 45.8465 17.1954C45.8435 17.1954 45.8404 17.1924 45.8374 17.1894C45.8103 17.1711 45.7832 17.1499 45.759 17.1317C45.3882 16.8674 44.9783 16.6578 44.3814 16.4269C44.3723 16.4239 44.3633 16.4208 44.3542 16.4178C44.3452 16.4117 44.3331 16.4087 44.3241 16.4026C43.9865 16.275 43.6368 16.1535 43.278 16.035C43.278 16.035 43.278 16.035 43.275 16.035C43.275 16.035 43.272 16.035 43.272 16.032C43.266 16.032 43.2599 16.029 43.2509 16.0259C43.2177 16.0138 43.1816 16.0016 43.1333 15.9864C43.1092 15.9804 43.0911 15.9743 43.073 15.9682C42.9524 15.9257 42.8288 15.8862 42.7052 15.8437C42.6178 15.8133 42.5244 15.7829 42.4128 15.7465C42.3827 15.7373 42.3103 15.713 42.25 15.6948C42.247 15.6948 42.247 15.6918 42.244 15.6918C42.2078 15.6796 42.1717 15.6675 42.1325 15.6553C41.831 15.5581 41.5838 15.4731 41.3728 15.3941C41.0291 15.2665 40.7156 15.1298 40.4594 14.9658C40.4533 14.9627 40.4473 14.9597 40.4443 14.9566C40.0946 14.7319 39.8534 14.4554 39.7962 14.0939L39.7931 14.0909C39.7901 14.0666 39.7871 14.0393 39.7871 14.015C39.7841 14.0089 39.7841 14.0058 39.7841 14.0028C39.7811 13.9724 39.7811 13.9451 39.7811 13.9147C39.7811 13.8722 39.7841 13.8297 39.7871 13.7902C39.7871 13.778 39.7871 13.7689 39.7901 13.7598C39.7931 13.7264 39.7962 13.696 39.7992 13.6656C39.8022 13.6565 39.8022 13.6474 39.8052 13.6383C39.8112 13.6049 39.8173 13.5745 39.8233 13.5411C39.8263 13.538 39.8263 13.532 39.8293 13.5259C39.8384 13.4894 39.8474 13.456 39.8595 13.4226C39.8595 13.4196 39.8595 13.4196 39.8595 13.4196C40.0162 12.9487 40.387 12.5994 40.8241 12.3533C40.8543 12.3381 40.8844 12.3229 40.9116 12.3078C40.9417 12.2926 40.9688 12.2774 40.996 12.2652C41.0412 12.244 41.0864 12.2227 41.1316 12.2045C41.1588 12.1923 41.1829 12.1802 41.21 12.1711C41.2582 12.1528 41.3065 12.1346 41.3547 12.1164C41.3788 12.1073 41.406 12.0982 41.4331 12.089C41.4813 12.0739 41.5265 12.0587 41.5748 12.0465C41.6049 12.0374 41.6321 12.0283 41.6622 12.0222C41.7074 12.0101 41.7526 12.0009 41.7948 11.9888C41.825 11.9827 41.8551 11.9766 41.8853 11.9706C41.9335 11.9615 41.9787 11.9523 42.0209 11.9463C42.0481 11.9432 42.0722 11.9402 42.0993 11.9341C42.1506 11.928 42.2048 11.922 42.2591 11.9189C42.2711 11.9159 42.2832 11.9159 42.2983 11.9129C42.3646 11.9098 42.4309 11.9068 42.4942 11.9068C42.5696 11.9068 42.645 11.9098 42.7173 11.9129C42.7294 11.9129 42.7414 11.9129 42.7505 11.9129C43.2841 11.9463 43.7151 12.0769 44.0709 12.25C44.098 12.2622 44.1251 12.2774 44.1523 12.2895C44.1673 12.2986 44.1824 12.3078 44.1975 12.3138C44.2306 12.3321 44.2638 12.3503 44.3 12.3715C44.306 12.3746 44.312 12.3776 44.3181 12.3807C44.3542 12.4019 44.3904 12.4262 44.4266 12.4475C44.4296 12.4505 44.4326 12.4505 44.4326 12.4505C44.4718 12.4748 44.511 12.5022 44.5502 12.5265C44.5502 12.5295 44.5532 12.5295 44.5532 12.5325C44.5924 12.5568 44.6286 12.5811 44.6647 12.6085C44.6798 12.6206 44.6919 12.6298 44.7069 12.6389C44.7914 12.7027 44.924 12.8059 45.0446 12.9062C45.0597 12.9153 45.0717 12.9244 45.0808 12.9335C45.1712 13.0095 45.2556 13.0763 45.337 13.1371C45.3521 13.1492 45.3641 13.1583 45.3732 13.1644C45.3762 13.1674 45.3792 13.1705 45.3822 13.1705C45.3913 13.1765 45.4003 13.1826 45.4094 13.1887C45.4305 13.2039 45.4546 13.2191 45.4757 13.2343C45.4847 13.2403 45.4938 13.2434 45.5028 13.2494C45.5239 13.2616 45.545 13.2737 45.5661 13.2859C45.5752 13.2889 45.5812 13.292 45.5902 13.295C45.6143 13.3072 45.6354 13.3163 45.6596 13.3254C45.6656 13.3284 45.6686 13.3284 45.6746 13.3315C45.7018 13.3406 45.7289 13.3497 45.756 13.3527C45.756 13.3527 45.756 13.3527 45.759 13.3558C45.8193 13.3649 45.8766 13.3679 45.9369 13.3527C45.9429 13.3527 45.949 13.3497 45.955 13.3497C45.9701 13.3467 45.9882 13.3406 46.0032 13.3375C46.0093 13.3345 46.0123 13.3315 46.0183 13.3284C46.0243 13.3284 46.0304 13.3254 46.0364 13.3224C46.0605 13.3102 46.0846 13.2981 46.1087 13.2829C46.1148 13.2829 46.1178 13.2798 46.1208 13.2768C46.1479 13.2586 46.172 13.2403 46.1962 13.2191C46.1992 13.216 46.1992 13.216 46.1992 13.216C46.2203 13.1978 46.2384 13.1765 46.2565 13.1553C46.2685 13.1401 46.2806 13.1219 46.2896 13.1036C46.2926 13.1006 46.2956 13.0976 46.2956 13.0945C46.4223 12.8819 46.3499 12.6024 46.1268 12.2986C46.1238 12.2926 46.1208 12.2865 46.1148 12.2804C46.1057 12.2683 46.0997 12.2592 46.0907 12.247C45.5782 11.5787 44.4115 10.8466 43.3293 10.6127C43.3232 10.6127 43.3172 10.6127 43.3112 10.6097C43.266 10.6006 43.2177 10.5914 43.1725 10.5823C43.1605 10.5823 43.1454 10.5793 43.1333 10.5763C43.0941 10.5702 43.0549 10.5641 43.0158 10.5611C43.0007 10.558 42.9856 10.555 42.9705 10.555C42.9344 10.552 42.8952 10.5489 42.859 10.5459C42.8439 10.5428 42.8288 10.5428 42.8168 10.5398C42.7655 10.5398 42.7173 10.5368 42.6691 10.5368C42.5907 10.5368 42.5123 10.5368 42.4369 10.5398C42.3947 10.5398 42.3525 10.5428 42.3073 10.5459C42.2772 10.5489 42.241 10.5489 42.2109 10.5489C42.1506 10.555 42.0933 10.558 42.036 10.5641C42.0209 10.5641 42.0028 10.5641 41.9878 10.5671C41.9215 10.5732 41.8551 10.5793 41.7918 10.5884C41.7828 10.5884 41.7768 10.5884 41.7707 10.5884C41.7014 10.5975 41.6351 10.6066 41.5687 10.6188C41.5657 10.6188 41.5597 10.6188 41.5567 10.6188C41.4904 10.6279 41.424 10.64 41.3607 10.6522C41.3577 10.6522 41.3547 10.6552 41.3487 10.6552C41.213 10.6795 41.0804 10.7099 40.9538 10.7433C40.9507 10.7433 40.9508 10.7464 40.9508 10.7464C40.8874 10.7616 40.8241 10.7798 40.7608 10.798C40.7005 10.8162 40.6433 10.8375 40.589 10.8557C40.583 10.8557 40.58 10.8588 40.5739 10.8588C40.5197 10.88 40.4654 10.8983 40.4111 10.9195C40.4051 10.9226 40.3991 10.9256 40.3961 10.9256C40.3418 10.9469 40.2936 10.9681 40.2423 10.9924C40.2363 10.9955 40.2272 10.9955 40.2212 11.0015C40.176 11.0198 40.1278 11.0441 40.0856 11.0653C40.0735 11.0714 40.0645 11.0744 40.0554 11.0805C40.0102 11.1018 39.968 11.123 39.9258 11.1473C39.9137 11.1534 39.9047 11.1595 39.8926 11.1656C39.8534 11.1868 39.8142 11.2111 39.7751 11.2354C39.763 11.2415 39.7509 11.2476 39.7389 11.2567C39.6876 11.2871 39.6394 11.3205 39.5912 11.3509C39.5339 11.3934 39.4766 11.4329 39.4254 11.4754C39.4193 11.4754 39.4163 11.4785 39.4163 11.4815C39.1601 11.6729 38.94 11.8764 38.7591 12.1133C38.7531 12.1225 38.7441 12.1316 38.738 12.1407C38.7169 12.1741 38.6928 12.2045 38.6717 12.2348C38.6566 12.2592 38.6416 12.2835 38.6265 12.3078C38.6144 12.326 38.6024 12.3442 38.5933 12.3624C38.5692 12.4019 38.5481 12.4414 38.527 12.4839C38.524 12.49 38.521 12.4931 38.518 12.4991C38.3552 12.8242 38.2617 13.1978 38.2255 13.6504C38.2255 13.6565 38.2255 13.6626 38.2225 13.6687C38.2195 13.7476 38.2135 13.8266 38.2105 13.9117C38.2105 13.9755 38.2105 14.0393 38.2135 14.103C38.2135 14.1122 38.2135 14.1213 38.2135 14.1304C38.2466 14.9992 38.6385 15.6523 39.347 16.1596C39.353 16.1626 39.359 16.1687 39.3651 16.1717C39.3952 16.193 39.4254 16.2143 39.4555 16.2355C39.4766 16.2507 39.5007 16.2629 39.5218 16.2781C39.5279 16.2841 39.5369 16.2872 39.5429 16.2902C40.2423 16.7367 41.0985 16.9919 41.8129 17.1954C42.1626 17.2987 42.4761 17.3868 42.5696 17.4142C42.5907 17.4202 42.6118 17.4263 42.6299 17.4354C43.058 17.5782 43.3865 17.6936 43.6579 17.803C43.679 17.8091 43.6971 17.8182 43.7182 17.8243C43.7242 17.8273 43.7332 17.8303 43.7423 17.8364C43.896 17.9002 44.0467 17.967 44.1914 18.0399C44.312 18.1007 44.4236 18.1645 44.5351 18.2313C44.8215 18.4105 45.0416 18.6049 45.1893 18.8176C45.1953 18.8237 45.1983 18.8297 45.2013 18.8358C45.2164 18.854 45.2285 18.8723 45.2375 18.8935C45.2466 18.9057 45.2526 18.9148 45.2586 18.9269C45.2677 18.9421 45.2767 18.9573 45.2827 18.9725C45.2918 18.9877 45.2978 19.0059 45.3069 19.0211C45.3129 19.0333 45.3189 19.0454 45.3249 19.0576C45.331 19.0758 45.34 19.094 45.346 19.1153C45.3491 19.1244 45.3551 19.1365 45.3581 19.1487C45.3641 19.17 45.3702 19.1912 45.3762 19.2125C45.3792 19.2216 45.3822 19.2307 45.3852 19.2429C45.3913 19.2641 45.3973 19.2884 45.4003 19.3097C45.4033 19.3188 45.4063 19.331 45.4063 19.3401C45.4094 19.3644 45.4124 19.3887 45.4154 19.413C45.4184 19.4221 45.4184 19.4312 45.4184 19.4403C45.4214 19.4768 45.4244 19.5102 45.4244 19.5466C45.4244 19.6013 45.4214 19.653 45.4184 19.7046C45.4184 19.7198 45.4154 19.735 45.4154 19.7502C45.4124 19.7897 45.4063 19.8291 45.3973 19.8686C45.3973 19.8808 45.3943 19.8929 45.3913 19.9051C45.3732 20.0114 45.343 20.1117 45.3038 20.2119C45.3008 20.2149 45.3008 20.218 45.3008 20.221C45.2797 20.2666 45.2586 20.3152 45.2345 20.3577C45.2315 20.3638 45.2315 20.3668 45.2285 20.3699C45.1772 20.4671 45.1169 20.5612 45.0416 20.6493C45.0054 20.6949 44.9662 20.7374 44.927 20.78C44.924 20.78 44.924 20.78 44.924 20.783C44.8426 20.865 44.7522 20.941 44.6587 21.0108C44.6557 21.0139 44.6527 21.0139 44.6527 21.0169C44.6075 21.0473 44.5622 21.0807 44.517 21.108C44.511 21.1141 44.505 21.1171 44.4989 21.1202C44.4206 21.1688 44.3362 21.2174 44.2517 21.2599C44.2216 21.2751 44.1915 21.2903 44.1583 21.3055C44.1251 21.3207 44.089 21.3389 44.0528 21.3541C44.0226 21.3662 43.9955 21.3784 43.9654 21.3905C43.884 21.4209 43.8056 21.4513 43.7242 21.4786C43.7121 21.4817 43.7001 21.4847 43.688 21.4908C43.6398 21.506 43.5915 21.5181 43.5433 21.5333C43.5313 21.5363 43.5162 21.5424 43.5041 21.5455C43.3443 21.588 43.1876 21.6214 43.0399 21.6457C43.0369 21.6457 43.0338 21.6457 43.0308 21.6457C42.9555 21.6579 42.8831 21.667 42.8138 21.6761C42.7866 21.6791 42.7625 21.6822 42.7354 21.6822C42.7113 21.6852 42.6872 21.6852 42.66 21.6882C42.6028 21.6913 42.5425 21.6943 42.4882 21.6943C42.3767 21.6943 42.2681 21.6913 42.1626 21.6852C42.1204 21.6852 42.0782 21.6822 42.036 21.6791C41.9787 21.673 41.9184 21.67 41.8642 21.6639C41.8129 21.6609 41.7587 21.6548 41.7104 21.6487C41.6652 21.6427 41.623 21.6366 41.5808 21.6305C41.4873 21.6153 41.3999 21.6032 41.3125 21.5849C41.2733 21.5758 41.2311 21.5698 41.1919 21.5606C41.1467 21.5485 41.1015 21.5394 41.0563 21.5272C41.005 21.5151 40.9568 21.5029 40.9085 21.4877C40.8754 21.4786 40.8392 21.4695 40.8091 21.4604C40.7277 21.4361 40.6463 21.4088 40.5679 21.3784C40.5498 21.3723 40.5317 21.3662 40.5136 21.3602C40.3388 21.2933 40.167 21.2204 39.9981 21.1354C39.9921 21.1323 39.9831 21.1263 39.974 21.1232C39.8655 21.0685 39.6816 20.9653 39.5068 20.865C39.4917 20.8559 39.4736 20.8468 39.4585 20.8377C39.3349 20.7648 39.2294 20.704 39.1299 20.6554C39.1209 20.6493 39.1149 20.6463 39.1088 20.6433C39.1028 20.6402 39.0968 20.6372 39.0938 20.6372C39.0666 20.625 39.0455 20.6129 39.0214 20.6038C39.0124 20.6007 39.0063 20.5977 39.0003 20.5947C38.937 20.5704 38.8797 20.5521 38.8224 20.546C38.8043 20.543 38.7863 20.543 38.7682 20.543C38.7621 20.54 38.7561 20.54 38.7501 20.54C38.6355 20.54 38.5361 20.5795 38.4426 20.6676C38.4215 20.6858 38.4034 20.704 38.3853 20.7253C38.3823 20.7313 38.3763 20.7374 38.3702 20.7435C38.3582 20.7587 38.3491 20.7708 38.3401 20.783C38.3341 20.7921 38.328 20.8012 38.325 20.8073C38.316 20.8194 38.3069 20.8316 38.3009 20.8437C38.2949 20.8529 38.2919 20.862 38.2889 20.8711C38.2828 20.8832 38.2768 20.8954 38.2708 20.9075C38.2678 20.9167 38.2647 20.9227 38.2617 20.9318C38.2557 20.947 38.2527 20.9592 38.2497 20.9713C38.2466 20.9804 38.2436 20.9865 38.2436 20.9956C38.2406 21.0108 38.2376 21.026 38.2346 21.0412C38.2346 21.0473 38.2316 21.0533 38.2316 21.0594C38.2286 21.0807 38.2286 21.0989 38.2286 21.1171C38.2286 21.1202 38.2286 21.1232 38.2286 21.1263C38.2286 21.1506 38.2316 21.1718 38.2376 21.1961C38.2376 21.1992 38.2376 21.2052 38.2376 21.2083C38.2436 21.2265 38.2466 21.2478 38.2527 21.266C38.2557 21.2751 38.2587 21.2842 38.2617 21.2933C38.2678 21.3085 38.2708 21.3267 38.2798 21.3419C38.2828 21.351 38.2858 21.3571 38.2889 21.3632C38.328 21.4543 38.3913 21.5485 38.4727 21.6396C38.5602 21.7368 38.6717 21.834 38.8013 21.9343C38.8044 21.9343 38.8044 21.9343 38.8044 21.9373C38.8405 21.9616 38.8767 21.989 38.9159 22.0163C38.9249 22.0224 38.931 22.0285 38.94 22.0315C39.0455 22.1044 39.1571 22.1743 39.2837 22.2472C39.3138 22.2654 39.344 22.2836 39.3741 22.2988C39.4043 22.317 39.4344 22.3322 39.4645 22.3474C39.5007 22.3687 39.5429 22.3899 39.5821 22.4112C39.6092 22.4234 39.6334 22.4385 39.6605 22.4507C39.7208 22.4811 39.7841 22.5115 39.8474 22.5418C39.8564 22.5479 39.8625 22.5509 39.8715 22.554C39.9409 22.5874 40.0102 22.6178 40.0795 22.6451C40.1097 22.6573 40.1368 22.6694 40.167 22.6816C40.173 22.6846 40.179 22.6876 40.185 22.6876C40.8302 22.9428 41.626 23.1129 42.3284 23.1433C42.3797 23.1463 42.4339 23.1494 42.4852 23.1494H42.4882C42.5123 23.1494 42.5334 23.1494 42.5575 23.1463C42.6118 23.1463 42.6661 23.1463 42.7203 23.1463C42.7264 23.1463 42.7324 23.1463 42.7384 23.1433C43.8809 23.1068 44.8185 22.8091 45.6174 22.2198C45.6174 22.2168 45.6174 22.2168 45.6174 22.2168C46.5037 21.5424 46.992 20.5916 46.992 19.5436C46.992 19.4768 46.989 19.4099 46.986 19.3462C46.986 19.3218 46.983 19.2975 46.983 19.2763Z" fill="var(--fill-0, #29B5E8)"/>
<path id="Path10" d="M54.3537 10.561C54.3507 10.561 54.3477 10.561 54.3447 10.561C52.9399 10.561 51.6134 11.1382 50.6548 12.1588V11.29C50.6548 10.8891 50.3473 10.561 49.9584 10.561C49.9313 10.561 49.9072 10.564 49.883 10.564C49.7112 10.5823 49.5605 10.6582 49.4489 10.7706C49.4459 10.7706 49.4459 10.7706 49.4429 10.7736C49.4339 10.7858 49.4218 10.7979 49.4128 10.8101C49.4067 10.8131 49.4007 10.8192 49.3977 10.8253C49.3886 10.8344 49.3826 10.8435 49.3766 10.8526C49.3706 10.8617 49.3645 10.8708 49.3555 10.88C49.3525 10.886 49.3495 10.8921 49.3464 10.8982C49.3374 10.9134 49.3284 10.9286 49.3193 10.9407C49.3193 10.9437 49.3193 10.9468 49.3163 10.9498C49.3072 10.968 49.2982 10.9863 49.2892 11.0045C49.2741 11.0501 49.259 11.0956 49.25 11.1412C49.25 11.1442 49.25 11.1473 49.247 11.1473C49.2439 11.1716 49.2409 11.1928 49.2379 11.2141C49.2379 11.2384 49.2349 11.2627 49.2349 11.29V22.5721L49.2259 22.6207L49.262 22.6511C49.262 22.6663 49.265 22.6876 49.2741 22.7088C49.2741 22.7119 49.2771 22.7179 49.2771 22.721C49.2831 22.7362 49.2922 22.7544 49.3072 22.7696C49.4007 22.9488 49.5725 23.0855 49.7745 23.1463L49.7896 23.1493H49.9584C49.9855 23.1493 50.0127 23.1493 50.0398 23.1463C50.0579 23.1432 50.076 23.1371 50.0941 23.1341C50.1031 23.1341 50.1091 23.1341 50.1182 23.1311C50.1423 23.125 50.1664 23.1189 50.1905 23.1098C50.1905 23.1098 50.1905 23.1098 50.1935 23.1098C50.3202 23.0642 50.4287 22.9853 50.501 22.8789C50.504 22.8759 50.5071 22.8729 50.5101 22.8698C50.5583 22.8182 50.5854 22.7635 50.6126 22.6876C50.6156 22.6785 50.6186 22.6724 50.6186 22.6663C50.6216 22.6633 50.6216 22.6633 50.6216 22.6602C50.6337 22.6238 50.6427 22.5873 50.6518 22.5509L50.6548 22.5387V15.7099C50.703 13.6747 52.355 12.0191 54.3386 12.0161C54.3416 12.0161 54.3416 12.0161 54.3447 12.0161C56.3644 12.0161 58.0074 13.6716 58.0074 15.7069V22.4202C58.0074 22.4476 58.0104 22.4719 58.0134 22.4962C58.0285 22.6724 58.1039 22.8243 58.2154 22.9367C58.2154 22.9367 58.2184 22.9367 58.2184 22.9397C58.2305 22.9518 58.2425 22.961 58.2546 22.9731C58.2606 22.9792 58.2636 22.9822 58.2697 22.9853C58.2787 22.9944 58.2878 23.0005 58.2968 23.0065C58.3058 23.0156 58.3149 23.0217 58.3239 23.0278C58.333 23.0308 58.339 23.0339 58.345 23.0399C58.3571 23.0491 58.3722 23.0551 58.3842 23.0642C58.3872 23.0642 58.3903 23.0673 58.3963 23.0673C58.4114 23.0764 58.4294 23.0855 58.4475 23.0946H58.4505C58.4928 23.1128 58.538 23.125 58.5832 23.1341C58.5892 23.1341 58.5922 23.1371 58.5953 23.1371C58.6164 23.1402 58.6344 23.1432 58.6555 23.1463C58.6797 23.1493 58.7038 23.1493 58.7309 23.1493C58.755 23.1493 58.7791 23.1493 58.8033 23.1463C58.8244 23.1432 58.8455 23.1402 58.8636 23.1371C58.8666 23.1371 58.8726 23.1341 58.8756 23.1341C58.9238 23.125 58.966 23.1128 59.0113 23.0946C59.0294 23.0855 59.0474 23.0764 59.0655 23.0673C59.0685 23.0673 59.0716 23.0642 59.0746 23.0642C59.0896 23.0551 59.1017 23.0491 59.1168 23.0399C59.1228 23.0339 59.1288 23.0308 59.1349 23.0278C59.1439 23.0217 59.153 23.0156 59.162 23.0065C59.171 23.0005 59.1831 22.9944 59.1921 22.9853C59.1952 22.9822 59.2012 22.9792 59.2042 22.9731C59.2163 22.961 59.2313 22.9518 59.2434 22.9397C59.2434 22.9367 59.2434 22.9367 59.2434 22.9367C59.3579 22.8243 59.4333 22.6724 59.4484 22.4962C59.4514 22.4719 59.4514 22.4476 59.4514 22.4202V15.7069C59.4514 12.8727 57.1663 10.5671 54.3537 10.561Z" fill="var(--fill-0, #29B5E8)"/>
<path id="Combined-Shape4" d="M67.3587 10.5368C70.6325 10.5368 73.2944 13.3649 73.2944 16.8431C73.2944 20.3213 70.6325 23.1494 67.3587 23.1494C67.2562 23.1494 67.1567 23.1463 67.0572 23.1403C67.0421 23.1403 67.0301 23.1403 67.015 23.1372C66.9276 23.1342 66.8402 23.1251 66.7558 23.116C66.7527 23.116 66.7497 23.116 66.7467 23.116C65.4535 22.9732 64.2446 22.3778 63.2829 21.4027C63.2437 21.3632 63.2015 21.3237 63.1654 21.2812C63.1624 21.2812 63.1624 21.2781 63.1593 21.2781C63.1382 21.2569 63.1201 21.2326 63.099 21.2083C63.0538 21.1597 63.0086 21.108 62.9634 21.0564C62.9272 21.0169 62.8941 20.9713 62.8579 20.9288C62.8338 20.8954 62.8066 20.862 62.7795 20.8286C62.7252 20.7617 62.674 20.6919 62.6258 20.622C62.6197 20.6129 62.6137 20.6038 62.6077 20.5947C62.0198 19.7654 61.637 18.8085 61.4923 17.7939C61.4772 17.6997 61.4681 17.6055 61.4591 17.5114C61.4561 17.5023 61.4561 17.4901 61.4531 17.478C61.444 17.3899 61.438 17.3048 61.435 17.2167C61.432 17.1985 61.432 17.1803 61.432 17.159C61.4259 17.0557 61.4229 16.9494 61.4229 16.8431C61.4229 16.7368 61.4259 16.6304 61.432 16.5271C61.432 16.5059 61.432 16.4877 61.435 16.4694C61.438 16.3813 61.444 16.2932 61.4531 16.2082C61.4561 16.196 61.4561 16.1839 61.4591 16.1748C61.4681 16.0806 61.4772 15.9864 61.4923 15.8923C61.637 14.8777 62.0198 13.9208 62.6077 13.0915C62.6107 13.0824 62.6167 13.0733 62.6227 13.0672C62.674 12.9943 62.7252 12.9244 62.7795 12.8545C62.8036 12.8242 62.8307 12.7938 62.8549 12.7604C62.891 12.7148 62.9272 12.6723 62.9634 12.6267C63.0056 12.5781 63.0478 12.5325 63.093 12.4839C63.1141 12.4596 63.1382 12.4323 63.1593 12.408C63.1624 12.408 63.1624 12.405 63.1654 12.405C63.1985 12.3655 63.2377 12.329 63.2739 12.2926C64.2356 11.3144 65.4474 10.713 66.7467 10.5702C66.7497 10.5702 66.7527 10.5702 66.7558 10.5702C66.8402 10.5611 66.9276 10.555 67.015 10.5489C67.0301 10.5489 67.0421 10.5459 67.0572 10.5459C67.1567 10.5398 67.2562 10.5368 67.3587 10.5368ZM71.8263 16.3479C71.8263 16.3449 71.8263 16.3449 71.8263 16.3418C71.7208 15.2483 71.2747 14.261 70.6084 13.4985C70.5783 13.4651 70.5512 13.4317 70.521 13.3983C70.5029 13.3801 70.4848 13.3618 70.4667 13.3436C70.4306 13.3072 70.3974 13.2707 70.3612 13.2343C70.3281 13.2008 70.2919 13.1705 70.2587 13.1401C70.2376 13.1219 70.2195 13.1006 70.1984 13.0824C70.1442 13.0338 70.0899 12.9882 70.0357 12.9426C70.0357 12.9426 70.0326 12.9426 70.0326 12.9396C69.4026 12.4262 68.6459 12.089 67.832 11.9949C67.8229 11.9949 67.8169 11.9918 67.8109 11.9918C67.7476 11.9827 67.6873 11.9797 67.624 11.9766C67.6089 11.9736 67.5968 11.9736 67.5848 11.9736C67.5094 11.9675 67.434 11.9675 67.3587 11.9675C67.2833 11.9675 67.208 11.9675 67.1326 11.9736C67.1205 11.9736 67.1085 11.9736 67.0934 11.9766C67.0301 11.9797 66.9698 11.9827 66.9065 11.9918C66.9005 11.9918 66.8944 11.9949 66.8854 11.9949C66.0714 12.089 65.3148 12.4262 64.6847 12.9396C64.6847 12.9426 64.6817 12.9426 64.6817 12.9426C64.6274 12.9882 64.5732 13.0338 64.5189 13.0824C64.4978 13.1006 64.4797 13.1188 64.4586 13.1371C64.4255 13.1705 64.3893 13.2008 64.3561 13.2343C64.323 13.2677 64.2898 13.3041 64.2536 13.3406C64.2356 13.3588 64.2175 13.377 64.1964 13.3983C64.1692 13.4287 64.1421 13.4621 64.112 13.4955C63.4457 14.258 62.9965 15.2483 62.891 16.3418C62.891 16.3449 62.891 16.3449 62.891 16.3479C62.885 16.4178 62.879 16.4877 62.876 16.5606C62.876 16.5727 62.8729 16.5849 62.8729 16.597C62.8699 16.679 62.8669 16.7611 62.8669 16.8431C62.8669 19.5132 64.9048 21.6943 67.3587 21.6943C69.8126 21.6943 71.8504 19.5132 71.8504 16.8431C71.8504 16.7611 71.8474 16.679 71.8444 16.597C71.8444 16.5849 71.8414 16.5727 71.8414 16.5606C71.8384 16.4877 71.8324 16.4178 71.8263 16.3479Z" fill="var(--fill-0, #29B5E8)"/>
<path id="Path11" d="M90.7379 10.8482C90.7319 10.8422 90.7289 10.8361 90.7228 10.83C90.6505 10.7389 90.554 10.666 90.4455 10.6204C90.4455 10.6204 90.4455 10.6204 90.4425 10.6204C90.4304 10.6113 90.4154 10.6082 90.4033 10.6022C90.3973 10.6022 90.3912 10.5991 90.3822 10.5961C90.2857 10.5627 90.1802 10.5566 90.0777 10.5718H90.0747C89.8667 10.6052 89.6677 10.7328 89.5562 10.9211C89.5562 10.9211 89.5562 10.9211 89.5532 10.9211C89.5381 10.9515 89.52 10.9819 89.508 11.0123L89.5049 11.0153V11.0183L86.0502 20.5477L83.3371 14.0409C83.3099 13.9801 83.2738 13.9254 83.2316 13.8738C83.0838 13.7006 82.8577 13.5913 82.6256 13.5913C82.5894 13.5913 82.5563 13.5913 82.5201 13.6004C82.5171 13.6004 82.5141 13.6004 82.508 13.6004C82.2669 13.6429 82.0408 13.813 81.9383 14.0409C81.9383 14.0439 81.9383 14.0439 81.9383 14.0439L79.2251 20.5507L77.9108 16.951L75.7463 11.0183C75.7342 10.9849 75.7222 10.9576 75.7071 10.9272C75.7041 10.9242 75.7041 10.9242 75.7011 10.9211C75.6347 10.7966 75.5292 10.6994 75.4026 10.6386C75.4026 10.6386 75.3996 10.6386 75.3996 10.6356C75.3363 10.6082 75.27 10.587 75.2006 10.5748C75.1946 10.5748 75.1916 10.5748 75.1856 10.5718C75.1524 10.5688 75.1162 10.5657 75.0831 10.5657H75.0801C75.071 10.5657 75.065 10.5657 75.059 10.5657C75.0439 10.5657 75.0288 10.5657 75.0137 10.5688C75.0047 10.5688 74.9926 10.5718 74.9836 10.5718C74.9685 10.5748 74.9565 10.5748 74.9444 10.5779C74.9354 10.5809 74.9263 10.5809 74.9173 10.5839C74.9022 10.587 74.8871 10.59 74.872 10.5961C74.866 10.5991 74.86 10.5991 74.854 10.6022C74.8389 10.6082 74.8238 10.6113 74.8087 10.6204C74.8087 10.6204 74.8087 10.6204 74.8057 10.6204C74.6821 10.6751 74.5826 10.7692 74.5103 10.8786C74.5073 10.8847 74.5043 10.8877 74.5013 10.8938C74.4982 10.8999 74.4952 10.9059 74.4922 10.912C74.4379 11.0032 74.4048 11.1095 74.3927 11.2158C74.3807 11.3282 74.3957 11.4467 74.441 11.556L76.9461 18.3392L78.5529 22.6893C78.5529 22.6893 78.5529 22.6893 78.5529 22.6923C78.6192 22.8563 78.7157 22.9687 78.8483 23.0295C78.8513 23.0325 78.8574 23.0356 78.8604 23.0386C78.8634 23.0416 78.8664 23.0447 78.8724 23.0477C78.8724 23.0507 78.8754 23.0507 78.8785 23.0538C78.8845 23.0568 78.8875 23.0599 78.8935 23.0659C78.8965 23.0659 78.8965 23.0659 78.8996 23.0659C78.9237 23.0811 78.9538 23.0933 78.993 23.0963C78.996 23.0963 78.999 23.0993 79.0021 23.0993C79.0141 23.1024 79.0262 23.1085 79.0382 23.1115C79.0443 23.1115 79.0503 23.1145 79.0563 23.1145C79.1317 23.1388 79.1799 23.148 79.2402 23.148C79.2734 23.148 79.3035 23.1449 79.3367 23.1388C79.3608 23.1358 79.3879 23.1297 79.412 23.1206C79.4181 23.1176 79.4241 23.1176 79.4301 23.1145C79.4542 23.1085 79.4784 23.0993 79.5025 23.0872C79.5115 23.0842 79.5206 23.0811 79.5296 23.075C79.5447 23.0659 79.5628 23.0568 79.5809 23.0477C79.5929 23.0386 79.608 23.0295 79.6231 23.0204C79.6321 23.0143 79.6412 23.0052 79.6502 22.9991C79.6713 22.9839 79.6894 22.9687 79.7105 22.9505C79.7135 22.9475 79.7165 22.9444 79.7195 22.9383C79.7406 22.9171 79.7617 22.8958 79.7828 22.8715C79.7828 22.8685 79.7859 22.8654 79.7889 22.8624C79.807 22.8381 79.825 22.8108 79.8401 22.7834C79.8552 22.753 79.8703 22.7196 79.8823 22.6862L79.8853 22.6771L79.8944 22.665L79.9034 22.6437L82.6256 16.0944L85.3719 22.668C85.393 22.7348 85.4262 22.7956 85.4714 22.8533C85.4774 22.8624 85.4835 22.8685 85.4895 22.8776C85.5046 22.8958 85.5196 22.914 85.5377 22.9323C85.5468 22.9383 85.5558 22.9475 85.5649 22.9535C85.5799 22.9687 85.598 22.9839 85.6161 22.9991C85.6251 23.0052 85.6312 23.0113 85.6402 23.0143C85.6613 23.0295 85.6824 23.0447 85.7035 23.0568C85.7096 23.0599 85.7156 23.0629 85.7216 23.0659C85.7457 23.0781 85.7668 23.0902 85.794 23.0993C85.8 23.1024 85.806 23.1054 85.8151 23.1054C85.8362 23.1145 85.8573 23.1236 85.8814 23.1297C85.9115 23.1358 85.9417 23.1419 85.9688 23.148H86.0593C86.0954 23.148 86.1286 23.1449 86.1617 23.1388C86.1708 23.1388 86.1768 23.1388 86.1859 23.1358C86.216 23.1297 86.2431 23.1236 86.2703 23.1145C86.2793 23.1115 86.2853 23.1085 86.2914 23.1054C86.3215 23.0963 86.3517 23.0811 86.3788 23.0659C86.3818 23.0659 86.3848 23.0629 86.3878 23.0629C86.421 23.0416 86.4542 23.0204 86.4813 22.9991C86.6019 22.908 86.6893 22.7895 86.7496 22.6437V22.6407L88.4468 18.0355L90.8344 11.556C90.9278 11.3282 90.8917 11.0791 90.762 10.8847C90.756 10.8725 90.747 10.8604 90.7379 10.8482Z" fill="var(--fill-0, #29B5E8)"/>
<path id="Path12" d="M129.077 11.0531C129.077 11.041 129.074 11.0258 129.071 11.0136C129.071 11.0045 129.068 10.9954 129.065 10.9863C129.062 10.9711 129.059 10.9559 129.056 10.9438C129.053 10.9347 129.05 10.9256 129.047 10.9195C129.044 10.9013 129.038 10.8861 129.028 10.8709C129.028 10.8648 129.025 10.8618 129.022 10.8557C129.013 10.8344 129.004 10.8162 128.992 10.798C128.992 10.7949 128.992 10.7949 128.992 10.7949C128.956 10.7311 128.911 10.6765 128.86 10.6279C128.857 10.6248 128.857 10.6248 128.857 10.6248C128.854 10.6218 128.854 10.6218 128.854 10.6218C128.597 10.3636 128.236 10.3302 127.952 10.5307C127.943 10.5367 127.937 10.5428 127.928 10.5458C127.916 10.555 127.904 10.5641 127.892 10.5732C127.874 10.5914 127.856 10.6066 127.838 10.6248C127.838 10.6248 127.835 10.6248 127.835 10.6279L120.771 17.566V5.96192C120.771 5.93762 120.771 5.91332 120.768 5.88902C120.741 5.6217 120.563 5.39994 120.322 5.29666C120.319 5.29666 120.319 5.29362 120.316 5.29362C120.301 5.28755 120.286 5.28147 120.271 5.27844C120.265 5.2754 120.256 5.27236 120.247 5.26932C120.235 5.26629 120.223 5.26325 120.208 5.26021C120.199 5.25717 120.187 5.25413 120.175 5.2511C120.163 5.24806 120.147 5.24502 120.135 5.24502C120.123 5.24198 120.114 5.24198 120.102 5.23894C120.075 5.23591 120.051 5.23591 120.027 5.23591C119.632 5.23591 119.303 5.56702 119.303 5.96192V22.4203C119.303 22.8182 119.632 23.1493 120.027 23.1493C120.051 23.1493 120.078 23.1493 120.102 23.1463C120.105 23.1463 120.108 23.1433 120.114 23.1433C120.135 23.1402 120.156 23.1402 120.175 23.1341C120.181 23.1341 120.187 23.1311 120.193 23.1311C120.211 23.125 120.229 23.122 120.247 23.1159C120.25 23.1159 120.253 23.1129 120.256 23.1129C120.533 23.0248 120.738 22.7848 120.768 22.4962C120.771 22.4719 120.771 22.4476 120.771 22.4203V19.6438L123.15 17.2501L127.771 22.8699C127.802 22.9185 127.835 22.961 127.877 22.9944C127.886 23.0035 127.892 23.0096 127.901 23.0157C127.913 23.0248 127.925 23.0339 127.937 23.04C127.952 23.0521 127.967 23.0582 127.982 23.0673C127.988 23.0704 127.997 23.0764 128.003 23.0795C128.025 23.0886 128.043 23.0947 128.064 23.1038C128.07 23.1068 128.076 23.1068 128.079 23.1098C128.103 23.1159 128.124 23.122 128.148 23.1281C128.151 23.1281 128.157 23.1311 128.163 23.1311C128.187 23.1372 128.208 23.1402 128.236 23.1433C128.242 23.1433 128.248 23.1433 128.254 23.1463C128.284 23.1463 128.314 23.1493 128.347 23.1493C128.395 23.1493 128.441 23.1463 128.483 23.1402C128.486 23.1402 128.486 23.1402 128.486 23.1402C128.57 23.1281 128.649 23.1007 128.721 23.0643C128.724 23.0643 128.724 23.0612 128.724 23.0612C128.757 23.043 128.79 23.0218 128.823 22.9975L128.833 22.9883C129.107 22.7119 129.149 22.3352 128.95 22.0223C128.932 21.995 128.914 21.9677 128.893 21.9403L124.199 16.196L128.86 11.6576C128.983 11.5301 129.059 11.3751 129.077 11.2081C129.077 11.205 129.077 11.202 129.08 11.1989C129.08 11.1838 129.08 11.1655 129.08 11.1503C129.08 11.1412 129.083 11.1321 129.083 11.126C129.083 11.12 129.083 11.1169 129.083 11.1139C129.083 11.1017 129.08 11.0926 129.08 11.0805C129.08 11.0714 129.077 11.0623 129.077 11.0531Z" fill="var(--fill-0, #29B5E8)"/>
</g>
</svg>
